<svg width="100" height="100" viewBox="0 0 100 100" fill="none" xmlns="http://www.w3.org/2000/svg">
<path d="M31.1992 94C30.5143 94 29.8493 93.7296 29.3563 93.2366L23.5774 87.4578L22.7407 84.5357L19.7458 83.6262L16.0374 79.9177L15.0509 76.8457L12.2152 76.0953L6.76359 70.6439C5.99219 69.8724 5.78261 68.7021 6.23878 67.7111C8.38789 63.0408 11.364 62.114 13.9898 61.2966C15.8026 60.7322 17.368 60.2447 19.1402 58.4727C21.3074 56.3055 21.9186 54.8849 22.6264 53.2401C23.4299 51.3727 24.3405 49.256 27.2148 46.3818C30.0891 43.5075 32.2059 42.5969 34.0733 41.7933C35.7181 41.0857 37.1387 40.4744 39.3057 38.3074C41.4729 36.1402 42.0839 34.7197 42.7919 33.0747C43.5952 31.2073 44.506 29.0905 47.3803 26.2162C50.2548 23.3418 52.3715 22.431 54.2391 21.6275C55.8841 20.9197 57.3049 20.3083 59.4719 18.1411C61.2441 16.3689 61.7317 14.8032 62.2962 12.9904C63.1138 10.3646 64.0404 7.38845 68.7108 5.23882C69.702 4.78266 70.8726 4.99206 71.6438 5.76363L77.1543 11.274L77.6732 14.2257L80.987 15.1066L84.6852 18.8048L84.9724 21.5249L88.5178 22.6375L94.2365 28.356C94.8395 28.959 95.1094 29.8186 94.9592 30.6582C94.8091 31.4975 94.2579 32.2105 93.4832 32.5669C90.9208 33.7464 90.5684 34.878 89.8662 37.1326C89.2272 39.1848 88.4318 41.7386 85.7506 44.4198C82.8763 47.2943 80.7595 48.205 78.8919 49.0086C77.2469 49.7164 75.8263 50.3277 73.6591 52.4949C71.492 54.6621 70.8808 56.0827 70.173 57.7275C69.3696 59.5951 68.4588 61.7117 65.5846 64.586C62.7103 67.4605 60.5937 68.3711 58.7261 69.1746C57.0813 69.8823 55.6606 70.4934 53.4938 72.6604C51.3266 74.8276 50.7154 76.2483 50.0076 77.8931C49.2041 79.7607 48.2935 81.8773 45.4192 84.7515C42.7382 87.4326 40.1843 88.2276 38.1322 88.8666C35.8778 89.5685 34.7463 89.9207 33.5672 92.4829C33.2106 93.2576 32.4978 93.809 31.6585 93.9592C31.5055 93.9866 31.3519 94 31.1992 94Z" fill="#FC5866"/>
<path d="M84.6846 18.8047C80.9156 21.0393 79.9716 23.7831 79.1309 26.2299C78.4916 28.0905 77.8877 29.8481 75.9203 31.8154C73.5413 34.1943 72.0173 34.8944 70.2524 35.7048C68.3127 36.5955 66.1139 37.6054 63.0738 40.6454C60.0337 43.6853 59.0241 45.8841 58.1333 47.8238C57.323 49.5886 56.6232 51.1126 54.2443 53.4914C51.8655 55.8703 50.3415 56.5701 48.5769 57.3804C46.6372 58.2712 44.4386 59.2807 41.3987 62.3207C38.3586 65.3606 37.349 67.5593 36.4582 69.4991C35.6478 71.2637 34.9482 72.7877 32.5692 75.1666C30.6022 77.1334 28.8448 77.7373 26.9842 78.3766C24.6044 79.1942 21.9444 80.1104 19.7449 83.6264L23.5764 87.4579C23.5831 87.4447 23.5906 87.4323 23.5972 87.4189C24.985 84.5759 26.2969 84.1252 28.678 83.307C30.7979 82.5789 33.4362 81.6723 36.2555 78.8529C39.2956 75.813 40.3053 73.6144 41.1961 71.6745C42.0064 69.91 42.706 68.3859 45.085 66.0071C47.4637 63.6282 48.9879 62.9284 50.7524 62.1181C52.6922 61.2273 54.8908 60.2177 57.9307 57.1778C60.9708 54.1379 61.9804 51.9393 62.8712 49.9994C63.6815 48.2347 64.3813 46.7106 66.7602 44.3318C69.1392 41.9529 70.6634 41.253 72.4281 40.4425C74.368 39.5517 76.5664 38.542 79.6067 35.5018C82.4264 32.6822 83.3328 30.0439 84.0613 27.9242C84.8796 25.5427 85.3304 24.2309 88.1738 22.8428C88.2959 22.7832 88.409 22.7128 88.5173 22.6375L84.6846 18.8047Z" fill="#FFE7CC"/>
<path d="M80.9864 15.1066L77.1538 11.2739C73.3847 13.5085 72.4409 16.2523 71.6 18.6991C70.9607 20.5597 70.3568 22.3172 68.3895 24.2847C66.0104 26.6635 64.4864 27.3637 62.7215 28.174C60.7818 29.0648 58.5832 30.0746 55.5429 33.1147C52.5029 36.1546 51.4932 38.3532 50.6024 40.2931C49.7921 42.0578 49.0921 43.5818 46.7135 45.9607C44.3348 48.3393 42.8106 49.0393 41.046 49.8496C39.1063 50.7404 36.9079 51.7501 33.8678 54.79C30.8277 57.8299 29.8181 60.0285 28.9273 61.9682C28.117 63.7329 27.4172 65.257 25.0383 67.6358C23.0713 69.6026 21.3138 70.2065 19.4533 70.8458C17.0736 71.6634 14.4136 72.5796 12.2141 76.0958L16.0455 79.9273C16.0523 79.9141 16.0598 79.9017 16.0664 79.8884C17.4541 77.0453 18.766 76.5946 21.1471 75.7764C23.267 75.0483 25.9053 74.1417 28.7247 71.3223C31.7646 68.2824 32.7744 66.0838 33.6652 64.1439C34.4755 62.3794 35.1751 60.8553 37.5542 58.4765C39.933 56.0978 41.457 55.3979 43.2216 54.5875C45.1613 53.6967 47.3599 52.6871 50.3998 49.6472C53.4399 46.6073 54.4495 44.4087 55.3403 42.4688C56.1506 40.7041 56.8506 39.18 59.2293 36.8012C61.6083 34.4223 63.1325 33.7224 64.8972 32.9119C66.8371 32.0211 69.0356 31.0113 72.0758 27.9712C74.8955 25.1515 75.802 22.5134 76.5304 20.3936C77.3487 18.0122 77.7995 16.7003 80.6427 15.3122C80.765 15.2522 80.878 15.1818 80.9864 15.1066Z" fill="#FFFAF4"/>
</svg>
