<svg width="100" height="100" viewBox="0 0 100 100" fill="none" xmlns="http://www.w3.org/2000/svg">
<path d="M72.5436 86.1288C69.1022 86.559 57.392 87.0052 56.8921 87.0052L19.299 15.1185C19.299 15.1185 58.1919 9.01963 75.0887 17.5181C75.0887 86.9053 74.2642 77.0952 72.5436 86.1288Z" fill="#E4DDC2"/>
<path d="M45.2424 49.0026C43.8185 47.8736 42.6984 46.3397 43.6904 44.9462C44.9385 43.1929 46.5395 41.0449 48.5301 40.2269C49.1518 39.9714 49.9698 39.8877 51.0351 40.1008C55.3368 40.9611 54.0463 40.1008 56.6273 40.1008C59.2083 40.1008 57.9178 43.1119 54.0463 43.1119C51.2082 43.1119 51.1002 48.4534 48.4239 49.398C47.3489 49.7774 46.1357 49.7109 45.2424 49.0026Z" fill="#395C47"/>
<path d="M60.8281 30.4981C61.8604 28.5618 63.2514 25.9755 64.268 24.1493C64.8201 23.1574 65.9969 22.719 67.0738 23.078C68.2326 23.4643 68.9069 24.6591 68.3811 25.7616C68.0401 26.4768 67.5713 27.2809 66.9514 28.0558C66.6964 28.3746 66.4473 28.6293 66.208 28.8311C65.3981 29.5137 63.9402 30.7651 63.9402 31.8243C63.9402 32.8355 62.8539 33.4747 61.97 32.9836L61.4846 32.714C60.698 32.277 60.4048 31.2922 60.8281 30.4981Z" fill="#395C47"/>
<path d="M56.5921 87.0054L14 22.1174L19.299 15.1187L56.8921 87.0054C56.7921 87.0054 56.6921 87.0054 56.5921 87.0054Z" fill="#CCC9B1"/>
<path d="M37.2697 26.3352C32.5378 25.4748 37.6998 21.6033 41.5714 20.3128C42.2883 20.0261 44.1524 19.8827 45.8731 21.6034C48.0239 23.7543 49.3144 21.1732 51.8954 20.3128C54.4764 19.4525 54.9066 21.6033 55.767 23.324C56.6273 25.0447 52.7558 28.9162 51.0351 31.067C49.3144 33.2179 48.0239 28.0559 44.5826 25.4748C41.1412 22.8938 42.0015 27.1955 37.2697 26.3352Z" fill="#395C47"/>
<path d="M56.6273 73.6539C56.6273 71.0729 51.4653 67.6315 53.1859 65.4806L59.2083 61.179C58.9215 62.6129 58.6921 65.7388 60.0686 66.7712C61.7893 68.0617 62.2195 68.0617 60.0686 71.0729C58.348 73.4818 59.9253 78.099 60.929 80.1064C60.212 80.5366 58.348 81.1388 56.6273 80.1064C54.4764 78.8159 56.6273 76.2349 56.6273 73.6539Z" fill="#395C47"/>
<path d="M69.3536 48.4097C69.3536 50.1304 67.2028 52.7114 66.7726 54.432C66.199 55.0056 64.7938 55.8087 63.7614 54.432C62.4709 52.7113 63.3313 49.7003 63.7614 48.4097C64.1916 47.1191 65.9123 44.9683 68.0631 44.108C70.214 43.2476 69.3536 46.689 69.3536 48.4097Z" fill="#395C47"/>
</svg>
