<svg width="100" height="100" viewBox="0 0 100 100" fill="none" xmlns="http://www.w3.org/2000/svg">
<g clip-path="url(#clip0)">
<path d="M31.1707 25.173C30.8068 25.587 30.2162 25.7453 29.694 25.5687C28.9306 25.3776 28.4914 24.6247 28.6826 23.8613C28.8447 23.5804 30.9721 15.5716 24.9264 12.206C24.2711 11.8276 23.9797 11.0352 24.4121 10.2863C24.7904 9.63093 25.6764 9.39352 26.3318 9.77188C32.7519 13.3537 32.5297 21.0895 31.495 24.6113C31.4805 24.8526 31.3724 25.0398 31.1707 25.173Z" fill="#41B619"/>
<path d="M56.6847 64.8684C48.4713 60.5009 43.5154 50.2749 42.842 38.9015C42.4764 33.6973 43.0903 28.3099 34.0266 25.1989C21.6823 21.0678 16.922 30.1778 16.5677 34.4669C15.0027 51.6631 23.6009 68.985 39.8405 77.6119C59.221 87.9601 79.5839 84.1841 92.3117 67.3221C92.8541 66.6035 92.2059 65.6347 91.3273 65.8309C76.8443 69.0646 69.7923 71.9156 56.6847 64.8684Z" fill="#ED1C24"/>
<path d="M45.3216 78.28C28.2395 69.1666 19.1626 50.9442 20.7855 32.7829C21.0239 30.424 22.5016 26.7835 25.596 24.4508C19.4228 25.6301 16.756 31.3302 16.42 34.5065C14.8551 51.7027 23.4533 69.0246 39.6928 77.6515C45.9798 81.0317 52.5013 82.9245 58.6271 83.3406C54.3814 82.2624 49.8298 80.6331 45.3216 78.28Z" fill="#A7080E"/>
</g>
<defs>
<clipPath id="clip0">
<rect width="100" height="100" fill="white"/>
</clipPath>
</defs>
</svg>
