<svg width="100" height="100" viewBox="0 0 100 100" fill="none" xmlns="http://www.w3.org/2000/svg">
<path d="M14.1859 56.2311C16.1267 57.2268 18.1693 57.9249 20.4113 57.752C21.5647 57.6867 22.6718 57.4091 23.7558 57.0253C23.7326 56.9192 23.7512 56.7492 23.728 56.643C24.0345 50.6528 28.9173 46.0158 34.902 45.9227C35.7457 40.1017 40.8694 35.8042 46.9698 36.242C53.0054 36.6375 57.7481 41.5589 57.9327 47.5061C63.8061 48.4328 68.2106 53.5883 67.8624 59.6424C67.6766 63.8907 65.1054 67.3989 61.543 69.1666C62.2099 70.6951 62.9601 72.0959 63.9651 73.3903C64.5996 74.2603 65.4472 75.0875 66.4384 75.5535C72.5763 73.1026 77.0331 67.2766 77.386 60.2243C77.8641 51.7062 72.1166 44.2159 64.1682 41.9326C62.8351 33.778 55.9294 27.3514 47.411 26.7894C47.411 26.7894 47.411 26.7894 47.3462 26.747C47.3462 26.747 47.3462 26.747 47.2814 26.7046C38.6981 26.1001 31.2444 31.6965 29.0663 39.5584C20.8766 40.7589 14.5112 47.522 14.0748 55.9763C14.1628 56.1249 14.2276 56.1673 14.1859 56.2311Z" fill="#348717"/>
<path d="M17.0484 57.3743C18.123 57.7127 19.2578 57.8174 20.4112 57.7521C21.5647 57.6868 22.6718 57.4092 23.7557 57.0254C23.7326 56.9193 23.7511 56.7493 23.728 56.6431C24.0344 50.6529 28.9172 46.0159 34.9019 45.9228C35.7457 40.1018 40.8693 35.8043 46.9698 36.2421C53.0054 36.6376 57.7481 41.559 57.9326 47.5062C63.806 48.4329 68.2105 53.5884 67.8624 59.6425C67.6766 63.8908 65.1053 67.399 61.543 69.1667C62.2098 70.6952 62.9601 72.096 63.9651 73.3904C69.8156 71.662 74.24 66.4521 74.5604 60.0158C74.9643 52.1775 69.2074 45.4094 61.5553 44.2302C61.32 36.5202 55.1416 30.1139 47.2439 29.5935C47.2439 29.5935 47.2439 29.5935 47.1791 29.5511C47.1791 29.5511 47.1791 29.5511 47.1142 29.5087C39.2165 28.9883 32.49 34.6048 31.4191 42.1892C23.6603 42.3058 17.3043 48.3467 16.9003 56.185C16.9929 56.6097 17.0206 56.992 17.0484 57.3743Z" fill="#41B619"/>
</svg>
