<svg width="100" height="100" viewBox="0 0 100 100" fill="none" xmlns="http://www.w3.org/2000/svg">
<path d="M31.2427 51.2404C31.2427 46.3525 34.4272 42.3956 38.233 42.3956C42.1165 42.3956 44.1359 45.499 44.5243 49.6111C46.0777 47.5939 47.0097 45.1887 47.0874 42.4732C47.1651 35.8784 41.6505 30.4473 34.7379 30.3697C27.9029 30.2921 22.3107 35.6456 22.233 42.2404C22.233 48.0594 31.2427 52.4818 31.2427 51.2404Z" fill="#6E4736"/>
<path d="M68.5243 51.5507C68.5243 46.6628 65.4952 42.6283 61.6117 42.6283C57.7282 42.6283 55.6311 45.6542 55.1651 49.7662C53.6117 47.749 52.7573 45.2662 52.7573 42.5507C52.835 35.9559 58.4272 30.6024 65.2622 30.68C72.0971 30.7576 77.6117 36.1111 77.6117 42.7835C77.534 48.4473 68.5243 52.7145 68.5243 51.5507Z" fill="#6E4736"/>
<path d="M50.3022 15H50.2159H50.1296C32.8699 15 18.9759 24.7414 18.8896 36.8966C18.8033 50.2586 26.8291 55.6035 29.5906 52.1552C30.5399 50.9483 30.281 49.1379 30.1947 46.8103C30.1947 41.3793 33.7329 38.1034 37.9615 38.1897C42.7943 38.2759 43.6572 41.5517 43.6572 46.9828C43.6572 51.5517 37.5301 74.6552 37.7027 76.8103C37.8752 78.9655 42.5354 84.8276 49.5255 85C49.5255 85 49.5255 85 49.6118 85C49.6118 85 49.6118 85 49.6981 85C56.7746 85 61.4347 79.1379 61.6936 76.9828C61.8662 74.8276 56.1705 51.6379 56.1705 47.069C56.1705 41.6379 57.1198 38.3621 61.9525 38.3621C66.1811 38.3621 69.7193 41.6379 69.6331 47.1552C69.6331 49.3966 69.2879 51.2069 70.2371 52.5C72.9124 55.9483 81.0244 50.7759 81.1107 37.4138C81.197 25.1724 67.3893 15.2586 50.3022 15Z" fill="#D1AD88"/>
</svg>
