<svg width="301" height="300" viewBox="0 0 301 300" fill="none" xmlns="http://www.w3.org/2000/svg">
<g clip-path="url(#clip0)">
<path d="M148.536 54.89C148.39 55.0556 148.154 55.1189 147.945 55.0482C147.64 54.9718 147.464 54.6706 147.54 54.3653C147.605 54.2529 148.456 51.0494 146.038 49.7031C145.776 49.5518 145.659 49.2348 145.832 48.9353C145.984 48.6731 146.338 48.5782 146.6 48.7295C149.168 50.1622 149.079 53.2565 148.665 54.6653C148.66 54.7618 148.616 54.8367 148.536 54.89Z" fill="#41B619"/>
<path d="M158.741 70.7682C155.456 69.0212 153.474 64.9308 153.204 60.3814C153.058 58.2998 153.304 56.1448 149.678 54.9004C144.74 53.248 142.836 56.892 142.694 58.6076C142.068 65.4861 145.508 72.4148 152.004 75.8656C159.293 79.758 166.931 78.6545 172.049 72.9005C172.648 72.2279 172.024 71.2813 171.147 71.4855C166.295 72.6154 163.527 73.3413 158.741 70.7682Z" fill="#ED1C24"/>
<path d="M154.196 76.1327C147.363 72.4874 143.732 65.1984 144.382 57.9339C144.477 56.9904 145.068 55.5341 146.306 54.6011C143.837 55.0728 142.77 57.3528 142.635 58.6234C142.009 65.5018 145.449 72.4306 151.945 75.8814C154.459 77.2334 157.068 77.9905 159.518 78.157C157.82 77.7257 155.999 77.074 154.196 76.1327Z" fill="#A7080E"/>
</g>
<g clip-path="url(#clip1)">
<path d="M99.9429 195.559C99.7505 195.451 99.639 195.234 99.6643 195.015C99.675 194.7 99.9325 194.465 100.247 194.476C100.371 194.516 103.681 194.676 104.49 192.029C104.583 191.741 104.869 191.56 105.198 191.667C105.486 191.76 105.653 192.086 105.56 192.374C104.698 195.186 101.654 195.748 100.19 195.639C100.094 195.653 100.012 195.627 99.9429 195.559Z" fill="#41B619"/>
<path d="M86.5592 208.869C87.5781 205.29 91.1616 202.494 95.5532 201.276C97.5579 200.696 99.7164 200.484 100.173 196.678C100.752 191.504 96.7899 190.406 95.0827 190.628C88.226 191.459 82.173 196.275 80.1618 203.35C77.8853 211.295 80.5665 218.53 87.2663 222.328C88.0495 222.772 88.8442 221.964 88.4606 221.149C86.3378 216.642 85.0474 214.088 86.5592 208.869Z" fill="#ED1C24"/>
<path d="M80.3602 205.55C82.491 198.104 88.856 193.025 96.0951 192.136C97.0376 192.031 98.5854 192.304 99.7574 193.318C98.7782 191.003 96.3251 190.438 95.0546 190.573C88.1979 191.404 82.1449 196.221 80.1336 203.296C79.3393 206.038 79.1462 208.748 79.4976 211.178C79.5629 209.427 79.8182 207.511 80.3602 205.55Z" fill="#A7080E"/>
</g>
<g clip-path="url(#clip2)">
<path d="M221.501 229.515C221.673 229.376 221.916 229.354 222.11 229.459C222.398 229.586 222.52 229.913 222.393 230.201C222.31 230.301 220.928 233.313 223.083 235.05C223.316 235.244 223.377 235.576 223.156 235.842C222.962 236.075 222.597 236.108 222.364 235.914C220.076 234.067 220.688 231.033 221.335 229.714C221.357 229.62 221.413 229.554 221.501 229.515Z" fill="#41B619"/>
<path d="M214.137 212.136C217.078 214.415 218.338 218.782 217.832 223.311C217.623 225.387 217.015 227.47 220.377 229.311C224.963 231.777 227.458 228.509 227.888 226.842C229.672 220.169 227.458 212.758 221.641 208.255C215.117 203.183 207.404 202.975 201.383 207.777C200.679 208.338 201.133 209.377 202.032 209.325C207.006 209.034 209.857 208.788 214.137 212.136Z" fill="#ED1C24"/>
<path d="M219.526 207.62C225.642 212.371 227.983 220.171 226.111 227.22C225.857 228.133 225.028 229.468 223.65 230.178C226.163 230.132 227.601 228.066 227.949 226.836C229.733 220.164 227.519 212.752 221.702 208.249C219.453 206.49 217.011 205.302 214.624 204.722C216.225 205.435 217.909 206.386 219.526 207.62Z" fill="#A7080E"/>
</g>
<defs>
<clipPath id="clip0">
<rect width="40" height="40" fill="white" transform="translate(136.067 44.8208)"/>
</clipPath>
<clipPath id="clip1">
<rect width="40" height="40" fill="white" transform="translate(107.172 181.256) rotate(77.8899)"/>
</clipPath>
<clipPath id="clip2">
<rect width="40" height="40" fill="white" transform="translate(232.081 241.553) rotate(-170.234)"/>
</clipPath>
</defs>
</svg>
