<svg width="301" height="300" viewBox="0 0 301 300" fill="none" xmlns="http://www.w3.org/2000/svg">
<path d="M163.541 65.5243C167.971 59.2474 167.533 51.3144 162.562 47.8055C157.591 44.2966 149.97 46.5405 145.539 52.8175C141.108 59.0944 141.546 67.0274 146.517 70.5363C151.488 74.0452 159.11 71.8013 163.541 65.5243Z" fill="black"/>
<path d="M163.265 53.0384C162.751 53.7853 161.024 53.4586 159.39 52.2915C157.756 51.1712 156.869 49.6307 157.383 48.8838C157.896 48.1369 159.624 48.4636 161.257 49.6307C162.891 50.7977 163.778 52.2915 163.265 53.0384Z" fill="#58595B"/>
<path d="M224.509 103.326C230.067 98.0215 231.166 90.153 226.965 85.7515C222.764 81.35 214.853 82.0824 209.295 87.3873C203.737 92.6922 202.637 100.561 206.839 104.962C211.04 109.364 218.951 108.631 224.509 103.326Z" fill="black"/>
<path d="M226.645 91.0218C225.997 91.6557 224.366 91.002 222.987 89.5419C221.6 88.1275 221.027 86.4449 221.675 85.811C222.323 85.1772 223.954 85.8308 225.333 87.291C226.711 88.7511 227.293 90.3879 226.645 91.0218Z" fill="#58595B"/>
<path d="M234.087 182.522C241.768 182.721 248.122 177.951 248.279 171.869C248.437 165.786 242.338 160.694 234.657 160.495C226.977 160.296 220.623 165.066 220.465 171.149C220.308 177.231 226.407 182.323 234.087 182.522Z" fill="black"/>
<path d="M244.317 175.359C243.411 175.346 242.724 173.729 242.787 171.722C242.811 169.741 243.6 168.148 244.506 168.16C245.412 168.172 246.1 169.79 246.037 171.797C245.973 173.804 245.224 175.371 244.317 175.359Z" fill="#58595B"/>
<path d="M195.548 232.99C202.277 236.699 210.113 235.385 213.05 230.056C215.987 224.728 212.913 217.401 206.184 213.693C199.456 209.984 191.62 211.297 188.683 216.626C185.746 221.955 188.82 229.282 195.548 232.99Z" fill="black"/>
<path d="M207.927 231.333C207.128 230.906 207.261 229.153 208.24 227.4C209.173 225.652 210.606 224.6 211.405 225.028C212.204 225.455 212.071 227.208 211.092 228.961C210.113 230.714 208.726 231.761 207.927 231.333Z" fill="#58595B"/>
<path d="M128.389 228.721C123.797 234.881 124.029 242.823 128.907 246.46C133.785 250.097 141.462 248.052 146.055 241.892C150.647 235.732 150.415 227.791 145.537 224.154C140.659 220.517 132.982 222.562 128.389 228.721Z" fill="black"/>
<path d="M128.341 241.21C128.874 240.477 130.592 240.849 132.195 242.058C133.799 243.22 134.645 244.783 134.113 245.517C133.58 246.25 131.862 245.878 130.259 244.669C128.656 243.46 127.808 241.944 128.341 241.21Z" fill="#58595B"/>
<path d="M68.1794 177.891C62.0534 182.528 60.0642 190.22 63.7365 195.071C67.4088 199.923 75.352 200.097 81.4781 195.46C87.6041 190.823 89.5933 183.131 85.921 178.279C82.2487 173.427 74.3055 173.254 68.1794 177.891Z" fill="black"/>
<path d="M64.6549 189.872C65.3708 189.316 66.9175 190.151 68.1203 191.759C69.3373 193.322 69.7152 195.059 68.9993 195.615C68.2834 196.171 66.7367 195.336 65.5339 193.728C64.331 192.12 63.939 190.428 64.6549 189.872Z" fill="#58595B"/>
<path d="M59.8796 113.896C52.197 113.991 46.0299 119 46.105 125.084C46.18 131.168 52.4688 136.023 60.1514 135.929C67.834 135.834 74.0012 130.825 73.9261 124.741C73.851 118.656 67.5622 113.801 59.8796 113.896Z" fill="black"/>
<path d="M49.9306 121.445C50.8368 121.423 51.5855 123.013 51.5991 125.021C51.6504 127.001 50.9233 128.623 50.0172 128.646C49.1111 128.668 48.3623 127.078 48.3488 125.07C48.3352 123.062 49.0245 121.467 49.9306 121.445Z" fill="#58595B"/>
<path d="M109.906 71.8602C103.598 67.4736 95.6687 67.9673 92.1947 72.9628C88.7208 77.9583 91.0182 85.564 97.3261 89.9505C103.634 94.3371 111.564 93.8434 115.038 88.8479C118.512 83.8524 116.214 76.2467 109.906 71.8602Z" fill="black"/>
<path d="M97.4225 72.224C98.173 72.7322 97.8584 74.4617 96.7028 76.1037C95.594 77.7454 94.0597 78.6431 93.3092 78.1349C92.5587 77.6266 92.8734 75.8972 94.0289 74.2551C95.1845 72.6131 96.672 71.7157 97.4225 72.224Z" fill="#58595B"/>
</svg>
