<svg width="301" height="300" viewBox="0 0 301 300" fill="none" xmlns="http://www.w3.org/2000/svg">
<path d="M249.248 178.823C247.142 179.051 245.25 179.876 243.386 180.858C241.821 181.683 239.815 182.665 238.819 184.173C238.235 185.055 238.918 185.98 239.829 186.137C241.494 186.421 243.229 185.383 244.695 184.714C246.488 183.889 248.209 183.192 250.173 182.935C252.905 182.608 251.923 178.539 249.248 178.823Z" fill="#F4E0A6"/>
<path d="M239.843 186.151C241.508 186.436 243.244 185.397 244.709 184.728C246.502 183.903 248.224 183.206 250.187 182.95C252.763 182.622 252.008 178.951 249.646 178.823C250.486 179.976 250.301 181.797 248.508 182.025C246.53 182.281 244.823 182.978 243.03 183.803C241.721 184.401 240.184 185.283 238.69 185.269C238.875 185.71 239.316 186.066 239.843 186.151Z" fill="#FFC44D"/>
<path d="M163.945 135.839C162.802 137.622 162.259 139.614 161.855 141.681C161.516 143.418 161.023 145.597 161.574 147.318C161.895 148.326 163.044 148.374 163.737 147.762C165.002 146.644 165.281 144.64 165.679 143.079C166.161 141.165 166.697 139.387 167.729 137.697C169.186 135.363 165.401 133.577 163.945 135.839Z" fill="#F4E0A6"/>
<path d="M163.757 147.76C165.022 146.642 165.301 144.638 165.699 143.077C166.181 141.163 166.717 139.385 167.749 137.695C169.108 135.483 165.776 133.769 164.195 135.529C165.619 135.597 166.922 136.883 165.975 138.423C164.935 140.124 164.407 141.891 163.926 143.805C163.571 145.2 163.295 146.95 162.347 148.105C162.806 148.237 163.36 148.117 163.757 147.76Z" fill="#FFC44D"/>
<path d="M111.003 191.205C108.885 191.206 106.915 191.825 104.957 192.602C103.313 193.256 101.213 194.018 100.062 195.411C99.3878 196.226 99.9682 197.218 100.857 197.471C102.482 197.932 104.319 197.084 105.847 196.576C107.718 195.947 109.504 195.437 111.484 195.392C114.235 195.358 113.693 191.207 111.003 191.205Z" fill="#F4E0A6"/>
<path d="M100.87 197.487C102.494 197.948 104.331 197.1 105.86 196.592C107.73 195.963 109.517 195.453 111.496 195.408C114.092 195.358 113.734 191.627 111.399 191.248C112.111 192.483 111.733 194.274 109.926 194.309C107.932 194.353 106.16 194.864 104.289 195.493C102.924 195.947 101.302 196.661 99.8178 196.487C99.9546 196.945 100.355 197.346 100.87 197.487Z" fill="#FFC44D"/>
<path d="M140.817 229.186C138.857 228.381 136.8 228.203 134.694 228.177C132.925 228.155 130.693 228.06 129.098 228.911C128.164 229.408 128.323 230.546 129.049 231.118C130.376 232.163 132.397 232.078 134.004 232.19C135.974 232.32 137.819 232.529 139.667 233.241C142.224 234.257 143.303 230.212 140.817 229.186Z" fill="#F4E0A6"/>
<path d="M129.055 231.138C130.382 232.182 132.403 232.098 134.01 232.209C135.979 232.339 137.825 232.548 139.673 233.26C142.092 234.202 143.181 230.616 141.167 229.376C141.354 230.789 140.323 232.302 138.639 231.646C136.778 230.928 134.945 230.726 132.976 230.595C131.54 230.496 129.769 230.538 128.463 229.812C128.415 230.288 128.633 230.811 129.055 231.138Z" fill="#FFC44D"/>
<path d="M137.368 169.85C135.408 169.045 133.351 168.867 131.245 168.841C129.476 168.819 127.244 168.725 125.649 169.575C124.715 170.072 124.874 171.21 125.6 171.782C126.927 172.827 128.948 172.742 130.555 172.854C132.525 172.984 134.37 173.193 136.218 173.905C138.775 174.921 139.854 170.876 137.368 169.85Z" fill="#F4E0A6"/>
<path d="M125.606 171.802C126.933 172.846 128.954 172.762 130.561 172.873C132.53 173.004 134.376 173.212 136.224 173.924C138.643 174.866 139.732 171.28 137.718 170.04C137.905 171.453 136.874 172.966 135.19 172.31C133.329 171.592 131.496 171.39 129.527 171.259C128.091 171.16 126.32 171.202 125.014 170.476C124.966 170.952 125.184 171.475 125.606 171.802Z" fill="#FFC44D"/>
<path d="M85.8323 123.308C84.0393 124.436 82.7002 126.007 81.4552 127.707C80.4103 129.135 79.0374 130.897 78.8034 132.689C78.6657 133.737 79.685 134.269 80.5721 134.011C82.1931 133.537 83.298 131.842 84.3221 130.599C85.5717 129.071 86.8135 127.69 88.4661 126.599C90.7781 125.107 88.1118 121.88 85.8323 123.308Z" fill="#F4E0A6"/>
<path d="M80.5911 134.017C82.2121 133.544 83.317 131.849 84.3411 130.605C85.5907 129.078 86.8325 127.696 88.4851 126.606C90.6564 125.182 88.3694 122.214 86.1903 123.134C87.4501 123.802 88.0822 125.52 86.5706 126.51C84.9052 127.607 83.6762 128.983 82.4266 130.51C81.512 131.621 80.5175 133.088 79.1685 133.73C79.5281 134.045 80.0805 134.172 80.5911 134.017Z" fill="#FFC44D"/>
<path d="M111.253 55.2901C109.46 56.4178 108.121 57.9891 106.876 59.6886C105.831 61.1165 104.458 62.8783 104.224 64.6705C104.086 65.7192 105.106 66.2511 105.993 65.9925C107.614 65.5186 108.719 63.824 109.743 62.5805C110.992 61.0529 112.234 59.6715 113.887 58.5806C116.199 57.0889 113.532 53.8617 111.253 55.2901Z" fill="#F4E0A6"/>
<path d="M106.012 65.9992C107.633 65.5252 108.738 63.8307 109.762 62.5872C111.011 61.0595 112.253 59.6782 113.906 58.5872C116.077 57.1642 113.79 54.1953 111.611 55.1155C112.871 55.7834 113.503 57.5015 111.991 58.492C110.326 59.5891 109.097 60.9643 107.847 62.4919C106.933 63.6029 105.938 65.0694 104.589 65.7115C104.949 66.0269 105.501 66.1532 106.012 65.9992Z" fill="#FFC44D"/>
<path d="M171.25 58.0417C170.428 56.0899 169.094 54.5142 167.618 53.0106C166.378 51.7483 164.862 50.1085 163.131 49.5875C162.119 49.282 161.429 50.2017 161.54 51.119C161.746 52.7953 163.239 54.1599 164.301 55.3717C165.606 56.852 166.768 58.301 167.577 60.1083C168.675 62.6312 172.291 60.5224 171.25 58.0417Z" fill="#F4E0A6"/>
<path d="M161.531 51.1367C161.736 52.8131 163.23 54.1776 164.291 55.3895C165.596 56.8698 166.758 58.3188 167.568 60.1261C168.62 62.4991 171.92 60.7227 171.365 58.4234C170.502 59.5585 168.704 59.9042 167.971 58.2523C167.158 56.4313 166 54.996 164.695 53.5156C163.746 52.4333 162.46 51.2146 162.045 49.7794C161.675 50.0833 161.461 50.6079 161.531 51.1367Z" fill="#FFC44D"/>
<path d="M216.245 76.7883C215.423 74.8365 214.089 73.2607 212.613 71.7572C211.373 70.4949 209.857 68.855 208.126 68.334C207.113 68.0285 206.424 68.9483 206.535 69.8655C206.741 71.5419 208.234 72.9065 209.295 74.1183C210.601 75.5986 211.763 77.0476 212.572 78.8549C213.67 81.3778 217.286 79.2689 216.245 76.7883Z" fill="#F4E0A6"/>
<path d="M206.526 69.8833C206.731 71.5597 208.224 72.9242 209.286 74.136C210.591 75.6164 211.753 77.0654 212.562 78.8727C213.615 81.2457 216.915 79.4693 216.36 77.17C215.497 78.3051 213.699 78.6508 212.966 76.9989C212.153 75.1779 210.995 73.7426 209.69 72.2622C208.741 71.1799 207.455 69.9612 207.04 68.526C206.67 68.8299 206.456 69.3545 206.526 69.8833Z" fill="#FFC44D"/>
<path d="M174.662 193.127C172.624 193.706 170.897 194.838 169.225 196.119C167.821 197.196 166.009 198.501 165.281 200.155C164.854 201.123 165.683 201.92 166.607 201.921C168.296 201.921 169.832 200.605 171.164 199.7C172.793 198.585 174.372 197.608 176.265 197.025C178.903 196.243 177.251 192.397 174.662 193.127Z" fill="#F4E0A6"/>
<path d="M166.623 201.932C168.312 201.933 169.848 200.617 171.181 199.711C172.809 198.596 174.389 197.619 176.281 197.036C178.765 196.281 177.404 192.789 175.054 193.06C176.076 194.055 176.2 195.881 174.471 196.407C172.564 196.992 170.998 197.967 169.37 199.082C168.18 199.891 166.814 201.019 165.339 201.257C165.595 201.66 166.09 201.937 166.623 201.932Z" fill="#FFC44D"/>
<path d="M186.86 244.923C184.822 245.502 183.096 246.634 181.423 247.915C180.019 248.992 178.207 250.297 177.479 251.952C177.052 252.919 177.881 253.716 178.805 253.717C180.494 253.718 182.03 252.402 183.362 251.496C184.991 250.381 186.571 249.404 188.463 248.821C191.101 248.039 189.449 244.193 186.86 244.923Z" fill="#F4E0A6"/>
<path d="M178.821 253.729C180.51 253.729 182.047 252.413 183.379 251.508C185.007 250.392 186.587 249.416 188.48 248.833C190.963 248.077 189.602 244.585 187.253 244.856C188.274 245.851 188.398 247.678 186.669 248.204C184.763 248.789 183.197 249.763 181.568 250.878C180.378 251.688 179.012 252.816 177.537 253.053C177.793 253.457 178.288 253.733 178.821 253.729Z" fill="#FFC44D"/>
<path d="M93.4277 222.371C91.3902 222.95 89.6635 224.082 87.9913 225.363C86.5873 226.44 84.7748 227.745 84.0467 229.399C83.62 230.367 84.4488 231.164 85.3728 231.165C87.0617 231.165 88.5981 229.85 89.9303 228.944C91.5587 227.829 93.1386 226.852 95.0311 226.269C97.669 225.487 96.0167 221.641 93.4277 222.371Z" fill="#F4E0A6"/>
<path d="M85.3892 231.176C87.0781 231.177 88.6146 229.861 89.9467 228.955C91.5752 227.84 93.155 226.863 95.0475 226.281C97.5312 225.525 96.1703 222.033 93.8204 222.304C94.8418 223.299 94.9659 225.125 93.2369 225.651C91.3304 226.236 89.7646 227.211 88.1361 228.326C86.9463 229.135 85.5799 230.263 84.1047 230.501C84.3613 230.904 84.8559 231.181 85.3892 231.176Z" fill="#FFC44D"/>
<path d="M54.5893 137.514C52.5518 138.092 50.8251 139.224 49.1529 140.506C47.7489 141.582 45.9364 142.888 45.2083 144.542C44.7816 145.51 45.6104 146.306 46.5344 146.308C48.2233 146.308 49.7597 144.992 51.0919 144.086C52.7204 142.971 54.3002 141.994 56.1927 141.412C58.8306 140.63 57.1783 136.783 54.5893 137.514Z" fill="#F4E0A6"/>
<path d="M46.5509 146.319C48.2398 146.319 49.7762 145.004 51.1084 144.098C52.7368 142.983 54.3167 142.006 56.2091 141.423C58.6928 140.667 57.3319 137.175 54.9821 137.447C56.0035 138.441 56.1275 140.268 54.3985 140.794C52.492 141.379 50.9262 142.354 49.2977 143.469C48.1079 144.278 46.7415 145.406 45.2664 145.643C45.5229 146.047 46.0175 146.323 46.5509 146.319Z" fill="#FFC44D"/>
<path d="M87.7168 150.756C86.4019 151.129 85.2877 151.86 84.2086 152.686C83.3026 153.381 82.133 154.224 81.6631 155.291C81.3878 155.916 81.9226 156.43 82.5189 156.43C83.6087 156.431 84.6002 155.582 85.4599 154.997C86.5107 154.278 87.5302 153.647 88.7515 153.271C90.4537 152.766 89.3875 150.284 87.7168 150.756Z" fill="#F4E0A6"/>
<path d="M82.5295 156.438C83.6194 156.438 84.6109 155.589 85.4705 155.005C86.5214 154.285 87.5409 153.655 88.7621 153.279C90.3648 152.791 89.4866 150.538 87.9703 150.713C88.6294 151.355 88.7094 152.533 87.5937 152.873C86.3634 153.25 85.353 153.879 84.3021 154.599C83.5343 155.121 82.6525 155.849 81.7006 156.002C81.8662 156.262 82.1854 156.441 82.5295 156.438Z" fill="#FFC44D"/>
<path d="M116.753 99.6588C116.131 98.4418 115.198 97.491 114.177 96.5935C113.319 95.84 112.265 94.8566 111.126 94.6035C110.46 94.455 110.06 95.0796 110.175 95.6646C110.387 96.7337 111.413 97.541 112.154 98.2705C113.064 99.1612 113.881 100.039 114.487 101.163C115.314 102.735 117.541 101.206 116.753 99.6588Z" fill="#F4E0A6"/>
<path d="M110.17 95.6765C110.382 96.7456 111.408 97.5529 112.148 98.2824C113.059 99.1731 113.875 100.05 114.482 101.175C115.272 102.652 117.312 101.352 116.845 99.899C116.343 100.67 115.203 100.978 114.653 99.95C114.043 98.8167 113.23 97.948 112.319 97.0573C111.658 96.4058 110.772 95.6825 110.436 94.7786C110.213 94.9917 110.1 95.3395 110.17 95.6765Z" fill="#FFC44D"/>
<path d="M74.6531 96.5302C74.0309 95.3131 73.0977 94.3624 72.0766 93.4648C71.2187 92.7113 70.1649 91.728 69.0264 91.4748C68.3602 91.3263 67.96 91.951 68.0753 92.536C68.2871 93.6051 69.313 94.4123 70.0536 95.1418C70.9639 96.0325 71.7806 96.9099 72.3871 98.0346C73.2135 99.6061 75.4406 98.0772 74.6531 96.5302Z" fill="#F4E0A6"/>
<path d="M68.0699 92.5479C68.2817 93.617 69.3076 94.4242 70.0482 95.1537C70.9585 96.0444 71.7753 96.9218 72.3818 98.0465C73.1721 99.5236 75.2114 98.2237 74.7447 96.7704C74.2433 97.5418 73.1028 97.8497 72.5527 96.8214C71.9429 95.6881 71.1294 94.8193 70.2191 93.9286C69.5574 93.2771 68.6718 92.5539 68.3364 91.65C68.1131 91.863 68.0002 92.2109 68.0699 92.5479Z" fill="#FFC44D"/>
<path d="M201.196 98.7475C199.842 98.9308 198.635 99.4958 197.45 100.161C196.454 100.721 195.177 101.389 194.561 102.379C194.2 102.958 194.656 103.543 195.246 103.628C196.325 103.783 197.427 103.083 198.361 102.626C199.503 102.063 200.602 101.583 201.864 101.384C203.62 101.126 202.917 98.5177 201.196 98.7475Z" fill="#F4E0A6"/>
<path d="M195.256 103.637C196.335 103.792 197.437 103.092 198.37 102.635C199.513 102.072 200.611 101.592 201.873 101.393C203.529 101.138 202.979 98.7825 201.453 98.7408C202.015 99.4697 201.927 100.648 200.774 100.826C199.503 101.025 198.414 101.504 197.271 102.068C196.437 102.476 195.461 103.071 194.497 103.088C194.624 103.369 194.915 103.591 195.256 103.637Z" fill="#FFC44D"/>
<path d="M152.88 93.0629C151.525 93.2462 150.319 93.8113 149.133 94.4768C148.138 95.0362 146.861 95.7042 146.244 96.6944C145.883 97.2735 146.34 97.8583 146.93 97.9436C148.009 98.0984 149.11 97.3983 150.044 96.9416C151.186 96.3782 152.285 95.8987 153.547 95.6996C155.304 95.4412 154.6 92.8331 152.88 93.0629Z" fill="#F4E0A6"/>
<path d="M146.939 97.9526C148.018 98.1074 149.12 97.4074 150.054 96.9507C151.196 96.3873 152.294 95.9078 153.557 95.7086C155.212 95.453 154.662 93.098 153.137 93.0562C153.698 93.7852 153.61 94.9632 152.458 95.1411C151.186 95.3405 150.097 95.8197 148.955 96.3831C148.121 96.7912 147.145 97.3868 146.181 97.4035C146.307 97.6848 146.598 97.9067 146.939 97.9526Z" fill="#FFC44D"/>
<path d="M238.249 113.086C236.895 113.269 235.688 113.834 234.503 114.5C233.507 115.059 232.23 115.727 231.614 116.717C231.253 117.296 231.709 117.881 232.299 117.967C233.378 118.121 234.48 117.421 235.414 116.965C236.556 116.401 237.655 115.922 238.917 115.723C240.673 115.464 239.97 112.856 238.249 113.086Z" fill="#F4E0A6"/>
<path d="M232.309 117.976C233.388 118.13 234.49 117.43 235.423 116.974C236.566 116.41 237.664 115.931 238.926 115.732C240.582 115.476 240.032 113.121 238.506 113.079C239.068 113.808 238.98 114.986 237.827 115.164C236.556 115.363 235.467 115.843 234.324 116.406C233.49 116.814 232.514 117.41 231.55 117.426C231.677 117.708 231.968 117.93 232.309 117.976Z" fill="#FFC44D"/>
<path d="M237.547 164.918C236.832 163.753 235.827 162.878 234.739 162.063C233.825 161.379 232.698 160.48 231.543 160.317C230.868 160.22 230.517 160.874 230.678 161.449C230.972 162.498 232.058 163.223 232.853 163.892C233.83 164.71 234.712 165.521 235.405 166.595C236.351 168.097 238.452 166.399 237.547 164.918Z" fill="#F4E0A6"/>
<path d="M230.673 161.461C230.968 162.51 232.053 163.235 232.849 163.905C233.825 164.722 234.708 165.533 235.4 166.607C236.303 168.018 238.235 166.563 237.657 165.151C237.217 165.959 236.104 166.355 235.475 165.372C234.779 164.29 233.9 163.487 232.924 162.67C232.213 162.072 231.274 161.42 230.869 160.545C230.663 160.775 230.578 161.13 230.673 161.461Z" fill="#FFC44D"/>
<path d="M245.497 217.915C244.782 216.75 243.777 215.875 242.689 215.06C241.775 214.376 240.648 213.477 239.493 213.314C238.818 213.217 238.467 213.871 238.628 214.446C238.922 215.495 240.008 216.22 240.803 216.889C241.78 217.707 242.662 218.518 243.355 219.592C244.301 221.094 246.402 219.396 245.497 217.915Z" fill="#F4E0A6"/>
<path d="M238.623 214.458C238.918 215.507 240.003 216.232 240.799 216.902C241.775 217.719 242.658 218.53 243.35 219.604C244.253 221.015 246.185 219.56 245.607 218.148C245.167 218.956 244.054 219.352 243.425 218.369C242.729 217.287 241.85 216.484 240.873 215.667C240.163 215.069 239.224 214.417 238.819 213.542C238.613 213.772 238.528 214.127 238.623 214.458Z" fill="#FFC44D"/>
<path d="M159.953 228.557C158.793 229.28 157.924 230.29 157.116 231.383C156.437 232.301 155.546 233.434 155.39 234.59C155.298 235.266 155.954 235.612 156.528 235.448C157.575 235.147 158.293 234.057 158.957 233.257C159.768 232.275 160.574 231.387 161.643 230.688C163.14 229.732 161.429 227.642 159.953 228.557Z" fill="#F4E0A6"/>
<path d="M156.54 235.452C157.587 235.151 158.305 234.061 158.97 233.261C159.781 232.279 160.586 231.392 161.656 230.692C163.061 229.78 161.594 227.858 160.185 228.445C160.996 228.88 161.399 229.991 160.42 230.625C159.343 231.328 158.545 232.212 157.735 233.194C157.141 233.908 156.495 234.852 155.623 235.262C155.854 235.467 156.21 235.55 156.54 235.452Z" fill="#FFC44D"/>
<path d="M100.199 241.519C99.0384 242.241 98.1697 243.252 97.3613 244.345C96.6828 245.263 95.7917 246.396 95.6354 247.552C95.5435 248.228 96.1997 248.574 96.7729 248.41C97.8204 248.109 98.5383 247.019 99.2028 246.219C100.014 245.237 100.819 244.349 101.889 243.65C103.385 242.694 101.674 240.604 100.199 241.519Z" fill="#F4E0A6"/>
<path d="M96.7852 248.414C97.8326 248.113 98.5506 247.023 99.2151 246.223C100.026 245.241 100.831 244.353 101.901 243.654C103.306 242.742 101.839 240.82 100.43 241.407C101.241 241.842 101.644 242.952 100.666 243.587C99.588 244.29 98.7908 245.174 97.98 246.156C97.3865 246.87 96.7405 247.814 95.868 248.224C96.0992 248.429 96.4553 248.512 96.7852 248.414Z" fill="#FFC44D"/>
<path d="M153.924 253.929C155.015 254.752 156.27 255.2 157.58 255.561C158.681 255.864 160.059 256.288 161.193 256.019C161.857 255.861 161.945 255.125 161.585 254.649C160.928 253.78 159.652 253.502 158.667 253.169C157.459 252.765 156.342 252.333 155.305 251.586C153.875 250.534 152.539 252.882 153.924 253.929Z" fill="#F4E0A6"/>
<path d="M161.585 254.636C160.927 253.767 159.652 253.489 158.667 253.156C157.459 252.752 156.341 252.32 155.304 251.573C153.948 250.59 152.681 252.65 153.736 253.753C153.85 252.84 154.742 252.065 155.686 252.75C156.729 253.503 157.84 253.929 159.048 254.333C159.928 254.63 161.041 254.893 161.737 255.56C161.845 255.271 161.795 254.908 161.585 254.636Z" fill="#FFC44D"/>
<path d="M148.098 198.29C149.042 199.002 150.127 199.389 151.261 199.701C152.213 199.963 153.404 200.33 154.385 200.097C154.96 199.961 155.035 199.324 154.724 198.912C154.156 198.16 153.053 197.92 152.201 197.632C151.156 197.283 150.189 196.909 149.293 196.264C148.056 195.353 146.901 197.384 148.098 198.29Z" fill="#F4E0A6"/>
<path d="M154.724 198.901C154.155 198.149 153.052 197.909 152.201 197.621C151.156 197.272 150.189 196.898 149.292 196.252C148.119 195.402 147.024 197.183 147.936 198.138C148.035 197.348 148.806 196.678 149.622 197.27C150.525 197.921 151.486 198.29 152.53 198.639C153.291 198.896 154.254 199.124 154.856 199.7C154.949 199.45 154.906 199.137 154.724 198.901Z" fill="#FFC44D"/>
<path d="M151.247 140.007C150.244 140.633 149.494 141.508 148.796 142.454C148.211 143.249 147.441 144.23 147.307 145.23C147.229 145.815 147.797 146.113 148.292 145.971C149.198 145.709 149.817 144.765 150.391 144.073C151.091 143.223 151.787 142.454 152.711 141.848C154.004 141.02 152.522 139.214 151.247 140.007Z" fill="#F4E0A6"/>
<path d="M148.303 145.975C149.208 145.713 149.828 144.769 150.402 144.077C151.102 143.227 151.797 142.458 152.722 141.852C153.936 141.062 152.665 139.401 151.447 139.911C152.149 140.286 152.499 141.246 151.653 141.796C150.722 142.405 150.034 143.17 149.333 144.021C148.821 144.639 148.263 145.456 147.509 145.811C147.709 145.988 148.018 146.06 148.303 145.975Z" fill="#FFC44D"/>
<path d="M110.364 164.762C109.362 165.388 108.612 166.263 107.914 167.209C107.328 168.004 106.559 168.985 106.425 169.985C106.346 170.57 106.914 170.868 107.41 170.726C108.315 170.464 108.935 169.52 109.509 168.828C110.209 167.978 110.904 167.209 111.828 166.603C113.121 165.775 111.639 163.969 110.364 164.762Z" fill="#F4E0A6"/>
<path d="M107.42 170.729C108.326 170.468 108.945 169.524 109.519 168.832C110.219 167.982 110.915 167.213 111.839 166.607C113.053 165.817 111.782 164.156 110.565 164.665C111.266 165.04 111.616 166 110.771 166.551C109.839 167.16 109.151 167.925 108.451 168.775C107.938 169.394 107.381 170.21 106.627 170.566C106.827 170.743 107.135 170.815 107.42 170.729Z" fill="#FFC44D"/>
<path d="M182.958 76.4089C181.956 77.035 181.205 77.9095 180.508 78.8558C179.922 79.6508 179.152 80.6316 179.019 81.6314C178.94 82.2164 179.508 82.515 180.003 82.3723C180.909 82.1107 181.529 81.167 182.102 80.4749C182.802 79.6246 183.498 78.8559 184.422 78.25C185.715 77.4216 184.233 75.6158 182.958 76.4089Z" fill="#F4E0A6"/>
<path d="M180.014 82.376C180.919 82.1144 181.539 81.1706 182.113 80.4785C182.813 79.6282 183.509 78.8595 184.433 78.2536C185.647 77.4633 184.376 75.8023 183.158 76.312C183.86 76.687 184.21 77.6469 183.365 78.197C182.433 78.8063 181.745 79.5716 181.045 80.4219C180.532 81.0403 179.975 81.8569 179.221 82.2129C179.421 82.3895 179.729 82.461 180.014 82.376Z" fill="#FFC44D"/>
<path d="M126.821 76.6542C125.819 77.2804 125.068 78.1549 124.371 79.1011C123.785 79.8961 123.016 80.8769 122.882 81.8767C122.803 82.4617 123.371 82.7604 123.866 82.6177C124.772 82.3561 125.392 81.4124 125.965 80.7202C126.666 79.8699 127.361 79.1012 128.285 78.4954C129.578 77.667 128.096 75.8612 126.821 76.6542Z" fill="#F4E0A6"/>
<path d="M123.877 82.6213C124.783 82.3597 125.402 81.416 125.976 80.7239C126.676 79.8735 127.372 79.1048 128.296 78.499C129.51 77.7087 128.239 76.0476 127.021 76.5573C127.723 76.9323 128.073 77.8923 127.228 78.4424C126.296 79.0517 125.608 79.8169 124.908 80.6672C124.395 81.2856 123.838 82.1023 123.084 82.4582C123.284 82.6349 123.592 82.7064 123.877 82.6213Z" fill="#FFC44D"/>
<path d="M243.954 141.897C242.951 142.523 242.201 143.398 241.503 144.344C240.918 145.139 240.148 146.12 240.014 147.119C239.936 147.704 240.504 148.003 240.999 147.86C241.905 147.599 242.524 146.655 243.098 145.963C243.798 145.113 244.494 144.344 245.418 143.738C246.711 142.91 245.229 141.104 243.954 141.897Z" fill="#F4E0A6"/>
<path d="M241.01 147.864C241.915 147.603 242.535 146.659 243.109 145.967C243.809 145.116 244.504 144.348 245.429 143.742C246.643 142.952 245.372 141.291 244.154 141.8C244.856 142.175 245.206 143.135 244.36 143.685C243.429 144.295 242.741 145.06 242.04 145.91C241.528 146.529 240.97 147.345 240.216 147.701C240.416 147.878 240.725 147.949 241.01 147.864Z" fill="#FFC44D"/>
<path d="M240.203 93.8792C239.218 93.2244 238.112 92.9021 236.962 92.657C235.996 92.4516 234.785 92.1557 233.82 92.4465C233.254 92.6163 233.217 93.2568 233.551 93.6493C234.163 94.3661 235.278 94.541 236.146 94.7779C237.209 95.0646 238.196 95.3809 239.13 95.9726C240.418 96.8084 241.451 94.7129 240.203 93.8792Z" fill="#F4E0A6"/>
<path d="M233.552 93.6606C234.164 94.3774 235.279 94.5523 236.147 94.7892C237.21 95.076 238.197 95.3922 239.131 95.9839C240.352 96.7638 241.34 94.9205 240.373 94.0217C240.321 94.8157 239.591 95.5305 238.741 94.9875C237.802 94.3907 236.821 94.0796 235.757 93.7928C234.983 93.5813 234.009 93.4105 233.373 92.8706C233.295 93.1258 233.357 93.4359 233.552 93.6606Z" fill="#FFC44D"/>
<path d="M180.348 119.844C179.363 119.189 178.257 118.867 177.107 118.622C176.141 118.416 174.93 118.121 173.965 118.411C173.399 118.581 173.362 119.222 173.696 119.614C174.308 120.331 175.424 120.506 176.291 120.743C177.354 121.029 178.342 121.346 179.275 121.937C180.563 122.773 181.596 120.678 180.348 119.844Z" fill="#F4E0A6"/>
<path d="M173.697 119.625C174.309 120.342 175.424 120.517 176.292 120.754C177.355 121.041 178.342 121.357 179.276 121.949C180.497 122.728 181.485 120.885 180.518 119.986C180.466 120.78 179.736 121.495 178.886 120.952C177.947 120.355 176.966 120.044 175.902 119.757C175.128 119.546 174.154 119.375 173.518 118.835C173.44 119.09 173.502 119.4 173.697 119.625Z" fill="#FFC44D"/>
<path d="M120.808 117.887C119.824 117.232 118.717 116.91 117.567 116.665C116.602 116.459 115.391 116.164 114.425 116.454C113.859 116.624 113.822 117.265 114.156 117.657C114.768 118.374 115.884 118.549 116.751 118.786C117.814 119.072 118.802 119.389 119.735 119.98C121.023 120.816 122.056 118.721 120.808 117.887Z" fill="#F4E0A6"/>
<path d="M114.157 117.668C114.769 118.385 115.885 118.56 116.752 118.797C117.815 119.084 118.803 119.4 119.736 119.992C120.957 120.771 121.945 118.928 120.978 118.029C120.927 118.823 120.197 119.538 119.347 118.995C118.407 118.398 117.426 118.087 116.363 117.8C115.588 117.589 114.614 117.418 113.978 116.878C113.9 117.133 113.962 117.443 114.157 117.668Z" fill="#FFC44D"/>
<path d="M86.0707 179.465C85.0865 178.81 83.9803 178.488 82.8304 178.242C81.8645 178.037 80.6536 177.741 79.6877 178.032C79.1224 178.202 79.0848 178.842 79.4193 179.235C80.0313 179.952 81.1467 180.126 82.0139 180.363C83.0774 180.65 84.0647 180.966 84.998 181.558C86.2862 182.394 87.3192 180.298 86.0707 179.465Z" fill="#F4E0A6"/>
<path d="M79.4202 179.246C80.0322 179.963 81.1476 180.138 82.0148 180.374C83.0783 180.661 84.0656 180.977 84.9989 181.569C86.22 182.349 87.2083 180.506 86.2414 179.607C86.1895 180.401 85.4595 181.116 84.6095 180.573C83.6701 179.976 82.6889 179.665 81.6254 179.378C80.8507 179.167 79.8767 178.996 79.2412 178.456C79.1629 178.711 79.225 179.021 79.4202 179.246Z" fill="#FFC44D"/>
<path d="M50.2198 192.892C49.8735 194.022 49.8807 195.174 49.9745 196.346C50.0537 197.331 50.1161 198.576 50.6708 199.418C50.995 199.911 51.6196 199.764 51.9001 199.332C52.4121 198.54 52.261 197.421 52.2402 196.523C52.2111 195.422 52.2321 194.385 52.5325 193.322C52.9653 191.848 50.662 191.457 50.2198 192.892Z" fill="#F4E0A6"/>
<path d="M51.9106 199.328C52.4227 198.536 52.2716 197.418 52.2508 196.519C52.2217 195.418 52.2426 194.381 52.543 193.318C52.9414 191.925 50.8926 191.504 50.3075 192.688C51.0833 192.511 51.9768 193.006 51.6994 193.976C51.3959 195.046 51.3781 196.075 51.4072 197.177C51.4259 197.979 51.5405 198.962 51.2047 199.725C51.4716 199.727 51.7511 199.579 51.9106 199.328Z" fill="#FFC44D"/>
<path d="M67.9245 209.753C66.7625 209.971 65.745 210.511 64.75 211.138C63.9146 211.664 62.8404 212.297 62.3511 213.179C62.0644 213.695 62.4842 214.18 62.9976 214.228C63.9362 214.315 64.8574 213.662 65.6442 213.227C66.6063 212.691 67.5343 212.229 68.6159 212.002C70.1219 211.702 69.4007 209.48 67.9245 209.753Z" fill="#F4E0A6"/>
<path d="M63.0061 214.235C63.9447 214.322 64.8659 213.67 65.6527 213.234C66.6148 212.698 67.5428 212.236 68.6244 212.009C70.0433 211.716 69.4659 209.706 68.1461 209.737C68.6628 210.342 68.6382 211.363 67.6504 211.567C66.5609 211.794 65.6408 212.256 64.6787 212.792C63.976 213.181 63.1588 213.738 62.3269 213.794C62.4488 214.032 62.7095 214.211 63.0061 214.235Z" fill="#FFC44D"/>
</svg>
