<svg width="301" height="301" viewBox="0 0 301 301" fill="none" xmlns="http://www.w3.org/2000/svg">
<g clip-path="url(#clip0)">
<path d="M122.223 95.8525C135.475 95.8525 146.217 85.1101 146.217 71.8587C146.217 58.6073 135.475 47.865 122.223 47.865C108.972 47.865 98.2296 58.6073 98.2296 71.8587C98.2296 85.1101 108.972 95.8525 122.223 95.8525Z" fill="#9B0A33"/>
<path d="M130.716 92.9145C142.349 88.2263 147.979 74.9955 143.29 63.3628C138.602 51.73 125.371 46.1004 113.739 50.7886C102.106 55.4768 96.4763 68.7076 101.165 80.3403C105.853 91.9731 119.084 97.6027 130.716 92.9145Z" fill="#AF0931"/>
<path d="M110.372 63.3355C112.146 63.3355 113.583 61.898 113.583 60.1247C113.583 58.3514 112.146 56.9138 110.372 56.9138C108.599 56.9138 107.162 58.3514 107.162 60.1247C107.162 61.898 108.599 63.3355 110.372 63.3355Z" fill="#FFC2C2"/>
<path d="M124.675 55.3958C124.675 56.5634 123.741 57.4975 122.574 57.4975C121.406 57.4975 120.472 56.5634 120.472 55.3958C120.472 54.2283 121.406 53.2942 122.574 53.2942C123.741 53.2942 124.675 54.2283 124.675 55.3958Z" fill="#FFC2C2"/>
<path d="M136.993 63.569C136.993 65.5538 135.359 67.1884 133.374 67.1884C131.389 67.1884 129.754 65.5538 129.754 63.569C129.754 61.5841 131.389 59.9495 133.374 59.9495C135.359 59.9495 136.993 61.5257 136.993 63.569Z" fill="#FFC2C2"/>
<path d="M120.881 67.5388C121.945 67.5388 122.807 66.6763 122.807 65.6123C122.807 64.5483 121.945 63.6858 120.881 63.6858C119.817 63.6858 118.954 64.5483 118.954 65.6123C118.954 66.6763 119.817 67.5388 120.881 67.5388Z" fill="#FFC2C2"/>
<path d="M112.299 74.2522C112.299 76.4122 110.548 78.1636 108.388 78.1636C106.228 78.1636 104.476 76.4122 104.476 74.2522C104.476 72.0922 106.228 70.3408 108.388 70.3408C110.548 70.3408 112.299 72.0338 112.299 74.2522Z" fill="#FFC2C2"/>
<path d="M126.193 77.4049C126.193 78.9228 124.967 80.1487 123.449 80.1487C121.932 80.1487 120.706 78.9228 120.706 77.4049C120.706 75.8871 121.932 74.6611 123.449 74.6611C124.967 74.6611 126.193 75.8871 126.193 77.4049Z" fill="#FFC2C2"/>
<path d="M139.737 76.2957C139.737 77.8719 138.453 79.2146 136.818 79.2146C135.184 79.2146 133.899 77.9303 133.899 76.2957C133.899 74.7194 135.184 73.3767 136.818 73.3767C138.453 73.3767 139.737 74.661 139.737 76.2957Z" fill="#FFC2C2"/>
<path d="M131.681 86.3366C131.681 87.329 130.863 88.1463 129.871 88.1463C128.879 88.1463 128.061 87.329 128.061 86.3366C128.061 85.3442 128.879 84.5269 129.871 84.5269C130.863 84.5269 131.681 85.3442 131.681 86.3366Z" fill="#FFC2C2"/>
<path d="M118.429 87.0957C118.429 88.4384 117.378 89.4892 116.035 89.4892C114.692 89.4892 113.642 88.4384 113.642 87.0957C113.642 85.753 114.692 84.7021 116.035 84.7021C117.378 84.7021 118.429 85.753 118.429 87.0957Z" fill="#FFC2C2"/>
</g>
<g clip-path="url(#clip1)">
<path d="M151.723 163.452C164.975 163.452 175.717 152.71 175.717 139.458C175.717 126.207 164.975 115.465 151.723 115.465C138.472 115.465 127.73 126.207 127.73 139.458C127.73 152.71 138.472 163.452 151.723 163.452Z" fill="#9B0A33"/>
<path d="M160.216 160.514C171.849 155.826 177.479 142.595 172.79 130.962C168.102 119.33 154.871 113.7 143.239 118.388C131.606 123.076 125.976 136.307 130.665 147.94C135.353 159.573 148.584 165.202 160.216 160.514Z" fill="#AF0931"/>
<path d="M139.872 130.935C141.646 130.935 143.083 129.498 143.083 127.724C143.083 125.951 141.646 124.513 139.872 124.513C138.099 124.513 136.662 125.951 136.662 127.724C136.662 129.498 138.099 130.935 139.872 130.935Z" fill="#FFC2C2"/>
<path d="M154.175 122.995C154.175 124.163 153.241 125.097 152.074 125.097C150.906 125.097 149.972 124.163 149.972 122.995C149.972 121.828 150.906 120.894 152.074 120.894C153.241 120.894 154.175 121.828 154.175 122.995Z" fill="#FFC2C2"/>
<path d="M166.493 131.169C166.493 133.153 164.859 134.788 162.874 134.788C160.889 134.788 159.254 133.153 159.254 131.169C159.254 129.184 160.889 127.549 162.874 127.549C164.859 127.549 166.493 129.125 166.493 131.169Z" fill="#FFC2C2"/>
<path d="M150.381 135.138C151.445 135.138 152.307 134.276 152.307 133.212C152.307 132.148 151.445 131.285 150.381 131.285C149.317 131.285 148.454 132.148 148.454 133.212C148.454 134.276 149.317 135.138 150.381 135.138Z" fill="#FFC2C2"/>
<path d="M141.799 141.852C141.799 144.012 140.048 145.763 137.888 145.763C135.728 145.763 133.976 144.012 133.976 141.852C133.976 139.692 135.728 137.94 137.888 137.94C140.048 137.94 141.799 139.633 141.799 141.852Z" fill="#FFC2C2"/>
<path d="M155.693 145.005C155.693 146.522 154.467 147.748 152.949 147.748C151.432 147.748 150.206 146.522 150.206 145.005C150.206 143.487 151.432 142.261 152.949 142.261C154.467 142.261 155.693 143.487 155.693 145.005Z" fill="#FFC2C2"/>
<path d="M169.237 143.895C169.237 145.471 167.953 146.814 166.318 146.814C164.684 146.814 163.399 145.53 163.399 143.895C163.399 142.319 164.684 140.976 166.318 140.976C167.953 140.976 169.237 142.261 169.237 143.895Z" fill="#FFC2C2"/>
<path d="M161.181 153.936C161.181 154.929 160.363 155.746 159.371 155.746C158.379 155.746 157.561 154.929 157.561 153.936C157.561 152.944 158.379 152.126 159.371 152.126C160.363 152.126 161.181 152.944 161.181 153.936Z" fill="#FFC2C2"/>
<path d="M147.929 154.695C147.929 156.038 146.878 157.089 145.535 157.089C144.192 157.089 143.142 156.038 143.142 154.695C143.142 153.353 144.192 152.302 145.535 152.302C146.878 152.302 147.929 153.353 147.929 154.695Z" fill="#FFC2C2"/>
</g>
<g clip-path="url(#clip2)">
<path d="M109.687 253.253C122.938 253.253 133.68 242.511 133.68 229.259C133.68 216.008 122.938 205.266 109.687 205.266C96.4354 205.266 85.693 216.008 85.693 229.259C85.693 242.511 96.4354 253.253 109.687 253.253Z" fill="#9B0A33"/>
<path d="M118.18 250.315C129.812 245.627 135.442 232.396 130.754 220.763C126.066 209.131 112.835 203.501 101.202 208.189C89.5694 212.877 83.9397 226.108 88.6279 237.741C93.3162 249.374 106.547 255.003 118.18 250.315Z" fill="#AF0931"/>
<path d="M97.8358 220.736C99.6091 220.736 101.047 219.299 101.047 217.525C101.047 215.752 99.6091 214.314 97.8358 214.314C96.0625 214.314 94.625 215.752 94.625 217.525C94.625 219.299 96.0625 220.736 97.8358 220.736Z" fill="#FFC2C2"/>
<path d="M112.139 212.796C112.139 213.964 111.205 214.898 110.037 214.898C108.869 214.898 107.935 213.964 107.935 212.796C107.935 211.629 108.869 210.695 110.037 210.695C111.205 210.695 112.139 211.629 112.139 212.796Z" fill="#FFC2C2"/>
<path d="M124.457 220.97C124.457 222.954 122.822 224.589 120.837 224.589C118.852 224.589 117.218 222.954 117.218 220.97C117.218 218.985 118.852 217.35 120.837 217.35C122.822 217.35 124.457 218.926 124.457 220.97Z" fill="#FFC2C2"/>
<path d="M108.344 224.939C109.408 224.939 110.27 224.077 110.27 223.013C110.27 221.949 109.408 221.086 108.344 221.086C107.28 221.086 106.417 221.949 106.417 223.013C106.417 224.077 107.28 224.939 108.344 224.939Z" fill="#FFC2C2"/>
<path d="M99.7623 231.653C99.7623 233.813 98.011 235.564 95.851 235.564C93.6909 235.564 91.9396 233.813 91.9396 231.653C91.9396 229.493 93.6909 227.741 95.851 227.741C98.011 227.741 99.7623 229.434 99.7623 231.653Z" fill="#FFC2C2"/>
<path d="M113.657 234.806C113.657 236.323 112.431 237.549 110.913 237.549C109.395 237.549 108.169 236.323 108.169 234.806C108.169 233.288 109.395 232.062 110.913 232.062C112.431 232.062 113.657 233.288 113.657 234.806Z" fill="#FFC2C2"/>
<path d="M127.2 233.696C127.2 235.273 125.916 236.615 124.281 236.615C122.647 236.615 121.363 235.331 121.363 233.696C121.363 232.12 122.647 230.777 124.281 230.777C125.916 230.777 127.2 232.062 127.2 233.696Z" fill="#FFC2C2"/>
<path d="M119.144 243.737C119.144 244.73 118.327 245.547 117.334 245.547C116.342 245.547 115.525 244.73 115.525 243.737C115.525 242.745 116.342 241.927 117.334 241.927C118.327 241.927 119.144 242.745 119.144 243.737Z" fill="#FFC2C2"/>
<path d="M105.892 244.496C105.892 245.839 104.841 246.89 103.499 246.89C102.156 246.89 101.105 245.839 101.105 244.496C101.105 243.154 102.156 242.103 103.499 242.103C104.841 242.103 105.892 243.154 105.892 244.496Z" fill="#FFC2C2"/>
</g>
<g clip-path="url(#clip3)">
<path d="M215.149 241.753C224.478 238.493 229.398 228.287 226.138 218.958C222.878 209.629 212.673 204.709 203.343 207.969C194.014 211.229 189.094 221.434 192.354 230.763C195.614 240.093 205.82 245.013 215.149 241.753Z" fill="#9B0A33"/>
<path d="M220.405 237.595C227.442 231.433 228.15 220.733 221.988 213.697C215.825 206.66 205.126 205.952 198.089 212.114C191.053 218.277 190.345 228.976 196.507 236.013C202.669 243.049 213.369 243.757 220.405 237.595Z" fill="#AF0931"/>
<path d="M198.806 221.776C200.055 221.339 200.713 219.974 200.277 218.725C199.84 217.477 198.475 216.818 197.226 217.255C195.978 217.691 195.319 219.056 195.756 220.305C196.192 221.553 197.558 222.212 198.806 221.776Z" fill="#FFC2C2"/>
<path d="M206.922 212.667C207.21 213.489 206.782 214.377 205.96 214.664C205.138 214.951 204.25 214.523 203.963 213.701C203.676 212.879 204.104 211.992 204.926 211.705C205.748 211.417 206.635 211.845 206.922 212.667Z" fill="#FFC2C2"/>
<path d="M217.605 215.391C218.093 216.788 217.345 218.341 215.947 218.829C214.55 219.318 212.997 218.569 212.509 217.172C212.02 215.774 212.769 214.221 214.166 213.733C215.564 213.245 217.102 213.952 217.605 215.391Z" fill="#FFC2C2"/>
<path d="M207.238 222.15C207.987 221.888 208.382 221.068 208.12 220.319C207.859 219.57 207.039 219.175 206.29 219.437C205.541 219.699 205.146 220.518 205.408 221.267C205.67 222.016 206.489 222.411 207.238 222.15Z" fill="#FFC2C2"/>
<path d="M202.848 228.987C203.379 230.508 202.577 232.172 201.057 232.703C199.536 233.234 197.872 232.432 197.341 230.912C196.809 229.391 197.611 227.727 199.132 227.196C200.653 226.664 202.302 227.425 202.848 228.987Z" fill="#FFC2C2"/>
<path d="M213.405 227.788C213.779 228.857 213.217 230.022 212.149 230.395C211.08 230.769 209.915 230.207 209.542 229.138C209.169 228.07 209.73 226.905 210.799 226.532C211.867 226.158 213.032 226.72 213.405 227.788Z" fill="#FFC2C2"/>
<path d="M222.668 223.676C223.055 224.785 222.482 226.047 221.331 226.449C220.18 226.851 218.96 226.263 218.558 225.112C218.17 224.002 218.744 222.741 219.895 222.339C221.045 221.937 222.266 222.525 222.668 223.676Z" fill="#FFC2C2"/>
<path d="M219.466 232.727C219.71 233.425 219.336 234.202 218.637 234.446C217.938 234.69 217.162 234.316 216.918 233.617C216.674 232.918 217.048 232.142 217.747 231.898C218.445 231.654 219.222 232.028 219.466 232.727Z" fill="#FFC2C2"/>
<path d="M210.323 236.521C210.653 237.466 210.172 238.465 209.227 238.795C208.282 239.125 207.283 238.644 206.953 237.699C206.623 236.753 207.104 235.755 208.049 235.425C208.995 235.095 209.993 235.576 210.323 236.521Z" fill="#FFC2C2"/>
</g>
<g clip-path="url(#clip4)">
<path d="M215.951 182.226C228.11 187.496 242.238 181.912 247.509 169.754C252.779 157.596 247.195 143.467 235.037 138.197C222.878 132.927 208.75 138.511 203.48 150.669C198.209 162.827 203.793 176.956 215.951 182.226Z" fill="#9B0A33"/>
<path d="M224.912 182.908C237.45 183.233 247.877 173.333 248.202 160.795C248.527 148.257 238.627 137.83 226.089 137.505C213.552 137.18 203.124 147.08 202.799 159.618C202.474 172.156 212.375 182.583 224.912 182.908Z" fill="#AF0931"/>
<path d="M218.011 147.678C219.638 148.383 221.528 147.636 222.234 146.009C222.939 144.382 222.192 142.491 220.565 141.786C218.938 141.081 217.047 141.828 216.342 143.455C215.636 145.082 216.384 146.973 218.011 147.678Z" fill="#FFC2C2"/>
<path d="M234.291 146.082C233.827 147.153 232.598 147.638 231.527 147.174C230.456 146.71 229.97 145.481 230.435 144.41C230.899 143.339 232.128 142.853 233.199 143.318C234.27 143.782 234.756 145.01 234.291 146.082Z" fill="#FFC2C2"/>
<path d="M242.343 158.479C241.553 160.301 239.403 161.15 237.582 160.361C235.761 159.571 234.911 157.422 235.701 155.6C236.49 153.779 238.64 152.93 240.461 153.719C242.282 154.508 243.155 156.605 242.343 158.479Z" fill="#FFC2C2"/>
<path d="M225.98 155.714C226.957 156.137 228.091 155.689 228.514 154.712C228.937 153.736 228.489 152.602 227.513 152.179C226.536 151.755 225.402 152.204 224.979 153.18C224.556 154.156 225.004 155.291 225.98 155.714Z" fill="#FFC2C2"/>
<path d="M215.436 158.46C214.577 160.442 212.274 161.353 210.292 160.494C208.31 159.635 207.4 157.331 208.259 155.349C209.118 153.367 211.421 152.457 213.403 153.316C215.385 154.175 216.319 156.425 215.436 158.46Z" fill="#FFC2C2"/>
<path d="M226.931 166.879C226.327 168.272 224.715 168.909 223.322 168.305C221.929 167.701 221.292 166.089 221.896 164.696C222.499 163.304 224.112 162.667 225.504 163.27C226.897 163.874 227.534 165.486 226.931 166.879Z" fill="#FFC2C2"/>
<path d="M239.799 171.248C239.172 172.694 237.459 173.415 235.96 172.765C234.46 172.115 233.792 170.426 234.442 168.926C235.069 167.48 236.782 166.759 238.281 167.409C239.781 168.059 240.449 169.748 239.799 171.248Z" fill="#FFC2C2"/>
<path d="M228.413 177.256C228.019 178.167 226.944 178.592 226.033 178.197C225.123 177.802 224.698 176.728 225.092 175.817C225.487 174.906 226.562 174.482 227.473 174.876C228.383 175.271 228.808 176.346 228.413 177.256Z" fill="#FFC2C2"/>
<path d="M215.953 172.682C215.419 173.914 214.036 174.46 212.805 173.926C211.573 173.392 211.026 172.01 211.56 170.778C212.094 169.546 213.476 169 214.708 169.534C215.94 170.068 216.487 171.45 215.953 172.682Z" fill="#FFC2C2"/>
</g>
<g clip-path="url(#clip5)">
<path d="M62.2153 166.591C73.6699 166.591 82.9557 157.305 82.9557 145.851C82.9557 134.396 73.6699 125.11 62.2153 125.11C50.7607 125.11 41.475 134.396 41.475 145.851C41.475 157.305 50.7607 166.591 62.2153 166.591Z" fill="#9B0A33"/>
<path d="M69.5567 164.052C79.6121 159.999 84.4784 148.562 80.4259 138.507C76.3734 128.451 64.9366 123.585 54.8812 127.638C44.8257 131.69 39.9594 143.127 44.0119 153.182C48.0645 163.238 59.5012 168.104 69.5567 164.052Z" fill="#AF0931"/>
<path d="M51.9713 138.483C53.5041 138.483 54.7467 137.24 54.7467 135.708C54.7467 134.175 53.5041 132.932 51.9713 132.932C50.4384 132.932 49.1958 134.175 49.1958 135.708C49.1958 137.24 50.4384 138.483 51.9713 138.483Z" fill="#FFC2C2"/>
<path d="M64.3348 131.62C64.3348 132.629 63.5274 133.437 62.5181 133.437C61.5088 133.437 60.7014 132.629 60.7014 131.62C60.7014 130.611 61.5088 129.803 62.5181 129.803C63.5274 129.803 64.3348 130.611 64.3348 131.62Z" fill="#FFC2C2"/>
<path d="M74.9825 138.685C74.9825 140.401 73.5696 141.814 71.8538 141.814C70.1381 141.814 68.7251 140.401 68.7251 138.685C68.7251 136.969 70.1381 135.556 71.8538 135.556C73.5696 135.556 74.9825 136.919 74.9825 138.685Z" fill="#FFC2C2"/>
<path d="M61.0547 142.116C61.9744 142.116 62.72 141.371 62.72 140.451C62.72 139.531 61.9744 138.786 61.0547 138.786C60.135 138.786 59.3894 139.531 59.3894 140.451C59.3894 141.371 60.135 142.116 61.0547 142.116Z" fill="#FFC2C2"/>
<path d="M53.6366 147.92C53.6366 149.787 52.1227 151.301 50.2555 151.301C48.3884 151.301 46.8745 149.787 46.8745 147.92C46.8745 146.052 48.3884 144.539 50.2555 144.539C52.1227 144.539 53.6366 146.002 53.6366 147.92Z" fill="#FFC2C2"/>
<path d="M65.6469 150.645C65.6469 151.957 64.5871 153.017 63.2751 153.017C61.963 153.017 60.9033 151.957 60.9033 150.645C60.9033 149.333 61.963 148.273 63.2751 148.273C64.5871 148.273 65.6469 149.333 65.6469 150.645Z" fill="#FFC2C2"/>
<path d="M77.3543 149.686C77.3543 151.049 76.2441 152.209 74.8311 152.209C73.4182 152.209 72.308 151.099 72.308 149.686C72.308 148.323 73.4182 147.163 74.8311 147.163C76.2441 147.163 77.3543 148.273 77.3543 149.686Z" fill="#FFC2C2"/>
<path d="M70.3903 158.366C70.3903 159.223 69.6838 159.93 68.826 159.93C67.9681 159.93 67.2616 159.223 67.2616 158.366C67.2616 157.508 67.9681 156.801 68.826 156.801C69.6838 156.801 70.3903 157.508 70.3903 158.366Z" fill="#FFC2C2"/>
<path d="M58.9352 159.022C58.9352 160.182 58.0269 161.091 56.8662 161.091C55.7056 161.091 54.7972 160.182 54.7972 159.022C54.7972 157.861 55.7056 156.953 56.8662 156.953C58.0269 156.953 58.9352 157.861 58.9352 159.022Z" fill="#FFC2C2"/>
</g>
<defs>
<clipPath id="clip0">
<rect width="59" height="59" fill="white" transform="translate(92.6643 42.2998)"/>
</clipPath>
<clipPath id="clip1">
<rect width="59" height="59" fill="white" transform="translate(122.164 109.899)"/>
</clipPath>
<clipPath id="clip2">
<rect width="59" height="59" fill="white" transform="translate(80.1277 199.7)"/>
</clipPath>
<clipPath id="clip3">
<rect width="44" height="44" fill="white" transform="translate(181.164 211.323) rotate(-19.2613)"/>
</clipPath>
<clipPath id="clip4">
<rect width="59" height="59" fill="white" transform="translate(210.129 121.335) rotate(23.4353)"/>
</clipPath>
<clipPath id="clip5">
<rect width="51" height="51" fill="white" transform="translate(36.6643 120.3)"/>
</clipPath>
</defs>
</svg>
