<svg width="301" height="300" viewBox="0 0 301 300" fill="none" xmlns="http://www.w3.org/2000/svg">
<g clip-path="url(#clip0)">
<path d="M161.336 50.4434L156.745 82.5811L188.883 77.99L161.336 50.4434Z" fill="#FF9D73"/>
<path d="M188.883 77.99C186.001 75.1076 181.87 73.7406 177.843 74.3201L171.425 75.2413C169.374 75.5384 167.369 74.8698 165.898 73.3989C164.442 71.9428 163.758 69.9221 164.055 67.8717L164.976 61.4531C165.571 57.4415 164.204 53.3109 161.336 50.4434L144.874 33.9807C144.25 33.3567 143.21 33.3567 142.586 33.9807L139.406 37.1603C122.156 54.4104 121.874 82.9229 139.124 100.173C156.418 117.497 184.589 117.497 201.899 100.188L205.346 96.7408C205.984 96.1019 205.97 95.0767 205.346 94.4526L188.883 77.99Z" fill="#FF533E"/>
<path d="M192.716 91.0052L143.73 95.5963C158.528 110.395 182.509 110.395 197.308 95.5963L192.716 91.0052Z" fill="#FF2E23"/>
<path d="M192.716 91.0057L184.292 82.5812C182.791 81.0806 180.726 80.4714 178.78 80.7537L172.361 81.6749C168.453 82.2246 164.338 81.0211 161.321 78.005C158.305 74.9888 157.102 70.8732 157.666 66.9507L158.588 60.532C158.87 58.5856 158.261 56.5204 156.76 55.0197L143.745 42.0042C128.946 56.8027 128.946 80.7834 143.745 95.5819C155.987 107.855 177.918 105.804 192.716 91.0057Z" fill="#FF2E23"/>
<path d="M153.536 82.5518C151.753 82.5518 150.297 84.0079 150.282 85.8057C150.282 87.5886 151.738 89.0447 153.536 89.0596C155.319 89.0596 156.775 87.6035 156.79 85.8057L156.79 82.5667L153.536 82.5518Z" fill="#FFE9B0"/>
<path d="M168.245 90.5449C166.982 91.8079 166.967 93.8731 168.245 95.1509C169.508 96.4138 171.573 96.4287 172.851 95.1509C174.129 93.8731 174.129 91.8227 172.851 90.5449L170.548 88.2419L168.245 90.5449Z" fill="#FFE9B0"/>
<path d="M148.766 71.0662C147.504 72.3291 145.438 72.344 144.161 71.0662C142.883 69.7884 142.883 67.738 144.161 66.4602C145.438 65.1824 147.489 65.1824 148.766 66.4602L151.069 68.7632L148.766 71.0662Z" fill="#FFE9B0"/>
</g>
<g clip-path="url(#clip1)">
<path d="M118.353 195.095L87.862 206.241L107.1 232.391L118.353 195.095Z" fill="#FF9D73"/>
<path d="M107.099 232.392C108.277 228.489 107.529 224.203 105.115 220.929L101.269 215.708C100.038 214.042 99.679 211.958 100.28 209.966C100.875 207.995 102.332 206.437 104.28 205.73L110.371 203.508C114.187 202.135 117.181 198.978 118.353 195.095L125.078 172.806C125.333 171.961 124.841 171.045 123.996 170.79L119.691 169.491C96.3357 162.444 71.0766 175.674 64.0298 199.029C56.9385 222.459 70.255 247.283 93.6909 254.354L98.3579 255.762C99.2229 256.023 100.119 255.526 100.374 254.681L107.099 232.392Z" fill="#FF533E"/>
<path d="M97.4423 241.922L70.2401 200.924C64.1947 220.96 75.5306 242.093 95.5668 248.138L97.4423 241.922Z" fill="#FF2E23"/>
<path d="M97.4419 241.922L100.883 230.516C101.496 228.484 101.057 226.377 99.8882 224.795L96.0422 219.574C93.7106 216.39 92.8257 212.195 94.0578 208.111C95.2899 204.027 98.3478 201.021 102.071 199.665L108.163 197.442C110.012 196.771 111.544 195.258 112.157 193.226L117.474 175.604C97.4375 169.559 76.3052 180.895 70.2599 200.931C65.2323 217.521 77.4058 235.877 97.4419 241.922Z" fill="#FF2E23"/>
<path d="M86.3708 203.399C85.528 201.828 83.5566 201.233 81.9653 202.07C80.3941 202.913 79.7993 204.884 80.636 206.476C81.4789 208.047 83.4503 208.642 85.0416 207.805L87.8959 206.274L86.3708 203.399Z" fill="#FFE9B0"/>
<path d="M86.2802 220.14C84.5703 219.624 82.7434 220.587 82.2214 222.317C81.7055 224.027 82.6686 225.854 84.3987 226.376C86.1287 226.898 87.9355 225.929 88.4575 224.199L89.3983 221.081L86.2802 220.14Z" fill="#FFE9B0"/>
<path d="M94.2376 193.767C92.5277 193.251 91.5383 191.438 92.0603 189.708C92.5823 187.978 94.3891 187.009 96.1192 187.531C97.8492 188.053 98.8184 189.86 98.2964 191.59L97.3557 194.708L94.2376 193.767Z" fill="#FFE9B0"/>
</g>
<g clip-path="url(#clip2)">
<path d="M201.119 190.455L193.802 158.826L165.487 174.706L201.119 190.455Z" fill="#FF9D73"/>
<path d="M165.487 174.706C169.216 176.354 173.561 176.138 177.107 174.145L182.761 170.969C184.566 169.952 186.678 169.852 188.58 170.693C190.464 171.525 191.83 173.163 192.293 175.183L193.75 181.501C194.644 185.457 197.41 188.816 201.119 190.455L222.413 199.867C223.22 200.224 224.19 199.848 224.547 199.041L226.365 194.928C236.227 172.615 226.2 145.923 203.887 136.06C181.506 126.145 155.234 136.312 145.338 158.702L143.367 163.161C143.002 163.987 143.385 164.938 144.193 165.294L165.487 174.706Z" fill="#FF533E"/>
<path d="M157.215 163.952L201.243 141.991C182.101 133.531 159.737 142.185 151.276 161.327L157.215 163.952Z" fill="#FF2E23"/>
<path d="M157.215 163.951L168.112 168.767C170.053 169.625 172.199 169.448 173.912 168.482L179.566 165.307C183.012 163.384 187.284 163.021 191.186 164.745C195.087 166.47 197.695 169.874 198.584 173.736L200.041 180.054C200.48 181.971 201.794 183.677 203.735 184.535L220.571 191.977C229.031 172.835 220.377 150.47 201.235 142.01C185.388 134.982 165.675 144.809 157.215 163.951Z" fill="#FF2E23"/>
<path d="M196.806 157.695C198.469 157.052 199.301 155.168 198.666 153.486C198.023 151.824 196.139 150.991 194.457 151.626C192.794 152.27 191.962 154.153 192.597 155.835L193.766 158.856L196.806 157.695Z" fill="#FFE9B0"/>
<path d="M180.203 155.549C180.925 153.916 180.194 151.984 178.541 151.254C176.907 150.532 174.976 151.263 174.245 152.916C173.515 154.569 174.255 156.481 175.907 157.212L178.886 158.528L180.203 155.549Z" fill="#FFE9B0"/>
<path d="M205.399 166.686C206.121 165.052 208.042 164.293 209.694 165.023C211.347 165.754 212.087 167.666 211.357 169.319C210.626 170.972 208.714 171.712 207.061 170.981L204.082 169.665L205.399 166.686Z" fill="#FFE9B0"/>
</g>
<g clip-path="url(#clip3)">
<path d="M122.449 142.7L118.508 125.662L103.255 134.216L122.449 142.7Z" fill="#FF9D73"/>
<path d="M103.255 134.216C105.264 135.104 107.604 134.988 109.515 133.914L112.56 132.203C113.532 131.655 114.67 131.601 115.695 132.054C116.709 132.503 117.445 133.385 117.695 134.473L118.48 137.876C118.961 140.007 120.451 141.816 122.449 142.699L133.919 147.769C134.354 147.961 134.877 147.759 135.069 147.324L136.048 145.109C141.36 133.09 135.959 118.711 123.94 113.399C111.884 108.058 97.7322 113.535 92.4016 125.595L91.34 127.997C91.1433 128.442 91.35 128.954 91.7848 129.146L103.255 134.216Z" fill="#FF533E"/>
<path d="M98.7995 128.423L122.516 116.593C112.205 112.036 100.158 116.698 95.6006 127.009L98.7995 128.423Z" fill="#FF2E23"/>
<path d="M98.7994 128.423L104.669 131.017C105.715 131.479 106.871 131.384 107.794 130.864L110.839 129.153C112.695 128.117 114.997 127.922 117.098 128.851C119.2 129.779 120.605 131.613 121.083 133.693L121.868 137.097C122.105 138.13 122.813 139.049 123.858 139.511L132.927 143.519C137.484 133.208 132.822 121.161 122.511 116.604C113.975 112.818 103.357 118.112 98.7994 128.423Z" fill="#FF2E23"/>
<path d="M120.126 125.053C121.021 124.706 121.47 123.692 121.128 122.786C120.781 121.89 119.767 121.442 118.861 121.784C117.965 122.13 117.516 123.145 117.858 124.051L118.488 125.678L120.126 125.053Z" fill="#FFE9B0"/>
<path d="M111.182 123.897C111.571 123.017 111.177 121.977 110.287 121.583C109.407 121.195 108.367 121.589 107.973 122.479C107.58 123.369 107.978 124.399 108.869 124.793L110.473 125.502L111.182 123.897Z" fill="#FFE9B0"/>
<path d="M124.754 129.896C125.143 129.016 126.178 128.607 127.068 129C127.959 129.394 128.357 130.424 127.964 131.314C127.57 132.205 126.54 132.603 125.65 132.21L124.045 131.5L124.754 129.896Z" fill="#FFE9B0"/>
</g>
<g clip-path="url(#clip4)">
<path d="M158.017 243.682L175.504 243.57L170.5 226.814L158.017 243.682Z" fill="#FF9D73"/>
<path d="M170.501 226.814C169.194 228.579 168.795 230.888 169.424 232.987L170.425 236.333C170.747 237.402 170.55 238.524 169.884 239.425C169.224 240.316 168.202 240.841 167.086 240.846L163.593 240.866C161.408 240.869 159.317 241.925 158.017 243.681L150.557 253.762C150.274 254.144 150.357 254.698 150.739 254.981L152.686 256.422C163.248 264.239 178.461 262.121 186.278 251.558C194.132 240.966 191.89 225.958 181.291 218.113L179.18 216.551C178.789 216.262 178.244 216.351 177.961 216.733L170.501 226.814Z" fill="#FF533E"/>
<path d="M177.129 223.736L183.473 249.468C190.18 240.407 188.272 227.631 179.21 220.925L177.129 223.736Z" fill="#FF2E23"/>
<path d="M177.13 223.736L173.312 228.894C172.632 229.813 172.472 230.962 172.777 231.977L173.778 235.323C174.382 237.361 174.068 239.649 172.702 241.496C171.335 243.343 169.238 244.312 167.103 244.323L163.61 244.343C162.551 244.348 161.499 244.836 160.819 245.755L154.921 253.725C163.982 260.431 176.758 258.523 183.464 249.462C189.029 241.963 186.191 230.442 177.13 223.736Z" fill="#FF2E23"/>
<path d="M175.743 245.282C175.885 246.232 176.777 246.892 177.736 246.757C178.686 246.615 179.346 245.723 179.211 244.764C179.069 243.814 178.177 243.154 177.218 243.29L175.492 243.547L175.743 245.282Z" fill="#FFE9B0"/>
<path d="M178.831 236.81C179.605 237.382 180.706 237.226 181.285 236.443C181.858 235.67 181.701 234.568 180.919 233.989C180.136 233.41 179.044 233.574 178.465 234.356L177.421 235.766L178.831 236.81Z" fill="#FFE9B0"/>
<path d="M170.004 248.737C170.777 249.309 170.95 250.408 170.37 251.191C169.791 251.973 168.699 252.136 167.917 251.557C167.134 250.978 166.971 249.886 167.55 249.103L168.594 247.693L170.004 248.737Z" fill="#FFE9B0"/>
</g>
<defs>
<clipPath id="clip0">
<rect width="86" height="86" fill="white" transform="translate(121.874 30.6121)"/>
</clipPath>
<clipPath id="clip1">
<rect width="86" height="86" fill="white" transform="translate(117.174 150.946) rotate(61.7898)"/>
</clipPath>
<clipPath id="clip2">
<rect width="86" height="86" fill="white" transform="translate(245.078 194.708) rotate(158.845)"/>
</clipPath>
<clipPath id="clip3">
<rect width="46.325" height="46.325" fill="white" transform="translate(146.128 144.99) rotate(158.845)"/>
</clipPath>
<clipPath id="clip4">
<rect width="46.325" height="46.325" fill="white" transform="translate(150.592 266.283) rotate(-98.4951)"/>
</clipPath>
</defs>
</svg>
