<svg width="100" height="100" viewBox="0 0 100 100" fill="none" xmlns="http://www.w3.org/2000/svg">
<g clip-path="url(#clip0)">
<path d="M25.5016 99.1807C27.6815 98.0181 29.8615 97.1461 31.9688 95.7655C34.5121 94.0941 36.6921 92.0595 38.7267 89.8795C39.744 88.7169 40.834 87.4816 41.924 86.3916C43.014 85.3016 44.1767 84.1389 45.2666 83.0489C47.5193 80.7963 49.6266 78.3983 51.4432 75.855C52.0246 74.9831 52.5332 74.1837 53.0419 73.2391C51.2252 72.0038 49.6993 70.4778 48.3913 68.5885C42.7233 60.3046 44.9033 48.9687 53.1872 43.3008C59.0731 39.3042 66.5577 39.2315 72.2983 42.5015C72.5163 41.9928 72.7343 41.4841 72.9523 40.9755C75.3503 35.9615 78.6929 31.3109 82.7622 27.387C86.1775 24.117 90.2467 21.6464 94.2433 18.9578C96.06 17.7225 97.9493 16.4145 99.6933 15.1065C97.2953 13.1445 94.8247 11.4005 92.2814 9.87456C91.8454 10.8919 90.9007 11.6912 89.7381 11.6912C88.1394 11.8365 86.6861 10.5285 86.5408 8.9299C86.4681 8.27591 86.6861 7.62191 87.0494 7.11326C79.8555 3.8433 72.0076 2.09932 64.1597 1.95399C64.3777 3.04398 63.8691 4.13396 62.9244 4.78795C61.5438 5.73261 59.7271 5.36928 58.7825 3.98863C58.3465 3.40731 58.2738 2.75331 58.2738 2.17199C50.6439 2.82598 43.014 5.07862 35.9654 9.07523C36.6921 9.94722 36.8374 11.1099 36.3288 12.1999C35.6021 13.6532 33.7855 14.3072 32.3321 13.5805C31.7508 13.2898 31.2422 12.7812 30.9515 12.1999C24.3389 16.9231 18.889 22.8091 15.0377 29.4216C16.055 29.8576 16.8543 30.8023 16.8543 31.9649C16.9997 33.5636 15.6917 35.0169 14.093 35.1622C13.4391 35.2349 12.7851 35.0169 12.2764 34.6536C9.00644 41.8475 7.26247 49.6954 7.11713 57.5433C8.20712 57.3253 9.29711 57.8339 9.9511 58.7786C10.8958 60.1592 10.5324 61.9759 9.15178 62.9205C8.57045 63.3565 7.91646 63.4292 7.33513 63.4292C8.06179 71.1318 10.3144 78.7617 14.2384 85.8829C15.1104 85.1563 16.273 85.0109 17.363 85.5196C18.8163 86.2462 19.4703 88.0629 18.7437 89.5162C18.453 90.0975 17.9443 90.6062 17.363 90.8968C19.6883 94.0941 22.1589 96.8554 24.9202 99.4714C25.0656 99.3261 25.2836 99.2534 25.5016 99.1807Z" fill="#F6D633"/>
<path d="M45.3394 40.1038C44.9034 40.5398 44.2494 40.4671 43.8861 40.1038L29.1349 25.3526C28.6989 24.9166 28.7716 24.2626 29.1349 23.8993C29.5709 23.4633 30.2249 23.536 30.5882 23.8993L45.2667 38.5778C45.7027 39.0138 45.7754 39.6678 45.3394 40.1038Z" fill="#FCFBFA"/>
<path d="M38.436 52.0933C38.1454 52.384 37.7821 52.4567 37.4187 52.384L17.2903 46.9341C16.709 46.7887 16.4183 46.2074 16.5637 45.6261C16.709 45.0448 17.2903 44.7541 17.8716 44.8994L37.9274 50.2767C38.5087 50.422 38.7994 51.0033 38.654 51.5847C38.654 51.73 38.5814 51.948 38.436 52.0933Z" fill="#FCFBFA"/>
<path d="M38.436 65.8996C38.2907 66.0449 38.218 66.1176 38 66.1903L17.8716 71.4949C17.2903 71.6402 16.7089 71.3495 16.5636 70.7682C16.4183 70.1869 16.7089 69.6056 17.2903 69.4602L37.4187 64.1556C38 64.0103 38.5813 64.301 38.7266 64.8823C38.7993 65.2456 38.654 65.6816 38.436 65.8996Z" fill="#FCFBFA"/>
<path d="M45.3392 77.8895L30.6607 92.568C30.2248 93.004 29.5708 92.9313 29.2074 92.568C28.7714 92.132 28.8441 91.478 29.2074 91.1147L43.8859 76.4362C44.3219 76.0002 44.9759 76.0728 45.3392 76.4362C45.7026 76.7995 45.7752 77.4535 45.3392 77.8895Z" fill="#FCFBFA"/>
<path d="M71.1356 33.2002C70.845 33.4908 70.4817 33.5635 70.1183 33.4908C69.537 33.3455 69.2463 32.7642 69.3917 32.1829L74.7689 12.1271C74.9143 11.5458 75.4956 11.2551 76.0769 11.4005C76.6582 11.5458 76.9489 12.1271 76.8036 12.7084L71.499 32.6915C71.4263 32.9095 71.281 33.0548 71.1356 33.2002Z" fill="#FCFBFA"/>
<path d="M57.3292 33.2C57.1839 33.3453 57.1112 33.418 56.8932 33.4907C56.3119 33.636 55.7305 33.3453 55.5852 32.764L50.2079 12.7083C50.0626 12.1269 50.3533 11.5456 50.9346 11.4003C51.5159 11.2549 52.0973 11.5456 52.2426 12.1269L57.6199 32.1827C57.6925 32.546 57.6199 32.9093 57.3292 33.2Z" fill="#FCFBFA"/>
</g>
<defs>
<clipPath id="clip0">
<rect width="100" height="100" fill="white"/>
</clipPath>
</defs>
</svg>
