<svg width="100" height="100" viewBox="0 0 100 100" fill="none" xmlns="http://www.w3.org/2000/svg">
<path d="M71.7805 72.9141C71.7805 72.9141 66.8996 92.9025 66.6672 92.9025C66.0861 92.9025 65.3889 93.0187 64.8078 93.0187L21.1122 9.4624C21.1122 9.4624 66.3186 2.37348 85.9584 12.2515L75.8479 55.4823C73.6399 55.8309 71.1995 56.6444 69.3401 58.7362C65.8537 61.5253 65.5051 66.1738 67.7131 69.1953C68.759 70.9385 70.1536 72.1006 71.7805 72.9141Z" fill="#FBBE36"/>
<path d="M64.4592 93.019L14.9529 17.5975L21.1121 9.46265L64.8078 93.019C64.6916 93.019 64.5754 93.019 64.4592 93.019Z" fill="#F2B12E"/>
<path d="M68.9915 23.4075C66.8996 24.9183 63.4133 25.0345 62.0188 22.594C61.0891 21.3157 61.2053 19.3401 62.716 18.178C63.9944 16.7834 65.7375 16.7834 67.0159 16.6672C68.9915 16.7834 70.386 18.5266 70.2698 20.386C70.2698 21.3157 69.9212 22.4778 68.9915 23.4075Z" fill="#DB942C"/>
<path d="M60.6242 44.4422C56.9054 47.1151 50.7462 47.4637 48.3057 42.9315C46.6788 40.7235 46.9112 37.2371 49.4678 35.1453C51.6759 32.7048 54.6974 32.5886 57.0216 32.4724C60.508 32.7048 62.9484 35.7263 62.8322 39.0965C62.8322 40.9559 62.1349 42.9315 60.6242 44.4422Z" fill="#DB942C"/>
</svg>
