<svg width="100" height="100" viewBox="0 0 100 100" fill="none" xmlns="http://www.w3.org/2000/svg">
<path d="M50.2 79.9539C68.0641 79.9539 82.5459 66.5269 82.5459 49.9639C82.5459 33.4009 68.0641 19.9739 50.2 19.9739C32.3358 19.9739 17.8541 33.4009 17.8541 49.9639C17.8541 66.5269 32.3358 79.9539 50.2 79.9539Z" fill="#F9D7DD"/>
<path d="M50.2 81.1C31.5438 81.1 16.3259 66.9646 16.3259 49.5818C16.3259 32.1354 31.5438 18 50.2 18C68.8562 18 84.0741 32.1354 84.0741 49.5818C84.0741 66.9646 68.9199 81.1 50.2 81.1ZM50.2 21.12C33.263 21.12 19.4459 33.8546 19.4459 49.5182C19.4459 65.1817 33.263 77.9163 50.2 77.9163C67.137 77.9163 80.9541 65.1817 80.9541 49.5182C80.9541 33.8546 67.2007 21.12 50.2 21.12Z" fill="#891652"/>
<path d="M50.2 74.9875C65.0751 74.9875 77.1337 63.9552 77.1337 50.3461C77.1337 36.7369 65.0751 25.7046 50.2 25.7046C35.3249 25.7046 23.2663 36.7369 23.2663 50.3461C23.2663 63.9552 35.3249 74.9875 50.2 74.9875Z" fill="#F9D7DD"/>
<path d="M50.2 75.2422C35.0458 75.2422 22.6932 63.9084 22.6932 49.964C22.6932 36.0196 35.0458 24.6858 50.2 24.6858C65.3542 24.6858 77.7068 36.0196 77.7068 49.964C77.7068 63.9084 65.4179 75.2422 50.2 75.2422ZM50.2 25.8956C35.6825 25.8956 23.903 36.6563 23.903 49.964C23.903 63.208 35.6825 74.0324 50.2 74.0324C64.7175 73.9687 76.497 63.208 76.497 49.964C76.497 36.72 64.7175 25.8956 50.2 25.8956Z" fill="#891652"/>
<path d="M49.4359 70.7851C62.1659 70.7851 72.4855 61.8623 72.4855 50.8554C72.4855 39.8486 62.1659 30.9258 49.4359 30.9258C36.7059 30.9258 26.3863 39.8486 26.3863 50.8554C26.3863 61.8623 36.7059 70.7851 49.4359 70.7851Z" fill="#F9D7DD"/>
<path d="M49.4359 70.9759C36.3829 70.9759 25.7495 61.7433 25.7495 50.4732C25.7495 39.1394 36.3829 29.9705 49.4359 29.9705C62.4889 29.9705 73.1223 39.2031 73.1223 50.4732C73.0586 61.7433 62.4889 70.9759 49.4359 70.9759ZM49.4359 31.1802C37.0833 31.1802 27.023 39.8398 27.023 50.4732C27.023 61.1066 37.0833 69.7661 49.4359 69.7661C61.7885 69.7661 71.8488 61.1066 71.8488 50.4732C71.8488 39.8398 61.7885 31.1802 49.4359 31.1802Z" fill="#891652"/>
<path d="M49.4359 67.9834C59.5636 67.9834 67.7738 60.885 67.7738 52.1288C67.7738 43.3725 59.5636 36.2742 49.4359 36.2742C39.3082 36.2742 31.0981 43.3725 31.0981 52.1288C31.0981 60.885 39.3082 67.9834 49.4359 67.9834Z" fill="#F9D7DD"/>
<path d="M49.4359 68.1743C38.9935 68.1743 30.4613 60.7882 30.4613 51.683C30.4613 42.5777 38.9935 35.1917 49.4359 35.1917C59.8783 35.1917 68.4105 42.5777 68.4105 51.683C68.4105 60.7882 59.8783 68.1743 49.4359 68.1743ZM49.4359 36.5288C39.6939 36.5288 31.7348 43.3418 31.7348 51.7466C31.7348 60.1515 39.6939 66.9645 49.4359 66.9645C59.1779 66.9645 67.137 60.1515 67.137 51.7466C67.137 43.3418 59.1779 36.5288 49.4359 36.5288Z" fill="#891652"/>
<path d="M50.391 64.163C57.7406 64.163 63.6987 59.0317 63.6987 52.7019C63.6987 46.3721 57.7406 41.2407 50.391 41.2407C43.0414 41.2407 37.0834 46.3721 37.0834 52.7019C37.0834 59.0317 43.0414 64.163 50.391 64.163Z" fill="#F9D7DD"/>
<path d="M50.391 64.6723C42.8139 64.6723 36.6376 59.3237 36.6376 52.7017C36.6376 46.0797 42.8139 40.7312 50.391 40.7312C57.9681 40.7312 64.1444 46.0797 64.1444 52.7017C64.1444 59.2601 57.9681 64.6723 50.391 64.6723ZM50.391 41.6863C43.3233 41.6863 37.5291 46.6528 37.5291 52.7017C37.5291 58.7507 43.2596 63.7172 50.391 63.7172C57.4587 63.7172 63.253 58.7507 63.253 52.7017C63.253 46.6528 57.4587 41.6863 50.391 41.6863Z" fill="#891652"/>
<path d="M50.9004 62.5074C56.0697 62.5074 60.2603 58.887 60.2603 54.421C60.2603 49.9549 56.0697 46.3345 50.9004 46.3345C45.731 46.3345 41.5404 49.9549 41.5404 54.421C41.5404 58.887 45.731 62.5074 50.9004 62.5074Z" fill="#F9D7DD"/>
<path d="M50.9004 62.9533C45.4882 62.9533 41.0947 59.1329 41.0947 54.4211C41.0947 49.7093 45.4882 45.8889 50.9004 45.8889C56.3126 45.8889 60.706 49.7093 60.706 54.4211C60.706 59.1329 56.3126 62.9533 50.9004 62.9533ZM50.9004 46.7803C45.9976 46.7803 41.9862 50.2187 41.9862 54.4211C41.9862 58.6235 45.9976 62.0619 50.9004 62.0619C55.8032 62.0619 59.8146 58.6235 59.8146 54.4211C59.8146 50.2187 55.8032 46.7803 50.9004 46.7803Z" fill="#891652"/>
</svg>
