<svg width="100" height="100" viewBox="0 0 100 100" fill="none" xmlns="http://www.w3.org/2000/svg">
<g clip-path="url(#clip0)">
<path fill-rule="evenodd" clip-rule="evenodd" d="M61.4449 1.62538C78.8518 6.64718 91.6266 22.7753 91.6266 41.8415C91.6266 44.8004 91.315 47.7801 90.6918 50.6765V50.7182L87.6176 66.2212H84.3356L79.1634 59.9491L79.15 59.9077L49.9164 24.4631L15.4765 66.2419H12.1945L9.12029 50.739V50.6973C8.49713 47.8009 8.18555 44.842 8.18555 41.8622C8.18555 18.7745 26.9011 0 49.9164 0C53.9047 0 57.789 0.562608 61.4449 1.62531V1.62538Z" fill="#FF5A35"/>
<path fill-rule="evenodd" clip-rule="evenodd" d="M54.694 24.4629C66.991 26.1299 77.0239 34.1314 81.8845 44.8001C81.884 44.8072 81.8835 44.8143 81.883 44.8214H81.8845C84.8134 51.2393 85.8312 58.6574 84.3356 66.2422V66.263H87.6176L84.2733 83.0996H80.9913L75.5491 78.2028L75.5491 78.1816L49.8957 55.1146L18.8208 83.0784H15.5388L12.1945 66.2418H15.4558C11.4675 46.0504 25.4263 27.1509 45.0974 24.4629H54.694Z" fill="#FF7A3C"/>
<path fill-rule="evenodd" clip-rule="evenodd" d="M61.0294 91.08L61.0295 72.3473C61.0295 66.1794 56.0442 61.1784 49.8957 61.1784C43.7472 61.1784 38.7619 66.1794 38.7619 72.3473V91.08C38.7619 96.1435 33.2365 100.248 26.4233 100.248C22.082 100.248 18.3223 97.1437 17.4706 92.8721L15.5388 83.0785H18.8C15.5596 66.6795 25.4263 51.2182 40.3613 46.5298H59.4092C67.9214 49.2164 74.7736 55.3586 78.5138 63.1878L78.5195 63.1788C81.3444 69.1174 82.383 76.0146 80.9913 83.0784H84.2525L82.3207 92.872C81.4691 97.1436 77.7093 100.248 73.368 100.248C66.5756 100.248 61.0294 96.1226 61.0294 91.08Z" fill="#FF9A42"/>
<path d="M50.2714 58.1519L50.2714 5.53906" stroke="white" stroke-linecap="round" stroke-linejoin="round"/>
</g>
<defs>
<clipPath id="clip0">
<rect width="100" height="100" fill="white"/>
</clipPath>
</defs>
</svg>
