<svg width="301" height="301" viewBox="0 0 301 301" fill="none" xmlns="http://www.w3.org/2000/svg">
<path d="M296.84 125.287C299.361 141.383 302.387 159.707 298.857 174.994C294.419 194.33 285.039 222.677 273.845 238.267C252.06 268.537 218.072 290.607 170.972 298.098C122.663 305.691 84.237 295.466 50.9549 264.791C26.6488 242.418 8.49488 212.857 3.0487 177.626C0.42647 160.821 -0.682935 142.598 2.04015 126.704C7.88975 92.7896 25.2368 65.4556 49.5429 42.8797C70.4199 23.6447 96.1379 7.04184 127 2.18247C166.736 -4.09423 202.036 7.7505 232.998 28.4028C267.289 51.3836 289.981 81.5523 296.84 125.287Z" fill="#E06F00"/>
<path d="M292.805 125.995C295.226 141.687 298.251 159.505 294.822 174.387C290.486 193.217 281.409 220.854 270.516 235.939C249.337 265.399 216.256 286.861 170.468 294.15C123.47 301.54 86.1533 291.619 53.7788 261.754C29.977 239.887 12.4282 211.136 6.98205 176.918C4.46067 160.618 3.35126 142.801 5.9735 127.413C11.6214 94.4094 28.565 67.7841 52.266 45.9169C72.5378 27.188 97.5499 11.0913 127.605 6.33321C166.333 0.25899 200.624 11.8 230.779 31.8449C264.062 54.0158 286.149 83.3746 292.805 125.995Z" fill="#F4810F"/>
<path d="M278.484 129.943C280.703 143.914 283.325 159.808 280.198 173.07C276.265 189.876 268.096 214.476 258.313 228.042C239.251 254.263 212.726 275.522 168.35 279.977C125.789 284.229 92.608 277.851 63.5617 251.225C42.2813 231.788 26.5479 206.175 21.7069 175.601C19.3872 161.023 18.4795 145.23 20.9 131.462C26.0437 102.002 41.1719 78.3126 62.5532 58.7739C80.808 42.0698 103.299 27.6941 130.227 23.4422C165.022 17.9754 192.354 23.6446 219.383 41.5636C249.236 61.3048 272.533 91.9796 278.484 129.943Z" fill="#E06F00"/>
<path d="M286.562 128.267C288.899 143.145 291.681 160.037 288.454 174.132C284.225 191.918 275.546 218.207 265.198 232.526C244.946 260.492 216.683 283.089 169.615 287.787C124.439 292.374 89.1655 285.438 58.3431 257.248C35.7549 236.553 18.9528 209.37 13.9455 176.817C11.4976 161.379 10.4961 144.487 13.0554 129.833C18.5077 98.5107 34.6421 73.229 57.2304 52.5339C76.5917 34.7473 100.515 19.4217 129.112 14.8352C166.054 9.01816 195.096 15.0589 223.805 34.0761C255.517 55.2187 280.22 87.8834 286.562 128.267Z" fill="#B51212"/>
<path d="M281.671 129.493C283.9 143.774 286.575 159.952 283.454 173.564C279.443 190.635 271.085 215.851 261.056 229.686C241.555 256.463 214.366 278.22 169.012 282.795C125.442 287.146 91.4544 280.563 61.7016 253.451C39.972 233.591 23.8142 207.483 18.9111 176.242C16.571 161.403 15.5681 145.225 18.0196 131.166C23.257 101.153 38.8577 76.8301 60.5872 56.9701C79.3081 39.8993 102.263 25.1716 129.899 20.8202C165.446 15.2416 193.528 21.0434 221.163 39.3414C251.807 59.3131 275.654 90.6652 281.671 129.493Z" fill="#EBB4A8"/>
<path d="M186.7 224.1C187.4 224.3 190.8 226.1 191.2 224.4C191.6 222.7 187.4 222.9 186.9 223.2C186.8 223.6 186.7 224.1 186.7 224.1Z" fill="#41B619"/>
<path d="M134.7 247.2C134.8 251.1 127.9 256.9 126.6 256.3C125.4 255.6 133.2 250 134.7 247.2Z" fill="#41B619"/>
<path d="M190.6 224C193.7 223.8 196.7 228.8 196.1 229.2C195.5 229.6 192.9 225.5 190.6 224Z" fill="#41B619"/>
<path d="M145.209 169.705C148.209 170.605 151.209 179.005 149.409 179.305C148.709 179.505 146.909 171.805 145.209 169.705Z" fill="#41B619"/>
<path d="M70.7 204.644C73.7 205.544 76.7 213.944 74.9 214.244C74.2 214.444 72.4 206.744 70.7 204.644Z" fill="#41B619"/>
<path d="M81 78.3999C84 79.2999 87 87.6999 85.2 87.9999C84.5 88.1999 82.7 80.4999 81 78.3999Z" fill="#41B619"/>
<path d="M213.9 195.2C211.5 190.8 199.2 194.3 199.7 195.7C200.2 197.1 210.1 193.1 213.9 195.2Z" fill="#41B619"/>
<path d="M213.9 195.2C213 200.8 206.2 204 207.6 204.6C208.9 205.1 216.3 201.3 213.9 195.2Z" fill="#41B619"/>
<path d="M213.9 195.2C219.5 195.6 217 205.8 218.5 205.5C219.9 205.1 219.9 193 213.9 195.2Z" fill="#41B619"/>
<path d="M53.7 173.702C51.3 169.302 39 172.802 39.5 174.202C40.1 175.602 50 171.602 53.7 173.702Z" fill="#41B619"/>
<path d="M209.9 122.7C205.2 120.9 198.1 131.5 199.4 132.2C200.7 133 205.7 123.5 209.9 122.7Z" fill="#41B619"/>
<path d="M147.581 116.579C142.881 114.779 135.781 125.379 137.081 126.079C138.381 126.879 143.381 117.379 147.581 116.579Z" fill="#41B619"/>
<path d="M152.909 60.6495C148.209 58.8495 141.109 69.4495 142.409 70.1495C143.709 70.9495 148.709 61.4495 152.909 60.6495Z" fill="#41B619"/>
<path d="M176.62 40.757C176.152 35.7459 163.503 34.0756 163.452 35.5511C163.31 37.071 174.042 37.3458 176.62 40.757Z" fill="#41B619"/>
<path d="M123.2 51C122.3 56.6 115.5 59.8 116.9 60.4C118.3 60.9 125.6 57.1 123.2 51Z" fill="#41B619"/>
<path d="M198.2 151.5C203.8 151.9 201.3 162.1 202.8 161.8C204.3 161.4 204.3 149.3 198.2 151.5Z" fill="#41B619"/>
<path d="M253.3 142.045C258.9 142.445 256.4 152.645 257.9 152.345C259.3 152.045 259.3 139.945 253.3 142.045Z" fill="#41B619"/>
<path d="M223 225.3L221 226.8L220.4 224.9L221.6 223.3L223 225.3Z" fill="#422918"/>
<path d="M81 140.3L79 141.8L78.4 139.9L79.6 138.3L81 140.3Z" fill="#422918"/>
<path d="M56.3 121.5L54.3 123L53.7 121.1L54.9 119.5L56.3 121.5Z" fill="#422918"/>
<path d="M196.5 181.5L195.8 183.9L194.2 182.8L194.1 180.8L196.5 181.5Z" fill="#422918"/>
<path d="M126.08 135.9L125.38 138.3L123.78 137.2L123.68 135.2L126.08 135.9Z" fill="#422918"/>
<path d="M178.004 105.9L177.304 108.3L175.704 107.2L175.604 105.2L178.004 105.9Z" fill="#422918"/>
<path d="M225.4 75.9998L224.7 78.3998L223.1 77.2998L223 75.2998L225.4 75.9998Z" fill="#422918"/>
<path d="M215.3 150.5L212.9 150.1L213.9 148.4L215.8 148.1L215.3 150.5Z" fill="#422918"/>
<path d="M112.3 226.8L109.9 226.4L110.9 224.7L112.8 224.4L112.3 226.8Z" fill="#422918"/>
<path d="M237.3 119.5L234.9 119.1L235.9 117.4L237.8 117.1L237.3 119.5Z" fill="#422918"/>
<path d="M214.8 238.4L212.4 237.9L213.4 236.2L215.3 236L214.8 238.4Z" fill="#422918"/>
</svg>
