<svg width="32" height="32" viewBox="0 0 32 32" fill="none" xmlns="http://www.w3.org/2000/svg">
<path d="M28.8085 6.91588H6.13403L5.79698 3.10168C5.74186 2.47793 5.22724 2 4.61077 2H2.19098C1.53322 2 1 2.54165 1 3.20981C1 3.87798 1.53322 4.41963 2.19098 4.41963H3.52193C4.24928 12.6511 2.36946 -8.62419 4.89172 19.9219C4.98893 21.0392 5.58323 22.2516 6.60702 23.0754C4.76117 25.4699 6.44771 29 9.45028 29C11.9424 29 13.7001 26.4752 12.8455 24.0839H19.3639C18.5103 26.4721 20.2643 29 22.7591 29C24.7501 29 26.3699 27.3546 26.3699 25.3321C26.3699 23.3097 24.7501 21.6643 22.7591 21.6643H9.45834C8.55365 21.6643 7.76527 21.1098 7.42499 20.302L26.4584 19.1657C26.978 19.1347 27.4177 18.7644 27.544 18.2514L29.9639 8.4191C30.1516 7.65669 29.5834 6.91588 28.8085 6.91588ZM9.45028 26.5804C8.77279 26.5804 8.22153 26.0204 8.22153 25.3321C8.22153 24.6439 8.77279 24.0839 9.45028 24.0839C10.1278 24.0839 10.6791 24.6439 10.6791 25.3321C10.6791 26.0204 10.1278 26.5804 9.45028 26.5804ZM22.759 26.5804C22.0815 26.5804 21.5302 26.0204 21.5302 25.3321C21.5302 24.6439 22.0815 24.0839 22.759 24.0839C23.4366 24.0839 23.9878 24.6439 23.9878 25.3321C23.9878 26.0204 23.4366 26.5804 22.759 26.5804ZM25.4453 16.8024L7.10439 17.8973L6.34784 9.33545H27.2831L25.4453 16.8024Z" fill="white"/>
</svg>
