<svg width="39" height="60" viewBox="0 0 39 60" fill="none" xmlns="http://www.w3.org/2000/svg">
<rect width="39" height="60" fill="white"/>
<mask id="mask0" mask-type="alpha" maskUnits="userSpaceOnUse" x="0" y="0" width="39" height="60">
<rect width="39" height="60" fill="white"/>
</mask>
<g mask="url(#mask0)">
<path d="M35.4166 27.1168C35.0462 26.8857 14.645 48.5817 10.8015 51.3239C9.39024 52.3302 10.1065 52.6892 10.4032 52.8006C10.4032 52.8006 20.1702 57.3539 28.7228 50.265C39.8601 41.0356 39.052 29.3935 35.4166 27.1168Z" fill="#F5BB46"/>
<path d="M26.9376 48.9914C21.3223 54.651 10.6931 52.93 10.9897 53.0399C10.9897 53.0399 20.2192 57.303 28.7717 50.2158C39.0616 41.6878 39.3075 31.4028 36.3949 28.0444C36.1556 27.7691 40.8138 35.0071 26.9376 48.9914Z" fill="#CD8111"/>
<path d="M31.9746 44.6725C31.9746 44.6725 33.3301 44.4726 33.0433 44.1234C32.7564 43.7743 32.4598 43.3203 32.4598 43.3203C32.4598 43.3203 32.4483 43.9022 31.9746 44.6725Z" fill="#F5BB46"/>
<path d="M31.7909 33.0831C32.2662 33.1028 31.6893 31.6145 31.3959 31.9505C31.1025 32.2865 30.9238 33.5109 30.9238 33.5109L31.7909 33.0831Z" fill="#CD8111"/>
<path d="M14.6499 49.9801L15.8054 50.6898L15.4252 49.767C15.4252 49.7686 15.0597 49.0557 14.6499 49.9801Z" fill="#CD8111"/>
<path d="M21.0176 53.1792L21.606 53.2972L21.8617 52.4367C21.8617 52.4351 21.4765 52.1991 21.0176 53.1792Z" fill="#F5BB46"/>
<path d="M24.9464 45.4693L25.8659 45.4923L25.3102 45.1349C25.3102 45.1366 24.8398 44.8809 24.9464 45.4693Z" fill="#CD8111"/>
<path d="M29.5471 37.8425L29.3553 39.6471L28.6079 40.2781C28.6095 40.2798 29.4012 38.0114 29.5471 37.8425Z" fill="#CD8111"/>
<path d="M23.7561 49.7063C24.0986 49.6506 23.9019 48.595 23.638 48.8966C23.3758 49.1982 23.0627 50.1652 23.0627 50.1652L23.7561 49.7063Z" fill="#CD8111"/>
<path d="M24.2724 40.5668C23.9036 41.3306 24.5625 41.7059 24.7985 41.3207C25.0346 40.9356 24.8575 39.8948 24.8575 39.8948L24.2724 40.5668Z" fill="#CD8111"/>
<path d="M20.508 44.8284C20.8506 44.7726 20.6539 43.7171 20.39 44.0187C20.1278 44.3203 19.8147 45.2857 19.8147 45.2857L20.508 44.8284Z" fill="#CD8111"/>
<path d="M30.5485 47.0723L29.6765 47.5984L29.5454 48L30.4846 47.6508L30.5485 47.0723Z" fill="#F5BB46"/>
<path d="M26.3413 50.0472C25.9725 50.811 26.6314 51.1863 26.8674 50.8011C27.1034 50.416 26.9264 49.3735 26.9264 49.3735L26.3413 50.0472Z" fill="#F5BB46"/>
<path d="M19.5063 41.404C19.893 41.2013 11.4884 12.6305 11.0657 7.92801C10.9109 6.20164 10.2391 6.63814 9.99297 6.83775C9.99297 6.83775 1.1265 12.9626 2.91868 23.9255C5.25093 38.2008 15.7041 43.3896 19.5063 41.404Z" fill="#F5BB46"/>
<path d="M4.92003 23.0293C2.87601 15.3231 9.73473 7.02252 9.49 7.22296C9.49 7.22296 1.14563 13.0306 2.93639 23.9927C5.0918 37.1822 13.8412 42.5942 18.2113 41.7792C18.5699 41.7119 9.96998 42.0715 4.92003 23.0293Z" fill="#CD8111"/>
<path d="M6.09994 29.5585C6.09994 29.5585 5.58716 30.8291 6.03339 30.7582C6.47962 30.6872 7.02132 30.6608 7.02132 30.6608C7.02132 30.6608 6.5251 30.3567 6.09994 29.5585Z" fill="#F5BB46"/>
<path d="M16.192 35.2594C15.9347 35.6595 17.5104 35.9142 17.3689 35.4912C17.2273 35.0682 16.2613 34.295 16.2613 34.295L16.192 35.2594Z" fill="#CD8111"/>
<path d="M10.2798 11.9279L9.08326 12.566L10.0717 12.7045C10.0703 12.7036 10.8702 12.7488 10.2798 11.9279Z" fill="#CD8111"/>
<path d="M4.30003 15.8043L3.90073 16.2523L4.51388 16.908C4.51529 16.9088 4.91366 16.6958 4.30003 15.8043Z" fill="#F5BB46"/>
<path d="M8.96567 23.0919L8.48099 23.8736L9.07019 23.5749C9.06878 23.5741 9.52721 23.2975 8.96567 23.0919Z" fill="#CD8111"/>
<path d="M14.052 34.2952L12.592 33.2174L12.4254 32.2535C12.4232 32.2541 13.9801 34.084 14.052 34.2952Z" fill="#CD8111"/>
<path d="M5.9118 19.9232C5.78669 20.2469 6.79683 20.6109 6.67005 20.2307C6.54243 19.852 5.86636 19.093 5.86636 19.093L5.9118 19.9232Z" fill="#CD8111"/>
<path d="M13.5361 24.9891C13.0635 24.2848 12.4066 24.6635 12.6196 25.0619C12.8326 25.4602 13.82 25.8337 13.82 25.8337L13.5361 24.9891Z" fill="#CD8111"/>
<path d="M11.7626 19.5868C11.6375 19.9105 12.6477 20.2745 12.5209 19.8943C12.3933 19.5156 11.7186 18.7574 11.7186 18.7574L11.7626 19.5868Z" fill="#CD8111"/>
<path d="M4.75043 27.115L4.73734 26.0966L4.45717 25.7805L4.28355 26.7673L4.75043 27.115Z" fill="#F5BB46"/>
<path d="M9.32006 35.9121C8.84752 35.2078 8.19056 35.5865 8.40356 35.9849C8.61655 36.3832 9.60544 36.7575 9.60544 36.7575L9.32006 35.9121Z" fill="#F5BB46"/>
</g>
</svg>
