<svg width="56" height="56" viewBox="0 0 56 56" fill="none" xmlns="http://www.w3.org/2000/svg">
<path d="M55.3235 23.2935C55.7942 26.2982 56.359 29.7187 55.7001 32.5722C54.8717 36.1817 53.1209 41.473 51.0312 44.3832C46.9647 50.0336 40.6202 54.1532 31.8284 55.5517C22.8106 56.969 15.6377 55.0603 9.42508 49.3344C4.88794 45.158 1.49921 39.6399 0.482594 33.0636C-0.00688959 29.9266 -0.213979 26.525 0.294331 23.5581C1.38626 17.2274 4.62438 12.125 9.16151 7.91088C13.0585 4.32035 17.8592 1.22114 23.6201 0.314061C31.0376 -0.857589 37.6268 1.35343 43.4065 5.20853C49.8074 9.49828 54.0434 15.1298 55.3235 23.2935Z" fill="#E06F00"/>
<path d="M54.5705 23.4258C55.0223 26.3549 55.5871 29.6809 54.947 32.4588C54.1375 35.9738 52.4431 41.1328 50.4099 43.9485C46.4564 49.4477 40.2813 53.454 31.7342 54.8147C22.9612 56.1942 15.9954 54.3422 9.9522 48.7674C5.5092 44.6856 2.23343 39.3186 1.21681 32.9313C0.746149 29.8888 0.53906 26.5628 1.02854 23.6903C2.08282 17.5297 5.24563 12.5597 9.66981 8.4778C13.4539 4.98175 18.1228 1.97704 23.733 1.08885C30.9623 -0.0450032 37.3633 2.10932 42.9923 5.85104C49.205 9.98961 53.3279 15.4699 54.5705 23.4258Z" fill="#F4810F"/>
<path d="M51.897 24.1629C52.3112 26.7707 52.8007 29.7376 52.2171 32.2132C51.4829 35.3502 49.9579 39.9423 48.1318 42.4746C44.5736 47.3691 39.6223 51.3376 31.3387 52.1691C23.394 52.9628 17.2002 51.7722 11.7782 46.8022C7.80589 43.1738 4.86899 38.3927 3.96533 32.6857C3.53232 29.9644 3.36289 27.0164 3.81472 24.4463C4.77486 18.9471 7.5988 14.5251 11.59 10.8779C14.9975 7.75976 19.1958 5.07631 24.2224 4.28261C30.7175 3.26214 35.8194 4.32041 40.8648 7.66528C46.4374 11.3503 50.7863 17.0763 51.897 24.1629Z" fill="#E06F00"/>
<path d="M51.0123 24.3139C51.4077 26.8273 51.8783 29.6808 51.3324 32.0619C50.617 35.0666 49.1485 39.5076 47.3977 41.9264C43.9713 46.6508 39.1894 50.4682 31.2259 51.2618C23.5824 52.0366 17.6145 50.865 12.3996 46.1028C8.57789 42.6068 5.73512 38.0146 4.88794 32.5155C4.47376 29.9076 4.30432 27.0541 4.73733 24.5785C5.65981 19.2872 8.38962 15.0163 12.2114 11.5203C15.4871 8.51554 19.5348 5.92658 24.3731 5.15178C30.6235 4.1691 35.5371 5.18957 40.3943 8.40216C45.7598 11.9738 49.9392 17.4919 51.0123 24.3139Z" fill="#B51212"/>
<path d="M50.1275 24.4652C50.5041 26.8841 50.9559 29.6243 50.4287 31.9298C49.751 34.8211 48.339 39.092 46.6447 41.4353C43.3501 45.9707 38.7565 49.6557 31.0942 50.4305C23.7331 51.1675 17.9911 50.0526 12.9644 45.4604C9.29331 42.0967 6.5635 37.6746 5.73514 32.3833C5.33979 29.8699 5.17035 27.1298 5.58453 24.7487C6.46937 19.6653 9.10505 15.5456 12.7762 12.1818C15.939 9.29049 19.8172 6.79601 24.4861 6.059C30.4917 5.11413 35.2359 6.0968 39.9049 9.196C45.0821 12.5787 49.1109 17.8889 50.1275 24.4652Z" fill="#FFE9B0"/>
<path d="M34.8508 41.7386C34.9815 41.776 35.6162 42.112 35.6908 41.7946C35.7655 41.4773 34.9815 41.5146 34.8882 41.5706C34.8695 41.6453 34.8508 41.7386 34.8508 41.7386Z" fill="#41B619"/>
<path d="M25.144 46.0507C25.1626 46.7787 23.8746 47.8613 23.632 47.7493C23.408 47.6187 24.864 46.5733 25.144 46.0507Z" fill="#41B619"/>
<path d="M35.5786 41.72C36.1573 41.6826 36.7173 42.616 36.6053 42.6906C36.4933 42.7653 36.0079 42 35.5786 41.72Z" fill="#41B619"/>
<path d="M27.1057 31.5848C27.6657 31.7528 28.2257 33.3208 27.8897 33.3768C27.759 33.4142 27.423 31.9768 27.1057 31.5848Z" fill="#41B619"/>
<path d="M13.1973 38.1068C13.7573 38.2748 14.3173 39.8428 13.9813 39.8988C13.8506 39.9361 13.5146 38.4988 13.1973 38.1068Z" fill="#41B619"/>
<path d="M15.1201 14.5413C15.6801 14.7093 16.2401 16.2773 15.9041 16.3333C15.7734 16.3706 15.4375 14.9333 15.1201 14.5413Z" fill="#41B619"/>
<path d="M39.9281 36.344C39.4801 35.5227 37.1841 36.176 37.2774 36.4374C37.3708 36.6987 39.2188 35.952 39.9281 36.344Z" fill="#41B619"/>
<path d="M39.9281 36.344C39.7601 37.3893 38.4908 37.9866 38.7521 38.0986C38.9948 38.192 40.3761 37.4826 39.9281 36.344Z" fill="#41B619"/>
<path d="M39.928 36.3439C40.9733 36.4186 40.5067 38.3226 40.7867 38.2666C41.048 38.1919 41.048 35.9333 39.928 36.3439Z" fill="#41B619"/>
<path d="M10.024 32.3311C9.57604 31.5097 7.28004 32.1631 7.37337 32.4244C7.48537 32.6858 9.33337 31.9391 10.024 32.3311Z" fill="#41B619"/>
<path d="M39.1813 22.8107C38.304 22.4747 36.9787 24.4534 37.2213 24.584C37.464 24.7334 38.3973 22.96 39.1813 22.8107Z" fill="#41B619"/>
<path d="M27.5485 21.668C26.6712 21.332 25.3458 23.3107 25.5885 23.4413C25.8312 23.5907 26.7645 21.8173 27.5485 21.668Z" fill="#41B619"/>
<path d="M28.5431 11.2279C27.6658 10.8919 26.3405 12.8706 26.5831 13.0013C26.8258 13.1506 27.7591 11.3773 28.5431 11.2279Z" fill="#41B619"/>
<path d="M32.969 7.51462C32.8817 6.57922 30.5206 6.26742 30.511 6.54286C30.4846 6.82657 32.4879 6.87787 32.969 7.51462Z" fill="#41B619"/>
<path d="M22.9974 9.42664C22.8294 10.472 21.5601 11.0693 21.8214 11.1813C22.0828 11.2746 23.4454 10.5653 22.9974 9.42664Z" fill="#41B619"/>
<path d="M36.9973 28.1867C38.0426 28.2614 37.576 30.1654 37.856 30.1094C38.136 30.0347 38.136 27.776 36.9973 28.1867Z" fill="#41B619"/>
<path d="M47.2827 26.4216C48.3281 26.4963 47.8614 28.4003 48.1414 28.3443C48.4027 28.2883 48.4027 26.0296 47.2827 26.4216Z" fill="#41B619"/>
<path d="M41.6267 41.9627L41.2534 42.2427L41.1414 41.888L41.3654 41.5894L41.6267 41.9627Z" fill="#422918"/>
<path d="M15.1201 26.096L14.7468 26.376L14.6348 26.0213L14.8588 25.7227L15.1201 26.096Z" fill="#422918"/>
<path d="M10.5093 22.5866L10.1359 22.8666L10.0239 22.5119L10.2479 22.2133L10.5093 22.5866Z" fill="#422918"/>
<path d="M36.6799 33.7867L36.5493 34.2347L36.2506 34.0294L36.2319 33.656L36.6799 33.7867Z" fill="#422918"/>
<path d="M23.5352 25.2746L23.4045 25.7226L23.1058 25.5173L23.0872 25.1439L23.5352 25.2746Z" fill="#422918"/>
<path d="M33.2275 19.6746L33.0969 20.1226L32.7982 19.9173L32.7795 19.5439L33.2275 19.6746Z" fill="#422918"/>
<path d="M42.0747 14.0933L41.944 14.5413L41.6454 14.336L41.6267 13.9626L42.0747 14.0933Z" fill="#422918"/>
<path d="M40.1895 28L39.7415 27.9253L39.9281 27.608L40.2828 27.552L40.1895 28Z" fill="#422918"/>
<path d="M20.9626 42.2427L20.5146 42.168L20.7013 41.8507L21.056 41.7947L20.9626 42.2427Z" fill="#422918"/>
<path d="M44.2961 22.2134L43.8481 22.1387L44.0348 21.8214L44.3895 21.7654L44.2961 22.2134Z" fill="#422918"/>
<path d="M40.096 44.408L39.6479 44.3146L39.8346 43.9973L40.1893 43.96L40.096 44.408Z" fill="#422918"/>
<g clip-path="url(#clip0)">
<path d="M28.303 37.8096L27.6576 42.3271L32.1752 41.6818L28.303 37.8096Z" fill="#FF9D73"/>
<path d="M32.1753 41.682C31.7701 41.2768 31.1895 41.0846 30.6235 41.1661L29.7212 41.2956C29.433 41.3374 29.151 41.2434 28.9443 41.0366C28.7396 40.8319 28.6435 40.5479 28.6853 40.2597L28.8148 39.3574C28.8983 38.7935 28.7062 38.2129 28.3031 37.8098L25.9889 35.4957C25.9012 35.4079 25.755 35.4079 25.6673 35.4957L25.2204 35.9426C22.7955 38.3674 22.7559 42.3754 25.1807 44.8002C27.6118 47.2355 31.5717 47.2355 34.0048 44.8023L34.4894 44.3177C34.5792 44.2279 34.5771 44.0838 34.4894 43.9961L32.1753 41.682Z" fill="#FF533E"/>
<path d="M32.7141 43.5114L25.8281 44.1568C27.9083 46.237 31.2792 46.237 33.3594 44.1568L32.7141 43.5114Z" fill="#FF2E23"/>
<path d="M32.714 43.5114L31.5298 42.3271C31.3188 42.1162 31.0285 42.0306 30.7549 42.0703L29.8526 42.1997C29.3034 42.277 28.7248 42.1078 28.3008 41.6839C27.8769 41.2599 27.7077 40.6814 27.7871 40.13L27.9165 39.2277C27.9562 38.9541 27.8706 38.6638 27.6597 38.4529L25.8301 36.6233C23.7499 38.7035 23.7499 42.0744 25.8301 44.1546C27.5511 45.8798 30.6338 45.5916 32.714 43.5114Z" fill="#FF2E23"/>
<path d="M27.2067 42.3231C26.956 42.3231 26.7514 42.5278 26.7493 42.7805C26.7493 43.0311 26.9539 43.2358 27.2067 43.2379C27.4573 43.2379 27.662 43.0332 27.6641 42.7805L27.6641 42.3252L27.2067 42.3231Z" fill="#FFE9B0"/>
<path d="M29.2742 43.4465C29.0966 43.6241 29.0946 43.9144 29.2742 44.094C29.4517 44.2715 29.742 44.2736 29.9216 44.094C30.1012 43.9144 30.1012 43.6261 29.9216 43.4465L29.5979 43.1228L29.2742 43.4465Z" fill="#FFE9B0"/>
<path d="M26.5361 40.7085C26.3586 40.886 26.0683 40.8881 25.8887 40.7085C25.7091 40.5289 25.7091 40.2406 25.8887 40.061C26.0683 39.8814 26.3565 39.8814 26.5361 40.061L26.8599 40.3848L26.5361 40.7085Z" fill="#FFE9B0"/>
</g>
<g clip-path="url(#clip1)">
<path d="M29.2974 18.3678L29.9427 13.8502L25.4252 14.4956L29.2974 18.3678Z" fill="#FF9D73"/>
<path d="M25.4251 14.4954C25.8303 14.9006 26.4109 15.0927 26.9769 15.0113L27.8791 14.8818C28.1674 14.84 28.4493 14.934 28.6561 15.1408C28.8608 15.3454 28.9568 15.6295 28.9151 15.9177L28.7856 16.82C28.702 17.3839 28.8942 17.9645 29.2973 18.3676L31.6114 20.6817C31.6991 20.7694 31.8453 20.7694 31.933 20.6817L32.38 20.2348C34.8048 17.8099 34.8445 13.802 32.4197 11.3772C29.9886 8.94191 26.0287 8.94192 23.5955 11.3751L23.111 11.8596C23.0211 11.9494 23.0232 12.0936 23.111 12.1813L25.4251 14.4954Z" fill="#FF533E"/>
<path d="M24.8863 12.6659L31.7723 12.0206C29.6921 9.94037 26.3211 9.94037 24.2409 12.0206L24.8863 12.6659Z" fill="#FF2E23"/>
<path d="M24.8864 12.666L26.0706 13.8502C26.2815 14.0612 26.5718 14.1468 26.8454 14.1071L27.7477 13.9776C28.297 13.9003 28.8755 14.0695 29.2995 14.4935C29.7235 14.9175 29.8926 15.496 29.8133 16.0474L29.6838 16.9496C29.6441 17.2232 29.7297 17.5136 29.9407 17.7245L31.7703 19.5541C33.8505 17.4739 33.8505 14.1029 31.7703 12.0227C30.0493 10.2976 26.9666 10.5858 24.8864 12.666Z" fill="#FF2E23"/>
<path d="M30.3937 13.8543C30.6443 13.8543 30.849 13.6496 30.8511 13.3969C30.8511 13.1462 30.6464 12.9416 30.3937 12.9395C30.1431 12.9395 29.9384 13.1442 29.9363 13.3969L29.9363 13.8522L30.3937 13.8543Z" fill="#FFE9B0"/>
<path d="M28.3262 12.7308C28.5037 12.5533 28.5058 12.263 28.3262 12.0834C28.1486 11.9059 27.8583 11.9038 27.6787 12.0834C27.4991 12.263 27.4991 12.5512 27.6787 12.7308L28.0024 13.0546L28.3262 12.7308Z" fill="#FFE9B0"/>
<path d="M31.0642 15.4689C31.2417 15.2914 31.532 15.2893 31.7117 15.4689C31.8913 15.6485 31.8913 15.9367 31.7117 16.1163C31.532 16.296 31.2438 16.296 31.0642 16.1163L30.7405 15.7926L31.0642 15.4689Z" fill="#FFE9B0"/>
</g>
<g clip-path="url(#clip2)">
<path d="M38.521 28.5859L43.0386 29.2313L42.3932 24.7137L38.521 28.5859Z" fill="#FF9D73"/>
<path d="M42.3933 24.7138C41.9881 25.119 41.7959 25.6996 41.8774 26.2656L42.0069 27.1678C42.0487 27.4561 41.9547 27.738 41.7479 27.9448C41.5432 28.1495 41.2592 28.2455 40.971 28.2038L40.0687 28.0743C39.5048 27.9907 38.9242 28.1829 38.5211 28.586L36.207 30.9001C36.1192 30.9878 36.1192 31.134 36.207 31.2217L36.6539 31.6687C39.0787 34.0935 43.0867 34.1332 45.5115 31.7084C47.9468 29.2773 47.9468 25.3174 45.5136 22.8842L45.029 22.3997C44.9392 22.3098 44.7951 22.3119 44.7074 22.3997L42.3933 24.7138Z" fill="#FF533E"/>
<path d="M44.2229 24.1749L44.8682 31.0608C46.9484 28.9806 46.9484 25.6097 44.8682 23.5295L44.2229 24.1749Z" fill="#FF2E23"/>
<path d="M44.2228 24.1749L43.0386 25.3592C42.8276 25.5701 42.742 25.8604 42.7817 26.134L42.9112 27.0363C42.9884 27.5856 42.8193 28.1641 42.3953 28.5881C41.9713 29.012 41.3928 29.1812 40.8414 29.1019L39.9392 28.9724C39.6655 28.9327 39.3752 29.0183 39.1643 29.2293L37.3347 31.0588C39.4149 33.139 42.7859 33.139 44.8661 31.0588C46.5912 29.3379 46.303 26.2551 44.2228 24.1749Z" fill="#FF2E23"/>
<path d="M43.0345 29.6825C43.0345 29.9331 43.2392 30.1378 43.4919 30.1399C43.7426 30.1399 43.9472 29.9352 43.9493 29.6825C43.9493 29.4319 43.7446 29.2272 43.4919 29.2251L43.0366 29.2251L43.0345 29.6825Z" fill="#FFE9B0"/>
<path d="M44.158 27.6147C44.3355 27.7923 44.6258 27.7944 44.8054 27.6147C44.9829 27.4372 44.985 27.1469 44.8054 26.9673C44.6258 26.7877 44.3376 26.7877 44.158 26.9673L43.8342 27.291L44.158 27.6147Z" fill="#FFE9B0"/>
<path d="M41.4199 30.3529C41.5974 30.5304 41.5995 30.8207 41.4199 31.0004C41.2403 31.18 40.9521 31.18 40.7725 31.0004C40.5928 30.8207 40.5928 30.5325 40.7725 30.3529L41.0962 30.0292L41.4199 30.3529Z" fill="#FFE9B0"/>
</g>
<g clip-path="url(#clip3)">
<path d="M19.0793 27.5914L14.5618 26.9461L15.2072 31.4636L19.0793 27.5914Z" fill="#FF9D73"/>
<path d="M15.2071 31.4636C15.6122 31.0584 15.8044 30.4778 15.7229 29.9118L15.5935 29.0095C15.5517 28.7213 15.6457 28.4394 15.8524 28.2326C16.0571 28.0279 16.3412 27.9318 16.6294 27.9736L17.5316 28.1031C18.0955 28.1866 18.6762 27.9945 19.0793 27.5914L21.3934 25.2773C21.4811 25.1896 21.4811 25.0434 21.3934 24.9556L20.9464 24.5087C18.5216 22.0839 14.5137 22.0442 12.0888 24.469C9.65358 26.9001 9.65359 30.86 12.0868 33.2932L12.5713 33.7777C12.6611 33.8675 12.8052 33.8654 12.8929 33.7777L15.2071 31.4636Z" fill="#FF533E"/>
<path d="M13.3775 32.0025L12.7321 25.1165C10.6519 27.1967 10.6519 30.5677 12.7321 32.6479L13.3775 32.0025Z" fill="#FF2E23"/>
<path d="M13.3776 32.0024L14.5618 30.8182C14.7727 30.6073 14.8583 30.317 14.8187 30.0434L14.6892 29.1411C14.6119 28.5918 14.7811 28.0133 15.205 27.5893C15.629 27.1653 16.2076 26.9961 16.7589 27.0755L17.6612 27.205C17.9348 27.2447 18.2251 27.1591 18.436 26.9481L20.2656 25.1185C18.1854 23.0383 14.8145 23.0383 12.7343 25.1185C11.0091 26.8395 11.2974 29.9222 13.3776 32.0024Z" fill="#FF2E23"/>
<path d="M14.5658 26.4949C14.5658 26.2442 14.3611 26.0396 14.1084 26.0375C13.8578 26.0375 13.6531 26.2422 13.651 26.4949C13.651 26.7455 13.8557 26.9502 14.1084 26.9523L14.5637 26.9523L14.5658 26.4949Z" fill="#FFE9B0"/>
<path d="M13.4424 28.5626C13.2649 28.3851 12.9745 28.383 12.7949 28.5626C12.6174 28.7402 12.6153 29.0305 12.7949 29.2101C12.9745 29.3897 13.2628 29.3897 13.4424 29.2101L13.7661 28.8864L13.4424 28.5626Z" fill="#FFE9B0"/>
<path d="M16.1804 25.8245C16.0029 25.6469 16.0008 25.3566 16.1804 25.177C16.36 24.9974 16.6483 24.9974 16.8279 25.177C17.0075 25.3566 17.0075 25.6448 16.8279 25.8245L16.5042 26.1482L16.1804 25.8245Z" fill="#FFE9B0"/>
</g>
<g clip-path="url(#clip4)">
<path d="M41.4702 40.742C43.3901 38.8221 43.3901 35.7094 41.4702 33.7894C39.5503 31.8695 36.4375 31.8695 34.5176 33.7894C32.5977 35.7094 32.5977 38.8221 34.5176 40.742C36.4375 42.662 39.5503 42.662 41.4702 40.742Z" fill="#9B0A33"/>
<path d="M42.2753 39.0859C43.2815 36.7213 42.1802 33.9887 39.8155 32.9825C37.4509 31.9764 34.7183 33.0777 33.7122 35.4423C32.706 37.807 33.8073 40.5395 36.1719 41.5457C38.5366 42.5518 41.2692 41.4505 42.2753 39.0859Z" fill="#AF0931"/>
<path d="M35.0421 37.7478C35.299 37.4909 35.299 37.0743 35.0421 36.8174C34.7852 36.5605 34.3686 36.5605 34.1117 36.8174C33.8548 37.0743 33.8548 37.4909 34.1117 37.7478C34.3686 38.0047 34.7852 38.0047 35.0421 37.7478Z" fill="#FFC2C2"/>
<path d="M35.964 34.5252C36.1332 34.6944 36.1332 34.965 35.964 35.1342C35.7949 35.3034 35.5242 35.3034 35.355 35.1342C35.1859 34.965 35.1859 34.6944 35.355 34.5252C35.5242 34.3561 35.7949 34.3561 35.964 34.5252Z" fill="#FFC2C2"/>
<path d="M38.9328 33.9247C39.2204 34.2123 39.2204 34.6859 38.9328 34.9735C38.6453 35.2611 38.1716 35.2611 37.884 34.9735C37.5964 34.6859 37.5964 34.2123 37.884 33.9247C38.1716 33.6371 38.6368 33.6287 38.9328 33.9247Z" fill="#FFC2C2"/>
<path d="M37.1735 36.8344C37.3277 36.6803 37.3277 36.4303 37.1735 36.2762C37.0194 36.122 36.7695 36.122 36.6153 36.2762C36.4611 36.4303 36.4611 36.6803 36.6153 36.8344C36.7695 36.9886 37.0194 36.9886 37.1735 36.8344Z" fill="#FFC2C2"/>
<path d="M36.9027 39.0502C37.2157 39.3632 37.2157 39.8707 36.9027 40.1836C36.5898 40.4966 36.0823 40.4966 35.7693 40.1836C35.4564 39.8707 35.4564 39.3632 35.7693 39.0502C36.0823 38.7373 36.5813 38.7288 36.9027 39.0502Z" fill="#FFC2C2"/>
<path d="M39.3728 37.4941C39.5927 37.714 39.5927 38.0692 39.3728 38.2891C39.1529 38.509 38.7976 38.509 38.5777 38.2891C38.3578 38.0692 38.3578 37.714 38.5777 37.4941C38.7976 37.2742 39.1529 37.2742 39.3728 37.4941Z" fill="#FFC2C2"/>
<path d="M41.1742 35.371C41.4026 35.5994 41.4111 35.98 41.1742 36.2169C40.9374 36.4537 40.5653 36.4537 40.3284 36.2169C40.1001 35.9885 40.0916 35.6079 40.3284 35.371C40.5653 35.1342 40.9374 35.1342 41.1742 35.371Z" fill="#FFC2C2"/>
<path d="M41.4619 37.993C41.6057 38.1368 41.6057 38.3737 41.4619 38.5175C41.3181 38.6612 41.0813 38.6612 40.9375 38.5175C40.7937 38.3737 40.7937 38.1368 40.9375 37.993C41.0813 37.8493 41.3181 37.8493 41.4619 37.993Z" fill="#FFC2C2"/>
<path d="M39.6517 40.0231C39.8462 40.2176 39.8462 40.5221 39.6517 40.7167C39.4571 40.9112 39.1527 40.9112 38.9581 40.7167C38.7636 40.5221 38.7636 40.2176 38.9581 40.0231C39.1527 39.8286 39.4571 39.8286 39.6517 40.0231Z" fill="#FFC2C2"/>
</g>
<g clip-path="url(#clip5)">
<path d="M16.1299 15.4359C14.21 17.3558 14.21 20.4686 16.1299 22.3885C18.0498 24.3084 21.1626 24.3084 23.0825 22.3885C25.0024 20.4686 25.0024 17.3558 23.0825 15.4359C21.1626 13.516 18.0498 13.516 16.1299 15.4359Z" fill="#9B0A33"/>
<path d="M15.3248 17.0921C14.3186 19.4567 15.4199 22.1893 17.7846 23.1954C20.1492 24.2016 22.8818 23.1003 23.8879 20.7357C24.8941 18.371 23.7928 15.6385 21.4282 14.6323C19.0635 13.6262 16.3309 14.7274 15.3248 17.0921Z" fill="#AF0931"/>
<path d="M22.558 18.4302C22.3011 18.6871 22.3011 19.1037 22.558 19.3606C22.8149 19.6175 23.2315 19.6175 23.4884 19.3606C23.7453 19.1037 23.7453 18.6871 23.4884 18.4302C23.2315 18.1733 22.8149 18.1733 22.558 18.4302Z" fill="#FFC2C2"/>
<path d="M21.6361 21.6528C21.4669 21.4836 21.4669 21.2129 21.6361 21.0438C21.8052 20.8746 22.0759 20.8746 22.2451 21.0438C22.4142 21.2129 22.4142 21.4836 22.2451 21.6528C22.0759 21.8219 21.8052 21.8219 21.6361 21.6528Z" fill="#FFC2C2"/>
<path d="M18.6673 22.2533C18.3797 21.9657 18.3797 21.4921 18.6673 21.2045C18.9548 20.9169 19.4285 20.9169 19.7161 21.2045C20.0037 21.4921 20.0037 21.9657 19.7161 22.2533C19.4285 22.5409 18.9633 22.5493 18.6673 22.2533Z" fill="#FFC2C2"/>
<path d="M20.4266 19.3436C20.2724 19.4977 20.2724 19.7476 20.4266 19.9018C20.5807 20.056 20.8306 20.056 20.9848 19.9018C21.139 19.7476 21.139 19.4977 20.9848 19.3436C20.8306 19.1894 20.5807 19.1894 20.4266 19.3436Z" fill="#FFC2C2"/>
<path d="M20.6974 17.1277C20.3844 16.8148 20.3844 16.3073 20.6974 15.9943C21.0103 15.6814 21.5178 15.6814 21.8308 15.9943C22.1437 16.3073 22.1437 16.8148 21.8308 17.1277C21.5178 17.4407 21.0188 17.4491 20.6974 17.1277Z" fill="#FFC2C2"/>
<path d="M18.2273 18.6839C18.0074 18.464 18.0074 18.1088 18.2273 17.8888C18.4472 17.6689 18.8025 17.6689 19.0224 17.8888C19.2423 18.1088 19.2423 18.464 19.0224 18.6839C18.8025 18.9038 18.4472 18.9038 18.2273 18.6839Z" fill="#FFC2C2"/>
<path d="M16.4259 20.8069C16.1975 20.5786 16.189 20.198 16.4259 19.9611C16.6627 19.7243 17.0348 19.7243 17.2717 19.9611C17.5 20.1895 17.5085 20.5701 17.2717 20.8069C17.0348 21.0438 16.6627 21.0438 16.4259 20.8069Z" fill="#FFC2C2"/>
<path d="M16.1382 18.1849C15.9944 18.0411 15.9944 17.8043 16.1382 17.6605C16.282 17.5167 16.5188 17.5167 16.6626 17.6605C16.8064 17.8043 16.8064 18.0411 16.6626 18.1849C16.5188 18.3287 16.282 18.3287 16.1382 18.1849Z" fill="#FFC2C2"/>
<path d="M17.9484 16.1549C17.7539 15.9603 17.7539 15.6559 17.9484 15.4613C18.143 15.2668 18.4474 15.2668 18.642 15.4613C18.8365 15.6559 18.8365 15.9604 18.642 16.1549C18.4474 16.3494 18.143 16.3494 17.9484 16.1549Z" fill="#FFC2C2"/>
</g>
<g clip-path="url(#clip6)">
<path d="M41.4531 15.4189C39.5332 13.499 36.4204 13.499 34.5005 15.4189C32.5806 17.3388 32.5806 20.4516 34.5005 22.3715C36.4204 24.2914 39.5332 24.2914 41.4531 22.3715C43.373 20.4516 43.373 17.3388 41.4531 15.4189Z" fill="#9B0A33"/>
<path d="M39.7971 14.614C37.4324 13.6078 34.6999 14.7091 33.6937 17.0737C32.6876 19.4384 33.7889 22.171 36.1535 23.1771C38.5181 24.1833 41.2507 23.082 42.2569 20.7173C43.263 18.3527 42.1617 15.6201 39.7971 14.614Z" fill="#AF0931"/>
<path d="M38.4589 21.8471C38.2019 21.5902 37.7854 21.5902 37.5285 21.8471C37.2715 22.104 37.2715 22.5206 37.5285 22.7775C37.7854 23.0344 38.2019 23.0344 38.4589 22.7775C38.7158 22.5206 38.7158 22.104 38.4589 21.8471Z" fill="#FFC2C2"/>
<path d="M35.2363 20.9251C35.4054 20.756 35.6761 20.756 35.8453 20.9251C36.0144 21.0943 36.0144 21.365 35.8453 21.5341C35.6761 21.7033 35.4054 21.7033 35.2363 21.5341C35.0671 21.365 35.0671 21.0943 35.2363 20.9251Z" fill="#FFC2C2"/>
<path d="M34.6358 17.9563C34.9233 17.6687 35.397 17.6687 35.6846 17.9563C35.9721 18.2439 35.9721 18.7176 35.6846 19.0051C35.397 19.2927 34.9233 19.2927 34.6358 19.0051C34.3482 18.7176 34.3397 18.2524 34.6358 17.9563Z" fill="#FFC2C2"/>
<path d="M37.5455 19.7155C37.3913 19.5613 37.1414 19.5613 36.9872 19.7155C36.8331 19.8697 36.8331 20.1196 36.9872 20.2737C37.1414 20.4279 37.3913 20.4279 37.5455 20.2737C37.6996 20.1196 37.6996 19.8697 37.5455 19.7155Z" fill="#FFC2C2"/>
<path d="M39.7614 19.9863C40.0744 19.6734 40.5819 19.6734 40.8948 19.9863C41.2078 20.2993 41.2078 20.8068 40.8948 21.1197C40.5819 21.4327 40.0744 21.4327 39.7614 21.1197C39.4485 20.8068 39.44 20.3077 39.7614 19.9863Z" fill="#FFC2C2"/>
<path d="M38.2052 17.5164C38.4252 17.2965 38.7804 17.2965 39.0003 17.5164C39.2202 17.7363 39.2202 18.0915 39.0003 18.3115C38.7804 18.5314 38.4252 18.5314 38.2052 18.3115C37.9853 18.0915 37.9853 17.7363 38.2052 17.5164Z" fill="#FFC2C2"/>
<path d="M36.0822 15.7149C36.3106 15.4866 36.6912 15.4781 36.928 15.7149C37.1649 15.9517 37.1649 16.3239 36.928 16.5607C36.6997 16.7891 36.319 16.7976 36.0822 16.5607C35.8454 16.3239 35.8454 15.9517 36.0822 15.7149Z" fill="#FFC2C2"/>
<path d="M38.7041 15.4274C38.8479 15.2836 39.0847 15.2836 39.2285 15.4274C39.3723 15.5712 39.3723 15.808 39.2285 15.9518C39.0847 16.0956 38.8479 16.0956 38.7041 15.9518C38.5603 15.808 38.5603 15.5712 38.7041 15.4274Z" fill="#FFC2C2"/>
<path d="M40.734 17.2374C40.9286 17.0428 41.2331 17.0428 41.4276 17.2374C41.6221 17.4319 41.6221 17.7364 41.4276 17.9309C41.2331 18.1255 40.9286 18.1255 40.734 17.9309C40.5395 17.7364 40.5395 17.4319 40.734 17.2374Z" fill="#FFC2C2"/>
</g>
<g clip-path="url(#clip7)">
<path d="M16.147 40.7591C18.0669 42.679 21.1797 42.679 23.0996 40.7591C25.0195 38.8392 25.0195 35.7264 23.0996 33.8065C21.1797 31.8866 18.0669 31.8866 16.147 33.8065C14.2271 35.7264 14.2271 38.8392 16.147 40.7591Z" fill="#9B0A33"/>
<path d="M17.803 41.564C20.1677 42.5702 22.9002 41.4689 23.9064 39.1042C24.9125 36.7396 23.8112 34.007 21.4466 33.0009C19.082 31.9947 16.3494 33.096 15.3432 35.4606C14.3371 37.8253 15.4384 40.5579 17.803 41.564Z" fill="#AF0931"/>
<path d="M19.1412 34.3309C19.3982 34.5878 19.8147 34.5878 20.0716 34.3309C20.3286 34.074 20.3286 33.6574 20.0716 33.4005C19.8147 33.1436 19.3982 33.1436 19.1412 33.4005C18.8843 33.6574 18.8843 34.074 19.1412 34.3309Z" fill="#FFC2C2"/>
<path d="M22.3638 35.2528C22.1947 35.422 21.924 35.422 21.7548 35.2528C21.5857 35.0837 21.5857 34.813 21.7548 34.6438C21.924 34.4747 22.1947 34.4747 22.3638 34.6438C22.533 34.813 22.533 35.0837 22.3638 35.2528Z" fill="#FFC2C2"/>
<path d="M22.9643 38.2217C22.6768 38.5092 22.2031 38.5092 21.9155 38.2217C21.628 37.9341 21.628 37.4604 21.9155 37.1728C22.2031 36.8853 22.6768 36.8853 22.9643 37.1728C23.2519 37.4604 23.2604 37.9256 22.9643 38.2217Z" fill="#FFC2C2"/>
<path d="M20.0546 36.4625C20.2088 36.6166 20.4587 36.6166 20.6129 36.4625C20.767 36.3083 20.767 36.0584 20.6129 35.9042C20.4587 35.7501 20.2088 35.7501 20.0546 35.9042C19.9005 36.0584 19.9005 36.3083 20.0546 36.4625Z" fill="#FFC2C2"/>
<path d="M17.8387 36.1917C17.5257 36.5046 17.0182 36.5046 16.7053 36.1917C16.3923 35.8787 16.3923 35.3712 16.7053 35.0583C17.0182 34.7453 17.5257 34.7453 17.8387 35.0583C18.1516 35.3712 18.1601 35.8703 17.8387 36.1917Z" fill="#FFC2C2"/>
<path d="M19.3949 38.6616C19.1749 38.8815 18.8197 38.8815 18.5998 38.6616C18.3799 38.4417 18.3799 38.0864 18.5998 37.8665C18.8197 37.6466 19.1749 37.6466 19.3948 37.8665C19.6148 38.0864 19.6148 38.4417 19.3949 38.6616Z" fill="#FFC2C2"/>
<path d="M21.5179 40.4631C21.2895 40.6914 20.9089 40.6999 20.6721 40.4631C20.4352 40.2262 20.4352 39.8541 20.6721 39.6172C20.9004 39.3889 21.2811 39.3804 21.5179 39.6172C21.7547 39.8541 21.7547 40.2262 21.5179 40.4631Z" fill="#FFC2C2"/>
<path d="M18.896 40.7506C18.7522 40.8944 18.5154 40.8944 18.3716 40.7506C18.2278 40.6068 18.2278 40.37 18.3716 40.2262C18.5154 40.0824 18.7522 40.0824 18.896 40.2262C19.0398 40.37 19.0398 40.6068 18.896 40.7506Z" fill="#FFC2C2"/>
<path d="M16.8661 38.9406C16.6715 39.1352 16.367 39.1352 16.1725 38.9406C15.978 38.7461 15.978 38.4416 16.1725 38.2471C16.367 38.0525 16.6715 38.0525 16.8661 38.2471C17.0606 38.4416 17.0606 38.7461 16.8661 38.9406Z" fill="#FFC2C2"/>
</g>
<g clip-path="url(#clip8)">
<path d="M19.8556 12.8676C19.6543 12.4924 19.7358 12.0575 20.0279 11.9008C20.326 11.7408 20.6088 11.8959 20.808 12.1956C20.8442 11.9768 20.8167 11.7537 20.7108 11.5421C20.4452 11.0327 19.7982 10.8429 19.2644 11.1216C18.7365 11.3971 18.5277 12.0383 18.7933 12.5478C19.033 12.9944 19.9067 12.9629 19.8556 12.8676Z" fill="#6E4736"/>
<path d="M22.73 11.3562C22.5287 10.981 22.13 10.796 21.8319 10.9559C21.5338 11.1159 21.4974 11.4345 21.631 11.7693C21.4287 11.6785 21.2609 11.5231 21.149 11.3146C20.8834 10.8052 21.0922 10.1639 21.6201 9.88842C22.148 9.6129 22.7917 9.79675 23.0665 10.3089C23.2938 10.7469 22.7779 11.4455 22.73 11.3562Z" fill="#6E4736"/>
<path d="M19.8262 9.30084L19.8195 9.3044L19.8129 9.30795C18.488 10.0187 17.8226 11.3387 18.3166 12.2753C18.8602 13.3045 19.6964 13.3843 19.7664 13.0059C19.7895 12.8742 19.6951 12.7458 19.5926 12.5707C19.369 12.1538 19.5057 11.7567 19.8338 11.5891C20.2084 11.3967 20.4095 11.6127 20.6332 12.0296C20.8213 12.3803 21.3024 14.4061 21.4044 14.5644C21.5064 14.7227 22.1055 14.9808 22.6492 14.7062C22.6492 14.7062 22.6492 14.7062 22.6558 14.7026C22.6558 14.7026 22.6558 14.7026 22.6625 14.6991C23.2057 14.4077 23.322 13.7658 23.2531 13.5897C23.1776 13.4171 21.7854 11.8716 21.5973 11.5209C21.3736 11.104 21.3116 10.8134 21.6825 10.6144C22.0071 10.4403 22.4136 10.546 22.6342 10.9731C22.7265 11.1451 22.7746 11.2983 22.9007 11.3585C23.2481 11.513 23.6578 10.7819 23.1141 9.75264C22.6166 8.80941 21.1484 8.61703 19.8262 9.30084Z" fill="#D1AD88"/>
</g>
<g clip-path="url(#clip9)">
<path d="M8.79762 27.7862C9.04983 27.4431 9.4775 27.3297 9.74461 27.5261C10.0172 27.7265 9.99878 28.0485 9.81387 28.3571C10.027 28.2957 10.2165 28.175 10.3621 27.9884C10.7078 27.5296 10.601 26.8638 10.1198 26.5017C9.64409 26.1436 8.97537 26.2308 8.62965 26.6897C8.3294 27.0981 8.73357 27.8733 8.79762 27.7862Z" fill="#6E4736"/>
<path d="M11.3984 29.7315C11.6506 29.3885 11.6461 28.949 11.3736 28.7486C11.101 28.5483 10.7977 28.6524 10.5528 28.917C10.5479 28.6953 10.616 28.4769 10.7561 28.2863C11.1018 27.8275 11.7706 27.7403 12.2463 28.0984C12.722 28.4565 12.8328 29.1168 12.4885 29.5851C12.1908 29.9786 11.3383 29.8132 11.3984 29.7315Z" fill="#6E4736"/>
<path d="M12.0053 26.2261L11.9992 26.2216L11.9932 26.2172C10.7818 25.3266 9.30401 25.2934 8.67078 26.1421C7.97527 27.0755 8.26279 27.8647 8.63453 27.7652C8.76343 27.7294 8.83867 27.589 8.95271 27.4212C9.23294 27.04 9.6503 26.9927 9.94264 27.2169C10.2774 27.4723 10.1689 27.7468 9.88869 28.1279C9.65295 28.4486 8.03083 29.754 7.93174 29.9142C7.83265 30.0743 7.85726 30.7262 8.33897 31.099C8.33897 31.099 8.33897 31.099 8.34503 31.1035C8.34503 31.1035 8.34503 31.1035 8.35109 31.1079C8.84775 31.473 9.47729 31.3021 9.60667 31.1641C9.72998 31.0218 10.5268 29.1003 10.7625 28.7796C11.0427 28.3985 11.2784 28.2175 11.6176 28.4669C11.9144 28.6851 11.9937 29.0976 11.7029 29.4803C11.5873 29.6376 11.4696 29.7469 11.4696 29.8866C11.4794 30.2667 12.3156 30.3222 13.0111 29.3888C13.6488 28.5341 13.1912 27.1259 12.0053 26.2261Z" fill="#D1AD88"/>
</g>
<g clip-path="url(#clip10)">
<path d="M23.3753 44.1417C23.6275 43.7986 24.0551 43.6852 24.3223 43.8816C24.5948 44.082 24.5764 44.404 24.3915 44.7126C24.6046 44.6512 24.7941 44.5305 24.9397 44.3439C25.2854 43.885 25.1786 43.2193 24.6974 42.8572C24.2217 42.4991 23.553 42.5863 23.2073 43.0451C22.907 43.4535 23.3112 44.2288 23.3753 44.1417Z" fill="#6E4736"/>
<path d="M25.976 46.087C26.2282 45.744 26.2238 45.3045 25.9512 45.1041C25.6786 44.9037 25.3753 45.0079 25.1304 45.2725C25.1255 45.0507 25.1936 44.8324 25.3337 44.6418C25.6795 44.183 26.3482 44.0958 26.8239 44.4539C27.2996 44.812 27.4104 45.4723 27.0662 45.9406C26.7685 46.3341 25.9159 46.1687 25.976 46.087Z" fill="#6E4736"/>
<path d="M26.5829 42.5815L26.5769 42.5771L26.5708 42.5726C25.3594 41.6821 23.8816 41.6489 23.2484 42.4976C22.5529 43.4309 22.8404 44.2202 23.2122 44.1206C23.3411 44.0849 23.4163 43.9445 23.5303 43.7767C23.8106 43.3955 24.2279 43.3481 24.5203 43.5724C24.855 43.8278 24.7466 44.1022 24.4663 44.4834C24.2306 44.8041 22.6085 46.1095 22.5094 46.2696C22.4103 46.4298 22.4349 47.0817 22.9166 47.4545C22.9166 47.4545 22.9166 47.4545 22.9227 47.4589C22.9227 47.4589 22.9227 47.4589 22.9287 47.4634C23.4254 47.8285 24.0549 47.6575 24.1843 47.5196C24.3076 47.3773 25.1044 45.4558 25.3401 45.1351C25.6204 44.7539 25.856 44.573 26.1952 44.8224C26.492 45.0405 26.5713 45.453 26.2806 45.8358C26.1649 45.9931 26.0473 46.1024 26.0472 46.2421C26.057 46.6222 26.8933 46.6777 27.5888 45.7443C28.2265 44.8896 27.7689 43.4813 26.5829 42.5815Z" fill="#D1AD88"/>
</g>
<g clip-path="url(#clip11)">
<path d="M41.2871 28.4772C40.902 28.2955 40.7086 27.8976 40.8501 27.5977C40.9945 27.2918 41.3141 27.2481 41.6524 27.3703C41.5513 27.173 41.3964 27.0101 41.1854 26.9031C40.6687 26.6518 40.0359 26.8843 39.7728 27.426C39.5126 27.9616 39.7265 28.6012 40.2431 28.8525C40.7015 29.0688 41.3849 28.5234 41.2871 28.4772Z" fill="#6E4736"/>
<path d="M42.6972 25.5517C42.3121 25.37 41.8817 25.4587 41.7373 25.7646C41.5929 26.0705 41.7534 26.3482 42.06 26.5378C41.8433 26.5852 41.616 26.5602 41.402 26.4593C40.8854 26.208 40.6715 25.5684 40.9317 25.0328C41.1919 24.4973 41.8187 24.2618 42.3443 24.5099C42.7876 24.7265 42.7889 25.595 42.6972 25.5517Z" fill="#6E4736"/>
<path d="M39.1404 25.6285L39.1372 25.6353L39.134 25.6421C38.4924 27.0018 38.7433 28.4586 39.6977 28.9172C40.7472 29.4207 41.4666 28.9872 41.2976 28.6414C41.2378 28.5218 41.0856 28.4749 40.899 28.3951C40.4711 28.1932 40.3446 27.7927 40.5086 27.4628C40.695 27.0853 40.9852 27.1391 41.413 27.341C41.773 27.5108 43.3653 28.8524 43.5415 28.9189C43.7177 28.9854 44.3528 28.8362 44.6262 28.2919C44.6262 28.2919 44.6262 28.2919 44.6294 28.2851C44.6294 28.2851 44.6294 28.2851 44.6326 28.2783C44.8957 27.7208 44.6071 27.1358 44.4469 27.0353C44.2836 26.9416 42.2449 26.5282 41.885 26.3584C41.4571 26.1565 41.2344 25.9599 41.414 25.5792C41.5712 25.246 41.9608 25.0891 42.3923 25.301C42.5688 25.3843 42.6986 25.4788 42.8358 25.4521C43.2069 25.3695 43.101 24.5381 42.0515 24.0346C41.0903 23.5727 39.796 24.292 39.1404 25.6285Z" fill="#D1AD88"/>
</g>
<path d="M14.7806 39.9945C17.0037 39.9945 18.8059 38.3235 18.8059 36.2624C18.8059 34.2012 17.0037 32.5303 14.7806 32.5303C12.5575 32.5303 10.7554 34.2012 10.7554 36.2624C10.7554 38.3235 12.5575 39.9945 14.7806 39.9945Z" fill="#F9D7DD"/>
<path d="M14.7806 40.137C12.459 40.137 10.5652 38.3779 10.5652 36.2147C10.5652 34.0436 12.459 32.2845 14.7806 32.2845C17.1023 32.2845 18.9961 34.0436 18.9961 36.2147C18.9961 38.3779 17.1102 40.137 14.7806 40.137ZM14.7806 32.6728C12.6729 32.6728 10.9534 34.2576 10.9534 36.2068C10.9534 38.1561 12.6729 39.7408 14.7806 39.7408C16.8883 39.7408 18.6078 38.1561 18.6078 36.2068C18.6078 34.2576 16.8963 32.6728 14.7806 32.6728Z" fill="#891652"/>
<path d="M14.7807 39.3762C16.6318 39.3762 18.1325 38.0032 18.1325 36.3097C18.1325 34.6161 16.6318 33.2432 14.7807 33.2432C12.9296 33.2432 11.429 34.6161 11.429 36.3097C11.429 38.0032 12.9296 39.3762 14.7807 39.3762Z" fill="#F9D7DD"/>
<path d="M14.7807 39.4079C12.8949 39.4079 11.3577 37.9975 11.3577 36.2622C11.3577 34.5269 12.8949 33.1165 14.7807 33.1165C16.6666 33.1165 18.2038 34.5269 18.2038 36.2622C18.2038 37.9975 16.6745 39.4079 14.7807 39.4079ZM14.7807 33.267C12.9741 33.267 11.5082 34.6061 11.5082 36.2622C11.5082 37.9103 12.9741 39.2574 14.7807 39.2574C16.5873 39.2494 18.0532 37.9103 18.0532 36.2622C18.0532 34.614 16.5873 33.267 14.7807 33.267Z" fill="#891652"/>
<path d="M14.6855 38.8533C16.2697 38.8533 17.5539 37.7429 17.5539 36.3732C17.5539 35.0035 16.2697 33.8931 14.6855 33.8931C13.1014 33.8931 11.8171 35.0035 11.8171 36.3732C11.8171 37.7429 13.1014 38.8533 14.6855 38.8533Z" fill="#F9D7DD"/>
<path d="M14.6854 38.8772C13.0611 38.8772 11.7378 37.7283 11.7378 36.3257C11.7378 34.9153 13.0611 33.7743 14.6854 33.7743C16.3098 33.7743 17.6331 34.9232 17.6331 36.3257C17.6251 37.7283 16.3098 38.8772 14.6854 38.8772ZM14.6854 33.9248C13.1482 33.9248 11.8963 35.0025 11.8963 36.3257C11.8963 37.649 13.1482 38.7266 14.6854 38.7266C16.2226 38.7266 17.4746 37.649 17.4746 36.3257C17.4746 35.0025 16.2226 33.9248 14.6854 33.9248Z" fill="#891652"/>
<path d="M14.6856 38.5047C15.9459 38.5047 16.9676 37.6214 16.9676 36.5317C16.9676 35.4421 15.9459 34.5587 14.6856 34.5587C13.4253 34.5587 12.4036 35.4421 12.4036 36.5317C12.4036 37.6214 13.4253 38.5047 14.6856 38.5047Z" fill="#F9D7DD"/>
<path d="M14.6855 38.5286C13.386 38.5286 12.3242 37.6094 12.3242 36.4763C12.3242 35.3432 13.386 34.4241 14.6855 34.4241C15.985 34.4241 17.0468 35.3432 17.0468 36.4763C17.0468 37.6094 15.985 38.5286 14.6855 38.5286ZM14.6855 34.5905C13.4732 34.5905 12.4827 35.4383 12.4827 36.4843C12.4827 37.5302 13.4732 38.378 14.6855 38.378C15.8978 38.378 16.8883 37.5302 16.8883 36.4843C16.8883 35.4383 15.8978 34.5905 14.6855 34.5905Z" fill="#891652"/>
<path d="M14.8043 38.0293C15.7189 38.0293 16.4603 37.3907 16.4603 36.603C16.4603 35.8153 15.7189 35.1768 14.8043 35.1768C13.8896 35.1768 13.1482 35.8153 13.1482 36.603C13.1482 37.3907 13.8896 38.0293 14.8043 38.0293Z" fill="#F9D7DD"/>
<path d="M14.8043 38.0927C13.8614 38.0927 13.0928 37.4271 13.0928 36.6031C13.0928 35.779 13.8614 35.1134 14.8043 35.1134C15.7472 35.1134 16.5158 35.779 16.5158 36.6031C16.5158 37.4192 15.7472 38.0927 14.8043 38.0927ZM14.8043 35.2323C13.9248 35.2323 13.2037 35.8503 13.2037 36.6031C13.2037 37.3558 13.9168 37.9739 14.8043 37.9739C15.6838 37.9739 16.4049 37.3558 16.4049 36.6031C16.4049 35.8503 15.6838 35.2323 14.8043 35.2323Z" fill="#891652"/>
<path d="M14.8677 37.8233C15.511 37.8233 16.0325 37.3728 16.0325 36.817C16.0325 36.2612 15.511 35.8107 14.8677 35.8107C14.2244 35.8107 13.7029 36.2612 13.7029 36.817C13.7029 37.3728 14.2244 37.8233 14.8677 37.8233Z" fill="#F9D7DD"/>
<path d="M14.8677 37.8787C14.1942 37.8787 13.6475 37.4033 13.6475 36.8169C13.6475 36.2306 14.1942 35.7551 14.8677 35.7551C15.5412 35.7551 16.088 36.2306 16.088 36.8169C16.088 37.4033 15.5412 37.8787 14.8677 37.8787ZM14.8677 35.8661C14.2576 35.8661 13.7584 36.2939 13.7584 36.8169C13.7584 37.3399 14.2576 37.7678 14.8677 37.7678C15.4778 37.7678 15.977 37.3399 15.977 36.8169C15.977 36.2939 15.4778 35.8661 14.8677 35.8661Z" fill="#891652"/>
<path d="M28.2916 28.2609C30.5147 28.2609 32.3169 26.59 32.3169 24.5288C32.3169 22.4677 30.5147 20.7968 28.2916 20.7968C26.0685 20.7968 24.2664 22.4677 24.2664 24.5288C24.2664 26.59 26.0685 28.2609 28.2916 28.2609Z" fill="#F9D7DD"/>
<path d="M28.2916 28.4035C25.9699 28.4035 24.0762 26.6444 24.0762 24.4812C24.0762 22.3101 25.9699 20.551 28.2916 20.551C30.6133 20.551 32.507 22.3101 32.507 24.4812C32.507 26.6444 30.6212 28.4035 28.2916 28.4035ZM28.2916 20.9393C26.1839 20.9393 24.4644 22.524 24.4644 24.4733C24.4644 26.4225 26.1839 28.0073 28.2916 28.0073C30.3993 28.0073 32.1188 26.4225 32.1188 24.4733C32.1188 22.524 30.4073 20.9393 28.2916 20.9393Z" fill="#891652"/>
<path d="M28.2917 27.6426C30.1428 27.6426 31.6434 26.2697 31.6434 24.5761C31.6434 22.8826 30.1428 21.5096 28.2917 21.5096C26.4406 21.5096 24.9399 22.8826 24.9399 24.5761C24.9399 26.2697 26.4406 27.6426 28.2917 27.6426Z" fill="#F9D7DD"/>
<path d="M28.2917 27.6744C26.4059 27.6744 24.8687 26.264 24.8687 24.5287C24.8687 22.7934 26.4059 21.3829 28.2917 21.3829C30.1776 21.3829 31.7148 22.7934 31.7148 24.5287C31.7148 26.264 30.1855 27.6744 28.2917 27.6744ZM28.2917 21.5335C26.4851 21.5335 25.0192 22.8726 25.0192 24.5287C25.0192 26.1768 26.4851 27.5239 28.2917 27.5239C30.0983 27.5159 31.5642 26.1768 31.5642 24.5287C31.5642 22.8805 30.0983 21.5335 28.2917 21.5335Z" fill="#891652"/>
<path d="M28.1965 27.1198C29.7807 27.1198 31.0649 26.0094 31.0649 24.6397C31.0649 23.2699 29.7807 22.1595 28.1965 22.1595C26.6124 22.1595 25.3281 23.2699 25.3281 24.6397C25.3281 26.0094 26.6124 27.1198 28.1965 27.1198Z" fill="#F9D7DD"/>
<path d="M28.1964 27.1437C26.572 27.1437 25.2488 25.9947 25.2488 24.5922C25.2488 23.1818 26.572 22.0408 28.1964 22.0408C29.8208 22.0408 31.1441 23.1897 31.1441 24.5922C31.1361 25.9947 29.8208 27.1437 28.1964 27.1437ZM28.1964 22.1913C26.6592 22.1913 25.4073 23.269 25.4073 24.5922C25.4073 25.9155 26.6592 26.9931 28.1964 26.9931C29.7336 26.9931 30.9856 25.9155 30.9856 24.5922C30.9856 23.269 29.7336 22.1913 28.1964 22.1913Z" fill="#891652"/>
<path d="M28.1966 26.7712C29.4569 26.7712 30.4786 25.8879 30.4786 24.7982C30.4786 23.7085 29.4569 22.8252 28.1966 22.8252C26.9363 22.8252 25.9146 23.7085 25.9146 24.7982C25.9146 25.8879 26.9363 26.7712 28.1966 26.7712Z" fill="#F9D7DD"/>
<path d="M28.1965 26.7951C26.897 26.7951 25.8352 25.8759 25.8352 24.7428C25.8352 23.6097 26.897 22.6906 28.1965 22.6906C29.496 22.6906 30.5578 23.6097 30.5578 24.7428C30.5578 25.8759 29.496 26.7951 28.1965 26.7951ZM28.1965 22.857C26.9841 22.857 25.9937 23.7048 25.9937 24.7507C25.9937 25.7967 26.9841 26.6445 28.1965 26.6445C29.4088 26.6445 30.3993 25.7967 30.3993 24.7507C30.3993 23.7048 29.4088 22.857 28.1965 22.857Z" fill="#891652"/>
<path d="M28.3152 26.2958C29.2299 26.2958 29.9713 25.6572 29.9713 24.8695C29.9713 24.0818 29.2299 23.4432 28.3152 23.4432C27.4006 23.4432 26.6592 24.0818 26.6592 24.8695C26.6592 25.6572 27.4006 26.2958 28.3152 26.2958Z" fill="#F9D7DD"/>
<path d="M28.3153 26.3592C27.3724 26.3592 26.6038 25.6936 26.6038 24.8695C26.6038 24.0455 27.3724 23.3799 28.3153 23.3799C29.2582 23.3799 30.0268 24.0455 30.0268 24.8695C30.0268 25.6857 29.2582 26.3592 28.3153 26.3592ZM28.3153 23.4987C27.4358 23.4987 26.7147 24.1168 26.7147 24.8695C26.7147 25.6223 27.4278 26.2404 28.3153 26.2404C29.1948 26.2404 29.9159 25.6223 29.9159 24.8695C29.9159 24.1168 29.1948 23.4987 28.3153 23.4987Z" fill="#891652"/>
<path d="M28.3787 26.0898C29.022 26.0898 29.5435 25.6392 29.5435 25.0835C29.5435 24.5277 29.022 24.0771 28.3787 24.0771C27.7354 24.0771 27.2139 24.5277 27.2139 25.0835C27.2139 25.6392 27.7354 26.0898 28.3787 26.0898Z" fill="#F9D7DD"/>
<path d="M28.3787 26.1452C27.7052 26.1452 27.1584 25.6697 27.1584 25.0834C27.1584 24.497 27.7052 24.0216 28.3787 24.0216C29.0522 24.0216 29.599 24.497 29.599 25.0834C29.599 25.6697 29.0522 26.1452 28.3787 26.1452ZM28.3787 24.1325C27.7686 24.1325 27.2694 24.5604 27.2694 25.0834C27.2694 25.6064 27.7686 26.0342 28.3787 26.0342C28.9888 26.0342 29.488 25.6064 29.488 25.0834C29.488 24.5604 28.9888 24.1325 28.3787 24.1325Z" fill="#891652"/>
<path d="M33.2694 39.6387C35.4925 39.6387 37.2947 37.9678 37.2947 35.9067C37.2947 33.8455 35.4925 32.1746 33.2694 32.1746C31.0463 32.1746 29.2441 33.8455 29.2441 35.9067C29.2441 37.9678 31.0463 39.6387 33.2694 39.6387Z" fill="#F9D7DD"/>
<path d="M33.2694 39.7813C30.9477 39.7813 29.054 38.0222 29.054 35.859C29.054 33.6879 30.9477 31.9288 33.2694 31.9288C35.5911 31.9288 37.4848 33.6879 37.4848 35.859C37.4848 38.0222 35.599 39.7813 33.2694 39.7813ZM33.2694 32.3171C31.1617 32.3171 29.4422 33.9018 29.4422 35.8511C29.4422 37.8003 31.1617 39.3851 33.2694 39.3851C35.3771 39.3851 37.0966 37.8003 37.0966 35.8511C37.0966 33.9018 35.385 32.3171 33.2694 32.3171Z" fill="#891652"/>
<path d="M33.2695 39.0204C35.1206 39.0204 36.6212 37.6475 36.6212 35.9539C36.6212 34.2604 35.1206 32.8875 33.2695 32.8875C31.4184 32.8875 29.9177 34.2604 29.9177 35.9539C29.9177 37.6475 31.4184 39.0204 33.2695 39.0204Z" fill="#F9D7DD"/>
<path d="M33.2695 39.0522C31.3836 39.0522 29.8464 37.6418 29.8464 35.9065C29.8464 34.1712 31.3836 32.7607 33.2695 32.7607C35.1554 32.7607 36.6926 34.1712 36.6926 35.9065C36.6926 37.6418 35.1633 39.0522 33.2695 39.0522ZM33.2695 32.9113C31.4629 32.9113 29.997 34.2504 29.997 35.9065C29.997 37.5546 31.4629 38.9017 33.2695 38.9017C35.0761 38.8937 36.542 37.5546 36.542 35.9065C36.542 34.2583 35.0761 32.9113 33.2695 32.9113Z" fill="#891652"/>
<path d="M33.1743 38.4976C34.7585 38.4976 36.0427 37.3872 36.0427 36.0175C36.0427 34.6477 34.7585 33.5374 33.1743 33.5374C31.5901 33.5374 30.3059 34.6477 30.3059 36.0175C30.3059 37.3872 31.5901 38.4976 33.1743 38.4976Z" fill="#F9D7DD"/>
<path d="M33.1742 38.5215C31.5498 38.5215 30.2266 37.3725 30.2266 35.97C30.2266 34.5596 31.5498 33.4186 33.1742 33.4186C34.7986 33.4186 36.1218 34.5675 36.1218 35.97C36.1139 37.3725 34.7986 38.5215 33.1742 38.5215ZM33.1742 33.5691C31.637 33.5691 30.385 34.6468 30.385 35.97C30.385 37.2933 31.637 38.3709 33.1742 38.3709C34.7114 38.3709 35.9634 37.2933 35.9634 35.97C35.9634 34.6468 34.7114 33.5691 33.1742 33.5691Z" fill="#891652"/>
<path d="M33.1744 38.149C34.4347 38.149 35.4564 37.2657 35.4564 36.176C35.4564 35.0864 34.4347 34.203 33.1744 34.203C31.914 34.203 30.8923 35.0864 30.8923 36.176C30.8923 37.2657 31.914 38.149 33.1744 38.149Z" fill="#F9D7DD"/>
<path d="M33.1743 38.1729C31.8748 38.1729 30.813 37.2537 30.813 36.1206C30.813 34.9875 31.8748 34.0684 33.1743 34.0684C34.4738 34.0684 35.5355 34.9875 35.5355 36.1206C35.5355 37.2537 34.4738 38.1729 33.1743 38.1729ZM33.1743 34.2348C31.9619 34.2348 30.9715 35.0826 30.9715 36.1285C30.9715 37.1745 31.9619 38.0223 33.1743 38.0223C34.3866 38.0223 35.3771 37.1745 35.3771 36.1285C35.3771 35.0826 34.3866 34.2348 33.1743 34.2348Z" fill="#891652"/>
<path d="M33.293 37.6736C34.2076 37.6736 34.9491 37.035 34.9491 36.2473C34.9491 35.4596 34.2076 34.821 33.293 34.821C32.3784 34.821 31.637 35.4596 31.637 36.2473C31.637 37.035 32.3784 37.6736 33.293 37.6736Z" fill="#F9D7DD"/>
<path d="M33.2931 37.737C32.3501 37.737 31.5815 37.0714 31.5815 36.2474C31.5815 35.4233 32.3501 34.7577 33.2931 34.7577C34.236 34.7577 35.0046 35.4233 35.0046 36.2474C35.0046 37.0635 34.236 37.737 33.2931 37.737ZM33.2931 34.8765C32.4135 34.8765 31.6925 35.4946 31.6925 36.2474C31.6925 37.0001 32.4056 37.6182 33.2931 37.6182C34.1726 37.6182 34.8937 37.0001 34.8937 36.2474C34.8937 35.4946 34.1726 34.8765 33.2931 34.8765Z" fill="#891652"/>
<path d="M33.3564 37.4676C33.9997 37.4676 34.5212 37.017 34.5212 36.4613C34.5212 35.9055 33.9997 35.455 33.3564 35.455C32.7131 35.455 32.1917 35.9055 32.1917 36.4613C32.1917 37.017 32.7131 37.4676 33.3564 37.4676Z" fill="#F9D7DD"/>
<path d="M33.3565 37.523C32.683 37.523 32.1362 37.0476 32.1362 36.4612C32.1362 35.8748 32.683 35.3994 33.3565 35.3994C34.03 35.3994 34.5767 35.8748 34.5767 36.4612C34.5767 37.0476 34.03 37.523 33.3565 37.523ZM33.3565 35.5103C32.7464 35.5103 32.2472 35.9382 32.2472 36.4612C32.2472 36.9842 32.7464 37.412 33.3565 37.412C33.9666 37.412 34.4658 36.9842 34.4658 36.4612C34.4658 35.9382 33.9666 35.5103 33.3565 35.5103Z" fill="#891652"/>
<path d="M42.6038 18.6693C42.2294 18.7098 41.893 18.8565 41.5616 19.031C41.2834 19.1777 40.9267 19.3523 40.7497 19.6204C40.646 19.7772 40.7674 19.9416 40.9293 19.9695C41.2252 20.0201 41.5338 19.8354 41.7944 19.7165C42.1131 19.5698 42.4192 19.4458 42.7682 19.4003C43.2539 19.3421 43.0794 18.6187 42.6038 18.6693Z" fill="#F8D87D"/>
<path d="M40.9317 19.9719C41.2277 20.0225 41.5363 19.8378 41.7968 19.7189C42.1155 19.5722 42.4216 19.4483 42.7707 19.4028C43.2285 19.3446 43.0945 18.692 42.6745 18.6692C42.8238 18.8741 42.7909 19.1979 42.4722 19.2383C42.1206 19.2839 41.817 19.4078 41.4983 19.5545C41.2656 19.6608 40.9924 19.8176 40.7268 19.8151C40.7597 19.8935 40.8381 19.9567 40.9317 19.9719Z" fill="#FFC44D"/>
<path d="M34.4905 11.8231C34.2226 11.5585 33.8963 11.3905 33.5516 11.244C33.262 11.1211 32.9014 10.955 32.5817 10.9872C32.3946 11.006 32.3439 11.204 32.4246 11.347C32.5725 11.6084 32.9106 11.7308 33.1674 11.8576C33.4825 12.0119 33.772 12.1708 34.0279 12.4125C34.3799 12.7521 34.8303 12.1597 34.4905 11.8231Z" fill="#F8D87D"/>
<path d="M32.4244 11.3506C32.5722 11.6119 32.9103 11.7344 33.1671 11.8612C33.4822 12.0155 33.7717 12.1743 34.0276 12.4161C34.3621 12.7341 34.7831 12.2178 34.5354 11.878C34.4709 12.1231 34.1992 12.3023 33.9664 12.0809C33.7089 11.8371 33.421 11.6802 33.1059 11.526C32.8765 11.4127 32.5823 11.3001 32.4164 11.0927C32.3764 11.1677 32.377 11.2685 32.4244 11.3506Z" fill="#FFC44D"/>
<path d="M27.8123 18.7127C27.5444 18.4482 27.218 18.2802 26.8734 18.1337C26.5838 18.0108 26.2231 17.8447 25.9034 17.8769C25.7163 17.8956 25.6657 18.0936 25.7464 18.2367C25.8942 18.498 26.2324 18.6205 26.4892 18.7473C26.8043 18.9015 27.0938 19.0604 27.3497 19.3022C27.7017 19.6418 28.1521 19.0493 27.8123 18.7127Z" fill="#F8D87D"/>
<path d="M25.7461 18.2403C25.894 18.5016 26.2321 18.6241 26.4889 18.7508C26.804 18.9051 27.0935 19.064 27.3494 19.3057C27.6838 19.6238 28.1049 19.1075 27.8572 18.7676C27.7927 19.0128 27.521 19.1919 27.2882 18.9705C27.0307 18.7268 26.7428 18.5699 26.4277 18.4156C26.1983 18.3024 25.9041 18.1898 25.7382 17.9824C25.6982 18.0574 25.6987 18.1581 25.7461 18.2403Z" fill="#FFC44D"/>
<path d="M16.2569 18.1795C15.9889 17.915 15.6626 17.747 15.3179 17.6005C15.0284 17.4776 14.6677 17.3115 14.348 17.3437C14.1609 17.3624 14.1102 17.5604 14.191 17.7035C14.3388 17.9648 14.677 18.0873 14.9338 18.2141C15.2489 18.3683 15.5384 18.5272 15.7943 18.769C16.1463 19.1086 16.5966 18.5161 16.2569 18.1795Z" fill="#F8D87D"/>
<path d="M14.1907 17.7071C14.3385 17.9684 14.6767 18.0908 14.9335 18.2176C15.2486 18.3719 15.5381 18.5308 15.794 18.7725C16.1284 19.0906 16.5495 18.5742 16.3017 18.2344C16.2373 18.4796 15.9656 18.6587 15.7328 18.4373C15.4753 18.1936 15.1874 18.0367 14.8723 17.8824C14.6429 17.7692 14.3487 17.6566 14.1828 17.4492C14.1428 17.5242 14.1433 17.6249 14.1907 17.7071Z" fill="#FFC44D"/>
<path d="M21.665 31.3413C21.3541 31.5536 21.1266 31.8417 20.9168 32.1519C20.7407 32.4126 20.5086 32.7348 20.479 33.0547C20.4616 33.2419 20.6462 33.3296 20.8021 33.2778C21.0869 33.1827 21.2718 32.8743 21.4455 32.6465C21.6572 32.3668 21.8686 32.1131 22.1549 31.9083C22.5557 31.6278 22.0605 31.0723 21.665 31.3413Z" fill="#F8D87D"/>
<path d="M20.8056 33.2787C21.0904 33.1837 21.2753 32.8753 21.449 32.6475C21.6608 32.3678 21.8721 32.1141 22.1584 31.9092C22.5347 31.6419 22.1085 31.1298 21.7276 31.3078C21.9558 31.418 22.0796 31.719 21.8177 31.9051C21.5292 32.1111 21.32 32.3636 21.1082 32.6434C20.9532 32.8469 20.7863 33.114 20.5509 33.2371C20.6169 33.2907 20.7159 33.3095 20.8056 33.2787Z" fill="#FFC44D"/>
<path d="M12.5142 39.1495C12.2032 39.3618 11.9758 39.6499 11.766 39.9602C11.5898 40.2208 11.3577 40.543 11.3281 40.8629C11.3107 41.0501 11.4953 41.1378 11.6512 41.086C11.936 40.9909 12.121 40.6825 12.2946 40.4548C12.5064 40.175 12.7178 39.9213 13.004 39.7165C13.4048 39.436 12.9096 38.8805 12.5142 39.1495Z" fill="#F8D87D"/>
<path d="M11.6547 41.087C11.9395 40.9919 12.1245 40.6835 12.2981 40.4557C12.5099 40.176 12.7213 39.9223 13.0075 39.7175C13.3838 39.4501 12.9577 38.938 12.5767 39.116C12.8049 39.2263 12.9287 39.5273 12.6668 39.7133C12.3783 39.9194 12.1691 40.1719 11.9573 40.4516C11.8023 40.6551 11.6354 40.9223 11.4 41.0453C11.466 41.099 11.565 41.1177 11.6547 41.087Z" fill="#FFC44D"/>
<path d="M31.0032 43.5941C30.6922 43.8064 30.4648 44.0945 30.255 44.4048C30.0789 44.6654 29.8467 44.9876 29.8171 45.3075C29.7997 45.4947 29.9843 45.5824 30.1402 45.5306C30.425 45.4355 30.61 45.1271 30.7836 44.8994C30.9954 44.6196 31.2068 44.3659 31.4931 44.1611C31.8938 43.8806 31.3986 43.3251 31.0032 43.5941Z" fill="#F8D87D"/>
<path d="M30.1437 45.5315C30.4285 45.4365 30.6135 45.1281 30.7871 44.9003C30.9989 44.6206 31.2103 44.3669 31.4966 44.162C31.8728 43.8947 31.4467 43.3826 31.0657 43.5606C31.294 43.6709 31.4177 43.9718 31.1558 44.1579C30.8673 44.364 30.6581 44.6165 30.4463 44.8962C30.2913 45.0997 30.1244 45.3668 29.889 45.4899C29.955 45.5435 30.054 45.5623 30.1437 45.5315Z" fill="#FFC44D"/>
<path d="M34.1031 28.7725C33.8699 28.4768 33.5669 28.2697 33.243 28.0817C32.9709 27.9238 32.6336 27.7144 32.3123 27.7068C32.1244 27.7022 32.0496 27.8924 32.112 28.0444C32.2263 28.322 32.5467 28.4854 32.7858 28.643C33.0794 28.8351 33.347 29.0285 33.571 29.3001C33.8783 29.6807 34.3985 29.1485 34.1031 28.7725Z" fill="#F8D87D"/>
<path d="M32.1113 28.0478C32.2257 28.3255 32.546 28.4888 32.7852 28.6464C33.0788 28.8385 33.3464 29.032 33.5704 29.3036C33.8629 29.6606 34.3446 29.2003 34.1408 28.8325C34.0465 29.0678 33.7547 29.2119 33.5511 28.9633C33.3258 28.6896 33.0595 28.4983 32.7659 28.3062C32.5523 28.1655 32.2743 28.0173 32.1354 27.7909C32.0864 27.8605 32.0745 27.9605 32.1113 28.0478Z" fill="#FFC44D"/>
<path d="M42.6497 40.1828C42.4165 39.8871 42.1135 39.68 41.7896 39.4919C41.5175 39.3341 41.1802 39.1246 40.859 39.1171C40.671 39.1125 40.5962 39.3027 40.6586 39.4546C40.773 39.7323 41.0933 39.8956 41.3325 40.0532C41.6261 40.2453 41.8937 40.4388 42.1177 40.7104C42.4249 41.091 42.9452 40.5588 42.6497 40.1828Z" fill="#F8D87D"/>
<path d="M40.6579 39.4581C40.7723 39.7357 41.0927 39.8991 41.3318 40.0567C41.6254 40.2488 41.893 40.4423 42.117 40.7139C42.4095 41.0709 42.8912 40.6106 42.6875 40.2428C42.5931 40.478 42.3014 40.6222 42.0978 40.3736C41.8724 40.0999 41.6062 39.9086 41.3126 39.7165C41.0989 39.5757 40.8209 39.4276 40.682 39.2012C40.633 39.2707 40.6211 39.3708 40.6579 39.4581Z" fill="#FFC44D"/>
<path d="M48.0568 24.6732C47.7142 24.8294 47.441 25.0745 47.1814 25.3445C46.9635 25.5713 46.6798 25.8492 46.5961 26.1594C46.5471 26.3409 46.714 26.4588 46.8765 26.4343C47.1733 26.3892 47.4081 26.1168 47.618 25.9219C47.8744 25.6824 48.1259 25.4684 48.4429 25.3153C48.8856 25.1073 48.4923 24.4755 48.0568 24.6732Z" fill="#F8D87D"/>
<path d="M46.8796 26.4358C47.1764 26.3907 47.4112 26.1184 47.6211 25.9235C47.8775 25.684 48.129 25.47 48.446 25.3169C48.8623 25.1176 48.5297 24.5404 48.1239 24.6509C48.3301 24.7984 48.4007 25.1161 48.111 25.2548C47.7915 25.4087 47.5424 25.6218 47.2861 25.8614C47.0986 26.0355 46.8886 26.2703 46.6357 26.3515C46.6916 26.4155 46.786 26.4509 46.8796 26.4358Z" fill="#FFC44D"/>
<path d="M17.0861 11.1674C16.7435 11.3237 16.4703 11.5688 16.2107 11.8387C15.9928 12.0656 15.7091 12.3435 15.6254 12.6537C15.5764 12.8352 15.7433 12.9531 15.9058 12.9285C16.2026 12.8834 16.4374 12.611 16.6473 12.4162C16.9037 12.1766 17.1552 11.9627 17.4722 11.8096C17.9149 11.6016 17.5216 10.9698 17.0861 11.1674Z" fill="#F8D87D"/>
<path d="M15.9089 12.9301C16.2057 12.885 16.4405 12.6126 16.6504 12.4178C16.9068 12.1782 17.1583 11.9643 17.4753 11.8112C17.8916 11.6119 17.559 11.0346 17.1532 11.1451C17.3594 11.2927 17.43 11.6103 17.1403 11.7491C16.8208 11.9029 16.5717 12.1161 16.3154 12.3556C16.1279 12.5297 15.9179 12.7645 15.665 12.8457C15.7209 12.9098 15.8152 12.9452 15.9089 12.9301Z" fill="#FFC44D"/>
<path d="M10.5085 20.5897C10.1658 20.7459 9.89268 20.991 9.63307 21.261C9.41512 21.4878 9.1315 21.7657 9.0478 22.0759C8.99871 22.2574 9.1657 22.3753 9.32812 22.3508C9.62496 22.3057 9.85978 22.0333 10.0697 21.8384C10.326 21.5989 10.5776 21.3849 10.8946 21.2318C11.3373 21.0238 10.9439 20.392 10.5085 20.5897Z" fill="#F8D87D"/>
<path d="M9.33123 22.3524C9.62807 22.3072 9.86288 22.0349 10.0728 21.84C10.3291 21.6005 10.5807 21.3865 10.8977 21.2334C11.314 21.0341 10.9813 20.4569 10.5756 20.5674C10.7817 20.7149 10.8524 21.0326 10.5626 21.1713C10.2432 21.3252 9.99408 21.5383 9.73772 21.7779C9.55026 21.952 9.3403 22.1868 9.08739 22.268C9.14328 22.332 9.23761 22.3674 9.33123 22.3524Z" fill="#FFC44D"/>
<path d="M26.9993 30.4199C26.718 30.1696 26.3834 30.0187 26.0316 29.8903C25.7361 29.7825 25.3673 29.6353 25.0497 29.6841C24.8638 29.7125 24.8235 29.9128 24.9115 30.0515C25.0727 30.3048 25.4167 30.4096 25.6797 30.5229C26.0024 30.6607 26.2998 30.8043 26.5678 31.0325C26.937 31.3535 27.356 30.7385 26.9993 30.4199Z" fill="#F8D87D"/>
<path d="M24.9115 30.055C25.0726 30.3084 25.4166 30.4131 25.6797 30.5264C26.0024 30.6642 26.2997 30.8079 26.5678 31.036C26.9182 31.3364 27.312 30.7989 27.047 30.4724C26.9953 30.7205 26.7332 30.9135 26.4893 30.7044C26.2195 30.4744 25.9239 30.3326 25.6012 30.1948C25.3662 30.0937 25.0666 29.9964 24.8902 29.7979C24.8541 29.8749 24.8599 29.9755 24.9115 30.055Z" fill="#FFC44D"/>
<path d="M36.7312 45.4933C36.4499 45.243 36.1154 45.0921 35.7636 44.9636C35.468 44.8559 35.0992 44.7087 34.7816 44.7574C34.5958 44.7858 34.5554 44.9862 34.6435 45.1249C34.8046 45.3782 35.1486 45.483 35.4117 45.5963C35.7344 45.734 36.0317 45.8777 36.2998 46.1059C36.6689 46.4268 37.088 45.8118 36.7312 45.4933Z" fill="#F8D87D"/>
<path d="M34.6434 45.1284C34.8046 45.3817 35.1486 45.4865 35.4116 45.5998C35.7343 45.7376 36.0316 45.8812 36.2997 46.1094C36.6502 46.4097 37.0439 45.8723 36.7789 45.5457C36.7272 45.7939 36.4651 45.9869 36.2212 45.7778C35.9514 45.5477 35.6558 45.406 35.3331 45.2682C35.0981 45.167 34.7985 45.0698 34.6221 44.8712C34.586 44.9483 34.5918 45.0488 34.6434 45.1284Z" fill="#FFC44D"/>
<path d="M39.9312 11.0045C39.6499 10.7542 39.3153 10.6033 38.9635 10.4749C38.668 10.3671 38.2992 10.2199 37.9816 10.2687C37.7957 10.2971 37.7554 10.4974 37.8434 10.6361C38.0046 10.8894 38.3486 10.9942 38.6116 11.1075C38.9343 11.2453 39.2316 11.3889 39.4997 11.6171C39.8689 11.938 40.2879 11.323 39.9312 11.0045Z" fill="#F8D87D"/>
<path d="M37.8433 10.6396C38.0045 10.8929 38.3485 10.9977 38.6115 11.111C38.9342 11.2488 39.2316 11.3925 39.4996 11.6206C39.8501 11.9209 40.2438 11.3835 39.9788 11.057C39.9272 11.3051 39.6651 11.4981 39.4212 11.289C39.1514 11.059 38.8557 10.9172 38.5331 10.7794C38.2981 10.6783 37.9985 10.581 37.822 10.3825C37.786 10.4595 37.7918 10.5601 37.8433 10.6396Z" fill="#FFC44D"/>
<path d="M30.5091 8.33777C30.2278 8.08745 29.8932 7.93657 29.5414 7.80812C29.2459 7.70036 28.8771 7.55316 28.5595 7.6019C28.3736 7.63031 28.3332 7.83068 28.4213 7.96935C28.5825 8.22267 28.9265 8.32746 29.1895 8.44077C29.5122 8.57853 29.8095 8.72219 30.0776 8.95037C30.4467 9.2713 30.8658 8.6563 30.5091 8.33777Z" fill="#F8D87D"/>
<path d="M28.4212 7.97287C28.5824 8.2262 28.9264 8.33099 29.1894 8.4443C29.5121 8.58205 29.8095 8.72572 30.0775 8.95389C30.428 9.2542 30.8217 8.71674 30.5567 8.39022C30.505 8.63838 30.243 8.83135 29.999 8.62228C29.7293 8.39223 29.4336 8.25044 29.1109 8.11269C28.876 8.01151 28.5763 7.91429 28.3999 7.71573C28.3639 7.79274 28.3696 7.89331 28.4212 7.97287Z" fill="#FFC44D"/>
<defs>
<clipPath id="clip0">
<rect width="12.0889" height="12.0889" fill="white" transform="translate(22.7559 35.022)"/>
</clipPath>
<clipPath id="clip1">
<rect width="12.0889" height="12.0889" fill="white" transform="translate(34.8445 21.1554) rotate(180)"/>
</clipPath>
<clipPath id="clip2">
<rect width="12.0889" height="12.0889" fill="white" transform="translate(35.7334 34.1331) rotate(-90)"/>
</clipPath>
<clipPath id="clip3">
<rect width="12.0889" height="12.0889" fill="white" transform="translate(21.8669 22.0443) rotate(90)"/>
</clipPath>
<clipPath id="clip4">
<rect width="12.0889" height="12.0889" fill="white" transform="translate(29.4287 37.2657) rotate(-45)"/>
</clipPath>
<clipPath id="clip5">
<rect width="12.0889" height="12.0889" fill="white" transform="translate(28.1714 18.9122) rotate(135)"/>
</clipPath>
<clipPath id="clip6">
<rect width="12.0889" height="12.0889" fill="white" transform="translate(37.9768 27.4604) rotate(-135)"/>
</clipPath>
<clipPath id="clip7">
<rect width="12.0889" height="12.0889" fill="white" transform="translate(19.6233 28.7175) rotate(45)"/>
</clipPath>
<clipPath id="clip8">
<rect width="8.71111" height="8.71111" fill="white" transform="translate(15.3472 10.2209) rotate(-28.2126)"/>
</clipPath>
<clipPath id="clip9">
<rect width="8.71111" height="8.71111" fill="white" transform="translate(9.24878 22.5779) rotate(36.3216)"/>
</clipPath>
<clipPath id="clip10">
<rect width="8.71111" height="8.71111" fill="white" transform="translate(23.8264 38.9333) rotate(36.3216)"/>
</clipPath>
<clipPath id="clip11">
<rect width="8.71111" height="8.71111" fill="white" transform="translate(36.0889 29.0337) rotate(-64.7386)"/>
</clipPath>
</defs>
</svg>
