<svg width="39" height="60" viewBox="0 0 39 60" fill="none" xmlns="http://www.w3.org/2000/svg">
<rect x="0.000244141" width="39" height="60" fill="white"/>
<path d="M13.1424 35.8688C12.7918 35.7774 12.4412 35.9907 12.3498 36.3413C12.3498 36.4328 11.7935 38.4523 9.75105 38.4523C9.39287 38.4523 9.10327 38.7419 9.10327 39.1001C9.10327 39.4583 9.39287 39.7479 9.75105 39.7479C11.5877 39.7098 13.1728 38.4371 13.6149 36.6538C13.7063 36.3108 13.4929 35.9526 13.1424 35.8688ZM22.1122 38.4523C20.0927 38.4523 19.5135 36.4328 19.5135 36.3413C19.422 35.9831 19.0638 35.7621 18.7056 35.8536C18.3475 35.945 18.1265 36.3032 18.2179 36.6614C18.6599 38.4599 20.2679 39.7326 22.1198 39.7555C22.478 39.7555 22.7676 39.4659 22.7676 39.1077C22.76 38.7419 22.4704 38.4523 22.1122 38.4523ZM34.2828 17.7844C31.3869 17.1442 28.4757 18.7751 27.5002 21.572C27.2182 22.3874 27.2182 23.279 27.5002 24.0945C27.8355 25.0395 28.75 25.6568 29.7484 25.6263C30.1066 25.5882 30.3733 25.2681 30.3352 24.9099C30.2971 24.5517 29.977 24.285 29.6188 24.3231C29.1997 24.3002 28.8339 24.0259 28.7119 23.622C28.5443 23.0809 28.5671 22.5017 28.7653 21.9682C29.5274 19.8344 31.745 18.5845 33.9704 19.0418C36.0585 19.5981 37.7199 21.8082 37.7199 24.1478C37.7046 26.5179 36.3176 28.667 34.1609 29.6654C33.2464 30.0236 32.2938 30.2751 31.3259 30.4046C30.8153 30.5037 30.2818 30.5951 29.756 30.7247C27.3097 31.3039 26.0065 32.668 26.0065 34.558C26.0065 34.9162 26.2961 35.2058 26.6543 35.2058C27.0125 35.2058 27.302 34.9162 27.302 34.558C27.302 32.9881 28.7957 32.2946 30.0456 31.9821C30.5333 31.8678 31.0439 31.7764 31.5317 31.6849C32.6062 31.5325 33.6579 31.2505 34.6639 30.8542C37.2855 29.6501 38.9697 27.0362 39.0002 24.1554C39.0154 21.2138 37.0949 18.6303 34.2828 17.7844Z" fill="#FFD93B"/>
<path d="M30.4113 23.7363C30.1827 23.462 29.7711 23.4239 29.4968 23.6525C28.5518 24.4298 27.4696 25.0395 26.3112 25.4434C23.5067 26.4036 20.4355 26.2893 17.7148 25.1081C17.6767 25.0928 17.6462 25.0852 17.6081 25.0776C16.7775 24.7042 15.9925 24.2164 15.2838 23.6372C13.0432 21.8235 10.2311 20.848 7.35037 20.8861C4.98026 20.8785 2.6635 21.5339 0.65157 22.7761C0.217177 23.0199 -0.0343134 23.4924 0.00379127 23.9954C0.0266541 24.4832 0.331491 24.9176 0.788747 25.1157C1.37556 25.3748 1.92427 25.7101 2.43487 26.0988C2.47297 26.1293 2.5187 26.1445 2.5568 26.1598C2.90736 26.4265 3.28079 26.7313 3.6847 27.0895C4.79736 28.0345 5.58993 29.3072 5.94049 30.7247C6.35965 32.4166 7.29702 33.9331 8.62306 35.0534C9.91862 36.2194 11.5495 36.951 13.2794 37.1491H13.3404L13.3176 37.1644C13.3785 37.1644 13.4395 37.1644 13.4928 37.1491C13.5157 37.1491 13.5309 37.1491 13.5538 37.1491H18.7894C25.2824 37.1491 30.5637 31.2963 30.5637 24.1402C30.5637 23.9954 30.5104 23.8506 30.4113 23.7363Z" fill="#FFD93B"/>
<path d="M17.7148 25.1309C16.8384 24.7498 16.023 24.2469 15.2838 23.6448C13.0432 21.831 10.2311 20.8555 7.35037 20.8937C4.98026 20.8784 2.6635 21.5338 0.65157 22.776C0.217177 23.0199 -0.0343134 23.4924 0.00379127 23.9954C0.0266541 24.4831 0.331491 24.9175 0.788747 25.1156C1.37556 25.3748 1.92427 25.7101 2.43487 26.0987C2.65587 26.2512 2.94547 26.2512 3.16648 26.0987C4.10385 25.5272 5.18602 25.23 6.29106 25.2452C7.44944 25.23 8.57734 25.5577 9.54519 26.1978C10.071 26.5636 10.6502 26.8532 11.2599 27.0437C11.519 27.1123 11.7019 27.3486 11.7095 27.6153V29.3529C11.7095 30.4274 12.5859 31.3038 13.6605 31.3038C13.7672 31.3115 13.8815 31.3115 13.9958 31.3038C14.9637 31.1133 15.6496 30.2522 15.6191 29.2691V27.6077C15.6115 27.3029 15.8096 27.0361 16.1068 26.9599C16.6784 26.7999 17.2347 26.5865 17.7682 26.3121C17.8901 26.2435 17.9892 26.1369 18.0501 26.0073C18.1873 25.6644 18.0425 25.2833 17.7148 25.1309Z" fill="#F35244"/>
<path d="M30.5637 39.1002C30.5637 39.4584 30.2741 39.748 29.9159 39.748H27.0657L26.6618 40.5634C26.0826 41.676 24.9242 42.3696 23.6667 42.3543H8.19626C6.9388 42.3696 5.78042 41.6837 5.20123 40.5634L4.78208 39.748H1.9471C1.58891 39.748 1.29932 39.4584 1.29932 39.1002C1.29932 38.742 1.58891 38.4524 1.9471 38.4524H5.20123H26.6618H29.9159C30.2741 38.4524 30.5637 38.742 30.5637 39.1002Z" fill="#EBEBE9"/>
</svg>
