<svg width="100" height="100" viewBox="0 0 100 100" fill="none" xmlns="http://www.w3.org/2000/svg">
<g clip-path="url(#clip0)">
<path d="M99.0763 49.9827C99.0763 77.0328 80.0101 103.606 50.1 98.9589C23.4073 94.7882 1.12372 77.0328 1.12372 49.9827C1.12372 22.9325 23.7648 7.08373 50.1 1.00638C79.8909 -5.78595 99.0763 23.0517 99.0763 49.9827Z" fill="#ED9898"/>
<path d="M25.9098 32.704C29.5295 32.704 32.4638 29.7696 32.4638 26.1499C32.4638 22.5303 29.5295 19.5959 25.9098 19.5959C22.2901 19.5959 19.3558 22.5303 19.3558 26.1499C19.3558 29.7696 22.2901 32.704 25.9098 32.704Z" fill="#FFC2C2"/>
<path d="M55.1049 16.4979C55.1049 18.8812 53.1983 20.7878 50.815 20.7878C48.4317 20.7878 46.5251 18.8812 46.5251 16.4979C46.5251 14.1146 48.4317 12.208 50.815 12.208C53.1983 12.208 55.1049 14.1146 55.1049 16.4979Z" fill="#FFC2C2"/>
<path d="M80.2484 33.1805C80.2484 37.2321 76.9118 40.5687 72.8603 40.5687C68.8087 40.5687 65.4721 37.2321 65.4721 33.1805C65.4721 29.129 68.8087 25.7924 72.8603 25.7924C76.9118 25.6732 80.2484 29.0098 80.2484 33.1805Z" fill="#FFC2C2"/>
<path d="M47.3592 41.1646C49.531 41.1646 51.2916 39.404 51.2916 37.2322C51.2916 35.0604 49.531 33.2998 47.3592 33.2998C45.1874 33.2998 43.4268 35.0604 43.4268 37.2322C43.4268 39.404 45.1874 41.1646 47.3592 41.1646Z" fill="#FFC2C2"/>
<path d="M29.8422 54.8682C29.8422 59.2773 26.2673 62.8522 21.8582 62.8522C17.4491 62.8522 13.8742 59.2773 13.8742 54.8682C13.8742 50.4592 17.4491 46.8843 21.8582 46.8843C26.2673 46.8843 29.8422 50.4592 29.8422 54.8682Z" fill="#FFC2C2"/>
<path d="M58.2031 61.4225C58.2031 64.5207 55.7007 67.0232 52.6024 67.0232C49.5042 67.0232 47.0017 64.5207 47.0017 61.4225C47.0017 58.3242 49.5042 55.8218 52.6024 55.8218C55.7007 55.7026 58.2031 58.3242 58.2031 61.4225Z" fill="#FFC2C2"/>
<path d="M85.8491 59.039C85.8491 62.2564 83.2275 64.9972 79.8909 64.9972C76.5543 64.9972 73.9327 62.3756 73.9327 59.039C73.9327 55.8216 76.5543 53.0808 79.8909 53.0808C83.2275 53.0808 85.8491 55.8216 85.8491 59.039Z" fill="#FFC2C2"/>
<path d="M69.4045 79.6544C69.4045 81.6802 67.7362 83.3485 65.7104 83.3485C63.6847 83.3485 62.0164 81.6802 62.0164 79.6544C62.0164 77.6286 63.6847 75.9604 65.7104 75.9604C67.7362 75.8412 69.4045 77.5095 69.4045 79.6544Z" fill="#FFC2C2"/>
<path d="M42.3543 81.0844C42.3543 83.8252 40.2094 85.9701 37.4686 85.9701C34.7279 85.9701 32.5829 83.8252 32.5829 81.0844C32.5829 78.3437 34.7279 76.1987 37.4686 76.1987C40.2094 76.1987 42.3543 78.4628 42.3543 81.0844Z" fill="#FFC2C2"/>
</g>
<defs>
<clipPath id="clip0">
<rect width="100" height="100" fill="white"/>
</clipPath>
</defs>
</svg>
