<svg width="100" height="100" viewBox="0 0 100 100" fill="none" xmlns="http://www.w3.org/2000/svg">
<path d="M18.2784 49.1625C18.2784 49.0912 18.2784 49.0199 18.2784 48.913C18.2784 48.7347 18.2784 48.5921 18.3141 48.4139C18.3141 48.307 18.3141 48.2357 18.3497 48.1287C18.3497 47.9862 18.3854 47.8436 18.3854 47.6653C18.3854 47.5584 18.421 47.4514 18.421 47.3802C18.4567 47.2376 18.4567 47.095 18.4923 46.9524C18.4923 46.8455 18.528 46.7385 18.528 46.6316C18.5636 46.489 18.5636 46.3464 18.5993 46.2038C18.6349 46.0969 18.6349 45.9899 18.6706 45.883C18.7062 45.7404 18.7419 45.5978 18.7419 45.4552C18.7775 45.3483 18.7775 45.2414 18.8131 45.1344C18.8488 44.9918 18.8844 44.8492 18.9201 44.7067C18.9557 44.5997 18.9914 44.4928 18.9914 44.3858C19.027 44.2432 19.0627 44.1007 19.0983 43.9581C19.134 43.8511 19.1696 43.7442 19.2053 43.6729C19.2409 43.5303 19.3122 43.3877 19.3478 43.2451C19.3835 43.1382 19.4191 43.0669 19.4548 42.96C19.4904 42.8174 19.5617 42.6748 19.633 42.4966C19.6687 42.3896 19.7043 42.3183 19.74 42.2114C19.8112 42.0688 19.8469 41.8906 19.9182 41.748C19.9538 41.6767 19.9895 41.5697 20.0251 41.4985C20.0964 41.3559 20.1677 41.1776 20.239 41.035C20.2747 40.9638 20.3103 40.8925 20.346 40.8212C20.4172 40.6429 20.4885 40.5003 20.5955 40.3221C20.6311 40.2508 20.6668 40.1795 20.7024 40.1082C20.8094 39.93 20.8806 39.7518 20.9876 39.5735C21.0232 39.5379 21.0589 39.4666 21.0589 39.4309C21.1658 39.2171 21.2728 39.0388 21.4154 38.8249C21.4154 38.7893 21.451 38.7893 21.451 38.7537C21.5936 38.5041 21.7362 38.2902 21.8788 38.0764C22.9838 36.0089 22.7699 36.5079 24.5166 34.583C26.0138 32.872 27.7961 31.3391 29.7923 29.9846C30.0419 29.842 30.2914 29.6638 30.5053 29.5212C37.7059 24.994 46.9027 22.7126 53.8895 22.7126C66.8292 22.7126 79.4125 35.5455 81.9791 48.6278C82.3355 50.1249 82.6564 52.9054 82.4068 54.9016C82.3712 55.2581 82.3355 55.6502 82.2643 56.0779C82.0504 57.4325 81.6939 58.7514 81.1592 60.0347C80.981 60.5338 80.7671 60.9615 80.5889 61.318C80.5889 61.3537 80.5532 61.3537 80.5532 61.3893C80.0542 62.3874 79.4838 63.3499 78.8422 64.2767C77.3807 66.4511 75.7053 68.1622 73.2456 70.0871C72.6753 70.5149 72.1049 70.9783 71.499 71.3704C71.3564 71.4773 71.2138 71.5486 71.0712 71.6556C70.8217 71.8338 70.5721 71.9764 70.3226 72.1546C70.1087 72.2972 69.8949 72.4041 69.681 72.5467C69.4314 72.6893 69.1819 72.8319 68.9324 72.9745C68.7542 73.0814 68.5403 73.1884 68.362 73.2953C68.0769 73.4379 67.7917 73.6161 67.5065 73.7587C67.3639 73.83 67.1857 73.9369 67.0431 74.0082C66.7223 74.1865 66.3658 74.3291 66.045 74.5073C65.9381 74.5429 65.8311 74.6142 65.7242 74.6499C65.3321 74.8281 64.9043 75.042 64.4766 75.2202C64.4409 75.2202 64.4053 75.2559 64.3696 75.2559C59.9851 77.1095 55.3154 78.2502 50.9308 78.4641H50.8952C50.3961 78.4997 49.9327 78.4997 49.4336 78.4997C42.6608 78.4997 34.4977 76.0044 28.6873 71.2634C22.057 65.8451 18.2072 57.682 18.2072 49.9111C18.2784 49.6615 18.2784 49.412 18.2784 49.1625Z" fill="#AFAFAF"/>
<path d="M18.2785 49.1984C18.2785 56.9694 22.0927 65.1325 28.7586 70.5508C34.569 75.2918 42.7321 77.7871 49.505 77.7871C64.0488 77.7871 82.4781 67.2356 82.4781 52.6918C82.4781 38.1836 68.4334 22 53.8895 22C46.9028 22 37.7059 24.2814 30.5053 28.7729C22.7343 33.6208 18.2785 41.6413 18.2785 49.1984Z" fill="#FCFAF7"/>
<path d="M25.087 33.2288C26.8337 31.5534 28.0456 30.4483 29.7567 29.272C28.9012 31.6247 28.5803 33.2288 28.5803 35.6171C28.5803 43.3881 30.0775 48.6281 36.7078 54.0821C42.5182 58.8231 50.6813 61.3183 57.4542 61.3183C68.3264 61.3183 76.0617 56.9694 81.9791 47.9508C82.4425 49.9114 82.8703 54.1534 81.9791 55.8644C79.8759 59.8212 80.0185 59.2152 76.0974 62.1739C69.6097 67.1288 60.6624 70.1231 52.9983 70.1231C46.2255 70.1231 38.0267 67.6278 32.252 62.8868C25.6217 57.4685 21.7718 49.3054 21.7718 41.5344C21.7718 37.4707 22.7699 36.936 25.087 33.2288Z" fill="#F7F6F2"/>
<path d="M21.8431 37.3637C22.9838 35.2962 22.7343 35.7953 24.481 33.8704C23.6255 36.223 22.7699 38.041 22.7699 40.4294C22.7699 48.2003 26.5841 56.3634 33.2501 61.7817C39.0605 66.5227 47.2236 69.018 53.9964 69.018C64.8687 69.018 76.5608 62.6372 82.4781 53.583C82.4781 55.4723 81.5157 58.8587 80.6245 60.6054C78.5214 64.5622 76.5252 66.9148 72.6397 69.8735C66.152 74.8284 57.2046 77.8227 49.5406 77.8227C42.7677 77.8227 34.6046 75.3275 28.7942 70.5865C22.164 65.1682 18.3141 57.0051 18.3141 49.2341C18.2785 45.206 19.5261 41.071 21.8431 37.3637Z" fill="#F0EFEB"/>
</svg>
