<svg width="100" height="100" viewBox="0 0 100 100" fill="none" xmlns="http://www.w3.org/2000/svg">
<g clip-path="url(#clip0)">
<path d="M50.1001 90.7671C72.56 90.7671 90.7674 72.5597 90.7674 50.0997C90.7674 27.6398 72.56 9.43237 50.1001 9.43237C27.6401 9.43237 9.43274 27.6398 9.43274 50.0997C9.43274 72.5597 27.6401 90.7671 50.1001 90.7671Z" fill="#9B0A33"/>
<path d="M64.4949 85.7875C84.2114 77.8414 93.7532 55.4164 85.807 35.6998C77.8609 15.9833 55.4359 6.44151 35.7193 14.3876C16.0028 22.3338 6.46102 44.7588 14.4072 64.4753C22.3533 84.1919 44.7783 93.7337 64.4949 85.7875Z" fill="#AF0931"/>
<path d="M30.0138 35.6535C33.0193 35.6535 35.4559 33.217 35.4559 30.2114C35.4559 27.2058 33.0193 24.7693 30.0138 24.7693C27.0082 24.7693 24.5717 27.2058 24.5717 30.2114C24.5717 33.217 27.0082 35.6535 30.0138 35.6535Z" fill="#FFC2C2"/>
<path d="M54.2559 22.1969C54.2559 24.1758 52.6727 25.759 50.6938 25.759C48.7148 25.759 47.1317 24.1758 47.1317 22.1969C47.1317 20.2179 48.7148 18.6348 50.6938 18.6348C52.6727 18.6348 54.2559 20.2179 54.2559 22.1969Z" fill="#FFC2C2"/>
<path d="M75.1337 36.0495C75.1337 39.4137 72.3632 42.1843 68.999 42.1843C65.6348 42.1843 62.8643 39.4137 62.8643 36.0495C62.8643 32.6853 65.6348 29.9148 68.999 29.9148C72.3632 29.9148 75.1337 32.5864 75.1337 36.0495Z" fill="#FFC2C2"/>
<path d="M47.8243 42.7776C49.6276 42.7776 51.0895 41.3157 51.0895 39.5123C51.0895 37.709 49.6276 36.2471 47.8243 36.2471C46.0209 36.2471 44.559 37.709 44.559 39.5123C44.559 41.3157 46.0209 42.7776 47.8243 42.7776Z" fill="#FFC2C2"/>
<path d="M33.279 54.1568C33.279 57.8179 30.3106 60.7863 26.6496 60.7863C22.9885 60.7863 20.0201 57.8179 20.0201 54.1568C20.0201 50.4958 22.9885 47.5273 26.6496 47.5273C30.3106 47.5273 33.279 50.3968 33.279 54.1568Z" fill="#FFC2C2"/>
<path d="M56.8285 59.4999C56.8285 62.0725 54.7506 64.1504 52.1779 64.1504C49.6053 64.1504 47.5274 62.0725 47.5274 59.4999C47.5274 56.9273 49.6053 54.8494 52.1779 54.8494C54.7506 54.8494 56.8285 56.9273 56.8285 59.4999Z" fill="#FFC2C2"/>
<path d="M79.7843 57.62C79.7843 60.2916 77.6074 62.5673 74.8369 62.5673C72.0664 62.5673 69.8895 60.3905 69.8895 57.62C69.8895 54.9484 72.0664 52.6726 74.8369 52.6726C77.6074 52.6726 79.7843 54.8494 79.7843 57.62Z" fill="#FFC2C2"/>
<path d="M66.1295 74.6387C66.1295 76.3208 64.7442 77.706 63.0621 77.706C61.38 77.706 59.9948 76.3208 59.9948 74.6387C59.9948 72.9566 61.38 71.5713 63.0621 71.5713C64.7442 71.5713 66.1295 72.9566 66.1295 74.6387Z" fill="#FFC2C2"/>
<path d="M43.6685 75.925C43.6685 78.2008 41.8874 79.9818 39.6116 79.9818C37.3359 79.9818 35.5548 78.2008 35.5548 75.925C35.5548 73.6492 37.3359 71.8682 39.6116 71.8682C41.8874 71.8682 43.6685 73.6492 43.6685 75.925Z" fill="#FFC2C2"/>
</g>
<defs>
<clipPath id="clip0">
<rect width="100" height="100" fill="white"/>
</clipPath>
</defs>
</svg>
