<svg width="100" height="100" viewBox="0 0 100 100" fill="none" xmlns="http://www.w3.org/2000/svg">
<g clip-path="url(#clip0)">
<path d="M45.8862 23.0596L40.5477 60.4291L77.9172 55.0906L45.8862 23.0596Z" fill="#FF9D73"/>
<path d="M77.9172 55.0906C74.5655 51.7389 69.7626 50.1494 65.0806 50.8232L57.6171 51.8944C55.2329 52.2399 52.9006 51.4624 51.1902 49.7521C49.497 48.0589 48.7023 45.7093 49.0479 43.3251L50.119 35.8616C50.8101 31.1969 49.2206 26.394 45.8862 23.0596L26.7436 3.91698C26.018 3.19135 24.8086 3.19135 24.083 3.91698L20.3858 7.61419C0.327564 27.6724 -0.000693146 60.8264 20.0576 80.8847C40.1676 101.029 72.9242 101.029 93.0516 80.9019L97.0598 76.8937C97.8027 76.1508 97.7854 74.9588 97.0598 74.2331L77.9172 55.0906Z" fill="#FF533E"/>
<path d="M82.3747 70.2245L25.4134 75.563C42.621 92.7706 70.5056 92.7706 87.7132 75.563L82.3747 70.2245Z" fill="#FF2E23"/>
<path d="M82.3746 70.2251L72.5787 60.4292C70.8338 58.6843 68.4323 57.976 66.1691 58.3042L58.7056 59.3754C54.1618 60.0146 49.3761 58.6152 45.869 55.108C42.3618 51.6009 40.9624 46.8152 41.6189 42.2542L42.6901 34.7906C43.0183 32.5274 42.31 30.1259 40.565 28.381L25.4306 13.2466C8.22304 30.4542 8.22304 58.3388 25.4306 75.5464C39.6666 89.8169 65.167 87.4327 82.3746 70.2251Z" fill="#FF2E23"/>
<path d="M36.8159 60.3947C34.7427 60.3947 33.0496 62.0879 33.0323 64.1783C33.0323 66.2515 34.7254 67.9447 36.8159 67.9619C38.8891 67.9619 40.5822 66.2688 40.5995 64.1783L40.5995 60.412L36.8159 60.3947Z" fill="#FFE9B0"/>
<path d="M53.9198 69.6894C52.4513 71.1579 52.434 73.5593 53.9198 75.0451C55.3883 76.5137 57.7898 76.5309 59.2756 75.0451C60.7614 73.5593 60.7614 71.1752 59.2756 69.6894L56.5977 67.0115L53.9198 69.6894Z" fill="#FFE9B0"/>
<path d="M31.2701 47.0395C29.8016 48.508 27.4001 48.5253 25.9143 47.0395C24.4285 45.5537 24.4285 43.1695 25.9143 41.6837C27.4001 40.198 29.7843 40.198 31.2701 41.6837L33.948 44.3616L31.2701 47.0395Z" fill="#FFE9B0"/>
</g>
<defs>
<clipPath id="clip0">
<rect width="100" height="100" fill="white"/>
</clipPath>
</defs>
</svg>
