<svg width="36" height="36" viewBox="0 0 36 36" fill="none" xmlns="http://www.w3.org/2000/svg">
<path d="M35.5651 14.9744C35.8677 16.906 36.2308 19.1049 35.8072 20.9393C35.2747 23.2596 34.1491 26.6612 32.8057 28.5321C30.1916 32.1644 26.113 34.8128 20.4611 35.7118C14.6639 36.6229 10.0528 35.3959 6.05898 31.715C3.14225 29.0301 0.96378 25.4828 0.310239 21.2551C-0.00442902 19.2385 -0.137558 17.0518 0.189213 15.1445C0.891164 11.0747 2.97281 7.79467 5.88954 5.08557C8.39478 2.77737 11.4809 0.785021 15.1843 0.201896C19.9528 -0.551307 24.1887 0.87006 27.9042 3.34834C32.0191 6.10604 34.7422 9.72627 35.5651 14.9744Z" fill="#E06F00"/>
<path d="M35.081 15.0595C35.3715 16.9425 35.7346 19.0806 35.3231 20.8664C34.8026 23.126 33.7134 26.4426 32.4063 28.2527C29.8648 31.7879 25.8951 34.3633 20.4005 35.238C14.7607 36.1249 10.2828 34.9343 6.39783 31.3505C3.54161 28.7265 1.43576 25.2763 0.782215 21.1701C0.47965 19.2142 0.346521 17.0761 0.661189 15.2296C1.33894 11.2692 3.37217 8.07412 6.21629 5.45006C8.64891 3.2026 11.6504 1.271 15.2569 0.700019C19.9043 -0.028887 24.0192 1.35604 27.6379 3.76143C31.6318 6.42193 34.2822 9.94498 35.081 15.0595Z" fill="#F4810F"/>
<path d="M33.3625 15.5333C33.6288 17.2098 33.9435 19.1171 33.5683 20.7085C33.0963 22.7252 32.116 25.6772 30.942 27.3051C28.6546 30.4516 25.4716 33.0028 20.1465 33.5373C15.0392 34.0475 11.0574 33.2822 7.57188 30.0871C5.01823 27.7546 3.13022 24.6811 2.5493 21.0122C2.27094 19.2629 2.16201 17.3677 2.45248 15.7155C3.06971 12.1803 4.8851 9.3376 7.45085 6.99295C9.64142 4.98846 12.3403 3.26338 15.5717 2.75314C19.7471 2.09713 23.0269 2.77744 26.2704 4.92771C29.8528 7.29666 32.6485 10.9776 33.3625 15.5333Z" fill="#E06F00"/>
<path d="M32.7937 15.6304C33.0479 17.2461 33.3504 19.0805 32.9995 20.6112C32.5396 22.5428 31.5956 25.3977 30.47 26.9527C28.2673 29.9898 25.1933 32.4438 20.0739 32.954C15.1602 33.4521 11.3237 32.6989 7.97126 29.6375C5.51443 27.39 3.68693 24.438 3.14231 20.9028C2.87606 19.2263 2.76713 17.3919 3.04549 15.8004C3.63852 12.3989 5.3934 9.65332 7.85023 7.40586C9.95609 5.47426 12.5581 3.80993 15.6685 3.31184C19.6866 2.68012 22.8454 3.33614 25.9678 5.40137C29.4171 7.69742 32.1039 11.2448 32.7937 15.6304Z" fill="#B51212"/>
<path d="M32.2247 15.7277C32.4668 17.2827 32.7573 19.0442 32.4184 20.5264C31.9827 22.3851 31.075 25.1306 29.9858 26.637C27.8678 29.5527 24.9148 31.9216 19.989 32.4197C15.2569 32.8935 11.5656 32.1767 8.33418 29.2246C5.97417 27.0622 4.21929 24.2195 3.68677 20.8179C3.43262 19.2022 3.32369 17.4407 3.58995 15.91C4.15878 12.642 5.85314 9.99366 8.21315 7.83124C10.2464 5.97253 12.7395 4.36893 15.741 3.89514C19.6017 3.28772 22.6516 3.91944 25.653 5.91178C28.9812 8.08636 31.5712 11.5001 32.2247 15.7277Z" fill="#FFE9B0"/>
<path d="M22.4041 26.832C22.4881 26.856 22.896 27.072 22.944 26.868C22.992 26.664 22.4881 26.688 22.4281 26.724C22.4161 26.772 22.4041 26.832 22.4041 26.832Z" fill="#41B619"/>
<path d="M16.164 29.604C16.176 30.072 15.348 30.768 15.192 30.696C15.048 30.612 15.984 29.94 16.164 29.604Z" fill="#41B619"/>
<path d="M22.8721 26.82C23.2441 26.796 23.6041 27.396 23.5321 27.444C23.4601 27.492 23.1481 27 22.8721 26.82Z" fill="#41B619"/>
<path d="M17.4253 20.3046C17.7853 20.4126 18.1453 21.4206 17.9293 21.4566C17.8453 21.4806 17.6293 20.5566 17.4253 20.3046Z" fill="#41B619"/>
<path d="M8.48413 24.4973C8.84413 24.6053 9.20413 25.6133 8.98813 25.6493C8.90413 25.6733 8.68813 24.7493 8.48413 24.4973Z" fill="#41B619"/>
<path d="M9.71997 9.34802C10.08 9.45602 10.44 10.464 10.224 10.5C10.14 10.524 9.92397 9.60002 9.71997 9.34802Z" fill="#41B619"/>
<path d="M25.6682 23.364C25.3802 22.836 23.9042 23.256 23.9642 23.424C24.0242 23.592 25.2122 23.112 25.6682 23.364Z" fill="#41B619"/>
<path d="M25.6681 23.364C25.5601 24.036 24.7441 24.42 24.9121 24.492C25.0681 24.552 25.9561 24.096 25.6681 23.364Z" fill="#41B619"/>
<path d="M25.668 23.364C26.34 23.412 26.04 24.636 26.22 24.6C26.388 24.552 26.388 23.1 25.668 23.364Z" fill="#41B619"/>
<path d="M6.44406 20.7843C6.15606 20.2562 4.68006 20.6763 4.74006 20.8443C4.81206 21.0123 6.00006 20.5323 6.44406 20.7843Z" fill="#41B619"/>
<path d="M25.1879 14.6641C24.6239 14.4481 23.7719 15.7201 23.9279 15.8041C24.0839 15.9001 24.6839 14.7601 25.1879 14.6641Z" fill="#41B619"/>
<path d="M17.7099 13.9294C17.1459 13.7134 16.2939 14.9854 16.4499 15.0694C16.6059 15.1654 17.2059 14.0254 17.7099 13.9294Z" fill="#41B619"/>
<path d="M18.3491 7.21801C17.7851 7.00201 16.9331 8.27402 17.0891 8.35802C17.2451 8.45402 17.8451 7.31401 18.3491 7.21801Z" fill="#41B619"/>
<path d="M21.1945 4.83085C21.1383 4.22952 19.6205 4.02908 19.6143 4.20615C19.5973 4.38853 20.8851 4.42151 21.1945 4.83085Z" fill="#41B619"/>
<path d="M14.7841 6.06006C14.6761 6.73206 13.8601 7.11606 14.0281 7.18806C14.1961 7.24806 15.0721 6.79206 14.7841 6.06006Z" fill="#41B619"/>
<path d="M23.7842 18.1201C24.4562 18.1681 24.1562 19.3921 24.3362 19.3561C24.5162 19.3081 24.5162 17.8561 23.7842 18.1201Z" fill="#41B619"/>
<path d="M30.396 16.9854C31.068 17.0334 30.768 18.2574 30.948 18.2214C31.116 18.1854 31.116 16.7334 30.396 16.9854Z" fill="#41B619"/>
<path d="M26.76 26.976L26.52 27.156L26.448 26.928L26.592 26.736L26.76 26.976Z" fill="#422918"/>
<path d="M9.71996 16.776L9.47996 16.956L9.40796 16.728L9.55196 16.536L9.71996 16.776Z" fill="#422918"/>
<path d="M6.75609 14.52L6.51609 14.7L6.44409 14.472L6.58809 14.28L6.75609 14.52Z" fill="#422918"/>
<path d="M23.58 21.72L23.496 22.008L23.304 21.876L23.292 21.636L23.58 21.72Z" fill="#422918"/>
<path d="M15.1298 16.2481L15.0458 16.5361L14.8538 16.4041L14.8418 16.1641L15.1298 16.2481Z" fill="#422918"/>
<path d="M21.3605 12.648L21.2765 12.936L21.0845 12.804L21.0725 12.564L21.3605 12.648Z" fill="#422918"/>
<path d="M27.048 9.05995L26.964 9.34795L26.772 9.21595L26.76 8.97595L27.048 9.05995Z" fill="#422918"/>
<path d="M25.8361 18L25.5481 17.952L25.6681 17.748L25.8961 17.712L25.8361 18Z" fill="#422918"/>
<path d="M13.476 27.156L13.188 27.108L13.308 26.904L13.536 26.868L13.476 27.156Z" fill="#422918"/>
<path d="M28.476 14.2801L28.188 14.2321L28.308 14.0281L28.536 13.9921L28.476 14.2801Z" fill="#422918"/>
<path d="M25.776 28.548L25.488 28.488L25.608 28.284L25.836 28.26L25.776 28.548Z" fill="#422918"/>
<g clip-path="url(#clip0)">
<path fill-rule="evenodd" clip-rule="evenodd" d="M15.8934 9.47764C15.8933 9.47763 15.8933 9.47763 15.8933 9.47762V9.07504C15.4546 8.94752 14.9885 8.88 14.5099 8.88C11.7481 8.88 9.5022 11.1329 9.5022 13.9035C9.5022 14.261 9.53959 14.6161 9.61437 14.9637V14.9687L9.98328 16.829H10.3771L14.5099 11.8156L18.018 16.069L18.0195 16.0738L18.6402 16.8265H19.034L19.403 14.9661V14.9611C19.4777 14.6135 19.5151 14.256 19.5151 13.9009C19.5151 11.6129 17.9822 9.67757 15.8933 9.07496V9.47754L15.8934 9.47764Z" fill="#FF5A35"/>
<path fill-rule="evenodd" clip-rule="evenodd" d="M15.0831 11.8157C16.5587 12.0157 17.7627 12.9759 18.346 14.2561C18.3459 14.257 18.3458 14.2579 18.3458 14.2588H18.346C18.6974 15.0289 18.8196 15.9191 18.6401 16.8293V16.8318H19.0339L18.6326 18.8521H18.2388L17.5857 18.2645V18.2619L17.5857 18.2619L14.5073 15.4939L10.7783 18.8495H10.3845L9.98315 16.8291H10.3745C9.89591 14.4062 11.571 12.1382 13.9315 11.8157H15.0831Z" fill="#FF7A3C"/>
<path fill-rule="evenodd" clip-rule="evenodd" d="M17.9415 16.4626C17.4927 15.5231 16.6704 14.786 15.649 14.4636H13.3632C11.571 15.0262 10.387 16.8816 10.7759 18.8495H10.3845L10.6163 20.0247C10.7185 20.5373 11.1697 20.9099 11.6907 20.9099C12.5082 20.9099 13.1713 20.4173 13.1713 19.8097V17.5617C13.1713 16.8216 13.7695 16.2215 14.5073 16.2215C15.2452 16.2215 15.8434 16.8216 15.8434 17.5617V19.8097L15.8434 19.8097C15.8434 20.4148 16.5089 20.9099 17.324 20.9099C17.845 20.9099 18.2961 20.5373 18.3983 20.0247L18.6302 18.8495H18.2388C18.4058 18.0018 18.2812 17.1742 17.9422 16.4615L17.9415 16.4626Z" fill="#FF9A42"/>
<path d="M14.5525 15.8582L14.5525 9.54468" stroke="white" stroke-linecap="round" stroke-linejoin="round"/>
</g>
<g clip-path="url(#clip1)">
<path d="M16.1848 7.86292L15.6979 11.271L19.106 10.7841L16.1848 7.86292Z" fill="#FF9D73"/>
<path d="M19.1062 10.7843C18.8006 10.4786 18.3625 10.3337 17.9355 10.3951L17.2549 10.4928C17.0374 10.5243 16.8247 10.4534 16.6687 10.2975C16.5143 10.143 16.4418 9.92875 16.4733 9.71132L16.571 9.03064C16.6341 8.60522 16.4891 8.16719 16.185 7.8631L14.4392 6.1173C14.373 6.05112 14.2627 6.05112 14.1965 6.1173L13.8594 6.45448C12.0301 8.28379 12.0001 11.3074 13.8294 13.1367C15.6635 14.9739 18.6509 14.9739 20.4865 13.1383L20.852 12.7728C20.9198 12.705 20.9182 12.5963 20.852 12.5301L19.1062 10.7843Z" fill="#FF533E"/>
<path d="M19.5127 12.1645L14.3178 12.6514C15.8872 14.2208 18.4302 14.2208 19.9996 12.6514L19.5127 12.1645Z" fill="#FF2E23"/>
<path d="M19.5126 12.1645L18.6192 11.2711C18.4601 11.1119 18.2411 11.0473 18.0347 11.0773L17.354 11.175C16.9396 11.2333 16.5032 11.1056 16.1833 10.7858C15.8635 10.4659 15.7358 10.0295 15.7957 9.61351L15.8934 8.93283C15.9233 8.72642 15.8587 8.50741 15.6996 8.34827L14.3193 6.96802C12.75 8.53735 12.75 11.0804 14.3193 12.6498C15.6177 13.9512 17.9433 13.7338 19.5126 12.1645Z" fill="#FF2E23"/>
<path d="M15.3577 11.268C15.1686 11.268 15.0142 11.4225 15.0126 11.6131C15.0126 11.8022 15.167 11.9566 15.3577 11.9582C15.5467 11.9582 15.7011 11.8038 15.7027 11.6131L15.7027 11.2696L15.3577 11.268Z" fill="#FFE9B0"/>
<path d="M16.9176 12.1156C16.7837 12.2495 16.7821 12.4685 16.9176 12.604C17.0516 12.7379 17.2706 12.7395 17.4061 12.604C17.5416 12.4685 17.5416 12.2511 17.4061 12.1156L17.1619 11.8713L16.9176 12.1156Z" fill="#FFE9B0"/>
<path d="M14.8519 10.0499C14.718 10.1839 14.4989 10.1854 14.3634 10.0499C14.2279 9.91443 14.2279 9.69699 14.3634 9.56148C14.4989 9.42598 14.7164 9.42598 14.8519 9.56148L15.0961 9.80571L14.8519 10.0499Z" fill="#FFE9B0"/>
</g>
<g clip-path="url(#clip2)">
<path d="M12.5789 20.3827L10.8432 23.3559L14.1835 24.1896L12.5789 20.3827Z" fill="#FF9D73"/>
<path d="M14.1832 24.1897C14.0153 23.7913 13.6642 23.492 13.2455 23.3879L12.5782 23.2218C12.365 23.169 12.1947 23.0232 12.109 22.8199C12.0242 22.6187 12.0378 22.3929 12.149 22.2034L12.496 21.6097C12.7148 21.2394 12.7456 20.7791 12.5786 20.3828L11.6196 18.1077C11.5833 18.0215 11.4811 17.9799 11.3949 18.0162L10.9555 18.2014C8.57153 19.2063 7.40405 21.9956 8.40887 24.3795C9.4151 26.7725 12.1821 27.8986 14.5743 26.8903L15.0506 26.6895C15.1389 26.6523 15.1785 26.551 15.1421 26.4648L14.1832 24.1897Z" fill="#FF533E"/>
<path d="M14.0396 25.6214L9.04441 24.1142C9.90643 26.1593 12.2619 27.1179 14.307 26.2559L14.0396 25.6214Z" fill="#FF2E23"/>
<path d="M14.0397 25.6213L13.5489 24.4571C13.4615 24.2497 13.283 24.1073 13.0805 24.0572L12.4133 23.8911C12.0075 23.7889 11.6513 23.5062 11.4756 23.0893C11.2999 22.6725 11.3462 22.2202 11.5585 21.8574L11.9055 21.2638C12.0111 21.0839 12.0338 20.8567 11.9464 20.6493L11.1882 18.8506C9.14311 19.7126 8.1845 22.0681 9.04652 24.1132C9.75848 25.8081 11.9945 26.4833 14.0397 25.6213Z" fill="#FF2E23"/>
<path d="M10.529 23.2248C10.3539 23.1536 10.1526 23.2384 10.0793 23.4144C10.008 23.5895 10.0929 23.7907 10.2689 23.864C10.444 23.9353 10.6452 23.8505 10.7185 23.6745L10.848 23.3564L10.529 23.2248Z" fill="#FFE9B0"/>
<path d="M11.6544 24.5979C11.4799 24.6715 11.3958 24.8737 11.4703 25.0503C11.5438 25.2248 11.7461 25.3089 11.9227 25.2344C12.0993 25.16 12.1812 24.9586 12.1068 24.782L11.9727 24.4637L11.6544 24.5979Z" fill="#FFE9B0"/>
<path d="M10.5196 21.9059C10.3451 21.9795 10.1416 21.8984 10.0672 21.7218C9.99276 21.5452 10.0747 21.3438 10.2513 21.2694C10.4279 21.195 10.6293 21.2769 10.7037 21.4535L10.8379 21.7718L10.5196 21.9059Z" fill="#FFE9B0"/>
</g>
<path d="M13.7023 8.30773C13.9352 8.42721 14.1803 8.51099 14.4494 8.49024C14.5878 8.48241 14.7206 8.44909 14.8507 8.40304C14.8479 8.3903 14.8501 8.3699 14.8474 8.35716C14.8841 7.63833 15.4701 7.08189 16.1882 7.07073C16.2895 6.3722 16.9043 5.8565 17.6364 5.90904C18.3606 5.9565 18.9298 6.54707 18.9519 7.26073C19.6567 7.37193 20.1853 7.9906 20.1435 8.71708C20.1212 9.22689 19.8126 9.64787 19.3852 9.86C19.4652 10.0434 19.5552 10.2115 19.6758 10.3668C19.7519 10.4712 19.8537 10.5705 19.9726 10.6264C20.7091 10.3323 21.244 9.6332 21.2863 8.78691C21.3437 7.76474 20.654 6.86591 19.7002 6.59192C19.5402 5.61336 18.7115 4.84217 17.6893 4.77472C17.6893 4.77472 17.6893 4.77472 17.6815 4.76964C17.6815 4.76964 17.6815 4.76964 17.6738 4.76455C16.6438 4.69202 15.7493 5.36357 15.488 6.30701C14.5052 6.45107 13.7413 7.26264 13.689 8.27716C13.6995 8.29499 13.7073 8.30007 13.7023 8.30773Z" fill="#348717"/>
<path d="M14.0457 8.44485C14.1747 8.48546 14.3109 8.49802 14.4493 8.49019C14.5877 8.48236 14.7205 8.44904 14.8506 8.40299C14.8478 8.39025 14.85 8.36985 14.8473 8.35711C14.884 7.63828 15.47 7.08184 16.1881 7.07068C16.2894 6.37215 16.9042 5.85645 17.6363 5.90899C18.3606 5.95645 18.9297 6.54702 18.9518 7.26068C19.6566 7.37188 20.1852 7.99055 20.1434 8.71703C20.1211 9.22684 19.8125 9.64782 19.3851 9.85995C19.4651 10.0434 19.5551 10.2115 19.6757 10.3668C20.3778 10.1594 20.9087 9.53419 20.9472 8.76183C20.9956 7.82123 20.3048 7.00907 19.3866 6.86757C19.3583 5.94236 18.6169 5.1736 17.6692 5.11115C17.6692 5.11115 17.6692 5.11115 17.6614 5.10606C17.6614 5.10606 17.6614 5.10607 17.6536 5.10098C16.7059 5.03853 15.8987 5.71252 15.7702 6.62264C14.8391 6.63663 14.0764 7.36154 14.0279 8.30214C14.0391 8.3531 14.0424 8.39898 14.0457 8.44485Z" fill="#41B619"/>
<path d="M9.82189 25.1632C9.90997 24.9168 9.96106 24.6628 9.90539 24.3988C9.87957 24.2626 9.8292 24.1352 9.76657 24.0122C9.7543 24.0167 9.73379 24.0171 9.72152 24.0215C9.00404 24.0788 8.37591 23.5705 8.27115 22.8599C7.56539 22.8507 6.97388 22.3084 6.93047 21.5757C6.88303 20.8515 7.39431 20.2101 8.09898 20.0951C8.11728 19.3818 8.66171 18.7771 9.38743 18.7237C9.89579 18.6793 10.3534 18.9303 10.6195 19.3264C10.7909 19.2232 10.9458 19.112 11.0841 18.9722C11.1777 18.883 11.2628 18.7693 11.3027 18.644C10.9151 17.9522 10.1522 17.5131 9.30758 17.5815C8.28665 17.658 7.48549 18.4591 7.33827 19.4405C6.38895 19.7267 5.73245 20.6489 5.79894 21.6712C5.79894 21.6712 5.79894 21.6712 5.79491 21.6796C5.79491 21.6796 5.79491 21.6796 5.79088 21.688C5.85334 22.7186 6.63585 23.5178 7.60532 23.6539C7.87636 24.6094 8.78064 25.2609 9.79333 25.1804C9.80962 25.1677 9.81365 25.1593 9.82189 25.1632Z" fill="#348717"/>
<path d="M9.91303 24.8048C9.93647 24.6716 9.93116 24.535 9.90534 24.3988C9.87951 24.2626 9.82915 24.1352 9.76652 24.0122C9.75425 24.0167 9.73374 24.0171 9.72147 24.0215C9.00399 24.0789 8.37586 23.5705 8.2711 22.8599C7.56533 22.8507 6.97383 22.3084 6.93042 21.5757C6.88298 20.8515 7.39426 20.2102 8.09893 20.0951C8.11723 19.3818 8.66166 18.7771 9.38738 18.7237C9.89574 18.6793 10.3534 18.9303 10.6195 19.3265C10.7909 19.2232 10.9458 19.112 11.084 18.9722C10.7868 18.3032 10.0977 17.8583 9.32694 17.921C8.38806 17.9956 7.67296 18.7865 7.65246 19.7154C6.73885 19.8641 6.07338 20.6994 6.13511 21.6472C6.13511 21.6472 6.13511 21.6472 6.13108 21.6556C6.13108 21.6556 6.13108 21.6556 6.12705 21.664C6.18877 22.6117 6.96231 23.3241 7.88142 23.3328C8.01676 24.254 8.83497 24.9157 9.77386 24.841C9.82293 24.8234 9.86798 24.8141 9.91303 24.8048Z" fill="#41B619"/>
<path d="M28.4051 23.2144C28.1438 23.2305 27.8903 23.2837 27.6696 23.4389C27.5546 23.5163 27.4573 23.6128 27.369 23.7188C27.3779 23.7283 27.3864 23.747 27.3953 23.7565C27.7307 24.3934 27.511 25.171 26.8992 25.5473C27.1688 26.1996 26.9035 26.9569 26.2472 27.2855C25.6002 27.6145 24.8093 27.3973 24.4259 26.795C23.7631 27.0592 22.9928 26.7971 22.6578 26.1512C22.4166 25.7014 22.467 25.1819 22.7262 24.7813C22.5638 24.6644 22.4005 24.5658 22.2175 24.4939C22.0988 24.443 21.9606 24.4096 21.8298 24.4222C21.3467 25.0512 21.2438 25.9254 21.6395 26.6746C22.1121 27.5828 23.164 28.0035 24.124 27.7521C24.7612 28.5118 25.8675 28.7518 26.7808 28.2879C26.7808 28.2879 26.7808 28.2879 26.7901 28.2883C26.7901 28.2883 26.7901 28.2883 26.7994 28.2887C27.7221 27.8251 28.1482 26.791 27.8913 25.8464C28.6627 25.2207 28.9051 24.1329 28.4322 23.2338C28.414 23.2239 28.4047 23.2235 28.4051 23.2144Z" fill="#348717"/>
<path d="M28.0396 23.2719C27.908 23.3028 27.7845 23.3615 27.6694 23.4389C27.5544 23.5163 27.4572 23.6128 27.3689 23.7188C27.3778 23.7284 27.3863 23.747 27.3952 23.7566C27.7306 24.3934 27.5109 25.171 26.8991 25.5473C27.1687 26.1996 26.9033 26.957 26.2471 27.2856C25.6001 27.6146 24.8092 27.3974 24.4258 26.795C23.763 27.0593 22.9927 26.7972 22.6577 26.1512C22.4165 25.7015 22.4669 25.182 22.7261 24.7813C22.5637 24.6645 22.4004 24.5659 22.2174 24.4939C21.7197 25.0307 21.5824 25.8394 21.9437 26.5231C22.3823 27.3566 23.3909 27.7022 24.2527 27.355C24.7494 28.1361 25.7794 28.4186 26.6262 27.9884C26.6262 27.9884 26.6262 27.9884 26.6354 27.9888C26.6354 27.9888 26.6354 27.9888 26.6447 27.9892C27.4915 27.559 27.8414 26.5673 27.4872 25.7192C28.2806 25.2317 28.5663 24.219 28.1277 23.3855C28.0921 23.3474 28.0659 23.3096 28.0396 23.2719Z" fill="#41B619"/>
<g clip-path="url(#clip3)">
<path d="M27.6306 22.783L26.3902 19.5715L23.6545 21.6615L27.6306 22.783Z" fill="#FF9D73"/>
<path d="M23.6544 21.6613C24.0704 21.7787 24.5234 21.6911 24.866 21.4289L25.4121 21.0111C25.5864 20.8773 25.8067 20.8352 26.019 20.8951C26.2292 20.9544 26.3971 21.106 26.4759 21.3111L26.7232 21.9527C26.8761 22.3547 27.2166 22.666 27.6305 22.7827L30.0067 23.4529C30.0968 23.4783 30.193 23.4245 30.2184 23.3344L30.3479 22.8754C31.0501 20.3855 29.5989 17.7328 27.109 17.0305C24.6111 16.3237 22.0046 17.7834 21.2999 20.2819L21.1596 20.7794C21.1336 20.8717 21.1881 20.9657 21.2781 20.9911L23.6544 21.6613Z" fill="#FF533E"/>
<path d="M22.6253 20.6557L26.9199 17.6926C24.7839 17.0901 22.565 18.3327 21.9626 20.4688L22.6253 20.6557Z" fill="#FF2E23"/>
<path d="M22.6254 20.6558L23.8414 20.9988C24.058 21.0599 24.2806 21.0092 24.4461 20.8823L24.9922 20.4644C25.3253 20.2111 25.7685 20.1092 26.2038 20.232C26.6392 20.3548 26.9638 20.6732 27.1148 21.0654L27.3622 21.707C27.4369 21.9017 27.6003 22.0613 27.8169 22.1224L29.6956 22.6522C30.298 20.5162 29.0554 18.2974 26.9194 17.6949C25.1507 17.1938 23.2278 18.5198 22.6254 20.6558Z" fill="#FF2E23"/>
<path d="M26.6887 19.4077C26.8536 19.3153 26.9129 19.1052 26.8211 18.938C26.7287 18.7731 26.5186 18.7138 26.3515 18.8056C26.1865 18.898 26.1272 19.1081 26.219 19.2753L26.3868 19.5749L26.6887 19.4077Z" fill="#FFE9B0"/>
<path d="M24.9136 19.4304C24.965 19.2481 24.8594 19.0562 24.6749 19.0042C24.4926 18.9528 24.3008 19.0585 24.2487 19.2429C24.1967 19.4273 24.303 19.617 24.4874 19.6691L24.8198 19.7628L24.9136 19.4304Z" fill="#FFE9B0"/>
<path d="M27.7251 20.2234C27.7765 20.0411 27.9668 19.9327 28.1512 19.9847C28.3357 20.0367 28.4419 20.2264 28.3899 20.4109C28.3379 20.5953 28.1482 20.7016 27.9637 20.6495L27.6313 20.5558L27.7251 20.2234Z" fill="#FFE9B0"/>
</g>
<g clip-path="url(#clip4)">
<path d="M20.7847 28.8305C21.0228 28.7035 21.2608 28.6083 21.4909 28.4575C21.7687 28.275 22.0067 28.0529 22.2289 27.8148C22.34 27.6878 22.459 27.5529 22.578 27.4339C22.6971 27.3149 22.824 27.1879 22.9431 27.0689C23.189 26.8229 23.4192 26.5611 23.6175 26.2833C23.681 26.1881 23.7366 26.1008 23.7921 25.9977C23.5937 25.8628 23.4271 25.6961 23.2843 25.4898C22.6653 24.5852 22.9034 23.3473 23.808 22.7284C24.4507 22.292 25.268 22.284 25.8949 22.6411C25.9187 22.5856 25.9425 22.53 25.9663 22.4745C26.2282 21.927 26.5932 21.4191 27.0376 20.9906C27.4105 20.6335 27.8549 20.3637 28.2913 20.0701C28.4897 19.9352 28.696 19.7924 28.8864 19.6496C28.6246 19.4353 28.3548 19.2449 28.0771 19.0783C28.0295 19.1893 27.9263 19.2766 27.7993 19.2766C27.6248 19.2925 27.4661 19.1497 27.4502 18.9751C27.4423 18.9037 27.4661 18.8323 27.5057 18.7767C26.7202 18.4196 25.8632 18.2292 25.0062 18.2133C25.03 18.3324 24.9744 18.4514 24.8713 18.5228C24.7205 18.626 24.5221 18.5863 24.419 18.4355C24.3714 18.372 24.3634 18.3006 24.3634 18.2371C23.5303 18.3086 22.6971 18.5545 21.9274 18.991C22.0067 19.0862 22.0226 19.2132 21.967 19.3322C21.8877 19.4909 21.6893 19.5623 21.5306 19.4829C21.4671 19.4512 21.4116 19.3957 21.3798 19.3322C20.6578 19.848 20.0626 20.4907 19.6421 21.2128C19.7532 21.2604 19.8404 21.3636 19.8404 21.4905C19.8563 21.6651 19.7135 21.8238 19.5389 21.8397C19.4675 21.8476 19.3961 21.8238 19.3405 21.7841C18.9834 22.5697 18.793 23.4267 18.7771 24.2837C18.8962 24.2599 19.0152 24.3154 19.0866 24.4186C19.1898 24.5693 19.1501 24.7677 18.9993 24.8709C18.9358 24.9185 18.8644 24.9264 18.8009 24.9264C18.8803 25.7675 19.1263 26.6007 19.5548 27.3784C19.65 27.299 19.777 27.2831 19.896 27.3387C20.0547 27.418 20.1261 27.6164 20.0467 27.7751C20.015 27.8386 19.9595 27.8941 19.896 27.9259C20.1499 28.275 20.4197 28.5766 20.7212 28.8622C20.7371 28.8464 20.7609 28.8384 20.7847 28.8305Z" fill="#F6D633"/>
<path d="M22.9509 22.3791C22.9033 22.4268 22.8319 22.4188 22.7922 22.3791L21.1814 20.7683C21.1338 20.7207 21.1417 20.6493 21.1814 20.6096C21.229 20.562 21.3004 20.5699 21.3401 20.6096L22.943 22.2125C22.9906 22.2601 22.9985 22.3315 22.9509 22.3791Z" fill="#FCFBFA"/>
<path d="M22.1972 23.6885C22.1655 23.7203 22.1258 23.7282 22.0861 23.7203L19.8881 23.1251C19.8246 23.1093 19.7929 23.0458 19.8087 22.9823C19.8246 22.9188 19.8881 22.8871 19.9516 22.9029L22.1417 23.4901C22.2051 23.506 22.2369 23.5695 22.221 23.633C22.221 23.6488 22.2131 23.6727 22.1972 23.6885Z" fill="#FCFBFA"/>
<path d="M22.1972 25.1963C22.1813 25.2121 22.1734 25.2201 22.1496 25.228L19.9516 25.8073C19.8881 25.8231 19.8246 25.7914 19.8087 25.7279C19.7929 25.6644 19.8246 25.6009 19.8881 25.5851L22.0861 25.0058C22.1496 24.9899 22.2131 25.0217 22.229 25.0852C22.2369 25.1248 22.221 25.1725 22.1972 25.1963Z" fill="#FCFBFA"/>
<path d="M22.951 26.5054L21.3482 28.1083C21.3005 28.1559 21.2291 28.148 21.1895 28.1083C21.1418 28.0607 21.1498 27.9893 21.1895 27.9496L22.7923 26.3467C22.84 26.2991 22.9114 26.307 22.951 26.3467C22.9907 26.3864 22.9987 26.4578 22.951 26.5054Z" fill="#FCFBFA"/>
<path d="M25.7679 21.6255C25.7362 21.6573 25.6965 21.6652 25.6568 21.6573C25.5933 21.6414 25.5616 21.5779 25.5775 21.5145L26.1647 19.3244C26.1805 19.2609 26.244 19.2291 26.3075 19.245C26.371 19.2609 26.4027 19.3244 26.3869 19.3878L25.8076 21.57C25.7997 21.5938 25.7838 21.6097 25.7679 21.6255Z" fill="#FCFBFA"/>
<path d="M24.2604 21.6253C24.2445 21.6412 24.2366 21.6491 24.2128 21.6571C24.1493 21.673 24.0858 21.6412 24.0699 21.5777L23.4828 19.3876C23.4669 19.3242 23.4986 19.2607 23.5621 19.2448C23.6256 19.2289 23.6891 19.2607 23.7049 19.3242L24.2921 21.5143C24.3001 21.5539 24.2921 21.5936 24.2604 21.6253Z" fill="#FCFBFA"/>
</g>
<g clip-path="url(#clip5)">
<path d="M24.0122 16.892C26.7074 16.892 28.8922 14.7071 28.8922 12.0119C28.8922 9.31672 26.7074 7.13184 24.0122 7.13184C21.317 7.13184 19.1321 9.31672 19.1321 12.0119C19.1321 14.7071 21.317 16.892 24.0122 16.892Z" fill="#9B0A33"/>
<path d="M25.7395 16.2945C28.1055 15.3409 29.2505 12.6499 28.297 10.2839C27.3434 7.91795 24.6524 6.77294 22.2864 7.72647C19.9204 8.68001 18.7754 11.371 19.729 13.737C20.6825 16.103 23.3735 17.248 25.7395 16.2945Z" fill="#AF0931"/>
<path d="M21.6018 10.2784C21.9625 10.2784 22.2548 9.98602 22.2548 9.62534C22.2548 9.26467 21.9625 8.97229 21.6018 8.97229C21.2411 8.97229 20.9487 9.26467 20.9487 9.62534C20.9487 9.98602 21.2411 10.2784 21.6018 10.2784Z" fill="#FFC2C2"/>
<path d="M24.5109 8.66341C24.5109 8.90089 24.3209 9.09087 24.0835 9.09087C23.846 9.09087 23.656 8.90089 23.656 8.66341C23.656 8.42594 23.846 8.23596 24.0835 8.23596C24.3209 8.23596 24.5109 8.42594 24.5109 8.66341Z" fill="#FFC2C2"/>
<path d="M27.016 10.3258C27.016 10.7295 26.6836 11.0619 26.2799 11.0619C25.8762 11.0619 25.5437 10.7295 25.5437 10.3258C25.5437 9.92206 25.8762 9.5896 26.2799 9.5896C26.6836 9.5896 27.016 9.91019 27.016 10.3258Z" fill="#FFC2C2"/>
<path d="M23.739 11.1333C23.9554 11.1333 24.1308 10.9578 24.1308 10.7414C24.1308 10.525 23.9554 10.3496 23.739 10.3496C23.5226 10.3496 23.3472 10.525 23.3472 10.7414C23.3472 10.9578 23.5226 11.1333 23.739 11.1333Z" fill="#FFC2C2"/>
<path d="M21.9937 12.4985C21.9937 12.9379 21.6374 13.2941 21.1981 13.2941C20.7588 13.2941 20.4026 12.9379 20.4026 12.4985C20.4026 12.0592 20.7588 11.703 21.1981 11.703C21.6374 11.703 21.9937 12.0473 21.9937 12.4985Z" fill="#FFC2C2"/>
<path d="M24.8195 13.14C24.8195 13.4487 24.5701 13.698 24.2614 13.698C23.9527 13.698 23.7034 13.4487 23.7034 13.14C23.7034 12.8313 23.9527 12.5819 24.2614 12.5819C24.5701 12.5819 24.8195 12.8313 24.8195 13.14Z" fill="#FFC2C2"/>
<path d="M27.5743 12.9142C27.5743 13.2348 27.3131 13.5079 26.9806 13.5079C26.6482 13.5079 26.387 13.2467 26.387 12.9142C26.387 12.5937 26.6482 12.3206 26.9806 12.3206C27.3131 12.3206 27.5743 12.5818 27.5743 12.9142Z" fill="#FFC2C2"/>
<path d="M25.9356 14.9566C25.9356 15.1584 25.7694 15.3247 25.5675 15.3247C25.3657 15.3247 25.1995 15.1584 25.1995 14.9566C25.1995 14.7547 25.3657 14.5885 25.5675 14.5885C25.7694 14.5885 25.9356 14.7547 25.9356 14.9566Z" fill="#FFC2C2"/>
<path d="M23.2402 15.111C23.2402 15.3841 23.0265 15.5978 22.7534 15.5978C22.4803 15.5978 22.2666 15.3841 22.2666 15.111C22.2666 14.8379 22.4803 14.6241 22.7534 14.6241C23.0265 14.6241 23.2402 14.8379 23.2402 15.111Z" fill="#FFC2C2"/>
</g>
<g clip-path="url(#clip6)">
<path d="M14.5322 31.7719C17.2274 31.7719 19.4123 29.587 19.4123 26.8918C19.4123 24.1966 17.2274 22.0117 14.5322 22.0117C11.837 22.0117 9.6521 24.1966 9.6521 26.8918C9.6521 29.587 11.837 31.7719 14.5322 31.7719Z" fill="#9B0A33"/>
<path d="M16.2595 31.1743C18.6255 30.2208 19.7705 27.5298 18.817 25.1638C17.8634 22.7978 15.1724 21.6528 12.8065 22.6064C10.4405 23.5599 9.29545 26.2509 10.249 28.6169C11.2025 30.9829 13.8935 32.1279 16.2595 31.1743Z" fill="#AF0931"/>
<path d="M12.1218 25.1583C12.4825 25.1583 12.7749 24.8659 12.7749 24.5052C12.7749 24.1446 12.4825 23.8522 12.1218 23.8522C11.7611 23.8522 11.4688 24.1446 11.4688 24.5052C11.4688 24.8659 11.7611 25.1583 12.1218 25.1583Z" fill="#FFC2C2"/>
<path d="M15.0309 23.5433C15.0309 23.7808 14.841 23.9707 14.6035 23.9707C14.366 23.9707 14.176 23.7808 14.176 23.5433C14.176 23.3058 14.366 23.1158 14.6035 23.1158C14.841 23.1158 15.0309 23.3058 15.0309 23.5433Z" fill="#FFC2C2"/>
<path d="M17.5361 25.2057C17.5361 25.6094 17.2036 25.9418 16.7999 25.9418C16.3962 25.9418 16.0637 25.6094 16.0637 25.2057C16.0637 24.8019 16.3962 24.4695 16.7999 24.4695C17.2036 24.4695 17.5361 24.7901 17.5361 25.2057Z" fill="#FFC2C2"/>
<path d="M14.259 26.0132C14.4754 26.0132 14.6508 25.8377 14.6508 25.6213C14.6508 25.4049 14.4754 25.2295 14.259 25.2295C14.0426 25.2295 13.8672 25.4049 13.8672 25.6213C13.8672 25.8377 14.0426 26.0132 14.259 26.0132Z" fill="#FFC2C2"/>
<path d="M12.5137 27.3784C12.5137 27.8178 12.1575 28.174 11.7181 28.174C11.2788 28.174 10.9226 27.8178 10.9226 27.3784C10.9226 26.9391 11.2788 26.5829 11.7181 26.5829C12.1575 26.5829 12.5137 26.9272 12.5137 27.3784Z" fill="#FFC2C2"/>
<path d="M15.3395 28.0199C15.3395 28.3286 15.0902 28.5779 14.7815 28.5779C14.4727 28.5779 14.2234 28.3286 14.2234 28.0199C14.2234 27.7111 14.4727 27.4618 14.7815 27.4618C15.0902 27.4618 15.3395 27.7111 15.3395 28.0199Z" fill="#FFC2C2"/>
<path d="M18.0944 27.7941C18.0944 28.1147 17.8331 28.3878 17.5007 28.3878C17.1682 28.3878 16.907 28.1266 16.907 27.7941C16.907 27.4735 17.1682 27.2004 17.5007 27.2004C17.8331 27.2004 18.0944 27.4617 18.0944 27.7941Z" fill="#FFC2C2"/>
<path d="M16.4556 29.8365C16.4556 30.0383 16.2894 30.2045 16.0876 30.2045C15.8857 30.2045 15.7195 30.0383 15.7195 29.8365C15.7195 29.6346 15.8857 29.4684 16.0876 29.4684C16.2894 29.4684 16.4556 29.6346 16.4556 29.8365Z" fill="#FFC2C2"/>
<path d="M13.7603 29.9909C13.7603 30.2639 13.5465 30.4777 13.2734 30.4777C13.0003 30.4777 12.7866 30.2639 12.7866 29.9909C12.7866 29.7178 13.0003 29.504 13.2734 29.504C13.5465 29.504 13.7603 29.7178 13.7603 29.9909Z" fill="#FFC2C2"/>
</g>
<path d="M20.7368 10.4885C20.7368 10.0603 21.0157 9.7137 21.3491 9.7137C21.6893 9.7137 21.8662 9.98556 21.9002 10.3458C22.0363 10.1691 22.1179 9.95837 22.1248 9.72049C22.1316 9.14278 21.6485 8.66703 21.0429 8.66023C20.4442 8.65343 19.9543 9.1224 19.9475 9.7001C19.9475 10.2098 20.7368 10.5972 20.7368 10.4885Z" fill="#6E4736"/>
<path d="M24.0025 10.5156C24.0025 10.0874 23.7372 9.734 23.397 9.734C23.0568 9.734 22.8731 9.99906 22.8323 10.3593C22.6962 10.1826 22.6213 9.96508 22.6213 9.7272C22.6281 9.14949 23.118 8.68053 23.7168 8.68733C24.3155 8.69413 24.7986 9.16309 24.7986 9.74759C24.7918 10.2437 24.0025 10.6176 24.0025 10.5156Z" fill="#6E4736"/>
<path d="M22.4063 7.31384H22.3988H22.3912C20.8793 7.31384 19.6622 8.16719 19.6546 9.23198C19.647 10.4025 20.3501 10.8707 20.592 10.5686C20.6752 10.4629 20.6525 10.3043 20.6449 10.1004C20.6449 9.62467 20.9549 9.33771 21.3253 9.34526C21.7486 9.35281 21.8242 9.63977 21.8242 10.1155C21.8242 10.5158 21.2875 12.5396 21.3026 12.7284C21.3177 12.9172 21.726 13.4307 22.3383 13.4458C22.3383 13.4458 22.3383 13.4458 22.3459 13.4458C22.3459 13.4458 22.3459 13.4458 22.3534 13.4458C22.9733 13.4458 23.3816 12.9323 23.4042 12.7435C23.4194 12.5547 22.9204 10.5233 22.9204 10.1231C22.9204 9.64733 23.0036 9.36036 23.4269 9.36036C23.7973 9.36036 24.1073 9.64733 24.0997 10.1306C24.0997 10.327 24.0695 10.4856 24.1526 10.5988C24.387 10.9009 25.0976 10.4478 25.1052 9.27729C25.1127 8.20495 23.9032 7.3365 22.4063 7.31384Z" fill="#D1AD88"/>
<g clip-path="url(#clip7)">
<path d="M7.10118 12.5351C7.40396 12.2324 7.84631 12.1845 8.08205 12.4203C8.32261 12.6608 8.25546 12.9781 8.0248 13.2569C8.24598 13.2282 8.45269 13.1369 8.62571 12.9735C9.03902 12.5698 9.03385 11.8918 8.61047 11.4588C8.1919 11.0307 7.5139 11.0159 7.10058 11.4196C6.74014 11.78 7.02429 12.612 7.10118 12.5351Z" fill="#6E4736"/>
<path d="M9.39133 14.8636C9.6941 14.5608 9.75638 14.1233 9.51582 13.8827C9.27527 13.6422 8.95794 13.6997 8.67436 13.9256C8.70309 13.7044 8.80396 13.4977 8.97217 13.3295C9.38548 12.9258 10.0635 12.9406 10.4821 13.3688C10.9006 13.7969 10.9106 14.4701 10.4973 14.8834C10.1417 15.2294 9.31924 14.9357 9.39133 14.8636Z" fill="#6E4736"/>
<path d="M10.5266 11.4708L10.5213 11.4655L10.5159 11.4602C9.44683 10.391 7.98279 10.1338 7.22452 10.8814C6.3915 11.7037 6.55756 12.5319 6.94221 12.4894C7.07577 12.4734 7.17187 12.3453 7.3107 12.1957C7.64712 11.8593 8.0692 11.8756 8.32579 12.1429C8.6198 12.4475 8.47034 12.7039 8.13393 13.0403C7.85092 13.3233 6.0403 14.3749 5.91749 14.5191C5.79468 14.6633 5.72023 15.315 6.14254 15.7587C6.14254 15.7587 6.14254 15.7587 6.14789 15.7641C6.14789 15.7641 6.14789 15.7641 6.15323 15.7694C6.59157 16.2077 7.24334 16.1333 7.39287 16.0158C7.53706 15.893 8.62068 14.1038 8.90369 13.8208C9.24011 13.4844 9.50182 13.3402 9.80117 13.6396C10.0631 13.9015 10.0794 14.3236 9.73226 14.66C9.59342 14.7989 9.4599 14.8896 9.4386 15.0285C9.39072 15.4078 10.2136 15.5899 11.0466 14.7676C11.8102 14.0147 11.569 12.5453 10.5266 11.4708Z" fill="#D1AD88"/>
</g>
<g clip-path="url(#clip8)">
<path d="M17.9098 26.2949C18.1169 26.0878 18.4194 26.0551 18.5807 26.2163C18.7453 26.3809 18.6993 26.5979 18.5415 26.7886C18.6928 26.769 18.8342 26.7066 18.9526 26.5948C19.2353 26.3187 19.2318 25.8549 18.9422 25.5587C18.6558 25.2658 18.1921 25.2557 17.9093 25.5318C17.6628 25.7784 17.8572 26.3475 17.9098 26.2949Z" fill="#6E4736"/>
<path d="M19.4763 27.8877C19.6834 27.6806 19.726 27.3813 19.5615 27.2168C19.3969 27.0522 19.1799 27.0916 18.9859 27.2461C19.0056 27.0948 19.0746 26.9534 19.1896 26.8383C19.4723 26.5622 19.9361 26.5723 20.2224 26.8652C20.5088 27.1581 20.5156 27.6186 20.2329 27.9013C19.9896 28.138 19.427 27.9371 19.4763 27.8877Z" fill="#6E4736"/>
<path d="M20.2529 25.567L20.2492 25.5633L20.2456 25.5597C19.5143 24.8284 18.5128 24.6524 17.9941 25.1638C17.4243 25.7263 17.5379 26.2928 17.801 26.2637C17.8924 26.2528 17.9581 26.1651 18.0531 26.0628C18.2832 25.8327 18.5719 25.8438 18.7474 26.0267C18.9485 26.2351 18.8463 26.4105 18.6162 26.6406C18.4226 26.8342 17.1841 27.5535 17.1001 27.6521C17.016 27.7507 16.9651 28.1966 17.254 28.5001C17.254 28.5001 17.254 28.5001 17.2577 28.5037C17.2577 28.5037 17.2577 28.5037 17.2613 28.5074C17.5611 28.8072 18.007 28.7563 18.1093 28.6759C18.2079 28.5919 18.9491 27.368 19.1427 27.1744C19.3729 26.9443 19.5519 26.8457 19.7567 27.0505C19.9358 27.2297 19.9469 27.5184 19.7095 27.7485C19.6145 27.8435 19.5232 27.9056 19.5086 28.0006C19.4759 28.26 20.0388 28.3846 20.6086 27.8221C21.1309 27.3071 20.9659 26.3019 20.2529 25.567Z" fill="#D1AD88"/>
</g>
<defs>
<clipPath id="clip0">
<rect width="12" height="12" fill="white" transform="translate(8.52002 8.88)"/>
</clipPath>
<clipPath id="clip1">
<rect width="9.12" height="9.12" fill="white" transform="translate(12 5.76001)"/>
</clipPath>
<clipPath id="clip2">
<rect width="9.12" height="9.12" fill="white" transform="translate(9.49536 16.8574) rotate(22.1447)"/>
</clipPath>
<clipPath id="clip3">
<rect width="9.12" height="9.12" fill="white" transform="translate(32.3093 22.573) rotate(150.75)"/>
</clipPath>
<clipPath id="clip4">
<rect width="10.92" height="10.92" fill="white" transform="translate(18 18)"/>
</clipPath>
<clipPath id="clip5">
<rect width="12" height="12" fill="white" transform="translate(18 5.99988)"/>
</clipPath>
<clipPath id="clip6">
<rect width="12" height="12" fill="white" transform="translate(8.52002 20.8798)"/>
</clipPath>
<clipPath id="clip7">
<rect width="8.76" height="8.76" fill="white" transform="translate(8.33984 7.4259) rotate(45)"/>
</clipPath>
<clipPath id="clip8">
<rect width="5.9922" height="5.9922" fill="white" transform="translate(18.7571 22.8) rotate(45)"/>
</clipPath>
</defs>
</svg>
