<svg width="90" height="40" viewBox="0 0 90 40" fill="none" xmlns="http://www.w3.org/2000/svg">
<path d="M12.9669 12.249L9.09615 13.0849C9.30856 15.8664 9.31916 18.6712 9.15382 21.514L4.05241 14.174L0.0252395 15.0437L0.100959 15.2714L8.72713 26.4066C10.083 26.0732 11.1991 25.6491 12.0883 25.1723C12.7763 21.4437 13.0801 17.1268 12.9669 12.249Z" fill="white"/>
<path d="M21.7869 21.8575C21.4083 20.7188 20.548 20.2739 19.2382 20.5568C18.5344 20.7088 18.0962 20.9661 17.8781 21.3184C17.6662 21.6896 17.6682 22.1366 17.8575 22.706C18.0468 23.2754 18.3288 23.6823 18.7299 23.8805C19.1115 24.0828 19.6639 24.1059 20.3677 23.954C21.6775 23.6711 22.1592 22.9772 21.7869 21.8575ZM20.1253 19.0024L18.3075 11.0144C16.7436 11.3521 15.6999 11.6792 15.1835 11.9534C14.6475 12.2319 14.5195 12.6664 14.787 13.2188L17.6229 19.5427L20.1253 19.0024Z" fill="white"/>
<path d="M34.4372 15.1592L32.0962 8.11817L28.5382 8.8865L30.7467 15.529C31.3461 17.3319 30.8998 18.3844 29.414 18.7052C27.9674 19.0176 26.967 18.2776 26.3676 16.4746L24.1339 9.75622C22.4917 10.1108 21.5067 10.4252 21.2053 10.6531C20.8843 10.8851 20.8788 11.4355 21.1564 12.2706L22.9421 17.6415C23.51 19.3496 24.46 20.5683 25.8248 21.2703C27.196 21.9912 28.7159 22.1512 30.4167 21.7839C32.137 21.4124 33.3995 20.672 34.1781 19.5478C34.9372 18.4278 35.0366 16.9622 34.4372 15.1592Z" fill="white"/>
<path d="M41.7372 17.5493C41.3586 16.4106 40.4983 15.9658 39.1885 16.2487C38.4847 16.4006 38.0465 16.658 37.8283 17.0102C37.6165 17.3814 37.6185 17.8285 37.8078 18.3979C37.9971 18.9672 38.2791 19.3742 38.6802 19.5723C39.0618 19.7747 39.6142 19.7978 40.318 19.6458C41.6278 19.363 42.1095 18.6691 41.7372 17.5493ZM40.0756 14.6942L38.2578 6.70623C36.6939 7.04396 35.6502 7.37104 35.1338 7.64529C34.5978 7.92376 34.4698 8.35822 34.7373 8.91069L37.5732 15.2346L40.0756 14.6942Z" fill="white"/>
<path d="M52.7899 13.8607L48.5282 14.781C48.059 14.8823 47.6951 14.8592 47.4365 14.7116C47.1779 14.5641 46.9792 14.2815 46.8341 13.845L46.5564 13.01L50.7791 12.0981L49.9967 9.74477L45.774 10.6566L44.9663 8.22738L50.401 7.05378C50.2748 6.67421 50.167 6.41274 50.1039 6.22295C50.0471 6.05215 49.9581 5.8476 49.8502 5.58613C49.7486 5.34363 49.666 5.15806 49.589 5.05263C49.5121 4.94721 49.396 4.85022 49.28 4.75324C49.1639 4.65625 49.0151 4.58669 48.8851 4.57406C48.7552 4.56143 48.5862 4.55725 48.4103 4.59524L44.0703 5.53243L43.0342 5.75617C42.8191 5.80261 42.5518 5.88069 42.2453 5.96721C41.9388 6.05374 41.7301 6.11915 41.6191 6.16346C41.5144 6.22675 41.3902 6.29426 41.2332 6.38919C41.0762 6.48412 40.9841 6.58536 40.9702 6.66972L40.9016 7.03035C40.8675 7.18008 40.8789 7.34035 40.9294 7.49218C40.9603 7.64823 41.0234 7.83802 41.0991 8.06576L43.3581 14.8601C43.8124 16.2265 44.4079 17.1353 45.1515 17.5443C45.8951 17.9533 47.0001 17.9995 48.4467 17.6871L53.6859 16.5557L52.7899 13.8607Z" fill="white"/>
<path d="M58.9002 13.8431C58.5216 12.7044 57.6613 12.2596 56.3515 12.5424C55.6477 12.6944 55.2095 12.9518 54.9913 13.304C54.7795 13.6752 54.7815 14.1223 54.9708 14.6916C55.1601 15.261 55.442 15.6679 55.8432 15.8661C56.2248 16.0685 56.7772 16.0915 57.481 15.9396C58.7908 15.6567 59.2725 14.9628 58.9002 13.8431ZM57.2385 10.988L55.4208 2.99999C53.8569 3.33772 52.8132 3.6648 52.2968 3.93905C51.7608 4.21753 51.6328 4.65198 51.9003 5.20445L54.7362 11.5284L57.2385 10.988Z" fill="white"/>
<path d="M40.3264 26.7775C39.361 23.8738 37.0766 22.8008 33.4795 23.5776L32.2479 23.8435C30.6057 24.1981 29.6207 24.5125 29.3193 24.7404C28.9984 24.9724 28.9928 25.5228 29.2704 26.3579L32.7535 36.834L36.3115 36.0657L35.2514 32.8773L36.268 32.6578C37.9297 32.2989 39.1398 31.5901 39.892 30.5124C40.6441 29.4346 40.7934 28.1819 40.3264 26.7775ZM36.677 27.5859C36.8789 28.1932 36.8279 28.7331 36.5631 29.1971C36.2984 29.6611 35.7296 29.967 34.8889 30.1485L34.3807 30.2583L33.1691 26.6144L33.7556 26.4877C34.5572 26.3147 35.2074 26.3166 35.6741 26.4599C36.1471 26.6222 36.4814 26.9975 36.677 27.5859Z" fill="#FFD600"/>
<path d="M48.0144 33.5385L43.9256 21.2404C42.2834 21.5951 41.2984 21.9095 40.997 22.1373C40.676 22.3693 40.6704 22.9197 40.9481 23.7548L44.4564 34.3068L48.0144 33.5385Z" fill="#FFD600"/>
<path d="M60.1767 30.9121L59.2239 28.0464L53.6914 29.2411L56.9032 21.5705C56.8797 20.6806 56.6424 19.7148 56.1718 18.6773L47.0031 20.6572C46.8076 20.6994 46.6443 20.7754 46.5201 20.8429C46.3958 20.9104 46.3101 21.0306 46.2761 21.1804C46.242 21.3301 46.2017 21.4609 46.2004 21.5832C46.1992 21.7055 46.2295 21.9227 46.2983 22.1926C46.3671 22.4625 46.4233 22.6945 46.4864 22.8843C46.5495 23.0741 46.6504 23.3777 46.7829 23.7763L52.335 22.5774L49.1232 30.2479C49.1271 31.1421 49.384 32.1037 49.8547 33.1411L60.1767 30.9121Z" fill="#FFD600"/>
<path d="M71.8796 28.385L70.9268 25.5192L65.3943 26.7139L68.6061 19.0434C68.5826 18.1534 68.3453 17.1876 67.8747 16.1501L58.706 18.1301C58.5105 18.1723 58.3472 18.2482 58.223 18.3157C58.0987 18.3832 58.013 18.5035 57.979 18.6532C57.9449 18.8029 57.9046 18.9337 57.9034 19.056C57.9021 19.1783 57.9324 19.3955 58.0012 19.6654C58.07 19.9354 58.1262 20.1673 58.1893 20.3571C58.2524 20.5469 58.3533 20.8506 58.4858 21.2491L64.0379 20.0502L60.8261 27.7208C60.83 28.6149 61.0869 29.5765 61.5576 30.614L71.8796 28.385Z" fill="#FFD600"/>
<path d="M85.9871 25.3386L85.9114 25.1108L76.9794 14.001C75.3889 14.3851 74.1611 14.9147 73.2569 15.5981C73.5521 15.9819 73.6241 16.5766 73.4862 17.359C72.9361 20.3052 72.6915 23.9177 72.7326 28.2008L76.6229 27.3607C76.5534 26.5214 76.5274 25.8761 76.5122 25.4522L80.8913 24.5066L82.0968 26.1786L85.9871 25.3386ZM79.0897 21.9868L76.4505 22.5567C76.4585 21.1311 76.5175 19.7962 76.6213 18.533L79.0897 21.9868Z" fill="#FFD600"/>
</svg>
