<svg width="477" height="123" viewBox="0 0 477 123" fill="none" xmlns="http://www.w3.org/2000/svg">
<ellipse cx="238.5" rx="306.5" ry="122.5" fill="#41B619"/>
<path d="M173.01 45.1105L165.097 46.824C165.531 52.5262 165.553 58.276 165.214 64.1037L154.785 49.0568L146.552 50.8396L146.706 51.3065L164.342 74.1336C167.114 73.45 169.396 72.5806 171.214 71.6032C172.62 63.9596 173.241 55.1099 173.01 45.1105Z" fill="white"/>
<path d="M191.042 64.8078C190.268 62.4735 188.509 61.5616 185.831 62.1415C184.393 62.453 183.497 62.9806 183.051 63.7027C182.618 64.4636 182.622 65.3801 183.009 66.5473C183.396 67.7145 183.972 68.5488 184.792 68.955C185.572 69.3698 186.702 69.4172 188.141 69.1056C190.818 68.5258 191.803 67.1033 191.042 64.8078ZM187.645 58.9549L183.929 42.5795C180.731 43.2718 178.598 43.9423 177.542 44.5046C176.446 45.0754 176.184 45.9661 176.731 47.0986L182.529 60.0627L187.645 58.9549Z" fill="white"/>
<path d="M216.905 51.0764L212.119 36.6423L204.845 38.2173L209.36 51.8344C210.585 55.5305 209.673 57.6879 206.635 58.3457C203.678 58.9861 201.633 57.469 200.407 53.773L195.84 40.0003C192.483 40.7272 190.469 41.3718 189.853 41.8388C189.197 42.3145 189.185 43.4428 189.753 45.1547L193.404 56.1651C194.565 59.6666 196.507 62.165 199.297 63.6041C202.101 65.0821 205.208 65.41 208.685 64.6571C212.202 63.8955 214.783 62.3776 216.375 60.073C217.927 57.7771 218.13 54.7725 216.905 51.0764Z" fill="white"/>
<path d="M231.829 55.9761C231.055 53.6418 229.297 52.7299 226.619 53.3098C225.18 53.6213 224.284 54.1489 223.838 54.871C223.405 55.6319 223.409 56.5485 223.796 57.7156C224.183 58.8828 224.759 59.7171 225.58 60.1233C226.36 60.5382 227.489 60.5855 228.928 60.2739C231.606 59.6941 232.591 58.2716 231.829 55.9761ZM228.432 50.1232L224.716 33.7478C221.519 34.4401 219.385 35.1107 218.329 35.6729C217.233 36.2437 216.972 37.1344 217.519 38.2669L223.316 51.231L228.432 50.1232Z" fill="white"/>
<path d="M254.426 48.4145L245.713 50.3011C244.754 50.5088 244.01 50.4614 243.481 50.1589C242.953 49.8564 242.546 49.2772 242.25 48.3823L241.682 46.6705L250.315 44.8012L248.715 39.9768L240.082 41.8461L238.431 36.8662L249.542 34.4603C249.284 33.6822 249.064 33.1461 248.935 32.7571C248.818 32.4069 248.637 31.9876 248.416 31.4516C248.208 30.9545 248.039 30.5741 247.882 30.3579C247.725 30.1418 247.487 29.943 247.25 29.7442C247.013 29.5453 246.709 29.4027 246.443 29.3768C246.177 29.351 245.832 29.3424 245.472 29.4203L236.599 31.3415L234.481 31.8002C234.041 31.8954 233.495 32.0554 232.868 32.2328C232.242 32.4102 231.815 32.5443 231.588 32.6351C231.374 32.7649 231.12 32.9033 230.799 33.0979C230.478 33.2925 230.29 33.5 230.261 33.6729L230.121 34.4122C230.051 34.7192 230.075 35.0477 230.178 35.359C230.241 35.6789 230.37 36.068 230.525 36.5348L235.143 50.4632C236.072 53.2644 237.29 55.1274 238.81 55.9658C240.33 56.8042 242.589 56.8989 245.547 56.2585L256.258 53.9392L254.426 48.4145Z" fill="white"/>
<path d="M266.918 48.3783C266.144 46.044 264.385 45.1321 261.708 45.712C260.269 46.0235 259.373 46.5511 258.927 47.2732C258.494 48.0341 258.498 48.9507 258.885 50.1178C259.272 51.285 259.848 52.1193 260.668 52.5255C261.448 52.9404 262.578 52.9877 264.017 52.6761C266.695 52.0963 267.679 50.6738 266.918 48.3783ZM263.521 42.5254L259.805 26.15C256.607 26.8423 254.474 27.5129 253.418 28.0751C252.322 28.646 252.06 29.5366 252.607 30.6691L258.405 43.6332L263.521 42.5254Z" fill="white"/>
<path d="M228.945 74.8938C226.972 68.9412 222.301 66.7416 214.947 68.334L212.429 68.8792C209.072 69.6062 207.058 70.2507 206.442 70.7177C205.786 71.1934 205.774 72.3218 206.342 74.0336L213.463 95.5097L220.737 93.9347L218.57 87.3985L220.648 86.9484C224.045 86.2128 226.519 84.7598 228.057 82.5503C229.595 80.3409 229.9 77.7729 228.945 74.8938ZM221.484 76.5511C221.897 77.796 221.793 78.9028 221.252 79.854C220.71 80.8052 219.547 81.4323 217.829 81.8044L216.79 82.0294L214.313 74.5595L215.512 74.2999C217.15 73.945 218.48 73.9491 219.434 74.2429C220.401 74.5756 221.084 75.345 221.484 76.5511Z" fill="#FFD600"/>
<path d="M244.663 88.754L236.304 63.5429C232.946 64.2698 230.933 64.9144 230.316 65.3814C229.66 65.8571 229.649 66.9854 230.216 68.6973L237.389 90.329L244.663 88.754Z" fill="#FFD600"/>
<path d="M269.528 83.3699L267.58 77.4951L256.269 79.9442L262.836 64.2196C262.788 62.3952 262.303 60.4153 261.34 58.2885L242.595 62.3473C242.196 62.4339 241.862 62.5896 241.608 62.7279C241.354 62.8663 241.179 63.1128 241.109 63.4197C241.039 63.7267 240.957 63.9948 240.954 64.2455C240.952 64.4963 241.014 64.9415 241.155 65.4949C241.295 66.0482 241.41 66.5237 241.539 66.9128C241.668 67.3018 241.874 67.9243 242.145 68.7414L253.496 66.2836L246.93 82.0082C246.938 83.8412 247.463 85.8125 248.425 87.9393L269.528 83.3699Z" fill="#FFD600"/>
<path d="M293.454 78.1892L291.506 72.3144L280.195 74.7635L286.762 59.0389C286.714 57.2145 286.228 55.2346 285.266 53.1078L266.521 57.1666C266.122 57.2532 265.788 57.4089 265.534 57.5472C265.28 57.6856 265.105 57.9321 265.035 58.2391C264.965 58.546 264.883 58.8141 264.88 59.0648C264.878 59.3156 264.94 59.7608 265.081 60.3142C265.221 60.8675 265.336 61.343 265.465 61.7321C265.594 62.1211 265.8 62.7436 266.071 63.5607L277.422 61.1029L270.856 76.8275C270.864 78.6606 271.389 80.6318 272.351 82.7586L293.454 78.1892Z" fill="#FFD600"/>
<path d="M322.296 71.944L322.141 71.4772L303.88 48.702C300.629 49.4894 298.119 50.5751 296.27 51.9761C296.873 52.7628 297.021 53.9819 296.739 55.5859C295.614 61.6256 295.114 69.0313 295.198 77.8116L303.152 76.0894C303.009 74.3688 302.956 73.0459 302.925 72.177L311.878 70.2384L314.343 73.6662L322.296 71.944ZM308.195 65.073L302.799 66.2413C302.815 63.3188 302.936 60.5822 303.148 57.9926L308.195 65.073Z" fill="#FFD600"/>
<g clip-path="url(#clip0)">
<path d="M29.5782 11.5145C31.1058 9.06853 33.9361 8.08371 35.8406 9.27319C37.784 10.4869 37.8246 12.6711 36.7337 14.8502C38.1415 14.3263 39.3596 13.414 40.2472 12.0794C42.3473 8.80349 41.2851 4.36217 37.8502 2.16286C34.4541 -0.0121743 29.9825 0.918975 27.8824 4.19487C26.0637 7.10678 29.1902 12.1357 29.5782 11.5145Z" fill="#6E4736"/>
<path d="M48.1374 23.3218C49.665 20.8758 49.4102 17.9101 47.4668 16.6964C45.5234 15.4826 43.5283 16.3414 42.0099 18.2535C41.863 16.7585 42.2114 15.2491 43.0602 13.8902C45.1602 10.6143 49.6318 9.68314 53.0279 11.8582C56.424 14.0332 57.5104 18.4357 55.425 21.7747C53.6159 24.5847 47.7736 23.9042 48.1374 23.3218Z" fill="#6E4736"/>
<path d="M50.4424 -0.663951L50.3992 -0.690923L50.356 -0.717895C41.719 -6.11227 31.7216 -5.57999 27.8794 0.475694C23.66 7.13533 26.0057 12.3184 28.4654 11.4559C29.3176 11.1486 29.7539 10.1618 30.4382 8.97005C32.1356 6.25226 34.9301 5.71881 37.0192 7.08357C39.4106 8.63714 38.8186 10.5462 37.1212 13.2639C35.6932 15.5503 25.4062 25.1967 24.819 26.3291C24.2318 27.4615 24.7317 31.8515 28.1758 34.1225C28.1758 34.1225 28.1758 34.1225 28.219 34.1495C28.219 34.1495 28.219 34.1495 28.2622 34.1765C31.8033 36.3881 35.9675 34.9111 36.7706 33.9136C37.5306 32.889 41.9281 19.5044 43.3561 17.218C45.0535 14.5002 46.5524 13.1576 48.9708 14.668C51.0869 15.9897 51.8336 18.7348 50.066 21.4688C49.3655 22.5904 48.627 23.3884 48.6979 24.3322C48.9589 26.8939 54.6349 26.8409 58.8543 20.1813C62.7234 14.0824 58.9123 4.8059 50.4424 -0.663951Z" fill="#D1AD88"/>
</g>
<g clip-path="url(#clip1)">
<path d="M434.566 71.8379L432.057 89.4016L449.621 86.8925L434.566 71.8379Z" fill="#FF9D73"/>
<path d="M449.621 86.8926C448.046 85.3174 445.788 84.5703 443.588 84.887L440.08 85.3904C438.96 85.5528 437.863 85.1874 437.059 84.3836C436.264 83.5878 435.89 82.4835 436.053 81.3629L436.556 77.855C436.881 75.6626 436.134 73.4052 434.567 71.8381L425.57 62.8411C425.229 62.5 424.66 62.5 424.319 62.8411L422.581 64.5788C413.154 74.0061 413 89.5885 422.427 99.0159C431.879 108.484 447.274 108.484 456.734 99.024L458.618 97.1401C458.967 96.791 458.959 96.2307 458.618 95.8897L449.621 86.8926Z" fill="#FF533E"/>
<path d="M451.716 94.0055L424.944 96.5146C433.032 104.602 446.137 104.602 454.225 96.5146L451.716 94.0055V94.0055Z" fill="#FF2E23"/>
<path d="M451.716 94.0057L447.112 89.4017C446.292 88.5816 445.163 88.2486 444.099 88.4029L440.591 88.9064C438.456 89.2068 436.207 88.5491 434.558 86.9007C432.91 85.2523 432.252 83.0031 432.561 80.8594L433.064 77.3515C433.218 76.2878 432.885 75.1591 432.065 74.339L424.952 67.2258C416.865 75.3134 416.865 88.4192 424.952 96.5067C431.643 103.214 443.628 102.093 451.716 94.0057Z" fill="#FF2E23"/>
<path d="M430.304 89.3855C429.329 89.3855 428.533 90.1813 428.525 91.1638C428.525 92.1382 429.321 92.934 430.304 92.9421C431.278 92.9421 432.074 92.1463 432.082 91.1638L432.082 89.3936L430.304 89.3855Z" fill="#FFE9B0"/>
<path d="M438.342 93.7538C437.652 94.4441 437.644 95.5727 438.342 96.2711C439.033 96.9613 440.161 96.9694 440.86 96.2711C441.558 95.5727 441.558 94.4522 440.86 93.7538L439.601 92.4952L438.342 93.7538Z" fill="#FFE9B0"/>
<path d="M427.697 83.1085C427.007 83.7987 425.878 83.8068 425.18 83.1085C424.482 82.4101 424.482 81.2896 425.18 80.5912C425.878 79.8929 426.999 79.8929 427.697 80.5912L428.956 81.8499L427.697 83.1085Z" fill="#FFE9B0"/>
</g>
<path d="M338.012 29.5413C341.761 24.2301 341.39 17.5176 337.184 14.5485C332.978 11.5794 326.529 13.4781 322.78 18.7894C319.03 24.1006 319.401 30.8132 323.607 33.7822C327.813 36.7513 334.263 34.8526 338.012 29.5413Z" fill="black"/>
<path d="M337.778 18.9764C337.343 19.6084 335.882 19.3319 334.499 18.3444C333.117 17.3964 332.366 16.0929 332.801 15.4609C333.235 14.8289 334.697 15.1054 336.079 16.0929C337.462 17.0804 338.212 18.3444 337.778 18.9764Z" fill="#58595B"/>
<g clip-path="url(#clip2)">
<path d="M123.241 70.1452C124.287 69.5871 125.334 69.1686 126.345 68.5058C127.566 67.7036 128.612 66.727 129.589 65.6806C130.077 65.1225 130.6 64.5296 131.124 64.0064C131.647 63.4832 132.205 62.9251 132.728 62.4019C133.809 61.3207 134.821 60.1696 135.693 58.9488C135.972 58.5303 136.216 58.1466 136.46 57.6932C135.588 57.1002 134.856 56.3678 134.228 55.4609C131.507 51.4846 132.554 46.0434 136.53 43.3228C139.355 41.4044 142.948 41.3695 145.703 42.9391C145.808 42.695 145.912 42.4508 146.017 42.2067C147.168 39.8 148.773 37.5677 150.726 35.6842C152.365 34.1146 154.318 32.9287 156.237 31.6382C157.109 31.0452 158.016 30.4174 158.853 29.7895C157.702 28.8478 156.516 28.0107 155.295 27.2782C155.086 27.7665 154.632 28.1502 154.074 28.1502C153.307 28.22 152.609 27.5921 152.54 26.8248C152.505 26.5109 152.609 26.1969 152.784 25.9528C149.331 24.3832 145.564 23.5461 141.797 23.4763C141.901 23.9995 141.657 24.5227 141.204 24.8366C140.541 25.2901 139.669 25.1157 139.216 24.453C139.006 24.1739 138.971 23.86 138.971 23.581C135.309 23.8949 131.647 24.9762 128.263 26.8945C128.612 27.3131 128.682 27.8712 128.438 28.3944C128.089 29.0919 127.217 29.4059 126.519 29.0571C126.24 28.9176 125.996 28.6734 125.857 28.3944C122.683 30.6615 120.067 33.4868 118.218 36.6608C118.706 36.8701 119.09 37.3235 119.09 37.8816C119.16 38.6489 118.532 39.3465 117.765 39.4163C117.451 39.4512 117.137 39.3465 116.893 39.1721C115.323 42.6252 114.486 46.3922 114.416 50.1592C114.939 50.0546 115.463 50.2987 115.777 50.7522C116.23 51.4149 116.056 52.2869 115.393 52.7403C115.114 52.9496 114.8 52.9844 114.521 52.9844C114.87 56.6817 115.951 60.344 117.834 63.7622C118.253 63.4134 118.811 63.3437 119.334 63.5878C120.032 63.9366 120.346 64.8086 119.997 65.5062C119.857 65.7852 119.613 66.0294 119.334 66.1689C120.45 67.7036 121.636 69.029 122.962 70.2847C123.032 70.2149 123.136 70.1801 123.241 70.1452Z" fill="#F6D633"/>
<path d="M132.763 41.7881C132.554 41.9974 132.24 41.9625 132.066 41.7881L124.985 34.7076C124.776 34.4983 124.811 34.1844 124.985 34.01C125.194 33.8007 125.508 33.8356 125.683 34.01L132.728 41.0556C132.938 41.2649 132.972 41.5788 132.763 41.7881Z" fill="#FCFBFA"/>
<path d="M129.449 47.5433C129.31 47.6828 129.136 47.7176 128.961 47.6828L119.3 45.0668C119.02 44.997 118.881 44.718 118.951 44.439C119.02 44.1599 119.3 44.0204 119.579 44.0902L129.205 46.6713C129.484 46.741 129.624 47.0201 129.554 47.2991C129.554 47.3689 129.519 47.4735 129.449 47.5433Z" fill="#FCFBFA"/>
<path d="M129.449 54.1703C129.38 54.24 129.345 54.2749 129.24 54.3098L119.579 56.856C119.3 56.9257 119.02 56.7862 118.951 56.5072C118.881 56.2282 119.02 55.9491 119.3 55.8794L128.961 53.3332C129.24 53.2634 129.519 53.4029 129.589 53.682C129.624 53.8564 129.554 54.0656 129.449 54.1703Z" fill="#FCFBFA"/>
<path d="M132.763 59.9253L125.717 66.971C125.508 67.1803 125.194 67.1454 125.02 66.971C124.81 66.7617 124.845 66.4478 125.02 66.2734L132.065 59.2277C132.275 59.0184 132.589 59.0533 132.763 59.2277C132.937 59.4021 132.972 59.716 132.763 59.9253Z" fill="#FCFBFA"/>
<path d="M145.145 38.4747C145.006 38.6142 144.831 38.6491 144.657 38.6142C144.378 38.5444 144.238 38.2654 144.308 37.9863L146.889 28.3596C146.959 28.0806 147.238 27.941 147.517 28.0108C147.796 28.0805 147.936 28.3596 147.866 28.6386L145.32 38.2305C145.285 38.3351 145.215 38.4049 145.145 38.4747Z" fill="#FCFBFA"/>
<path d="M138.518 38.4744C138.448 38.5442 138.414 38.5791 138.309 38.614C138.03 38.6837 137.751 38.5442 137.681 38.2652L135.1 28.6384C135.03 28.3594 135.17 28.0803 135.449 28.0106C135.728 27.9408 136.007 28.0803 136.077 28.3594L138.658 37.9861C138.693 38.1605 138.658 38.3349 138.518 38.4744Z" fill="#FCFBFA"/>
</g>
<path d="M310.399 99C310.057 99 309.724 98.8648 309.478 98.6183L306.589 95.7289L306.17 94.2679L304.673 93.8131L302.819 91.9589L302.325 90.4229L300.907 90.0477L298.182 87.322C297.796 86.9362 297.691 86.3511 297.919 85.8555C298.994 83.5204 300.482 83.057 301.795 82.6483C302.701 82.3661 303.484 82.1224 304.37 81.2363C305.453 80.1528 305.759 79.4424 306.113 78.62C306.515 77.6863 306.97 76.628 308.407 75.1909C309.844 73.7537 310.903 73.2984 311.836 72.8967C312.659 72.5429 313.369 72.2372 314.453 71.1537C315.536 70.0701 315.842 69.3599 316.196 68.5374C316.597 67.6037 317.053 66.5453 318.49 65.1081C319.927 63.6709 320.986 63.2155 321.919 62.8137C322.742 62.4598 323.452 62.1542 324.536 61.0706C325.422 60.1845 325.666 59.4016 325.948 58.4952C326.357 57.1823 326.82 55.6942 329.155 54.6194C329.651 54.3913 330.236 54.496 330.622 54.8818L333.377 57.637L333.636 59.1129L335.293 59.5533L337.142 61.4024L337.286 62.7625L339.059 63.3187L341.918 66.178C342.22 66.4795 342.354 66.9093 342.279 67.3291C342.204 67.7488 341.929 68.1053 341.541 68.2835C340.26 68.8732 340.084 69.439 339.733 70.5663C339.413 71.5924 339.016 72.8693 337.675 74.2099C336.238 75.6471 335.18 76.1025 334.246 76.5043C333.423 76.8582 332.713 77.1639 331.629 78.2475C330.546 79.331 330.24 80.0414 329.886 80.8638C329.485 81.7976 329.029 82.8559 327.592 84.293C326.155 85.7302 325.097 86.1855 324.163 86.5873C323.34 86.9411 322.63 87.2467 321.547 88.3302C320.463 89.4138 320.158 90.1241 319.804 90.9465C319.402 91.8803 318.947 92.9386 317.509 94.3758C316.169 95.7163 314.892 96.1138 313.866 96.4333C312.739 96.7843 312.173 96.9604 311.583 98.2415C311.405 98.6288 311.049 98.9045 310.629 98.9796C310.553 98.9933 310.476 99 310.399 99V99Z" fill="#FC5866"/>
<path d="M337.142 61.4025C335.258 62.5198 334.786 63.8917 334.365 65.1151C334.046 66.0454 333.744 66.9242 332.76 67.9078C331.571 69.0973 330.809 69.4473 329.926 69.8525C328.956 70.2979 327.857 70.8028 326.337 72.3228C324.817 73.8428 324.312 74.9422 323.867 75.912C323.461 76.7944 323.111 77.5564 321.922 78.7458C320.733 79.9353 319.971 80.2852 319.088 80.6903C318.119 81.1357 317.019 81.6405 315.499 83.1605C313.979 84.6804 313.474 85.7798 313.029 86.7497C312.624 87.632 312.274 88.394 311.085 89.5834C310.101 90.5668 309.222 90.8688 308.292 91.1884C307.102 91.5972 305.772 92.0553 304.672 93.8133L306.588 95.7291C306.591 95.7225 306.595 95.7163 306.599 95.7096C307.292 94.2881 307.948 94.0627 309.139 93.6536C310.199 93.2896 311.518 92.8363 312.928 91.4266C314.448 89.9066 314.953 88.8073 315.398 87.8374C315.803 86.9551 316.153 86.1931 317.342 85.0037C318.532 83.8142 319.294 83.4643 320.176 83.0592C321.146 82.6138 322.245 82.109 323.765 80.589C325.285 79.0691 325.79 77.9697 326.235 76.9998C326.641 76.1174 326.991 75.3554 328.18 74.166C329.369 72.9766 330.132 72.6266 331.014 72.2214C331.984 71.776 333.083 71.2711 334.603 69.751C336.013 68.3412 336.466 67.0221 336.831 65.9622C337.24 64.7715 337.465 64.1156 338.887 63.4215C338.948 63.3917 339.004 63.3565 339.059 63.3189L337.142 61.4025Z" fill="#FFE7CC"/>
<path d="M335.293 59.5533L333.377 57.637C331.492 58.7543 331.02 60.1262 330.6 61.3496C330.28 62.2799 329.978 63.1586 328.994 64.1423C327.805 65.3318 327.043 65.6818 326.16 66.087C325.191 66.5324 324.091 67.0373 322.571 68.5573C321.051 70.0773 320.546 71.1766 320.101 72.1465C319.696 73.0289 319.346 73.7909 318.156 74.9803C316.967 76.1697 316.205 76.5197 315.323 76.9248C314.353 77.3702 313.254 77.875 311.734 79.395C310.214 80.9149 309.709 82.0143 309.263 82.9841C308.858 83.8665 308.508 84.6285 307.319 85.8179C306.335 86.8013 305.457 87.1032 304.526 87.4229C303.336 87.8317 302.006 88.2898 300.907 90.0479L302.822 91.9636C302.826 91.957 302.83 91.9509 302.833 91.9442C303.527 90.5227 304.183 90.2973 305.373 89.8882C306.433 89.5241 307.752 89.0708 309.162 87.6612C310.682 86.1412 311.187 85.0419 311.632 84.072C312.037 83.1897 312.387 82.4277 313.577 81.2382C314.766 80.0489 315.528 79.6989 316.41 79.2938C317.38 78.8484 318.48 78.3435 320 76.8236C321.52 75.3036 322.024 74.2043 322.47 73.2344C322.875 72.352 323.225 71.59 324.414 70.4006C325.604 69.2112 326.366 68.8612 327.248 68.4559C328.218 68.0105 329.317 67.5056 330.838 65.9856C332.247 64.5757 332.701 63.2567 333.065 62.1968C333.474 61.0061 333.699 60.3502 335.121 59.6561C335.182 59.6261 335.239 59.5909 335.293 59.5533V59.5533Z" fill="#FFFAF4"/>
<defs>
<clipPath id="clip0">
<rect width="59" height="59" fill="white" transform="translate(29.9585 -23.8917) rotate(31.9874)"/>
</clipPath>
<clipPath id="clip1">
<rect width="47" height="47" fill="white" transform="translate(413 61)"/>
</clipPath>
<clipPath id="clip2">
<rect width="48" height="48" fill="white" transform="translate(111 22.5385)"/>
</clipPath>
</defs>
</svg>
