<svg width="301" height="301" viewBox="0 0 301 301" fill="none" xmlns="http://www.w3.org/2000/svg">
<g clip-path="url(#clip0)">
<path d="M132.01 187.113C133.536 186.299 135.062 185.689 136.537 184.722C138.317 183.552 139.843 182.128 141.268 180.602C141.98 179.788 142.743 178.923 143.506 178.16C144.269 177.397 145.082 176.584 145.845 175.821C147.422 174.244 148.897 172.565 150.169 170.785C150.576 170.174 150.932 169.615 151.288 168.954C150.016 168.089 148.948 167.021 148.033 165.698C144.065 159.899 145.591 151.964 151.39 147.997C155.51 145.199 160.749 145.148 164.768 147.437C164.92 147.081 165.073 146.725 165.225 146.369C166.904 142.859 169.244 139.604 172.092 136.857C174.483 134.568 177.332 132.839 180.129 130.957C181.401 130.092 182.723 129.176 183.944 128.261C182.266 126.887 180.536 125.667 178.756 124.598C178.451 125.311 177.789 125.87 176.975 125.87C175.856 125.972 174.839 125.056 174.737 123.937C174.686 123.479 174.839 123.022 175.093 122.666C170.058 120.377 164.564 119.156 159.071 119.054C159.223 119.817 158.867 120.58 158.206 121.038C157.239 121.699 155.968 121.445 155.307 120.478C155.001 120.071 154.95 119.614 154.95 119.207C149.61 119.664 144.269 121.241 139.335 124.039C139.843 124.649 139.945 125.463 139.589 126.226C139.08 127.243 137.809 127.701 136.791 127.193C136.384 126.989 136.028 126.633 135.825 126.226C131.196 129.532 127.381 133.653 124.685 138.281C125.397 138.587 125.957 139.248 125.957 140.062C126.059 141.181 125.143 142.198 124.024 142.3C123.566 142.351 123.108 142.198 122.752 141.944C120.463 146.98 119.243 152.473 119.141 157.967C119.904 157.814 120.667 158.17 121.125 158.831C121.786 159.798 121.531 161.069 120.565 161.731C120.158 162.036 119.7 162.087 119.293 162.087C119.802 167.479 121.379 172.819 124.126 177.804C124.736 177.296 125.55 177.194 126.313 177.55C127.33 178.059 127.788 179.33 127.279 180.348C127.076 180.755 126.72 181.111 126.313 181.314C127.941 183.552 129.67 185.485 131.603 187.316C131.705 187.215 131.857 187.164 132.01 187.113Z" fill="#F6D633"/>
<path d="M145.896 145.759C145.591 146.064 145.133 146.013 144.879 145.759L134.553 135.433C134.248 135.128 134.299 134.67 134.553 134.416C134.859 134.11 135.316 134.161 135.571 134.416L145.846 144.691C146.151 144.996 146.202 145.454 145.896 145.759Z" fill="#FCFBFA"/>
<path d="M141.064 154.151C140.861 154.355 140.606 154.406 140.352 154.355L126.262 150.54C125.855 150.438 125.652 150.031 125.753 149.624C125.855 149.217 126.262 149.014 126.669 149.116L140.708 152.88C141.115 152.982 141.318 153.388 141.217 153.795C141.217 153.897 141.166 154.05 141.064 154.151Z" fill="#FCFBFA"/>
<path d="M141.064 163.816C140.962 163.918 140.911 163.969 140.759 164.019L126.669 167.733C126.262 167.834 125.855 167.631 125.753 167.224C125.652 166.817 125.855 166.41 126.262 166.308L140.352 162.595C140.759 162.493 141.166 162.697 141.267 163.104C141.318 163.358 141.217 163.663 141.064 163.816Z" fill="#FCFBFA"/>
<path d="M145.896 172.209L135.621 182.484C135.316 182.789 134.858 182.738 134.604 182.484C134.299 182.179 134.35 181.721 134.604 181.466L144.879 171.191C145.184 170.886 145.642 170.937 145.896 171.191C146.151 171.446 146.202 171.904 145.896 172.209Z" fill="#FCFBFA"/>
<path d="M163.954 140.926C163.75 141.13 163.496 141.181 163.242 141.13C162.835 141.028 162.631 140.621 162.733 140.214L166.497 126.175C166.599 125.768 167.006 125.565 167.413 125.667C167.819 125.768 168.023 126.175 167.921 126.582L164.208 140.57C164.157 140.723 164.055 140.825 163.954 140.926Z" fill="#FCFBFA"/>
<path d="M154.289 140.926C154.188 141.028 154.137 141.079 153.984 141.13C153.577 141.232 153.17 141.028 153.068 140.621L149.304 126.582C149.203 126.175 149.406 125.768 149.813 125.667C150.22 125.565 150.627 125.768 150.729 126.175L154.493 140.214C154.544 140.469 154.493 140.723 154.289 140.926Z" fill="#FCFBFA"/>
</g>
<g clip-path="url(#clip1)">
<path d="M80.7252 58.5755C79.429 59.7204 78.0857 60.6674 76.8743 61.949C75.413 63.4991 74.2581 65.2379 73.2256 67.052C72.7212 68.0086 72.179 69.0264 71.6133 69.9453C71.0476 70.8641 70.4442 71.8442 69.8785 72.7631C68.7094 74.662 67.6628 76.6364 66.8377 78.6627C66.583 79.3507 66.3661 79.9774 66.1728 80.7031C67.61 81.2501 68.8964 82.0421 70.0932 83.1168C75.295 87.8399 75.6468 95.9128 70.9237 101.115C67.5629 104.79 62.4777 106.052 58.0386 104.755C57.9726 105.137 57.9065 105.518 57.8405 105.9C57.0197 109.703 55.4968 113.411 53.3613 116.743C51.5652 119.523 49.1943 121.865 46.9081 124.343C45.8711 125.479 44.7964 126.675 43.8207 127.849C45.7715 128.796 47.7365 129.584 49.7157 130.211C49.8478 129.447 50.3616 128.75 51.1534 128.562C52.2185 128.204 53.4201 128.859 53.7781 129.924C53.9335 130.358 53.891 130.839 53.7259 131.244C59.1547 132.305 64.7816 132.222 70.1496 131.049C69.8245 130.342 69.9943 129.517 70.5317 128.919C71.3189 128.052 72.6149 128.005 73.4818 128.792C73.8729 129.118 74.0284 129.551 74.1225 129.947C79.2125 128.266 84.0435 125.496 88.1962 121.632C87.56 121.156 87.2727 120.388 87.4426 119.563C87.702 118.456 88.8332 117.716 89.9406 117.976C90.3835 118.079 90.8123 118.343 91.1045 118.692C94.8424 114.404 97.6003 109.513 99.1518 104.386C98.3884 104.254 97.691 103.74 97.5027 102.948C97.1447 101.883 97.8 100.682 98.8652 100.324C99.2988 100.168 99.7794 100.211 100.185 100.376C101.246 94.9471 101.162 89.3202 99.9901 83.9522C99.2831 84.2773 98.4584 84.1075 97.86 83.5701C96.9931 82.7829 96.9462 81.4869 97.7334 80.6199C98.0586 80.2289 98.4922 80.0734 98.8881 79.9793C97.1455 74.8516 94.3754 70.0205 90.5496 65.8067C90.0735 66.4428 89.3052 66.7301 88.4806 66.5603C87.3731 66.3008 86.6335 65.1697 86.8929 64.0622C86.9967 63.6193 87.2607 63.1905 87.6095 62.8984C85.508 61.0977 83.3782 59.6175 81.074 58.2834C80.9985 58.4059 80.8618 58.4907 80.7252 58.5755Z" fill="#F6D633"/>
<path d="M76.7861 102.021C77.0124 101.653 77.4695 101.597 77.7758 101.785L90.2109 109.441C90.5785 109.667 90.6349 110.124 90.4464 110.431C90.2201 110.798 89.7629 110.855 89.4566 110.666L77.0828 103.048C76.7152 102.822 76.5598 102.388 76.7861 102.021Z" fill="#FCFBFA"/>
<path d="M79.5448 92.7371C79.6956 92.4921 79.9313 92.3838 80.1905 92.3744L94.7807 92.825C95.2002 92.8298 95.4923 93.1786 95.4875 93.598C95.4827 94.0175 95.1339 94.3096 94.7145 94.3048L80.1855 93.8919C79.766 93.8871 79.4739 93.5383 79.4787 93.1188C79.4552 93.0199 79.4693 92.8596 79.5448 92.7371Z" fill="#FCFBFA"/>
<path d="M77.3082 83.3351C77.3836 83.2126 77.4214 83.1513 77.558 83.0665L90.4061 76.1934C90.7784 76.0002 91.2214 76.104 91.4145 76.4763C91.6077 76.8487 91.5039 77.2916 91.1316 77.4848L78.2835 84.3579C77.9112 84.5511 77.4682 84.4473 77.2751 84.075C77.1667 83.8393 77.1951 83.5189 77.3082 83.3351Z" fill="#FCFBFA"/>
<path d="M70.6649 76.2886L78.283 63.9147C78.5093 63.5472 78.9664 63.4907 79.2727 63.6793C79.6402 63.9055 79.6967 64.3627 79.5081 64.669L71.89 77.0428C71.6637 77.4104 71.2066 77.4668 70.9003 77.2783C70.594 77.0897 70.4386 76.6561 70.6649 76.2886Z" fill="#FCFBFA"/>
<path d="M60.3373 110.901C60.4881 110.656 60.7238 110.547 60.983 110.538C61.4024 110.543 61.6945 110.892 61.6897 111.311L61.2768 125.84C61.272 126.259 60.9232 126.551 60.5038 126.547C60.0843 126.542 59.7922 126.193 59.797 125.774L60.1722 111.306C60.1864 111.146 60.2618 111.023 60.3373 110.901Z" fill="#FCFBFA"/>
<path d="M69.7393 108.664C69.8147 108.542 69.8524 108.481 69.9891 108.396C70.3615 108.203 70.8044 108.306 70.9976 108.679L77.9085 121.466C78.1016 121.838 77.9978 122.281 77.6255 122.474C77.2532 122.667 76.8102 122.563 76.6171 122.191L69.7062 109.404C69.5978 109.169 69.5885 108.909 69.7393 108.664Z" fill="#FCFBFA"/>
</g>
<g clip-path="url(#clip2)">
<path d="M74.8539 227.985C75.8557 229.394 76.6557 230.83 77.8023 232.17C79.1897 233.787 80.7969 235.119 82.492 236.337C83.39 236.939 84.345 237.586 85.199 238.245C86.0531 238.905 86.9641 239.608 87.8181 240.267C89.5832 241.63 91.4361 242.879 93.364 243.914C94.0213 244.239 94.6217 244.521 95.323 244.79C96.0185 243.419 96.9418 242.223 98.1367 241.146C103.382 236.472 111.447 236.973 116.122 242.219C119.422 245.949 120.14 251.139 118.382 255.416C118.755 255.522 119.128 255.628 119.5 255.734C123.195 256.951 126.723 258.857 129.81 261.332C132.385 263.411 134.464 266.016 136.687 268.551C137.707 269.702 138.784 270.897 139.848 271.991C140.996 270.151 141.986 268.28 142.818 266.378C142.073 266.166 141.434 265.582 141.33 264.774C141.087 263.677 141.865 262.552 142.962 262.308C143.409 262.199 143.883 262.292 144.269 262.499C145.897 257.213 146.407 251.608 145.808 246.147C145.07 246.395 144.268 246.139 143.73 245.542C142.951 244.668 143.041 243.374 143.915 242.595C144.28 242.24 144.727 242.131 145.131 242.079C143.996 236.841 141.751 231.744 138.347 227.207C137.806 227.79 137.012 227.994 136.21 227.738C135.136 227.364 134.52 226.161 134.895 225.087C135.045 224.657 135.352 224.259 135.73 224.005C131.86 219.836 127.288 216.577 122.353 214.493C122.141 215.239 121.556 215.878 120.749 215.982C119.652 216.225 118.526 215.447 118.283 214.35C118.174 213.902 118.267 213.429 118.474 213.043C113.187 211.415 107.583 210.905 102.121 211.504C102.37 212.242 102.114 213.044 101.517 213.582C100.642 214.361 99.3487 214.271 98.5696 213.397C98.215 213.032 98.1062 212.585 98.0543 212.181C92.7713 213.373 87.6751 215.618 83.0811 218.978C83.6635 219.518 83.8681 220.313 83.6123 221.115C83.2375 222.189 82.0346 222.805 80.9607 222.43C80.5311 222.28 80.1326 221.972 79.8789 221.595C77.8666 223.495 76.17 225.456 74.6002 227.607C74.7141 227.695 74.784 227.84 74.8539 227.985Z" fill="#F6D633"/>
<path d="M117.641 236.485C117.299 236.221 117.291 235.761 117.511 235.476L126.436 223.918C126.7 223.576 127.16 223.568 127.445 223.788C127.787 224.052 127.795 224.512 127.575 224.797L118.694 236.298C118.43 236.64 117.983 236.749 117.641 236.485Z" fill="#FCFBFA"/>
<path d="M108.701 232.762C108.473 232.586 108.39 232.341 108.408 232.082L110.395 217.62C110.444 217.204 110.822 216.95 111.238 216.999C111.655 217.048 111.909 217.426 111.86 217.842L109.916 232.247C109.867 232.663 109.49 232.917 109.073 232.868C108.972 232.881 108.814 232.85 108.701 232.762Z" fill="#FCFBFA"/>
<path d="M99.115 233.994C99.0012 233.906 98.9442 233.863 98.8743 233.718L93.3948 220.216C93.2421 219.826 93.392 219.396 93.7826 219.243C94.1732 219.09 94.6028 219.24 94.7556 219.631L100.235 233.132C100.388 233.523 100.238 233.953 99.8473 234.105C99.6015 234.188 99.2858 234.126 99.115 233.994Z" fill="#FCFBFA"/>
<path d="M91.4068 239.857L79.9056 230.976C79.564 230.713 79.5561 230.252 79.7759 229.967C80.0397 229.626 80.5003 229.618 80.7849 229.838L92.2861 238.719C92.6278 238.982 92.6357 239.443 92.4159 239.728C92.196 240.012 91.7485 240.121 91.4068 239.857Z" fill="#FCFBFA"/>
<path d="M124.736 253.779C124.509 253.603 124.426 253.357 124.444 253.098C124.493 252.682 124.87 252.428 125.287 252.477L139.691 254.42C140.108 254.469 140.362 254.847 140.313 255.264C140.264 255.68 139.886 255.934 139.469 255.885L125.122 253.986C124.964 253.955 124.85 253.867 124.736 253.779Z" fill="#FCFBFA"/>
<path d="M123.504 244.193C123.39 244.105 123.333 244.061 123.263 243.916C123.111 243.526 123.261 243.096 123.651 242.943L137.096 237.42C137.486 237.267 137.916 237.417 138.069 237.808C138.221 238.198 138.072 238.628 137.681 238.781L124.236 244.304C123.991 244.387 123.732 244.369 123.504 244.193Z" fill="#FCFBFA"/>
</g>
<g clip-path="url(#clip3)">
<path d="M199.998 113.827C200.623 115.439 201.045 117.028 201.827 118.608C202.775 120.516 204.005 122.202 205.349 123.8C206.071 124.605 206.838 125.466 207.504 126.315C208.169 127.165 208.879 128.07 209.545 128.919C210.921 130.674 212.41 132.341 214.024 133.817C214.582 134.295 215.094 134.715 215.708 135.148C216.719 133.99 217.908 133.058 219.331 132.308C225.565 129.066 233.259 131.535 236.5 137.769C238.782 142.196 238.203 147.403 235.447 151.117C235.782 151.311 236.118 151.506 236.453 151.7C239.735 153.788 242.686 156.503 245.07 159.661C247.055 162.309 248.429 165.345 249.961 168.349C250.667 169.715 251.417 171.138 252.179 172.46C253.744 170.959 255.164 169.389 256.439 167.75C255.768 167.361 255.292 166.637 255.39 165.829C255.424 164.706 256.455 163.806 257.578 163.84C258.039 163.845 258.475 164.051 258.798 164.346C261.676 159.622 263.548 154.316 264.31 148.874C263.534 148.934 262.819 148.489 262.444 147.777C261.904 146.738 262.309 145.506 263.348 144.966C263.789 144.712 264.25 144.717 264.654 144.765C264.841 139.408 263.918 133.916 261.734 128.682C261.067 129.113 260.247 129.117 259.532 128.671C258.583 128.044 258.282 126.727 258.909 125.778C259.16 125.398 259.556 125.088 259.985 124.935C257.259 119.942 253.627 115.659 249.356 112.426C248.968 113.097 248.244 113.573 247.436 113.475C246.313 113.441 245.413 112.41 245.446 111.287C245.451 110.826 245.657 110.39 245.953 110.067C241.229 107.189 235.922 105.317 230.48 104.555C230.54 105.331 230.095 106.046 229.383 106.421C228.344 106.961 227.113 106.556 226.572 105.517C226.318 105.076 226.323 104.615 226.372 104.211C220.958 104.068 215.466 104.991 210.187 107.119C210.619 107.786 210.622 108.606 210.177 109.321C209.549 110.269 208.232 110.571 207.283 109.944C206.904 109.693 206.593 109.297 206.44 108.868C204.022 110.215 201.896 111.699 199.845 113.398C199.934 113.511 199.966 113.669 199.998 113.827Z" fill="#F6D633"/>
<path d="M239.383 132.584C239.116 132.245 239.222 131.796 239.505 131.575L250.997 122.565C251.337 122.299 251.785 122.404 252.007 122.687C252.274 123.027 252.168 123.476 251.885 123.697L240.449 132.662C240.109 132.929 239.649 132.924 239.383 132.584Z" fill="#FCFBFA"/>
<path d="M231.632 126.778C231.454 126.552 231.434 126.293 231.515 126.047L236.997 112.518C237.147 112.126 237.575 111.973 237.967 112.123C238.359 112.273 238.512 112.701 238.362 113.093L232.937 126.578C232.787 126.969 232.359 127.122 231.967 126.973C231.866 126.96 231.721 126.891 231.632 126.778Z" fill="#FCFBFA"/>
<path d="M222.037 125.616C221.949 125.503 221.904 125.446 221.872 125.289L219.88 110.854C219.828 110.438 220.079 110.059 220.495 110.007C220.911 109.955 221.291 110.205 221.343 110.622L223.335 125.056C223.387 125.472 223.136 125.852 222.72 125.904C222.461 125.924 222.171 125.786 222.037 125.616Z" fill="#FCFBFA"/>
<path d="M213.124 129.404L204.159 117.968C203.893 117.629 203.999 117.18 204.282 116.958C204.621 116.692 205.07 116.798 205.292 117.081L214.257 128.517C214.523 128.856 214.417 129.305 214.134 129.527C213.851 129.748 213.391 129.744 213.124 129.404Z" fill="#FCFBFA"/>
<path d="M242.009 151.092C241.831 150.865 241.811 150.607 241.892 150.36C242.042 149.969 242.471 149.816 242.863 149.966L256.347 155.39C256.739 155.54 256.892 155.969 256.742 156.36C256.592 156.752 256.164 156.905 255.772 156.755L242.332 151.387C242.186 151.318 242.098 151.205 242.009 151.092Z" fill="#FCFBFA"/>
<path d="M243.171 141.498C243.082 141.384 243.038 141.328 243.006 141.17C242.954 140.754 243.205 140.374 243.621 140.322L258.011 138.274C258.427 138.222 258.806 138.472 258.858 138.889C258.91 139.305 258.659 139.684 258.243 139.736L243.854 141.785C243.595 141.805 243.349 141.724 243.171 141.498Z" fill="#FCFBFA"/>
</g>
<defs>
<clipPath id="clip0">
<rect width="70" height="70" fill="white" transform="translate(114.159 117.686)"/>
</clipPath>
<clipPath id="clip1">
<rect width="70" height="70" fill="white" transform="translate(114.159 121.986) rotate(166.619)"/>
</clipPath>
<clipPath id="clip2">
<rect width="70" height="70" fill="white" transform="translate(141.438 201.427) rotate(82.6744)"/>
</clipPath>
<clipPath id="clip3">
<rect width="70" height="70" fill="white" transform="translate(271.067 104.453) rotate(96.9057)"/>
</clipPath>
</defs>
</svg>
