<svg width="301" height="300" viewBox="0 0 301 300" fill="none" xmlns="http://www.w3.org/2000/svg">
<path d="M127.989 81.9081C129.93 82.9038 131.972 83.6019 134.214 83.429C135.368 83.3637 136.475 83.0861 137.559 82.7023C137.536 82.5962 137.554 82.4262 137.531 82.32C137.837 76.3298 142.72 71.6928 148.705 71.5997C149.549 65.7787 154.672 61.4812 160.773 61.919C166.808 62.3145 171.551 67.2359 171.736 73.1831C177.609 74.1098 182.014 79.2653 181.665 85.3194C181.48 89.5677 178.908 93.0759 175.346 94.8436C176.013 96.3721 176.763 97.7729 177.768 99.0673C178.403 99.9373 179.25 100.765 180.241 101.23C186.379 98.7796 190.836 92.9536 191.189 85.9013C191.667 77.3832 185.92 69.893 177.971 67.6097C176.638 59.455 169.732 53.0284 161.214 52.4664C161.214 52.4664 161.214 52.4664 161.149 52.424C161.149 52.424 161.149 52.424 161.084 52.3816C152.501 51.7772 145.047 57.3735 142.869 65.2354C134.68 66.4359 128.314 73.199 127.878 81.6533C127.966 81.8019 128.031 81.8443 127.989 81.9081Z" fill="#348717"/>
<path d="M130.851 83.0513C131.926 83.3897 133.061 83.4944 134.214 83.4291C135.368 83.3638 136.475 83.0862 137.559 82.7024C137.536 82.5963 137.554 82.4263 137.531 82.3201C137.837 76.3299 142.72 71.6929 148.705 71.5998C149.549 65.7788 154.672 61.4813 160.773 61.9191C166.808 62.3146 171.551 67.2361 171.736 73.1832C177.609 74.1099 182.014 79.2654 181.665 85.3195C181.48 89.5678 178.908 93.076 175.346 94.8437C176.013 96.3722 176.763 97.773 177.768 99.0674C183.619 97.339 188.043 92.1291 188.363 85.6928C188.767 77.8545 183.01 71.0864 175.358 69.9072C175.123 62.1972 168.945 55.7909 161.047 55.2705C161.047 55.2705 161.047 55.2705 160.982 55.2281C160.982 55.2281 160.982 55.2281 160.917 55.1857C153.019 54.6653 146.293 60.2818 145.222 67.8662C137.463 67.9828 131.107 74.0237 130.703 81.862C130.796 82.2867 130.824 82.669 130.851 83.0513Z" fill="#41B619"/>
<path d="M110.618 63.9746C110.511 66.1532 110.716 68.3021 111.797 70.2737C112.332 71.2978 113.041 72.1922 113.837 73.0217C113.925 72.9569 114.087 72.9038 114.174 72.839C119.759 70.6502 125.996 73.189 128.546 78.6038C134.198 76.9744 140.225 79.8724 142.339 85.6114C144.465 91.2739 141.935 97.623 136.592 100.241C138.167 105.975 135.284 112.112 129.625 114.289C125.677 115.87 121.421 114.973 118.343 112.455C117.225 113.692 116.257 114.953 115.492 116.402C114.961 117.339 114.556 118.452 114.54 119.547C119.302 124.13 126.447 125.791 133.018 123.207C140.977 120.133 145.434 111.81 144.239 103.627C151.121 99.0525 154.131 90.1124 151.134 82.119C151.134 82.119 151.134 82.119 151.146 82.0425C151.146 82.0425 151.146 82.0425 151.158 81.9659C148.172 73.896 140.002 69.4099 131.941 70.6643C127.473 63.6966 118.688 60.6829 110.805 63.7684C110.706 63.9098 110.694 63.9863 110.618 63.9746Z" fill="#348717"/>
<path d="M110.756 67.0539C110.891 68.1725 111.263 69.2497 111.797 70.2738C112.332 71.2979 113.041 72.1923 113.837 73.0218C113.925 72.957 114.087 72.9039 114.174 72.839C119.759 70.6503 125.996 73.189 128.546 78.6039C134.198 76.9745 140.225 79.8725 142.339 85.6115C144.465 91.274 141.935 97.6231 136.592 100.241C138.167 105.975 135.284 112.112 129.625 114.289C125.677 115.87 121.421 114.973 118.343 112.455C117.225 113.693 116.257 114.953 115.492 116.402C119.477 121.021 126.047 122.906 132.044 120.546C139.353 117.685 143.148 109.651 141.069 102.193C147.998 98.8019 151.29 90.5327 148.51 83.1221C148.51 83.1221 148.51 83.1221 148.522 83.0455C148.522 83.0455 148.522 83.0455 148.534 82.969C145.754 75.5583 137.865 71.7432 130.513 73.8921C127.21 66.8704 119.087 63.5677 111.779 66.429C111.43 66.6884 111.093 66.8711 110.756 67.0539Z" fill="#41B619"/>
<path d="M68.4106 174.078C68.3029 176.256 68.5083 178.405 69.5896 180.377C70.1242 181.401 70.8333 182.295 71.6296 183.125C71.7168 183.06 71.8793 183.007 71.9665 182.942C77.551 180.754 83.7879 183.292 86.3383 188.707C91.99 187.078 98.0167 189.976 100.131 195.715C102.257 201.377 99.727 207.726 94.3841 210.345C95.9596 216.078 93.0765 222.216 87.4167 224.393C83.4691 225.974 79.2132 225.076 76.1348 222.558C75.0168 223.796 74.0495 225.056 73.2842 226.505C72.7528 227.442 72.3483 228.555 72.332 229.65C77.0941 234.233 84.2387 235.894 90.8101 233.31C98.7687 230.236 103.226 221.913 102.032 213.73C108.913 209.156 111.923 200.216 108.926 192.222C108.926 192.222 108.926 192.222 108.938 192.146C108.938 192.146 108.938 192.146 108.95 192.069C105.964 183.999 97.7942 179.513 89.7331 180.768C85.2651 173.8 76.4802 170.786 68.5969 173.872C68.4978 174.013 68.4859 174.09 68.4106 174.078Z" fill="#348717"/>
<path d="M68.5483 177.157C68.6827 178.276 69.0548 179.353 69.5895 180.377C70.1242 181.401 70.8333 182.296 71.6296 183.125C71.7168 183.06 71.8793 183.007 71.9665 182.942C77.551 180.754 83.7878 183.292 86.3383 188.707C91.99 187.078 98.0167 189.976 100.131 195.715C102.257 201.377 99.727 207.726 94.3841 210.345C95.9595 216.078 93.0765 222.216 87.4167 224.393C83.4691 225.974 79.2131 225.076 76.1347 222.559C75.0168 223.796 74.0494 225.057 73.2841 226.506C77.2694 231.124 83.8393 233.009 89.8361 230.65C97.1447 227.788 100.94 219.754 98.8616 212.296C105.79 208.905 109.082 200.636 106.302 193.225C106.302 193.225 106.302 193.225 106.314 193.149C106.314 193.149 106.314 193.149 106.326 193.072C103.546 185.662 95.6574 181.846 88.3054 183.995C85.0025 176.974 76.8795 173.671 69.5709 176.532C69.2221 176.792 68.8852 176.974 68.5483 177.157Z" fill="#41B619"/>
<path d="M229.279 190.534C227.704 192.043 226.377 193.745 225.807 195.92C225.492 197.032 225.393 198.169 225.401 199.319C225.509 199.331 225.664 199.405 225.772 199.417C231.333 201.665 234.119 207.795 232.251 213.481C237.477 216.181 239.864 222.428 237.456 228.05C235.11 233.625 228.909 236.499 223.228 234.73C220.432 239.978 214.12 242.456 208.513 240.148C204.558 238.584 202.083 235.007 201.577 231.063C199.914 231.193 198.345 231.445 196.793 231.971C195.764 232.287 194.705 232.817 193.941 233.602C194.251 240.204 198.3 246.32 204.85 248.958C212.744 252.194 221.702 249.21 226.457 242.444C234.6 243.85 242.93 239.424 246.246 231.557C246.246 231.557 246.246 231.557 246.307 231.509C246.307 231.509 246.307 231.509 246.368 231.462C249.745 223.548 246.892 214.674 240.173 210.046C241.715 201.914 237.404 193.688 229.557 190.512C229.387 190.547 229.326 190.594 229.279 190.534Z" fill="#348717"/>
<path d="M227.264 192.866C226.593 193.771 226.123 194.809 225.807 195.92C225.492 197.032 225.393 198.169 225.401 199.319C225.509 199.331 225.664 199.404 225.771 199.417C231.333 201.665 234.119 207.795 232.251 213.481C237.477 216.181 239.864 222.428 237.456 228.05C235.11 233.625 228.909 236.499 223.228 234.73C220.432 239.978 214.12 242.455 208.513 240.148C204.558 238.584 202.083 235.007 201.577 231.063C199.914 231.193 198.345 231.445 196.793 231.971C196.515 238.066 199.993 243.95 205.971 246.356C213.247 249.299 221.524 246.071 225.14 239.224C232.503 241.522 240.577 237.776 243.65 230.482C243.65 230.482 243.65 230.482 243.711 230.435C243.711 230.435 243.711 230.435 243.773 230.388C246.846 223.094 243.736 214.901 236.918 211.41C239.344 204.039 235.712 196.058 228.436 193.114C228.004 193.063 227.634 192.964 227.264 192.866Z" fill="#41B619"/>
</svg>
