<svg width="301" height="301" viewBox="0 0 301 301" fill="none" xmlns="http://www.w3.org/2000/svg">
<path d="M116.186 79.2771C115.499 76.7141 116.587 74.199 118.551 73.6726C120.555 73.1355 122.034 74.4835 122.812 76.5859C123.33 75.3133 123.474 73.9233 123.132 72.4887C122.246 69.02 118.636 66.935 115.057 67.8503C111.519 68.7549 109.384 72.3354 110.271 75.8041C111.088 78.8552 116.36 79.928 116.186 79.2771Z" fill="#6E4736"/>
<path d="M135.472 74.2837C134.785 71.7208 132.655 70.0242 130.651 70.5613C128.646 71.0984 127.989 72.975 128.326 75.1956C127.241 74.3527 126.451 73.1691 126.069 71.7452C125.183 68.2766 127.317 64.6961 130.856 63.7915C134.395 62.8869 137.993 64.9313 138.931 68.4299C139.686 71.4104 135.636 74.8939 135.472 74.2837Z" fill="#6E4736"/>
<path d="M120.931 57.6389L120.887 57.6508L120.842 57.6628C111.934 60.0498 106.131 67.0792 107.794 73.4646C109.627 80.4828 114.521 82.1753 115.461 79.9853C115.782 79.2212 115.394 78.3078 115.022 77.0992C114.259 74.2515 115.625 72.0445 117.82 71.5049C120.326 70.8817 121.232 72.48 121.995 75.3278C122.637 77.7235 122.721 90.6849 123.112 91.7911C123.504 92.8973 126.733 95.3265 130.365 94.4501C130.365 94.4501 130.365 94.4501 130.41 94.4382C130.41 94.4382 130.41 94.4382 130.454 94.4263C134.107 93.4476 135.689 89.7294 135.519 88.5635C135.306 87.4096 129.108 76.0381 128.466 73.6424C127.703 70.7947 127.733 68.9457 130.227 68.2773C132.41 67.6925 134.696 68.9208 135.427 71.8257C135.742 73.0009 135.818 73.9979 136.489 74.5446C138.355 75.9827 141.815 72.1487 139.982 65.1305C138.307 58.6999 129.787 55.4113 120.931 57.6389Z" fill="#D1AD88"/>
<path d="M185.382 222.001C186.034 224.435 184.947 226.838 183.016 227.355C181.046 227.883 179.608 226.612 178.862 224.618C178.344 225.833 178.192 227.157 178.515 228.52C179.355 231.815 182.877 233.769 186.394 232.869C189.871 231.978 191.993 228.552 191.153 225.258C190.376 222.361 185.216 221.383 185.382 222.001Z" fill="#6E4736"/>
<path d="M166.43 226.914C167.082 229.348 169.157 230.945 171.127 230.417C173.097 229.889 173.757 228.097 173.444 225.987C174.501 226.78 175.266 227.9 175.628 229.252C176.469 232.547 174.347 235.972 170.869 236.863C167.392 237.753 163.881 235.837 162.99 232.514C162.274 229.684 166.275 226.334 166.43 226.914Z" fill="#6E4736"/>
<path d="M180.55 242.637L180.593 242.625L180.637 242.614C189.392 240.268 195.14 233.529 193.562 227.465C191.823 220.799 187.039 219.229 186.098 221.321C185.777 222.051 186.15 222.917 186.505 224.065C187.229 226.769 185.872 228.881 183.715 229.413C181.252 230.027 180.378 228.513 179.653 225.808C179.043 223.533 179.069 211.196 178.694 210.147C178.318 209.097 175.173 206.811 171.604 207.676C171.604 207.676 171.604 207.676 171.56 207.687C171.56 207.687 171.56 207.687 171.516 207.699C167.927 208.661 166.345 212.213 166.502 213.321C166.702 214.418 172.685 225.191 173.294 227.466C174.019 230.171 173.974 231.931 171.523 232.588C169.378 233.162 167.146 232.012 166.454 229.253C166.155 228.137 166.089 227.189 165.434 226.674C163.617 225.32 160.193 228.998 161.932 235.664C163.521 241.771 171.848 244.831 180.55 242.637Z" fill="#D1AD88"/>
<path d="M77.8762 181.749C75.5285 182.378 73.2244 181.382 72.7423 179.582C72.2503 177.746 73.4851 176.392 75.411 175.679C74.2453 175.204 72.9719 175.073 71.6578 175.386C68.4803 176.198 66.5703 179.504 67.4088 182.783C68.2374 186.024 71.5173 187.979 74.6948 187.167C77.4898 186.419 78.4725 181.589 77.8762 181.749Z" fill="#6E4736"/>
<path d="M73.302 164.082C70.9542 164.711 69.4001 166.662 69.8921 168.499C70.3841 170.335 72.1032 170.937 74.1374 170.628C73.3653 171.622 72.281 172.346 70.9766 172.695C67.7992 173.507 64.5193 171.552 63.6906 168.31C62.862 165.069 64.7347 161.772 67.9396 160.913C70.6699 160.221 73.861 163.932 73.302 164.082Z" fill="#6E4736"/>
<path d="M58.0545 177.402L58.0654 177.442L58.0763 177.483C60.263 185.644 66.7022 190.96 72.5516 189.436C78.9806 187.757 80.5311 183.274 78.5249 182.412C77.825 182.119 76.9882 182.474 75.8811 182.815C73.2725 183.514 71.2508 182.262 70.7564 180.252C70.1856 177.956 71.6497 177.126 74.2584 176.427C76.453 175.839 88.3263 175.763 89.3396 175.404C90.353 175.045 92.5783 172.087 91.7755 168.76C91.7755 168.76 91.7755 168.76 91.7645 168.719C91.7645 168.719 91.7645 168.719 91.7536 168.678C90.8571 165.332 87.451 163.883 86.383 164.038C85.326 164.234 74.909 169.912 72.7145 170.5C70.1058 171.199 68.4121 171.171 67.7998 168.886C67.2641 166.887 68.3893 164.792 71.0503 164.123C72.1269 163.835 73.0401 163.765 73.541 163.15C74.8583 161.441 71.3462 158.271 64.9171 159.95C59.0264 161.485 56.0139 169.289 58.0545 177.402Z" fill="#D1AD88"/>
<path d="M217.151 119.897C220.172 119.088 223.138 120.37 223.758 122.686C224.392 125.049 222.802 126.792 220.324 127.71C221.824 128.321 223.463 128.49 225.154 128.087C229.244 127.042 231.702 122.787 230.623 118.567C229.556 114.395 225.335 111.879 221.245 112.924C217.648 113.888 216.383 120.103 217.151 119.897Z" fill="#6E4736"/>
<path d="M223.038 142.636C226.06 141.826 228.06 139.315 227.426 136.951C226.793 134.588 224.581 133.813 221.963 134.211C222.956 132.931 224.352 132 226.031 131.55C230.12 130.505 234.342 133.022 235.408 137.194C236.475 141.366 234.064 145.608 229.939 146.714C226.425 147.605 222.318 142.829 223.038 142.636Z" fill="#6E4736"/>
<path d="M242.662 125.493L242.648 125.44L242.634 125.388C239.82 114.885 231.532 108.043 224.004 110.004C215.729 112.165 213.734 117.934 216.316 119.044C217.217 119.421 218.294 118.964 219.718 118.526C223.076 117.626 225.678 119.237 226.314 121.824C227.049 124.779 225.164 125.847 221.807 126.747C218.982 127.504 203.701 127.602 202.397 128.064C201.093 128.526 198.229 132.333 199.262 136.615C199.262 136.615 199.262 136.615 199.276 136.668C199.276 136.668 199.276 136.668 199.29 136.72C200.444 141.027 204.828 142.891 206.202 142.692C207.563 142.44 220.97 135.133 223.794 134.376C227.151 133.476 229.331 133.511 230.119 136.452C230.809 139.025 229.361 141.721 225.936 142.583C224.55 142.954 223.375 143.044 222.73 143.835C221.035 146.035 225.555 150.114 233.829 147.953C241.411 145.978 245.288 135.934 242.662 125.493Z" fill="#D1AD88"/>
<path d="M170.042 104.06C170.821 102.184 172.655 101.165 174.093 101.762C175.561 102.371 175.829 103.879 175.321 105.519C176.229 104.988 176.965 104.211 177.427 103.181C178.508 100.661 177.289 97.7111 174.689 96.5967C172.119 95.4945 169.152 96.6721 168.072 99.1916C167.144 101.425 169.844 104.537 170.042 104.06Z" fill="#6E4736"/>
<path d="M184.081 110.029C184.86 108.153 184.358 106.129 182.891 105.519C181.423 104.91 180.149 105.743 179.317 107.248C179.051 106.23 179.124 105.143 179.557 104.1C180.638 101.581 183.604 100.403 186.175 101.505C188.745 102.608 189.976 105.528 188.912 108.09C187.98 110.252 183.895 110.476 184.081 110.029Z" fill="#6E4736"/>
<path d="M183.021 93.1387L182.988 93.1252L182.956 93.1116C176.434 90.4035 169.63 91.963 167.66 96.6157C165.498 101.732 167.679 105.043 169.272 104.152C169.823 103.838 170.014 103.102 170.352 102.195C171.218 100.11 173.077 99.408 174.661 100.105C176.474 100.896 176.278 102.289 175.412 104.374C174.684 106.128 168.686 114.036 168.407 114.89C168.129 115.745 168.956 118.726 171.57 119.889C171.57 119.889 171.57 119.889 171.602 119.903C171.602 119.903 171.602 119.903 171.635 119.916C174.309 121.027 177.004 119.507 177.446 118.721C177.854 117.92 179.399 108.124 180.127 106.37C180.993 104.286 181.873 103.177 183.7 103.935C185.298 104.599 186.113 106.411 185.2 108.516C184.843 109.376 184.424 110.017 184.577 110.663C185.038 112.406 188.928 111.693 191.091 106.577C193.074 101.891 189.437 95.9191 183.021 93.1387Z" fill="#D1AD88"/>
<path d="M123.413 184.061C122.853 182.108 123.652 180.167 125.149 179.738C126.677 179.3 127.826 180.313 128.45 181.912C128.83 180.931 128.921 179.865 128.641 178.771C127.916 176.127 125.125 174.579 122.397 175.327C119.7 176.067 118.113 178.836 118.838 181.48C119.504 183.805 123.555 184.557 123.413 184.061Z" fill="#6E4736"/>
<path d="M138.112 179.981C137.552 178.028 135.899 176.758 134.371 177.195C132.844 177.633 132.365 179.079 132.653 180.774C131.811 180.144 131.191 179.248 130.88 178.163C130.155 175.519 131.741 172.749 134.438 172.01C137.136 171.27 139.918 172.787 140.682 175.453C141.3 177.725 138.245 180.446 138.112 179.981Z" fill="#6E4736"/>
<path d="M126.758 167.431L126.724 167.441L126.69 167.45C119.902 169.397 115.552 174.855 116.911 179.722C118.407 185.071 122.176 186.302 122.868 184.613C123.103 184.023 122.794 183.329 122.493 182.409C121.871 180.239 122.887 178.531 124.56 178.088C126.471 177.578 127.186 178.79 127.808 180.96C128.331 182.785 128.568 192.708 128.882 193.549C129.197 194.391 131.701 196.208 134.471 195.489C134.471 195.489 134.471 195.489 134.505 195.479C134.505 195.479 134.505 195.479 134.539 195.469C137.322 194.671 138.483 191.804 138.338 190.913C138.159 190.033 133.263 181.409 132.74 179.583C132.118 177.413 132.116 175.997 134.017 175.452C135.68 174.976 137.447 175.886 138.045 178.1C138.302 178.995 138.373 179.758 138.895 180.167C140.342 181.244 142.94 178.262 141.444 172.913C140.075 168.012 133.509 165.608 126.758 167.431Z" fill="#D1AD88"/>
</svg>
