<svg width="301" height="300" viewBox="0 0 301 300" fill="none" xmlns="http://www.w3.org/2000/svg">
<path d="M178.196 255.054C196.06 255.054 210.542 241.627 210.542 225.064C210.542 208.501 196.06 195.074 178.196 195.074C160.331 195.074 145.85 208.501 145.85 225.064C145.85 241.627 160.331 255.054 178.196 255.054Z" fill="#F9D7DD"/>
<path d="M178.196 256.2C159.539 256.2 144.322 242.065 144.322 224.682C144.322 207.236 159.539 193.1 178.196 193.1C196.852 193.1 212.07 207.236 212.07 224.682C212.07 242.065 196.915 256.2 178.196 256.2ZM178.196 196.22C161.259 196.22 147.442 208.955 147.442 224.618C147.442 240.282 161.259 253.016 178.196 253.016C195.133 253.016 208.95 240.282 208.95 224.618C208.95 208.955 195.196 196.22 178.196 196.22Z" fill="#891652"/>
<path d="M178.196 250.088C193.071 250.088 205.129 239.055 205.129 225.446C205.129 211.837 193.071 200.805 178.196 200.805C163.32 200.805 151.262 211.837 151.262 225.446C151.262 239.055 163.32 250.088 178.196 250.088Z" fill="#F9D7DD"/>
<path d="M178.196 250.342C163.041 250.342 150.689 239.008 150.689 225.064C150.689 211.12 163.041 199.786 178.196 199.786C193.35 199.786 205.702 211.12 205.702 225.064C205.702 239.008 193.413 250.342 178.196 250.342ZM178.196 200.996C163.678 200.996 151.899 211.756 151.899 225.064C151.899 238.308 163.678 249.133 178.196 249.133C192.713 249.069 204.493 238.308 204.493 225.064C204.493 211.82 192.713 200.996 178.196 200.996Z" fill="#891652"/>
<path d="M177.431 245.885C190.161 245.885 200.481 236.962 200.481 225.956C200.481 214.949 190.161 206.026 177.431 206.026C164.702 206.026 154.382 214.949 154.382 225.956C154.382 236.962 164.702 245.885 177.431 245.885Z" fill="#F9D7DD"/>
<path d="M177.431 246.076C164.379 246.076 153.745 236.843 153.745 225.573C153.745 214.239 164.379 205.071 177.431 205.071C190.484 205.071 201.118 214.303 201.118 225.573C201.054 236.843 190.484 246.076 177.431 246.076ZM177.431 206.28C165.079 206.28 155.019 214.94 155.019 225.573C155.019 236.207 165.079 244.866 177.431 244.866C189.784 244.866 199.844 236.207 199.844 225.573C199.844 214.94 189.784 206.28 177.431 206.28Z" fill="#891652"/>
<path d="M177.431 243.083C187.559 243.083 195.769 235.985 195.769 227.229C195.769 218.473 187.559 211.374 177.431 211.374C167.304 211.374 159.094 218.473 159.094 227.229C159.094 235.985 167.304 243.083 177.431 243.083Z" fill="#F9D7DD"/>
<path d="M177.431 243.274C166.989 243.274 158.457 235.888 158.457 226.783C158.457 217.678 166.989 210.292 177.431 210.292C187.874 210.292 196.406 217.678 196.406 226.783C196.406 235.888 187.874 243.274 177.431 243.274ZM177.431 211.629C167.69 211.629 159.73 218.442 159.73 226.847C159.73 235.252 167.69 242.065 177.431 242.065C187.173 242.065 195.133 235.252 195.133 226.847C195.133 218.442 187.173 211.629 177.431 211.629Z" fill="#891652"/>
<path d="M178.387 239.263C185.736 239.263 191.694 234.132 191.694 227.802C191.694 221.472 185.736 216.341 178.387 216.341C171.037 216.341 165.079 221.472 165.079 227.802C165.079 234.132 171.037 239.263 178.387 239.263Z" fill="#F9D7DD"/>
<path d="M178.387 239.772C170.809 239.772 164.633 234.424 164.633 227.802C164.633 221.18 170.809 215.831 178.387 215.831C185.964 215.831 192.14 221.18 192.14 227.802C192.14 234.36 185.964 239.772 178.387 239.772ZM178.387 216.786C171.319 216.786 165.525 221.753 165.525 227.802C165.525 233.851 171.255 238.817 178.387 238.817C185.454 238.817 191.249 233.851 191.249 227.802C191.249 221.753 185.454 216.786 178.387 216.786Z" fill="#891652"/>
<path d="M178.896 237.608C184.065 237.608 188.256 233.987 188.256 229.521C188.256 225.055 184.065 221.435 178.896 221.435C173.727 221.435 169.536 225.055 169.536 229.521C169.536 233.987 173.727 237.608 178.896 237.608Z" fill="#F9D7DD"/>
<path d="M178.896 238.053C173.484 238.053 169.09 234.233 169.09 229.521C169.09 224.809 173.484 220.989 178.896 220.989C184.308 220.989 188.702 224.809 188.702 229.521C188.702 234.233 184.308 238.053 178.896 238.053ZM178.896 221.88C173.993 221.88 169.982 225.319 169.982 229.521C169.982 233.724 173.993 237.162 178.896 237.162C183.799 237.162 187.81 233.724 187.81 229.521C187.81 225.319 183.799 221.88 178.896 221.88Z" fill="#891652"/>
<path d="M146.05 176.53C163.914 176.53 178.396 163.103 178.396 146.54C178.396 129.977 163.914 116.55 146.05 116.55C128.186 116.55 113.704 129.977 113.704 146.54C113.704 163.103 128.186 176.53 146.05 176.53Z" fill="#F9D7DD"/>
<path d="M146.05 177.676C127.394 177.676 112.176 163.54 112.176 146.158C112.176 128.711 127.394 114.576 146.05 114.576C164.706 114.576 179.924 128.711 179.924 146.158C179.924 163.54 164.77 177.676 146.05 177.676ZM146.05 117.696C129.113 117.696 115.296 130.43 115.296 146.094C115.296 161.757 129.113 174.492 146.05 174.492C162.987 174.492 176.804 161.757 176.804 146.094C176.804 130.43 163.05 117.696 146.05 117.696Z" fill="#891652"/>
<path d="M146.05 171.563C160.925 171.563 172.983 160.531 172.983 146.922C172.983 133.313 160.925 122.28 146.05 122.28C131.175 122.28 119.116 133.313 119.116 146.922C119.116 160.531 131.175 171.563 146.05 171.563Z" fill="#F9D7DD"/>
<path d="M146.05 171.818C130.896 171.818 118.543 160.484 118.543 146.54C118.543 132.595 130.896 121.261 146.05 121.261C161.204 121.261 173.556 132.595 173.556 146.54C173.556 160.484 161.268 171.818 146.05 171.818ZM146.05 122.471C131.532 122.471 119.753 133.232 119.753 146.54C119.753 159.784 131.532 170.608 146.05 170.608C160.567 170.544 172.347 159.784 172.347 146.54C172.347 133.296 160.567 122.471 146.05 122.471Z" fill="#891652"/>
<path d="M145.286 167.361C158.016 167.361 168.335 158.438 168.335 147.431C168.335 136.424 158.016 127.501 145.286 127.501C132.556 127.501 122.236 136.424 122.236 147.431C122.236 158.438 132.556 167.361 145.286 167.361Z" fill="#F9D7DD"/>
<path d="M145.286 167.552C132.233 167.552 121.599 158.319 121.599 147.049C121.599 135.715 132.233 126.546 145.286 126.546C158.339 126.546 168.972 135.779 168.972 147.049C168.908 158.319 158.339 167.552 145.286 167.552ZM145.286 127.756C132.933 127.756 122.873 136.415 122.873 147.049C122.873 157.682 132.933 166.342 145.286 166.342C157.638 166.342 167.699 157.682 167.699 147.049C167.699 136.415 157.638 127.756 145.286 127.756Z" fill="#891652"/>
<path d="M145.286 164.559C155.413 164.559 163.623 157.461 163.623 148.704C163.623 139.948 155.413 132.85 145.286 132.85C135.158 132.85 126.948 139.948 126.948 148.704C126.948 157.461 135.158 164.559 145.286 164.559Z" fill="#F9D7DD"/>
<path d="M145.286 164.75C134.843 164.75 126.311 157.364 126.311 148.259C126.311 139.153 134.843 131.767 145.286 131.767C155.728 131.767 164.26 139.153 164.26 148.259C164.26 157.364 155.728 164.75 145.286 164.75ZM145.286 133.104C135.544 133.104 127.584 139.917 127.584 148.322C127.584 156.727 135.544 163.54 145.286 163.54C155.028 163.54 162.987 156.727 162.987 148.322C162.987 139.917 155.028 133.104 145.286 133.104Z" fill="#891652"/>
<path d="M146.241 160.739C153.59 160.739 159.548 155.607 159.548 149.278C159.548 142.948 153.59 137.816 146.241 137.816C138.891 137.816 132.933 142.948 132.933 149.278C132.933 155.607 138.891 160.739 146.241 160.739Z" fill="#F9D7DD"/>
<path d="M146.241 161.248C138.664 161.248 132.487 155.899 132.487 149.277C132.487 142.655 138.664 137.307 146.241 137.307C153.818 137.307 159.994 142.655 159.994 149.277C159.994 155.836 153.818 161.248 146.241 161.248ZM146.241 138.262C139.173 138.262 133.379 143.228 133.379 149.277C133.379 155.326 139.109 160.293 146.241 160.293C153.308 160.293 159.103 155.326 159.103 149.277C159.103 143.228 153.308 138.262 146.241 138.262Z" fill="#891652"/>
<path d="M146.75 159.083C151.919 159.083 156.11 155.463 156.11 150.997C156.11 146.531 151.919 142.91 146.75 142.91C141.581 142.91 137.39 146.531 137.39 150.997C137.39 155.463 141.581 159.083 146.75 159.083Z" fill="#F9D7DD"/>
<path d="M146.75 159.529C141.338 159.529 136.944 155.709 136.944 150.997C136.944 146.285 141.338 142.465 146.75 142.465C152.162 142.465 156.556 146.285 156.556 150.997C156.556 155.709 152.162 159.529 146.75 159.529ZM146.75 143.356C141.847 143.356 137.836 146.794 137.836 150.997C137.836 155.199 141.847 158.638 146.75 158.638C151.653 158.638 155.664 155.199 155.664 150.997C155.664 146.794 151.653 143.356 146.75 143.356Z" fill="#891652"/>
<path d="M228.196 154.754C246.06 154.754 260.542 141.327 260.542 124.764C260.542 108.201 246.06 94.7737 228.196 94.7737C210.331 94.7737 195.85 108.201 195.85 124.764C195.85 141.327 210.331 154.754 228.196 154.754Z" fill="#F9D7DD"/>
<path d="M228.196 155.9C209.539 155.9 194.322 141.764 194.322 124.382C194.322 106.935 209.539 92.7998 228.196 92.7998C246.852 92.7998 262.07 106.935 262.07 124.382C262.07 141.764 246.915 155.9 228.196 155.9ZM228.196 95.9198C211.259 95.9198 197.442 108.654 197.442 124.318C197.442 139.982 211.259 152.716 228.196 152.716C245.133 152.716 258.95 139.982 258.95 124.318C258.95 108.654 245.196 95.9198 228.196 95.9198Z" fill="#891652"/>
<path d="M228.196 149.787C243.071 149.787 255.129 138.755 255.129 125.146C255.129 111.537 243.071 100.504 228.196 100.504C213.32 100.504 201.262 111.537 201.262 125.146C201.262 138.755 213.32 149.787 228.196 149.787Z" fill="#F9D7DD"/>
<path d="M228.196 150.042C213.041 150.042 200.689 138.708 200.689 124.764C200.689 110.819 213.041 99.4856 228.196 99.4856C243.35 99.4856 255.702 110.819 255.702 124.764C255.702 138.708 243.413 150.042 228.196 150.042ZM228.196 100.695C213.678 100.695 201.899 111.456 201.899 124.764C201.899 138.008 213.678 148.832 228.196 148.832C242.713 148.769 254.493 138.008 254.493 124.764C254.493 111.52 242.713 100.695 228.196 100.695Z" fill="#891652"/>
<path d="M227.431 145.585C240.161 145.585 250.481 136.662 250.481 125.655C250.481 114.648 240.161 105.726 227.431 105.726C214.702 105.726 204.382 114.648 204.382 125.655C204.382 136.662 214.702 145.585 227.431 145.585Z" fill="#F9D7DD"/>
<path d="M227.431 145.776C214.379 145.776 203.745 136.543 203.745 125.273C203.745 113.939 214.379 104.77 227.431 104.77C240.484 104.77 251.118 114.003 251.118 125.273C251.054 136.543 240.484 145.776 227.431 145.776ZM227.431 105.98C215.079 105.98 205.019 114.64 205.019 125.273C205.019 135.906 215.079 144.566 227.431 144.566C239.784 144.566 249.844 135.906 249.844 125.273C249.844 114.64 239.784 105.98 227.431 105.98Z" fill="#891652"/>
<path d="M227.431 142.783C237.559 142.783 245.769 135.685 245.769 126.929C245.769 118.172 237.559 111.074 227.431 111.074C217.304 111.074 209.094 118.172 209.094 126.929C209.094 135.685 217.304 142.783 227.431 142.783Z" fill="#F9D7DD"/>
<path d="M227.431 142.974C216.989 142.974 208.457 135.588 208.457 126.483C208.457 117.378 216.989 109.991 227.431 109.991C237.874 109.991 246.406 117.378 246.406 126.483C246.406 135.588 237.874 142.974 227.431 142.974ZM227.431 111.329C217.69 111.329 209.73 118.142 209.73 126.546C209.73 134.951 217.69 141.764 227.431 141.764C237.173 141.764 245.133 134.951 245.133 126.546C245.133 118.142 237.173 111.329 227.431 111.329Z" fill="#891652"/>
<path d="M228.387 138.963C235.736 138.963 241.694 133.831 241.694 127.502C241.694 121.172 235.736 116.041 228.387 116.041C221.037 116.041 215.079 121.172 215.079 127.502C215.079 133.831 221.037 138.963 228.387 138.963Z" fill="#F9D7DD"/>
<path d="M228.387 139.472C220.809 139.472 214.633 134.124 214.633 127.502C214.633 120.88 220.809 115.531 228.387 115.531C235.964 115.531 242.14 120.88 242.14 127.502C242.14 134.06 235.964 139.472 228.387 139.472ZM228.387 116.486C221.319 116.486 215.525 121.453 215.525 127.502C215.525 133.55 221.255 138.517 228.387 138.517C235.454 138.517 241.249 133.55 241.249 127.502C241.249 121.453 235.454 116.486 228.387 116.486Z" fill="#891652"/>
<path d="M228.896 137.307C234.065 137.307 238.256 133.687 238.256 129.221C238.256 124.755 234.065 121.134 228.896 121.134C223.727 121.134 219.536 124.755 219.536 129.221C219.536 133.687 223.727 137.307 228.896 137.307Z" fill="#F9D7DD"/>
<path d="M228.896 137.753C223.484 137.753 219.09 133.933 219.09 129.221C219.09 124.509 223.484 120.689 228.896 120.689C234.308 120.689 238.702 124.509 238.702 129.221C238.702 133.933 234.308 137.753 228.896 137.753ZM228.896 121.58C223.993 121.58 219.982 125.018 219.982 129.221C219.982 133.423 223.993 136.862 228.896 136.862C233.799 136.862 237.81 133.423 237.81 129.221C237.81 125.018 233.799 121.58 228.896 121.58Z" fill="#891652"/>
<path d="M108.657 105.1C126.521 105.1 141.003 91.6727 141.003 75.1096C141.003 58.5466 126.521 45.1196 108.657 45.1196C90.7928 45.1196 76.311 58.5466 76.311 75.1096C76.311 91.6727 90.7928 105.1 108.657 105.1Z" fill="#F9D7DD"/>
<path d="M108.657 106.246C90.0007 106.246 74.7828 92.1103 74.7828 74.7276C74.7828 57.2812 90.0007 43.1458 108.657 43.1458C127.313 43.1458 142.531 57.2812 142.531 74.7276C142.531 92.1103 127.377 106.246 108.657 106.246ZM108.657 46.2657C91.7199 46.2657 77.9028 59.0003 77.9028 74.6639C77.9028 90.3275 91.7199 103.062 108.657 103.062C125.594 103.062 139.411 90.3275 139.411 74.6639C139.411 59.0003 125.658 46.2657 108.657 46.2657Z" fill="#891652"/>
<path d="M108.657 100.133C123.532 100.133 135.591 89.1009 135.591 75.4918C135.591 61.8827 123.532 50.8503 108.657 50.8503C93.7818 50.8503 81.7231 61.8827 81.7231 75.4918C81.7231 89.1009 93.7818 100.133 108.657 100.133Z" fill="#F9D7DD"/>
<path d="M108.657 100.388C93.5027 100.388 81.1501 89.0541 81.1501 75.1097C81.1501 61.1653 93.5027 49.8315 108.657 49.8315C123.811 49.8315 136.164 61.1653 136.164 75.1097C136.164 89.0541 123.875 100.388 108.657 100.388ZM108.657 51.0413C94.1395 51.0413 82.3599 61.8021 82.3599 75.1097C82.3599 88.3537 94.1395 99.1782 108.657 99.1782C123.174 99.1145 134.954 88.3537 134.954 75.1097C134.954 61.8658 123.174 51.0413 108.657 51.0413Z" fill="#891652"/>
<path d="M107.893 95.9309C120.623 95.9309 130.942 87.0081 130.942 76.0012C130.942 64.9943 120.623 56.0715 107.893 56.0715C95.1628 56.0715 84.8431 64.9943 84.8431 76.0012C84.8431 87.0081 95.1628 95.9309 107.893 95.9309Z" fill="#F9D7DD"/>
<path d="M107.893 96.1217C94.8398 96.1217 84.2064 86.8891 84.2064 75.6189C84.2064 64.2851 94.8398 55.1162 107.893 55.1162C120.946 55.1162 131.579 64.3488 131.579 75.6189C131.515 86.8891 120.946 96.1217 107.893 96.1217ZM107.893 56.326C95.5402 56.326 85.4799 64.9855 85.4799 75.6189C85.4799 86.2523 95.5402 94.9119 107.893 94.9119C120.245 94.9119 130.306 86.2523 130.306 75.6189C130.306 64.9855 120.245 56.326 107.893 56.326Z" fill="#891652"/>
<path d="M107.893 93.1291C118.02 93.1291 126.231 86.0308 126.231 77.2745C126.231 68.5183 118.02 61.4199 107.893 61.4199C97.7651 61.4199 89.5549 68.5183 89.5549 77.2745C89.5549 86.0308 97.7651 93.1291 107.893 93.1291Z" fill="#F9D7DD"/>
<path d="M107.893 93.32C97.4504 93.32 88.9182 85.934 88.9182 76.8287C88.9182 67.7235 97.4504 60.3374 107.893 60.3374C118.335 60.3374 126.867 67.7235 126.867 76.8287C126.867 85.934 118.335 93.32 107.893 93.32ZM107.893 61.6745C98.1508 61.6745 90.1917 68.4876 90.1917 76.8924C90.1917 85.2972 98.1508 92.1103 107.893 92.1103C117.635 92.1103 125.594 85.2972 125.594 76.8924C125.594 68.4876 117.635 61.6745 107.893 61.6745Z" fill="#891652"/>
<path d="M108.848 89.3088C116.197 89.3088 122.156 84.1774 122.156 77.8476C122.156 71.5178 116.197 66.3865 108.848 66.3865C101.498 66.3865 95.5402 71.5178 95.5402 77.8476C95.5402 84.1774 101.498 89.3088 108.848 89.3088Z" fill="#F9D7DD"/>
<path d="M108.848 89.818C101.271 89.818 95.0945 84.4695 95.0945 77.8475C95.0945 71.2255 101.271 65.877 108.848 65.877C116.425 65.877 122.601 71.2255 122.601 77.8475C122.601 84.4058 116.425 89.818 108.848 89.818ZM108.848 66.832C101.78 66.832 95.9859 71.7985 95.9859 77.8475C95.9859 83.8964 101.716 88.8629 108.848 88.8629C115.916 88.8629 121.71 83.8964 121.71 77.8475C121.71 71.7985 115.916 66.832 108.848 66.832Z" fill="#891652"/>
<path d="M109.357 87.6532C114.527 87.6532 118.717 84.0327 118.717 79.5667C118.717 75.1007 114.527 71.4802 109.357 71.4802C104.188 71.4802 99.9973 75.1007 99.9973 79.5667C99.9973 84.0327 104.188 87.6532 109.357 87.6532Z" fill="#F9D7DD"/>
<path d="M109.357 88.099C103.945 88.099 99.5516 84.2787 99.5516 79.5669C99.5516 74.8551 103.945 71.0347 109.357 71.0347C114.769 71.0347 119.163 74.8551 119.163 79.5669C119.163 84.2787 114.769 88.099 109.357 88.099ZM109.357 71.9261C104.454 71.9261 100.443 75.3644 100.443 79.5669C100.443 83.7693 104.454 87.2076 109.357 87.2076C114.26 87.2076 118.272 83.7693 118.272 79.5669C118.272 75.3644 114.26 71.9261 109.357 71.9261Z" fill="#891652"/>
<path d="M74.9829 216.965C92.847 216.965 107.329 203.538 107.329 186.975C107.329 170.412 92.847 156.985 74.9829 156.985C57.1187 156.985 42.637 170.412 42.637 186.975C42.637 203.538 57.1187 216.965 74.9829 216.965Z" fill="#F9D7DD"/>
<path d="M74.9828 218.111C56.3266 218.111 41.1088 203.976 41.1088 186.593C41.1088 169.147 56.3266 155.011 74.9828 155.011C93.639 155.011 108.857 169.147 108.857 186.593C108.857 203.976 93.7027 218.111 74.9828 218.111ZM74.9828 158.131C58.0458 158.131 44.2287 170.866 44.2287 186.529C44.2287 202.193 58.0458 214.928 74.9828 214.928C91.9199 214.928 105.737 202.193 105.737 186.529C105.737 170.866 91.9835 158.131 74.9828 158.131Z" fill="#891652"/>
<path d="M74.9828 211.999C89.8578 211.999 101.916 200.966 101.916 187.357C101.916 173.748 89.8578 162.716 74.9828 162.716C60.1077 162.716 48.0491 173.748 48.0491 187.357C48.0491 200.966 60.1077 211.999 74.9828 211.999Z" fill="#F9D7DD"/>
<path d="M74.9828 212.253C59.8286 212.253 47.4761 200.92 47.4761 186.975C47.4761 173.031 59.8286 161.697 74.9828 161.697C90.137 161.697 102.49 173.031 102.49 186.975C102.49 200.92 90.2007 212.253 74.9828 212.253ZM74.9828 162.907C60.4654 162.907 48.6859 173.668 48.6859 186.975C48.6859 200.219 60.4654 211.044 74.9828 211.044C89.5003 210.98 101.28 200.219 101.28 186.975C101.28 173.731 89.5003 162.907 74.9828 162.907Z" fill="#891652"/>
<path d="M74.2187 207.796C86.9487 207.796 97.2684 198.874 97.2684 187.867C97.2684 176.86 86.9487 167.937 74.2187 167.937C61.4887 167.937 51.1691 176.86 51.1691 187.867C51.1691 198.874 61.4887 207.796 74.2187 207.796Z" fill="#F9D7DD"/>
<path d="M74.2187 207.987C61.1657 207.987 50.5323 198.755 50.5323 187.484C50.5323 176.151 61.1657 166.982 74.2187 166.982C87.2717 166.982 97.9051 176.214 97.9051 187.484C97.8414 198.755 87.2717 207.987 74.2187 207.987ZM74.2187 168.191C61.8662 168.191 51.8058 176.851 51.8058 187.484C51.8058 198.118 61.8662 206.777 74.2187 206.777C86.5713 206.777 96.6316 198.118 96.6316 187.484C96.6316 176.851 86.5713 168.191 74.2187 168.191Z" fill="#891652"/>
<path d="M74.2187 204.995C84.3464 204.995 92.5565 197.896 92.5565 189.14C92.5565 180.384 84.3464 173.285 74.2187 173.285C64.091 173.285 55.8809 180.384 55.8809 189.14C55.8809 197.896 64.091 204.995 74.2187 204.995Z" fill="#F9D7DD"/>
<path d="M74.2187 205.186C63.7763 205.186 55.2441 197.799 55.2441 188.694C55.2441 179.589 63.7763 172.203 74.2187 172.203C84.6611 172.203 93.1933 179.589 93.1933 188.694C93.1933 197.799 84.6611 205.186 74.2187 205.186ZM74.2187 173.54C64.4767 173.54 56.5176 180.353 56.5176 188.758C56.5176 197.163 64.4767 203.976 74.2187 203.976C83.9607 203.976 91.9198 197.163 91.9198 188.758C91.9198 180.353 83.9607 173.54 74.2187 173.54Z" fill="#891652"/>
<path d="M75.1738 201.174C82.5234 201.174 88.4814 196.043 88.4814 189.713C88.4814 183.383 82.5234 178.252 75.1738 178.252C67.8241 178.252 61.8661 183.383 61.8661 189.713C61.8661 196.043 67.8241 201.174 75.1738 201.174Z" fill="#F9D7DD"/>
<path d="M75.1738 201.684C67.5967 201.684 61.4204 196.335 61.4204 189.713C61.4204 183.091 67.5967 177.742 75.1738 177.742C82.7509 177.742 88.9272 183.091 88.9272 189.713C88.9272 196.271 82.7509 201.684 75.1738 201.684ZM75.1738 178.698C68.1061 178.698 62.3118 183.664 62.3118 189.713C62.3118 195.762 68.0424 200.728 75.1738 200.728C82.2415 200.728 88.0357 195.762 88.0357 189.713C88.0357 183.664 82.2415 178.698 75.1738 178.698Z" fill="#891652"/>
<path d="M75.6832 199.519C80.8525 199.519 85.0431 195.898 85.0431 191.432C85.0431 186.966 80.8525 183.346 75.6832 183.346C70.5138 183.346 66.3232 186.966 66.3232 191.432C66.3232 195.898 70.5138 199.519 75.6832 199.519Z" fill="#F9D7DD"/>
<path d="M75.6832 199.965C70.271 199.965 65.8776 196.144 65.8776 191.432C65.8776 186.721 70.271 182.9 75.6832 182.9C81.0954 182.9 85.4889 186.721 85.4889 191.432C85.4889 196.144 81.0954 199.965 75.6832 199.965ZM75.6832 183.792C70.7804 183.792 66.769 187.23 66.769 191.432C66.769 195.635 70.7804 199.073 75.6832 199.073C80.586 199.073 84.5974 195.635 84.5974 191.432C84.5974 187.23 80.586 183.792 75.6832 183.792Z" fill="#891652"/>
</svg>
