<svg width="301" height="300" viewBox="0 0 301 300" fill="none" xmlns="http://www.w3.org/2000/svg">
<g clip-path="url(#clip0)">
<path fill-rule="evenodd" clip-rule="evenodd" d="M182.478 63.8599L183.624 62.2055C190.635 70.73 191.529 83.1223 185.013 92.525C184.002 93.9842 182.827 95.3454 181.525 96.5573L181.511 96.5778L174.671 103.155L173.025 102.015L172.576 97.1246L172.583 97.0997L170.039 69.4626L138.494 78.1002L136.848 76.9599L140.605 68.2463L140.619 68.2258C141.297 66.5809 142.152 65.0134 143.17 63.5439C151.06 52.158 166.86 49.4018 178.4 57.3984C180.399 58.7841 182.154 60.4112 183.624 62.2055L182.478 63.8599Z" fill="#FF5A35"/>
<path fill-rule="evenodd" clip-rule="evenodd" d="M172.435 71.1225C178.03 76.2171 180.326 83.6491 179.117 90.5993C179.114 90.6026 179.112 90.6059 179.109 90.6092L179.11 90.6098C178.385 94.7924 176.36 98.8044 173.018 102.025L173.011 102.036L174.657 103.176L167.226 110.317L165.58 109.177L164.525 104.871L164.533 104.86L159.554 84.5715L134.417 87.5653L132.771 86.4249L136.848 76.9599L138.483 78.093C143.384 66.7497 156.842 62.2792 167.623 67.7882L172.435 71.1225Z" fill="#FF7A3C"/>
<path fill-rule="evenodd" clip-rule="evenodd" d="M171.143 98.4961C171.944 93.3356 170.607 87.9258 167.257 83.6433L157.707 77.0251C148.617 74.1481 138.386 78.3449 134.406 87.5581L132.771 86.425L130.393 91.926C129.36 94.3285 130.184 97.1659 132.361 98.6743C135.777 101.042 139.95 100.937 141.68 98.4398L148.082 89.2016C150.19 86.1598 154.399 85.4257 157.481 87.5619C160.564 89.6982 161.354 93.8966 159.247 96.9383L152.845 106.177L152.845 106.177C151.121 108.663 152.492 112.625 155.898 114.985C158.074 116.493 161.02 116.269 162.907 114.458L167.223 110.299L165.588 109.166C168.7 106.166 170.536 102.404 171.149 98.4937L171.143 98.4961Z" fill="#FF9A42"/>
<path d="M158.704 86.2L176.685 60.2534" stroke="white" stroke-linecap="round" stroke-linejoin="round"/>
</g>
<g clip-path="url(#clip1)">
<path fill-rule="evenodd" clip-rule="evenodd" d="M101.53 161.826L102.277 159.956C111.019 166.694 114.665 178.572 110.42 189.195C109.762 190.843 108.922 192.433 107.924 193.906L107.915 193.929L102.722 201.871L100.863 201.128L99.3292 196.463L99.3309 196.437L90.6623 170.071L61.8525 185.554L59.9934 184.811L61.7034 175.478L61.7127 175.455C62.0045 173.7 62.4868 171.981 63.1501 170.32C68.2901 157.457 83.0714 151.232 96.1085 156.441C98.3677 157.344 100.443 158.537 102.277 159.956L101.53 161.826Z" fill="#FF5A35"/>
<path fill-rule="evenodd" clip-rule="evenodd" d="M93.3686 171.153C99.9632 174.865 103.865 181.594 104.243 188.639C104.241 188.642 104.239 188.646 104.238 188.65L104.238 188.65C104.469 192.889 103.394 197.253 100.858 201.14L100.853 201.152L102.712 201.895L97.0697 210.518L95.2106 209.776L93.218 205.815L93.2227 205.804L83.8266 187.145L59.9986 195.692L58.1395 194.949L59.9934 184.812L61.8407 185.55C64.0767 173.397 76.1913 166.026 87.9325 168.981L93.3686 171.153Z" fill="#FF7A3C"/>
<path fill-rule="evenodd" clip-rule="evenodd" d="M98.2402 198.12C97.8645 192.912 95.3505 187.939 91.1268 184.515L80.3371 180.204C70.8333 179.436 61.8021 185.817 59.9868 195.687L58.1395 194.949L57.0534 200.843C56.5849 203.416 58.0234 205.997 60.4825 206.979C64.3419 208.521 68.3856 207.485 69.5129 204.664L73.6834 194.226C75.0565 190.79 78.9938 189.132 82.4766 190.524C85.9595 191.915 87.6701 195.83 86.2969 199.266L82.1265 209.704L82.1265 209.704C81.0038 212.513 83.227 216.067 87.0746 217.605C89.5337 218.587 92.3547 217.708 93.7881 215.521L97.0627 210.502L95.2153 209.764C97.5763 206.143 98.5235 202.065 98.2454 198.117L98.2402 198.12Z" fill="#FF9A42"/>
<path d="M83.3633 188.922L95.0764 159.608" stroke="white" stroke-linecap="round" stroke-linejoin="round"/>
</g>
<g clip-path="url(#clip2)">
<path fill-rule="evenodd" clip-rule="evenodd" d="M191.367 230.13L193.295 230.708C187.358 240.013 175.85 244.696 164.893 241.409C163.192 240.899 161.534 240.203 159.979 239.34L159.955 239.332L151.584 234.863L152.16 232.946L156.671 231.005L156.697 231.005L182.191 220.035L164.218 192.71L164.793 190.792L174.241 191.669L174.265 191.676C176.039 191.811 177.794 192.139 179.507 192.653C192.775 196.634 200.284 210.806 196.25 224.253C195.551 226.583 194.547 228.756 193.295 230.708L191.367 230.13Z" fill="#FF5A35"/>
<path fill-rule="evenodd" clip-rule="evenodd" d="M181.354 222.826C178.24 229.724 171.883 234.206 164.9 235.207C164.896 235.205 164.892 235.204 164.888 235.202L164.888 235.203C160.686 235.808 156.244 235.124 152.148 232.942L152.136 232.938L151.56 234.856L142.471 229.999L143.046 228.082L146.814 225.746L146.826 225.75L164.579 214.738L153.956 191.761L154.531 189.843L164.793 190.792L164.221 192.697C176.524 193.848 184.939 205.263 183.036 217.219L181.354 222.826Z" fill="#FF7A3C"/>
<path fill-rule="evenodd" clip-rule="evenodd" d="M154.923 230.067C160.078 229.232 164.809 226.287 167.845 221.777L171.184 210.648C171.108 201.113 163.952 192.683 153.959 191.749L154.531 189.843L148.564 189.283C145.96 189.044 143.516 190.706 142.755 193.242C141.561 197.223 142.952 201.159 145.862 202.032L156.627 205.262C160.172 206.325 162.172 210.1 161.094 213.693C160.017 217.285 156.269 219.336 152.724 218.272L141.959 215.043L141.959 215.043C139.061 214.173 135.717 216.702 134.527 220.671C133.766 223.207 134.891 225.939 137.197 227.174L142.486 229.991L143.058 228.085C146.874 230.116 151.019 230.699 154.928 230.072L154.923 230.067Z" fill="#FF9A42"/>
<path d="M162.768 214.434L193.004 223.505" stroke="white" stroke-linecap="round" stroke-linejoin="round"/>
</g>
<g clip-path="url(#clip3)">
<path fill-rule="evenodd" clip-rule="evenodd" d="M254.178 160.201C254.178 160.201 254.178 160.201 254.178 160.201L255.633 160.637C256.578 159.164 257.335 157.524 257.863 155.766C260.907 145.619 255.241 134.926 245.229 131.922C243.937 131.534 242.612 131.287 241.274 131.185L241.256 131.179L234.127 130.518L233.692 131.965L247.254 152.584L228.018 160.861L227.998 160.861L224.594 162.326L224.16 163.772L230.476 167.145L230.494 167.15C231.668 167.802 232.919 168.327 234.202 168.712C242.47 171.192 251.153 167.658 255.633 160.637L254.178 160.201L254.178 160.201Z" fill="#FF5A35"/>
<path fill-rule="evenodd" clip-rule="evenodd" d="M246.623 154.69C244.273 159.894 239.476 163.277 234.207 164.032C234.204 164.031 234.201 164.029 234.198 164.028L234.198 164.029C231.027 164.485 227.676 163.969 224.585 162.323L224.576 162.32L224.142 163.767L217.283 160.102L217.717 158.655L220.56 156.893L220.569 156.896L233.965 148.587L225.949 131.249L226.383 129.802L234.126 130.518L233.695 131.956C242.979 132.824 249.328 141.437 247.892 150.459L246.623 154.69Z" fill="#FF7A3C"/>
<path fill-rule="evenodd" clip-rule="evenodd" d="M226.679 160.153C230.569 159.523 234.139 157.301 236.43 153.898L238.949 145.5C238.891 138.306 233.492 131.944 225.952 131.24L226.383 129.802L221.881 129.379C219.916 129.199 218.072 130.453 217.498 132.367C216.597 135.371 217.646 138.341 219.842 138.999L227.965 141.436C230.64 142.239 232.149 145.087 231.336 147.798C230.523 150.509 227.695 152.056 225.02 151.253L216.897 148.816L216.897 148.816C214.71 148.16 212.187 150.069 211.289 153.063C210.715 154.977 211.564 157.039 213.303 157.97L217.295 160.096L217.726 158.658C220.605 160.19 223.734 160.63 226.682 160.157L226.679 160.153Z" fill="#FF9A42"/>
<path d="M232.599 148.357L255.414 155.202" stroke="white" stroke-linecap="round" stroke-linejoin="round"/>
</g>
<defs>
<clipPath id="clip0">
<rect width="61" height="60" fill="white" transform="translate(153.373 40.0552) rotate(34.7213)"/>
</clipPath>
<clipPath id="clip1">
<rect width="61" height="60" fill="white" transform="translate(67.8331 145.144) rotate(21.7802)"/>
</clipPath>
<clipPath id="clip2">
<rect width="61" height="60" fill="white" transform="translate(204.999 195.088) rotate(106.699)"/>
</clipPath>
<clipPath id="clip3">
<rect width="46.0284" height="45.2738" fill="white" transform="translate(264.465 133.759) rotate(106.699)"/>
</clipPath>
</defs>
</svg>
