<svg width="301" height="301" viewBox="0 0 301 301" fill="none" xmlns="http://www.w3.org/2000/svg">
<path d="M297.34 125.287C299.861 141.383 302.887 159.707 299.357 174.994C294.919 194.33 285.539 222.677 274.345 238.267C252.56 268.537 218.572 290.607 171.472 298.098C123.163 305.691 84.737 295.466 51.4549 264.791C27.1488 242.418 8.99488 212.857 3.5487 177.626C0.92647 160.821 -0.182935 142.598 2.54015 126.704C8.38975 92.7896 25.7368 65.4556 50.0429 42.8797C70.9199 23.6447 96.6379 7.04184 127.5 2.18247C167.236 -4.09423 202.536 7.7505 233.498 28.4028C267.789 51.3836 290.481 81.5523 297.34 125.287Z" fill="#E06F00"/>
<path d="M293.305 125.995C295.726 141.687 298.751 159.505 295.322 174.387C290.986 193.217 281.909 220.854 271.016 235.939C249.837 265.399 216.756 286.861 170.968 294.15C123.97 301.54 86.6533 291.619 54.2788 261.754C30.477 239.887 12.9282 211.136 7.48206 176.918C4.96069 160.618 3.85128 142.801 6.47351 127.413C12.1214 94.4094 29.065 67.7841 52.766 45.9169C73.0379 27.188 98.0499 11.0913 128.105 6.33321C166.833 0.25899 201.124 11.8 231.279 31.8449C264.562 54.0158 286.649 83.3746 293.305 125.995Z" fill="#F4810F"/>
<path d="M278.984 129.943C281.203 143.914 283.825 159.808 280.698 173.07C276.765 189.876 268.596 214.476 258.813 228.042C239.751 254.263 213.226 275.522 168.85 279.977C126.289 284.229 93.108 277.851 64.0618 251.225C42.7813 231.788 27.0479 206.175 22.2069 175.601C19.8872 161.023 18.9795 145.23 21.4001 131.462C26.5437 102.002 41.6719 78.3126 63.0532 58.7739C81.308 42.0698 103.799 27.6941 130.727 23.4422C165.522 17.9754 192.854 23.6446 219.883 41.5636C249.736 61.3048 273.033 91.9796 278.984 129.943Z" fill="#E06F00"/>
<path d="M287.062 128.267C289.399 143.145 292.181 160.037 288.954 174.132C284.725 191.918 276.046 218.207 265.698 232.526C245.446 260.492 217.183 283.089 170.115 287.787C124.939 292.374 89.6655 285.438 58.8431 257.248C36.2549 236.553 19.4528 209.37 14.4455 176.817C11.9976 161.379 10.9961 144.487 13.5554 129.833C19.0077 98.5107 35.1421 73.229 57.7304 52.5339C77.0917 34.7473 101.015 19.4217 129.612 14.8352C166.554 9.01816 195.596 15.0589 224.305 34.0761C256.017 55.2187 280.72 87.8834 287.062 128.267Z" fill="#B51212"/>
<path d="M282.172 129.493C284.4 143.774 287.075 159.952 283.954 173.564C279.943 190.635 271.585 215.851 261.556 229.686C242.055 256.463 214.866 278.22 169.512 282.795C125.942 287.146 91.9544 280.563 62.2016 253.451C40.4721 233.591 24.3142 207.483 19.4111 176.242C17.071 161.403 16.0681 145.225 18.5196 131.166C23.757 101.153 39.3577 76.8301 61.0873 56.9701C79.8081 39.8993 102.763 25.1716 130.399 20.8202C165.946 15.2416 194.028 21.0434 221.663 39.3414C252.307 59.3131 276.154 90.6652 282.172 129.493Z" fill="#FFE9B0"/>
<path d="M187.7 224.1C188.4 224.3 191.8 226.1 192.2 224.4C192.6 222.7 188.4 222.9 187.9 223.2C187.8 223.6 187.7 224.1 187.7 224.1Z" fill="#41B619"/>
<path d="M135.7 247.2C135.8 251.1 128.9 256.9 127.6 256.3C126.4 255.6 134.2 250 135.7 247.2Z" fill="#41B619"/>
<path d="M191.6 224C194.7 223.8 197.7 228.8 197.1 229.2C196.5 229.6 193.9 225.5 191.6 224Z" fill="#41B619"/>
<path d="M146.209 169.705C149.209 170.605 152.209 179.005 150.409 179.305C149.709 179.505 147.909 171.805 146.209 169.705Z" fill="#41B619"/>
<path d="M71.7 204.644C74.7 205.544 77.7 213.944 75.9 214.244C75.2 214.444 73.4 206.744 71.7 204.644Z" fill="#41B619"/>
<path d="M82 78.3999C85 79.2999 88 87.6999 86.2 87.9999C85.5 88.1999 83.7 80.4999 82 78.3999Z" fill="#41B619"/>
<path d="M214.9 195.2C212.5 190.8 200.2 194.3 200.7 195.7C201.2 197.1 211.1 193.1 214.9 195.2Z" fill="#41B619"/>
<path d="M214.9 195.2C214 200.8 207.2 204 208.6 204.6C209.9 205.1 217.3 201.3 214.9 195.2Z" fill="#41B619"/>
<path d="M214.9 195.2C220.5 195.6 218 205.8 219.5 205.5C220.9 205.1 220.9 193 214.9 195.2Z" fill="#41B619"/>
<path d="M54.7 173.702C52.3 169.302 40 172.802 40.5 174.202C41.1 175.602 51 171.602 54.7 173.702Z" fill="#41B619"/>
<path d="M210.9 122.7C206.2 120.9 199.1 131.5 200.4 132.2C201.7 133 206.7 123.5 210.9 122.7Z" fill="#41B619"/>
<path d="M148.581 116.579C143.881 114.779 136.781 125.379 138.081 126.079C139.381 126.879 144.381 117.379 148.581 116.579Z" fill="#41B619"/>
<path d="M153.909 60.6495C149.209 58.8495 142.109 69.4495 143.409 70.1495C144.709 70.9495 149.709 61.4495 153.909 60.6495Z" fill="#41B619"/>
<path d="M177.62 40.757C177.152 35.7459 164.503 34.0756 164.452 35.5511C164.31 37.071 175.042 37.3458 177.62 40.757Z" fill="#41B619"/>
<path d="M124.2 51C123.3 56.6 116.5 59.8 117.9 60.4C119.3 60.9 126.6 57.1 124.2 51Z" fill="#41B619"/>
<path d="M199.2 151.5C204.8 151.9 202.3 162.1 203.8 161.8C205.3 161.4 205.3 149.3 199.2 151.5Z" fill="#41B619"/>
<path d="M254.3 142.045C259.9 142.445 257.4 152.645 258.9 152.345C260.3 152.045 260.3 139.945 254.3 142.045Z" fill="#41B619"/>
<path d="M224 225.3L222 226.8L221.4 224.9L222.6 223.3L224 225.3Z" fill="#422918"/>
<path d="M82 140.3L80 141.8L79.4 139.9L80.6 138.3L82 140.3Z" fill="#422918"/>
<path d="M57.3 121.5L55.3 123L54.7 121.1L55.9 119.5L57.3 121.5Z" fill="#422918"/>
<path d="M197.5 181.5L196.8 183.9L195.2 182.8L195.1 180.8L197.5 181.5Z" fill="#422918"/>
<path d="M127.08 135.9L126.38 138.3L124.78 137.2L124.68 135.2L127.08 135.9Z" fill="#422918"/>
<path d="M179.004 105.9L178.304 108.3L176.704 107.2L176.604 105.2L179.004 105.9Z" fill="#422918"/>
<path d="M226.4 75.9998L225.7 78.3998L224.1 77.2998L224 75.2998L226.4 75.9998Z" fill="#422918"/>
<path d="M216.3 150.5L213.9 150.1L214.9 148.4L216.8 148.1L216.3 150.5Z" fill="#422918"/>
<path d="M113.3 226.8L110.9 226.4L111.9 224.7L113.8 224.4L113.3 226.8Z" fill="#422918"/>
<path d="M238.3 119.5L235.9 119.1L236.9 117.4L238.8 117.1L238.3 119.5Z" fill="#422918"/>
<path d="M215.8 238.4L213.4 237.9L214.4 236.2L216.3 236L215.8 238.4Z" fill="#422918"/>
</svg>
