<svg width="301" height="300" viewBox="0 0 301 300" fill="none" xmlns="http://www.w3.org/2000/svg">
<path d="M152.063 145.851C151.378 145.851 150.713 145.581 150.22 145.088L144.441 139.309L143.604 136.387L140.609 135.477L136.901 131.769L135.914 128.697L133.079 127.947L127.627 122.495C126.856 121.724 126.646 120.553 127.102 119.562C129.251 114.892 132.227 113.965 134.853 113.148C136.666 112.583 138.231 112.096 140.004 110.324C142.171 108.157 142.782 106.736 143.49 105.091C144.293 103.224 145.204 101.107 148.078 98.2331C150.952 95.3588 153.069 94.4482 154.937 93.6446C156.581 92.937 158.002 92.3257 160.169 90.1587C162.336 87.9915 162.947 86.571 163.655 84.926C164.459 83.0586 165.369 80.9418 168.244 78.0676C171.118 75.1931 173.235 74.2823 175.103 73.4788C176.748 72.771 178.168 72.1596 180.335 69.9924C182.108 68.2203 182.595 66.6545 183.16 64.8417C183.977 62.2159 184.904 59.2398 189.574 57.0901C190.565 56.634 191.736 56.8434 192.507 57.6149L198.018 63.1253L198.537 66.0771L201.85 66.9579L205.549 70.6561L205.836 73.3762L209.381 74.4888L215.1 80.2073C215.703 80.8103 215.973 81.67 215.823 82.5095C215.673 83.3488 215.121 84.0618 214.347 84.4183C211.784 85.5977 211.432 86.7293 210.73 88.9839C210.091 91.0361 209.295 93.5899 206.614 96.2711C203.74 99.1456 201.623 100.056 199.755 100.86C198.11 101.568 196.69 102.179 194.523 104.346C192.355 106.513 191.744 107.934 191.036 109.579C190.233 111.446 189.322 113.563 186.448 116.437C183.574 119.312 181.457 120.222 179.589 121.026C177.945 121.734 176.524 122.345 174.357 124.512C172.19 126.679 171.579 128.1 170.871 129.744C170.068 131.612 169.157 133.729 166.283 136.603C163.602 139.284 161.048 140.079 158.996 140.718C156.741 141.42 155.61 141.772 154.431 144.334C154.074 145.109 153.361 145.66 152.522 145.81C152.369 145.838 152.215 145.851 152.063 145.851Z" fill="#FC5866"/>
<path d="M205.548 70.656C201.779 72.8906 200.835 75.6344 199.994 78.0812C199.355 79.9418 198.751 81.6994 196.784 83.6668C194.405 86.0456 192.881 86.7457 191.116 87.5561C189.176 88.4469 186.977 89.4567 183.937 92.4967C180.897 95.5366 179.888 97.7355 178.997 99.6752C178.186 101.44 177.487 102.964 175.108 105.343C172.729 107.722 171.205 108.421 169.44 109.232C167.501 110.123 165.302 111.132 162.262 114.172C159.222 117.212 158.212 119.411 157.322 121.35C156.511 123.115 155.812 124.639 153.433 127.018C151.466 128.985 149.708 129.589 147.848 130.228C145.468 131.046 142.808 131.962 140.608 135.478L144.44 139.309C144.447 139.296 144.454 139.284 144.461 139.27C145.848 136.427 147.16 135.976 149.541 135.158C151.661 134.43 154.3 133.524 157.119 130.704C160.159 127.664 161.169 125.466 162.059 123.526C162.87 121.761 163.569 120.237 165.948 117.858C168.327 115.48 169.851 114.78 171.616 113.969C173.556 113.079 175.754 112.069 178.794 109.029C181.834 105.989 182.844 103.791 183.735 101.851C184.545 100.086 185.245 98.5619 187.624 96.1831C190.003 93.8043 191.527 93.1043 193.292 92.2938C195.231 91.403 197.43 90.3933 200.47 87.3531C203.29 84.5336 204.196 81.8953 204.925 79.7755C205.743 77.3941 206.194 76.0822 209.037 74.6941C209.159 74.6345 209.272 74.5641 209.381 74.4888L205.548 70.656Z" fill="#FFE7CC"/>
<path d="M201.85 66.9579L198.017 63.1252C194.248 65.3599 193.304 68.1036 192.463 70.5504C191.824 72.4111 191.22 74.1685 189.253 76.136C186.874 78.5148 185.35 79.215 183.585 80.0253C181.645 80.9161 179.447 81.9259 176.406 84.966C173.366 88.0059 172.357 90.2045 171.466 92.1444C170.656 93.9091 169.956 95.4331 167.577 97.812C165.198 100.191 163.674 100.891 161.909 101.701C159.97 102.592 157.771 103.601 154.731 106.641C151.691 109.681 150.681 111.88 149.791 113.82C148.98 115.584 148.281 117.108 145.902 119.487C143.935 121.454 142.177 122.058 140.317 122.697C137.937 123.515 135.277 124.431 133.077 127.947L136.909 131.779C136.916 131.765 136.923 131.753 136.93 131.74C138.318 128.897 139.629 128.446 142.011 127.628C144.13 126.9 146.769 125.993 149.588 123.174C152.628 120.134 153.638 117.935 154.529 115.995C155.339 114.231 156.039 112.707 158.418 110.328C160.796 107.949 162.32 107.249 164.085 106.439C166.025 105.548 168.223 104.538 171.263 101.499C174.303 98.4586 175.313 96.26 176.204 94.3201C177.014 92.5554 177.714 91.0314 180.093 88.6525C182.472 86.2737 183.996 85.5737 185.761 84.7632C187.701 83.8724 189.899 82.8626 192.939 79.8225C195.759 77.0028 196.665 74.3647 197.394 72.2449C198.212 69.8635 198.663 68.5516 201.506 67.1635C201.628 67.1035 201.741 67.0332 201.85 66.9579Z" fill="#FFFAF4"/>
<path d="M91.5626 205.307C90.8777 205.307 90.2127 205.036 89.7197 204.543L83.9409 198.764L83.1041 195.842L80.1092 194.933L76.4008 191.224L75.4143 188.152L72.5786 187.402L67.127 181.951C66.3556 181.179 66.146 180.009 66.6022 179.018C68.7513 174.347 71.7274 173.421 74.3532 172.603C76.166 172.039 77.7314 171.551 79.5036 169.779C81.6708 167.612 82.282 166.192 82.9898 164.547C83.7933 162.679 84.7039 160.563 87.5782 157.688C90.4525 154.814 92.5693 153.904 94.4367 153.1C96.0815 152.392 97.5021 151.781 99.6691 149.614C101.836 147.447 102.447 146.026 103.155 144.381C103.959 142.514 104.869 140.397 107.744 137.523C110.618 134.648 112.735 133.738 114.603 132.934C116.248 132.226 117.668 131.615 119.835 129.448C121.608 127.676 122.095 126.11 122.66 124.297C123.477 121.671 124.404 118.695 129.074 116.545C130.065 116.089 131.236 116.299 132.007 117.07L137.518 122.581L138.037 125.532L141.35 126.413L145.049 130.111L145.336 132.832L148.881 133.944L154.6 139.663C155.203 140.266 155.473 141.125 155.323 141.965C155.173 142.804 154.621 143.517 153.847 143.874C151.284 145.053 150.932 146.185 150.23 148.439C149.591 150.491 148.795 153.045 146.114 155.726C143.24 158.601 141.123 159.512 139.255 160.315C137.61 161.023 136.19 161.634 134.023 163.802C131.855 165.969 131.244 167.389 130.536 169.034C129.733 170.902 128.822 173.018 125.948 175.893C123.074 178.767 120.957 179.678 119.089 180.481C117.445 181.189 116.024 181.8 113.857 183.967C111.69 186.134 111.079 187.555 110.371 189.2C109.568 191.067 108.657 193.184 105.783 196.058C103.102 198.739 100.548 199.534 98.4956 200.173C96.2412 200.875 95.1097 201.227 93.9306 203.79C93.574 204.564 92.8612 205.116 92.0219 205.266C91.8689 205.293 91.7153 205.307 91.5626 205.307Z" fill="#FC5866"/>
<path d="M145.048 130.111C141.279 132.346 140.335 135.09 139.494 137.537C138.855 139.397 138.251 141.155 136.284 143.122C133.905 145.501 132.381 146.201 130.616 147.011C128.676 147.902 126.477 148.912 123.437 151.952C120.397 154.992 119.388 157.191 118.497 159.13C117.686 160.895 116.987 162.419 114.608 164.798C112.229 167.177 110.705 167.877 108.94 168.687C107.001 169.578 104.802 170.587 101.762 173.627C98.722 176.667 97.7124 178.866 96.8216 180.806C96.0113 182.57 95.3116 184.094 92.9326 186.473C90.9656 188.44 89.2082 189.044 87.3476 189.683C84.9679 190.501 82.3078 191.417 80.1083 194.933L83.9398 198.765C83.9466 198.751 83.954 198.739 83.9606 198.726C85.3484 195.883 86.6603 195.432 89.0414 194.614C91.1613 193.886 93.7996 192.979 96.619 190.16C99.659 187.12 100.669 184.921 101.559 182.981C102.37 181.217 103.069 179.693 105.448 177.314C107.827 174.935 109.351 174.235 111.116 173.425C113.056 172.534 115.254 171.524 118.294 168.484C121.334 165.445 122.344 163.246 123.235 161.306C124.045 159.541 124.745 158.017 127.124 155.638C129.503 153.26 131.027 152.56 132.792 151.749C134.731 150.858 136.93 149.849 139.97 146.808C142.79 143.989 143.696 141.351 144.425 139.231C145.243 136.849 145.694 135.538 148.537 134.149C148.659 134.09 148.772 134.019 148.881 133.944L145.048 130.111Z" fill="#FFE7CC"/>
<path d="M141.35 126.413L137.517 122.581C133.748 124.815 132.804 127.559 131.963 130.006C131.324 131.866 130.72 133.624 128.753 135.591C126.374 137.97 124.85 138.67 123.085 139.481C121.145 140.371 118.947 141.381 115.906 144.421C112.866 147.461 111.857 149.66 110.966 151.6C110.156 153.364 109.456 154.888 107.077 157.267C104.698 159.646 103.174 160.346 101.409 161.156C99.4697 162.047 97.2713 163.057 94.2312 166.097C91.1911 169.137 90.1815 171.335 89.2907 173.275C88.4804 175.04 87.7806 176.564 85.4017 178.942C83.4347 180.909 81.6772 181.513 79.8167 182.152C77.437 182.97 74.777 183.886 72.5775 187.402L76.4089 191.234C76.4157 191.221 76.4232 191.208 76.4298 191.195C77.8175 188.352 79.1294 187.901 81.5105 187.083C83.6304 186.355 86.2687 185.448 89.0881 182.629C92.128 179.589 93.1378 177.39 94.0286 175.451C94.8389 173.686 95.5385 172.162 97.9176 169.783C100.296 167.404 101.82 166.704 103.585 165.894C105.525 165.003 107.723 163.994 110.763 160.954C113.803 157.914 114.813 155.715 115.704 153.775C116.514 152.011 117.214 150.487 119.593 148.108C121.972 145.729 123.496 145.029 125.261 144.219C127.201 143.328 129.399 142.318 132.439 139.278C135.259 136.458 136.165 133.82 136.894 131.7C137.712 129.319 138.163 128.007 141.006 126.619C141.128 126.559 141.241 126.488 141.35 126.413Z" fill="#FFFAF4"/>
<path d="M126.963 266.8C126.278 266.8 125.613 266.53 125.12 266.037L119.341 260.258L118.504 257.336L115.509 256.426L111.801 252.718L110.814 249.646L107.979 248.895L102.527 243.444C101.756 242.672 101.546 241.502 102.002 240.511C104.151 235.841 107.127 234.914 109.753 234.097C111.566 233.532 113.131 233.045 114.904 231.273C117.071 229.106 117.682 227.685 118.39 226.04C119.193 224.173 120.104 222.056 122.978 219.182C125.852 216.308 127.969 215.397 129.837 214.593C131.481 213.886 132.902 213.274 135.069 211.107C137.236 208.94 137.847 207.52 138.555 205.875C139.359 204.007 140.269 201.891 143.144 199.016C146.018 196.142 148.135 195.231 150.002 194.428C151.647 193.72 153.068 193.108 155.235 190.941C157.007 189.169 157.495 187.603 158.06 185.79C158.877 183.165 159.804 180.189 164.474 178.039C165.465 177.583 166.636 177.792 167.407 178.564L172.918 184.074L173.437 187.026L176.75 187.907L180.449 191.605L180.736 194.325L184.281 195.438L190 201.156C190.603 201.759 190.873 202.619 190.723 203.458C190.572 204.298 190.021 205.011 189.247 205.367C186.684 206.546 186.332 207.678 185.63 209.933C184.991 211.985 184.195 214.539 181.514 217.22C178.64 220.094 176.523 221.005 174.655 221.809C173.01 222.516 171.59 223.128 169.423 225.295C167.255 227.462 166.644 228.883 165.936 230.528C165.133 232.395 164.222 234.512 161.348 237.386C158.474 240.261 156.357 241.171 154.489 241.975C152.845 242.682 151.424 243.293 149.257 245.46C147.09 247.628 146.479 249.048 145.771 250.693C144.967 252.561 144.057 254.677 141.183 257.552C138.502 260.233 135.948 261.028 133.896 261.667C131.641 262.369 130.51 262.721 129.331 265.283C128.974 266.058 128.261 266.609 127.422 266.759C127.269 266.787 127.115 266.8 126.963 266.8Z" fill="#FC5866"/>
<path d="M180.448 191.605C176.679 193.839 175.735 196.583 174.894 199.03C174.255 200.891 173.651 202.648 171.684 204.615C169.305 206.994 167.781 207.694 166.016 208.505C164.076 209.396 161.877 210.405 158.837 213.445C155.797 216.485 154.787 218.684 153.897 220.624C153.086 222.389 152.387 223.913 150.008 226.291C147.629 228.67 146.105 229.37 144.34 230.18C142.401 231.071 140.202 232.081 137.162 235.121C134.122 238.161 133.112 240.359 132.222 242.299C131.411 244.064 130.712 245.588 128.333 247.967C126.366 249.933 124.608 250.537 122.748 251.177C120.368 251.994 117.708 252.91 115.508 256.426L119.34 260.258C119.347 260.245 119.354 260.232 119.361 260.219C120.748 257.376 122.06 256.925 124.441 256.107C126.561 255.379 129.2 254.472 132.019 251.653C135.059 248.613 136.069 246.414 136.959 244.475C137.77 242.71 138.469 241.186 140.848 238.807C143.227 236.428 144.751 235.728 146.516 234.918C148.456 234.027 150.654 233.018 153.694 229.978C156.734 226.938 157.744 224.739 158.635 222.799C159.445 221.035 160.145 219.511 162.524 217.132C164.903 214.753 166.427 214.053 168.191 213.243C170.131 212.352 172.33 211.342 175.37 208.302C178.19 205.482 179.096 202.844 179.825 200.724C180.643 198.343 181.094 197.031 183.937 195.643C184.059 195.583 184.172 195.513 184.281 195.438L180.448 191.605Z" fill="#FFE7CC"/>
<path d="M176.75 187.907L172.917 184.074C169.148 186.309 168.204 189.052 167.363 191.499C166.724 193.36 166.12 195.117 164.153 197.085C161.774 199.464 160.25 200.164 158.485 200.974C156.545 201.865 154.347 202.875 151.306 205.915C148.266 208.955 147.257 211.153 146.366 213.093C145.555 214.858 144.855 216.382 142.477 218.761C140.098 221.139 138.574 221.839 136.809 222.65C134.87 223.54 132.671 224.55 129.631 227.59C126.591 230.63 125.581 232.829 124.691 234.768C123.88 236.533 123.181 238.057 120.802 240.436C118.835 242.403 117.077 243.007 115.217 243.646C112.837 244.463 110.177 245.38 107.977 248.896L111.809 252.727C111.816 252.714 111.823 252.702 111.83 252.688C113.218 249.845 114.529 249.395 116.91 248.576C119.03 247.848 121.669 246.942 124.488 244.122C127.528 241.082 128.538 238.884 129.429 236.944C130.239 235.179 130.939 233.655 133.318 231.277C135.696 228.898 137.22 228.198 138.985 227.388C140.925 226.497 143.123 225.487 146.163 222.447C149.203 219.407 150.213 217.209 151.104 215.269C151.914 213.504 152.614 211.98 154.993 209.601C157.372 207.222 158.896 206.522 160.661 205.712C162.6 204.821 164.799 203.811 167.839 200.771C170.659 197.952 171.565 195.313 172.294 193.194C173.112 190.812 173.563 189.5 176.406 188.112C176.528 188.052 176.641 187.982 176.75 187.907Z" fill="#FFFAF4"/>
<path d="M189.073 204.807C188.389 204.807 187.723 204.536 187.23 204.043L181.452 198.264L180.615 195.342L177.62 194.433L173.912 190.724L172.925 187.652L170.089 186.902L164.638 181.451C163.866 180.679 163.657 179.509 164.113 178.518C166.262 173.847 169.238 172.921 171.864 172.103C173.677 171.539 175.242 171.051 177.014 169.279C179.182 167.112 179.793 165.692 180.501 164.047C181.304 162.179 182.215 160.063 185.089 157.188C187.963 154.314 190.08 153.404 191.947 152.6C193.592 151.892 195.013 151.281 197.18 149.114C199.347 146.947 199.958 145.526 200.666 143.881C201.469 142.014 202.38 139.897 205.255 137.023C208.129 134.148 210.246 133.238 212.113 132.434C213.758 131.726 215.179 131.115 217.346 128.948C219.118 127.176 219.606 125.61 220.17 123.797C220.988 121.171 221.915 118.195 226.585 116.045C227.576 115.589 228.747 115.799 229.518 116.57L235.029 122.081L235.547 125.032L238.861 125.913L242.559 129.611L242.847 132.332L246.392 133.444L252.111 139.163C252.714 139.766 252.984 140.625 252.833 141.465C252.683 142.304 252.132 143.017 251.357 143.374C248.795 144.553 248.443 145.685 247.74 147.939C247.101 149.991 246.306 152.545 243.625 155.226C240.751 158.101 238.634 159.012 236.766 159.815C235.121 160.523 233.701 161.134 231.533 163.302C229.366 165.469 228.755 166.889 228.047 168.534C227.244 170.402 226.333 172.518 223.459 175.393C220.584 178.267 218.468 179.178 216.6 179.981C214.955 180.689 213.535 181.3 211.368 183.467C209.201 185.634 208.59 187.055 207.882 188.7C207.078 190.567 206.168 192.684 203.293 195.558C200.612 198.239 198.059 199.034 196.006 199.673C193.752 200.375 192.621 200.727 191.441 203.29C191.085 204.064 190.372 204.616 189.533 204.766C189.38 204.793 189.226 204.807 189.073 204.807Z" fill="#FC5866"/>
<path d="M242.559 129.611C238.79 131.846 237.846 134.59 237.005 137.037C236.366 138.897 235.762 140.655 233.795 142.622C231.416 145.001 229.892 145.701 228.127 146.511C226.187 147.402 223.988 148.412 220.948 151.452C217.908 154.492 216.898 156.691 216.008 158.63C215.197 160.395 214.497 161.919 212.119 164.298C209.74 166.677 208.216 167.377 206.451 168.187C204.511 169.078 202.313 170.087 199.273 173.127C196.233 176.167 195.223 178.366 194.332 180.306C193.522 182.07 192.822 183.594 190.443 185.973C188.476 187.94 186.719 188.544 184.858 189.183C182.479 190.001 179.819 190.917 177.619 194.433L181.451 198.265C181.457 198.251 181.465 198.239 181.471 198.226C182.859 195.383 184.171 194.932 186.552 194.114C188.672 193.386 191.31 192.479 194.13 189.66C197.17 186.62 198.179 184.421 199.07 182.481C199.881 180.717 200.58 179.193 202.959 176.814C205.338 174.435 206.862 173.735 208.627 172.925C210.566 172.034 212.765 171.024 215.805 167.984C218.845 164.945 219.855 162.746 220.745 160.806C221.556 159.041 222.256 157.517 224.634 155.138C227.013 152.76 228.538 152.06 230.302 151.249C232.242 150.358 234.441 149.349 237.481 146.308C240.301 143.489 241.207 140.851 241.936 138.731C242.754 136.349 243.205 135.038 246.048 133.649C246.17 133.59 246.283 133.519 246.392 133.444L242.559 129.611Z" fill="#FFE7CC"/>
<path d="M238.861 125.913L235.028 122.081C231.259 124.315 230.315 127.059 229.474 129.506C228.835 131.366 228.231 133.124 226.264 135.091C223.885 137.47 222.361 138.17 220.596 138.981C218.656 139.871 216.457 140.881 213.417 143.921C210.377 146.961 209.367 149.16 208.477 151.1C207.666 152.864 206.966 154.388 204.588 156.767C202.209 159.146 200.685 159.846 198.92 160.656C196.981 161.547 194.782 162.557 191.742 165.597C188.702 168.637 187.692 170.835 186.802 172.775C185.991 174.54 185.291 176.064 182.913 178.442C180.946 180.409 179.188 181.013 177.327 181.652C174.948 182.47 172.288 183.386 170.088 186.902L173.92 190.734C173.926 190.721 173.934 190.708 173.941 190.695C175.328 187.852 176.64 187.401 179.021 186.583C181.141 185.855 183.78 184.948 186.599 182.129C189.639 179.089 190.649 176.89 191.539 174.951C192.35 173.186 193.049 171.662 195.428 169.283C197.807 166.904 199.331 166.204 201.096 165.394C203.035 164.503 205.234 163.494 208.274 160.454C211.314 157.414 212.324 155.215 213.215 153.275C214.025 151.511 214.725 149.987 217.103 147.608C219.483 145.229 221.007 144.529 222.771 143.719C224.711 142.828 226.91 141.818 229.95 138.778C232.77 135.958 233.676 133.32 234.405 131.2C235.223 128.819 235.674 127.507 238.517 126.119C238.639 126.059 238.752 125.988 238.861 125.913Z" fill="#FFFAF4"/>
</svg>
