<svg width="301" height="300" viewBox="0 0 301 300" fill="none" xmlns="http://www.w3.org/2000/svg">
<g clip-path="url(#clip0)">
<path d="M204.66 115.835C202.387 114.8 195.038 110.655 194.732 110.467L198.802 52.2001C198.802 52.2001 224.953 63.1346 232.108 74.7213C205.928 117.271 209.124 110.944 204.66 115.835Z" fill="#E4DDC2"/>
<path d="M201.926 82.7672C201.618 81.9183 201.47 81.0056 201.782 80.3638C202.723 78.428 206.355 77.8618 208.187 78.9914C208.397 79.121 208.614 79.2866 208.837 79.494C211.151 81.6446 210.684 80.6301 212.266 81.604C213.849 82.5778 211.922 83.9374 209.548 82.4767C207.807 81.4058 205.726 84.6406 203.728 84.2101C202.926 84.0371 202.207 83.5386 201.926 82.7672Z" fill="#395C47"/>
<path d="M218.466 77.3004C219.829 76.5025 221.658 75.4413 222.971 74.705C223.683 74.3051 224.57 74.4803 225.095 75.1068C225.66 75.7808 225.623 76.7679 224.884 77.2456C224.405 77.5556 223.815 77.8718 223.142 78.1131C222.865 78.2123 222.617 78.2746 222.394 78.308C221.639 78.421 220.273 78.6383 219.874 79.2878C219.492 79.9079 218.585 79.89 218.228 79.2554L218.032 78.9069C217.715 78.3421 217.906 77.6276 218.466 77.3004Z" fill="#395C47"/>
<path d="M194.548 110.354L192.912 54.4926L198.802 52.2002L194.732 110.467C194.67 110.429 194.609 110.391 194.548 110.354Z" fill="#CCC9B1"/>
<path d="M205.59 65.8587C203.013 63.5458 207.639 63.1194 210.5 63.7887C211.048 63.8834 212.245 64.4988 212.651 66.2032C213.158 68.3337 214.924 67.2378 216.831 67.6841C218.738 68.1303 218.191 69.6116 218.069 70.9913C217.947 72.3711 214.112 73.2845 212.246 73.9542C210.379 74.6239 211.535 70.9715 210.399 68.0903C209.262 65.2092 208.167 68.1717 205.59 65.8587Z" fill="#395C47"/>
<path d="M199.607 102.179C200.581 100.597 198.714 96.5387 200.58 95.869L205.896 95.5034C205.179 96.2745 203.859 98.1048 204.314 99.2573C204.882 100.698 205.146 100.86 202.691 101.895C200.727 102.723 199.952 106.15 199.81 107.759C199.208 107.753 197.838 107.419 197.172 106.136C196.34 104.533 198.633 103.762 199.607 102.179Z" fill="#395C47"/>
<path d="M216.936 91.5009C216.286 92.5561 213.994 93.3273 213.081 94.2201C212.512 94.3555 211.348 94.3177 211.234 93.084C211.092 91.5419 212.756 90.0201 213.506 89.3909C214.257 88.7618 216.124 88.0922 217.767 88.3761C219.411 88.66 217.585 90.4457 216.936 91.5009Z" fill="#395C47"/>
</g>
<g clip-path="url(#clip1)">
<path d="M102.78 181.208C104.383 183.123 109.222 190.035 109.417 190.338L80.5824 241.133C80.5824 241.133 61.7179 219.977 60.2683 206.437C102.257 179.365 96.6421 183.692 102.78 181.208Z" fill="#E4DDC2"/>
<path d="M90.965 212.214C90.8769 213.113 90.6154 214 90.0571 214.444C88.3728 215.784 84.852 214.726 83.6876 212.916C83.5541 212.708 83.4299 212.465 83.3183 212.182C82.1606 209.243 82.1435 210.36 81.1365 208.798C80.1295 207.236 82.4552 206.842 83.9656 209.185C85.0729 210.902 88.3473 208.884 89.963 210.135C90.6121 210.637 91.0451 211.397 90.965 212.214Z" fill="#395C47"/>
<path d="M73.6868 210.002C72.1124 210.133 70.0046 210.3 68.5029 210.397C67.6873 210.45 66.9629 209.909 66.76 209.117C66.5416 208.265 67.0016 207.391 67.8739 207.279C68.4397 207.207 69.1091 207.177 69.82 207.249C70.1123 207.279 70.3637 207.331 70.5791 207.397C71.3082 207.621 72.6343 208.015 73.2752 207.601C73.8871 207.207 74.6977 207.615 74.7454 208.341L74.7716 208.74C74.8141 209.387 74.3325 209.948 73.6868 210.002Z" fill="#395C47"/>
<path d="M109.534 190.519L86.8851 241.609L80.5826 241.133L109.417 190.337C109.456 190.398 109.495 190.458 109.534 190.519Z" fill="#CCC9B1"/>
<path d="M80.3589 225.882C81.6844 229.081 77.3276 227.468 75.0362 225.629C74.583 225.307 73.769 224.235 74.1389 222.522C74.6013 220.381 72.5359 220.607 71.0083 219.381C69.4807 218.155 70.6145 217.056 71.32 215.864C72.0256 214.672 75.8789 215.504 77.8517 215.706C79.8246 215.908 77.2044 218.703 76.9851 221.792C76.7659 224.882 79.0334 222.683 80.3589 225.882Z" fill="#395C47"/>
<path d="M101.441 195.707C99.8788 196.714 99.8103 201.18 97.8374 200.978L92.8847 199.012C93.8643 198.626 95.8454 197.546 95.9331 196.31C96.0427 194.765 95.8749 194.505 98.5362 194.632C100.665 194.733 102.844 191.977 103.667 190.587C104.207 190.853 105.299 191.746 105.345 193.19C105.404 194.995 103.003 194.7 101.441 195.707Z" fill="#395C47"/>
<path d="M81.1994 197.855C82.2406 197.183 84.6416 197.478 85.8507 197.067C86.4216 197.19 87.4557 197.727 87.0255 198.889C86.4877 200.341 84.33 200.995 83.3812 201.239C82.4323 201.482 80.4595 201.28 79.0998 200.314C77.74 199.348 80.1581 198.526 81.1994 197.855Z" fill="#395C47"/>
</g>
<path d="M129.227 140.584C126.839 141.315 118.588 143.077 118.234 143.139L82.69 96.7902C82.69 96.7902 109.525 87.661 122.56 91.6025C131.129 140.821 129.332 133.964 129.227 140.584Z" fill="#E4DDC2"/>
<path d="M105.277 117.621C104.483 117.19 103.769 116.603 103.577 115.916C103 113.843 105.346 111.012 107.467 110.646C107.71 110.603 107.982 110.584 108.287 110.591C111.444 110.67 110.423 110.22 112.253 109.901C114.084 109.582 113.541 111.877 110.794 112.355C108.781 112.706 109.364 116.508 107.583 117.509C106.867 117.911 105.998 118.013 105.277 117.621Z" fill="#395C47"/>
<path d="M114.047 102.571C114.54 101.07 115.208 99.0634 115.703 97.6424C115.972 96.8707 116.753 96.4144 117.561 96.536C118.431 96.6669 119.057 97.4311 118.82 98.2781C118.666 98.8276 118.433 99.4558 118.089 100.082C117.947 100.34 117.802 100.551 117.657 100.724C117.167 101.308 116.288 102.376 116.418 103.127C116.543 103.844 115.852 104.432 115.164 104.193L114.786 104.061C114.175 103.849 113.845 103.186 114.047 102.571Z" fill="#395C47"/>
<path d="M118.021 143.176L79.7956 102.409L82.6901 96.7905L118.234 143.139C118.163 143.152 118.092 143.164 118.021 143.176Z" fill="#CCC9B1"/>
<path d="M96.8223 102.527C93.3596 102.501 96.5431 99.1174 99.1299 97.7239C99.603 97.432 100.908 97.1001 102.341 98.1082C104.132 99.3682 104.728 97.378 106.453 96.4489C108.178 95.5199 108.748 96.9925 109.571 98.1068C110.394 99.221 108.126 102.445 107.171 104.183C106.216 105.922 104.663 102.419 101.903 101.014C99.1435 99.6078 100.285 102.553 96.8223 102.527Z" fill="#395C47"/>
<path d="M116.397 133.701C116.078 131.87 111.992 130.067 112.946 128.329L116.687 124.534C116.661 125.586 116.884 127.832 117.988 128.394C119.368 129.097 119.673 129.044 118.519 131.445C117.596 133.367 119.285 136.447 120.245 137.747C119.79 138.141 118.542 138.798 117.194 138.278C115.509 137.628 116.716 135.532 116.397 133.701Z" fill="#395C47"/>
<path d="M122.307 114.223C122.519 115.443 121.312 117.54 121.219 118.814C120.883 119.291 119.986 120.034 119.084 119.185C117.956 118.124 118.194 115.882 118.34 114.914C118.486 113.945 119.44 112.207 120.86 111.331C122.279 110.455 122.094 113.002 122.307 114.223Z" fill="#395C47"/>
<g clip-path="url(#clip2)">
<path d="M170.096 175.468C172.029 173.887 178.996 169.128 179.301 168.937L229.762 198.352C229.762 198.352 208.391 216.972 194.835 218.266C168.247 175.97 172.509 181.634 170.096 175.468Z" fill="#E4DDC2"/>
<path d="M200.964 187.638C201.862 187.736 202.746 188.008 203.183 188.571C204.504 190.271 203.405 193.779 201.582 194.923C201.373 195.054 201.129 195.176 200.844 195.284C197.892 196.408 199.008 196.438 197.435 197.427C195.862 198.416 195.495 196.086 197.855 194.602C199.585 193.515 197.604 190.217 198.873 188.616C199.383 187.973 200.148 187.549 200.964 187.638Z" fill="#395C47"/>
<path d="M198.554 204.89C198.667 206.465 198.81 208.575 198.89 210.078C198.933 210.894 198.384 211.612 197.59 211.806C196.736 212.014 195.867 211.544 195.765 210.671C195.699 210.104 195.676 209.435 195.757 208.725C195.791 208.433 195.845 208.182 195.913 207.967C196.145 207.241 196.555 205.919 196.149 205.274C195.761 204.657 196.179 203.851 196.906 203.812L197.305 203.79C197.952 203.755 198.508 204.243 198.554 204.89Z" fill="#395C47"/>
<path d="M179.484 168.822L230.31 192.055L229.762 198.351L179.301 168.937C179.362 168.898 179.423 168.86 179.484 168.822Z" fill="#CCC9B1"/>
<path d="M214.51 198.401C217.724 197.112 216.061 201.45 214.195 203.72C213.868 204.169 212.787 204.971 211.078 204.582C208.943 204.095 209.146 206.162 207.902 207.676C206.658 209.189 205.572 208.043 204.388 207.324C203.204 206.605 204.081 202.761 204.306 200.791C204.53 198.82 207.295 201.472 210.382 201.727C213.468 201.982 211.296 199.689 214.51 198.401Z" fill="#395C47"/>
<path d="M184.578 176.974C185.567 178.547 190.033 178.667 189.808 180.637L187.785 185.567C187.411 184.583 186.353 182.59 185.118 182.488C183.575 182.361 183.312 182.526 183.47 179.866C183.595 177.738 180.865 175.528 179.484 174.689C179.756 174.152 180.661 173.071 182.106 173.041C183.911 173.003 183.589 175.401 184.578 176.974Z" fill="#395C47"/>
<path d="M186.494 197.238C185.834 196.189 186.157 193.792 185.759 192.578C185.889 192.009 186.438 190.981 187.595 191.424C189.041 191.979 189.67 194.144 189.903 195.095C190.135 196.047 189.91 198.017 188.929 199.366C187.947 200.714 187.153 198.287 186.494 197.238Z" fill="#395C47"/>
</g>
<defs>
<clipPath id="clip0">
<rect width="72" height="72" fill="white" transform="translate(192.672 35.6475) rotate(31.6033)"/>
</clipPath>
<clipPath id="clip1">
<rect width="72" height="72" fill="white" transform="translate(78.9631 258.71) rotate(-122.811)"/>
</clipPath>
<clipPath id="clip2">
<rect width="72" height="72" fill="white" transform="translate(247.319 200.172) rotate(147.846)"/>
</clipPath>
</defs>
</svg>
