<svg width="301" height="301" viewBox="0 0 301 301" fill="none" xmlns="http://www.w3.org/2000/svg">
<path d="M167.567 95.4678C167.567 95.4678 163.753 108.929 163.595 108.924C163.201 108.909 162.724 108.971 162.329 108.956L134.713 51.09C134.713 51.09 165.609 47.3965 178.709 54.5972L170.764 83.7232C169.255 83.9052 167.577 84.3973 166.261 85.7726C163.822 87.5813 163.47 90.7314 164.895 92.8396C165.563 94.0501 166.482 94.8745 167.567 95.4678Z" fill="#FBBE36"/>
<path d="M162.092 108.948L130.325 56.465L134.713 51.0901L162.329 108.957C162.25 108.954 162.171 108.951 162.092 108.948Z" fill="#F2B12E"/>
<path d="M166.902 61.7566C165.443 62.7313 163.071 62.7236 162.184 61.0305C161.584 60.1387 161.712 58.7991 162.768 58.0469C163.671 57.1311 164.856 57.1744 165.727 57.1272C167.067 57.2553 167.971 58.4745 167.846 59.7352C167.823 60.3669 167.557 61.148 166.902 61.7566Z" fill="#DB942C"/>
<path d="M160.693 75.8427C158.1 77.5666 153.906 77.6504 152.36 74.5099C151.309 72.969 151.554 70.6057 153.343 69.2477C154.904 67.6442 156.961 67.6403 158.543 67.6191C160.906 67.8637 162.49 69.9777 162.327 72.2649C162.281 73.5285 161.758 74.8537 160.693 75.8427Z" fill="#DB942C"/>
<g clip-path="url(#clip0)">
<path d="M111.496 140.831C111.496 140.831 121.248 150.865 121.164 150.999C120.954 151.333 120.769 151.777 120.559 152.112L56.6371 147.095C56.6371 147.095 68.8864 118.491 81.6727 110.746L102.924 132.19C102.327 133.588 101.914 135.288 102.447 137.115C102.794 140.131 105.346 142.011 107.885 141.831C109.267 141.858 110.44 141.474 111.496 140.831Z" fill="#FBBE36"/>
<path d="M120.433 152.313L59.0981 153.582L56.6371 147.095L120.559 152.112C120.517 152.179 120.475 152.246 120.433 152.313Z" fill="#F2B12E"/>
<path d="M81.9694 124.551C82.0839 126.302 80.8913 128.352 78.9815 128.274C77.9092 128.348 76.8131 127.567 76.6895 126.277C76.348 125.036 76.9778 124.032 77.3727 123.254C78.1534 122.158 79.6615 121.984 80.6906 122.723C81.2262 123.059 81.7697 123.68 81.9694 124.551Z" fill="#DB942C"/>
<path d="M91.0639 136.971C91.26 140.079 89.2356 143.753 85.7429 143.522C83.8831 143.661 81.9587 142.268 81.6773 140.039C81.0692 137.885 82.0939 136.103 82.8667 134.722C84.2602 132.798 86.8826 132.483 88.7821 133.768C89.8532 134.44 90.7394 135.555 91.0639 136.971Z" fill="#DB942C"/>
</g>
<g clip-path="url(#clip1)">
<path d="M140.882 202.877C140.882 202.877 154.447 199.449 154.521 199.588C154.706 199.937 154.998 200.319 155.183 200.669L118.877 253.518C118.877 253.518 100.23 228.608 99.9162 213.662L129.113 205.98C130.025 207.196 131.29 208.404 133.139 208.855C135.925 210.063 138.829 208.793 139.942 206.504C140.657 205.321 140.911 204.113 140.882 202.877Z" fill="#FBBE36"/>
<path d="M155.294 200.878L125.726 254.631L118.877 253.518L155.183 200.669C155.22 200.738 155.257 200.808 155.294 200.878Z" fill="#F2B12E"/>
<path d="M112.02 220.308C113.593 221.084 114.773 223.142 113.75 224.757C113.278 225.723 112.054 226.282 110.874 225.743C109.63 225.419 109.075 224.372 108.598 223.64C108.039 222.416 108.643 221.023 109.797 220.501C110.356 220.206 111.165 220.045 112.02 220.308Z" fill="#DB942C"/>
<path d="M127.323 218.642C130.113 220.026 132.283 223.616 130.336 226.525C129.527 228.206 127.357 229.176 125.287 228.305C123.118 227.755 122.086 225.976 121.277 224.616C120.307 222.447 121.346 220.019 123.408 219.016C124.525 218.425 125.935 218.215 127.323 218.642Z" fill="#DB942C"/>
</g>
<g clip-path="url(#clip2)">
<path d="M198.693 156.019C198.693 156.019 191.871 143.804 191.986 143.696C192.276 143.427 192.569 143.046 192.859 142.777L253.304 164.168C253.304 164.168 234.069 188.626 219.714 192.798L204.737 166.585C205.675 165.389 206.514 163.854 206.472 161.951C206.917 158.948 204.939 156.471 202.44 155.989C201.112 155.604 199.88 155.671 198.693 156.019Z" fill="#FBBE36"/>
<path d="M193.032 142.616L252.606 157.264L253.304 164.168L192.859 142.777C192.917 142.724 192.975 142.67 193.032 142.616Z" fill="#F2B12E"/>
<path d="M223 179.387C223.343 177.666 225.026 175.994 226.85 176.564C227.905 176.77 228.762 177.808 228.547 179.086C228.556 180.373 227.688 181.18 227.105 181.829C226.067 182.686 224.565 182.463 223.762 181.483C223.332 181.02 222.968 180.28 223 179.387Z" fill="#DB942C"/>
<path d="M217.43 165.036C218.045 161.983 220.952 158.958 224.265 160.086C226.098 160.432 227.596 162.277 227.291 164.502C227.321 166.74 225.87 168.196 224.766 169.33C222.922 170.828 220.307 170.453 218.805 168.721C217.944 167.795 217.377 166.488 217.43 165.036Z" fill="#DB942C"/>
</g>
<defs>
<clipPath id="clip0">
<rect width="68" height="68" fill="white" transform="translate(43.5582 155.838) rotate(-57.9051)"/>
</clipPath>
<clipPath id="clip1">
<rect width="68" height="68" fill="white" transform="translate(119.91 269.217) rotate(-117.905)"/>
</clipPath>
<clipPath id="clip2">
<rect width="68" height="68" fill="white" transform="translate(268.2 159.107) rotate(137.095)"/>
</clipPath>
</defs>
</svg>
