<svg width="301" height="301" viewBox="0 0 301 301" fill="none" xmlns="http://www.w3.org/2000/svg">
<g clip-path="url(#clip0)">
<path d="M219.28 97.8524C219.28 117.87 205.171 137.534 183.037 134.095C163.285 131.008 146.795 117.87 146.795 97.8524C146.795 77.8353 163.549 66.1072 183.037 61.61C205.083 56.5836 219.28 77.9235 219.28 97.8524Z" fill="#ED9898"/>
<path d="M165.137 85.0661C167.815 85.0661 169.987 82.8947 169.987 80.2162C169.987 77.5376 167.815 75.3662 165.137 75.3662C162.458 75.3662 160.287 77.5376 160.287 80.2162C160.287 82.8947 162.458 85.0661 165.137 85.0661Z" fill="#FFC2C2"/>
<path d="M186.741 73.0737C186.741 74.8373 185.33 76.2482 183.566 76.2482C181.803 76.2482 180.392 74.8373 180.392 73.0737C180.392 71.3101 181.803 69.8992 183.566 69.8992C185.33 69.8992 186.741 71.3101 186.741 73.0737Z" fill="#FFC2C2"/>
<path d="M205.347 85.4187C205.347 88.4169 202.878 90.886 199.88 90.886C196.882 90.886 194.413 88.4169 194.413 85.4187C194.413 82.4206 196.882 79.9515 199.88 79.9515C202.878 79.8633 205.347 82.3324 205.347 85.4187Z" fill="#FFC2C2"/>
<path d="M181.009 91.327C182.616 91.327 183.919 90.0242 183.919 88.4171C183.919 86.8099 182.616 85.5071 181.009 85.5071C179.402 85.5071 178.099 86.8099 178.099 88.4171C178.099 90.0242 179.402 91.327 181.009 91.327Z" fill="#FFC2C2"/>
<path d="M168.047 101.468C168.047 104.73 165.401 107.376 162.138 107.376C158.876 107.376 156.23 104.73 156.23 101.468C156.23 98.205 158.876 95.5596 162.138 95.5596C165.401 95.5596 168.047 98.205 168.047 101.468Z" fill="#FFC2C2"/>
<path d="M189.034 106.318C189.034 108.611 187.182 110.462 184.889 110.462C182.596 110.462 180.745 108.611 180.745 106.318C180.745 104.025 182.596 102.173 184.889 102.173C187.182 102.085 189.034 104.025 189.034 106.318Z" fill="#FFC2C2"/>
<path d="M209.492 104.554C209.492 106.935 207.552 108.963 205.083 108.963C202.614 108.963 200.674 107.023 200.674 104.554C200.674 102.173 202.614 100.145 205.083 100.145C207.552 100.145 209.492 102.173 209.492 104.554Z" fill="#FFC2C2"/>
<path d="M197.323 119.809C197.323 121.308 196.088 122.543 194.589 122.543C193.09 122.543 191.855 121.308 191.855 119.809C191.855 118.31 193.09 117.076 194.589 117.076C196.088 116.988 197.323 118.222 197.323 119.809Z" fill="#FFC2C2"/>
<path d="M177.306 120.868C177.306 122.896 175.718 124.483 173.69 124.483C171.662 124.483 170.075 122.896 170.075 120.868C170.075 118.84 171.662 117.252 173.69 117.252C175.718 117.252 177.306 118.928 177.306 120.868Z" fill="#FFC2C2"/>
</g>
<g clip-path="url(#clip1)">
<path d="M117.428 105.855C117.428 121.544 106.369 136.957 89.0213 134.261C73.5396 131.842 60.6151 121.544 60.6151 105.855C60.6151 90.1661 73.7469 80.9738 89.0213 77.4489C106.3 73.5094 117.428 90.2352 117.428 105.855Z" fill="#ED9898"/>
<path d="M74.991 95.8336C77.0904 95.8336 78.7923 94.1317 78.7923 92.0323C78.7923 89.9329 77.0904 88.231 74.991 88.231C72.8916 88.231 71.1897 89.9329 71.1897 92.0323C71.1897 94.1317 72.8916 95.8336 74.991 95.8336Z" fill="#FFC2C2"/>
<path d="M91.9242 86.4339C91.9242 87.8162 90.8183 88.9221 89.436 88.9221C88.0537 88.9221 86.9479 87.8162 86.9479 86.4339C86.9479 85.0516 88.0537 83.9458 89.436 83.9458C90.8183 83.9458 91.9242 85.0516 91.9242 86.4339Z" fill="#FFC2C2"/>
<path d="M106.507 96.1099C106.507 98.4598 104.572 100.395 102.222 100.395C99.8724 100.395 97.9371 98.4598 97.9371 96.1099C97.9371 93.76 99.8724 91.8248 102.222 91.8248C104.572 91.7557 106.507 93.6909 106.507 96.1099Z" fill="#FFC2C2"/>
<path d="M87.4317 100.741C88.6913 100.741 89.7125 99.7196 89.7125 98.46C89.7125 97.2003 88.6913 96.1792 87.4317 96.1792C86.172 96.1792 85.1509 97.2003 85.1509 98.46C85.1509 99.7196 86.172 100.741 87.4317 100.741Z" fill="#FFC2C2"/>
<path d="M77.2718 108.689C77.2718 111.246 75.1983 113.32 72.6411 113.32C70.0838 113.32 68.0104 111.246 68.0104 108.689C68.0104 106.132 70.0838 104.058 72.6411 104.058C75.1983 104.058 77.2718 106.132 77.2718 108.689Z" fill="#FFC2C2"/>
<path d="M93.7212 112.49C93.7212 114.287 92.2698 115.739 90.4728 115.739C88.6758 115.739 87.2244 114.287 87.2244 112.49C87.2244 110.693 88.6758 109.242 90.4728 109.242C92.2698 109.173 93.7212 110.693 93.7212 112.49Z" fill="#FFC2C2"/>
<path d="M109.756 111.108C109.756 112.974 108.235 114.564 106.3 114.564C104.365 114.564 102.844 113.043 102.844 111.108C102.844 109.242 104.365 107.652 106.3 107.652C108.235 107.652 109.756 109.242 109.756 111.108Z" fill="#FFC2C2"/>
<path d="M100.218 123.065C100.218 124.24 99.2504 125.207 98.0754 125.207C96.9005 125.207 95.9329 124.24 95.9329 123.065C95.9329 121.89 96.9005 120.922 98.0754 120.922C99.2504 120.853 100.218 121.821 100.218 123.065Z" fill="#FFC2C2"/>
<path d="M84.5289 123.894C84.5289 125.484 83.2848 126.728 81.6952 126.728C80.1055 126.728 78.8615 125.484 78.8615 123.894C78.8615 122.305 80.1055 121.061 81.6952 121.061C83.2848 121.061 84.5289 122.374 84.5289 123.894Z" fill="#FFC2C2"/>
</g>
<g clip-path="url(#clip2)">
<path d="M117.428 179.656C117.428 195.345 106.369 210.758 89.0213 208.062C73.5396 205.643 60.6151 195.345 60.6151 179.656C60.6151 163.967 73.7469 154.775 89.0213 151.25C106.3 147.31 117.428 164.036 117.428 179.656Z" fill="#ED9898"/>
<path d="M74.991 169.635C77.0904 169.635 78.7923 167.933 78.7923 165.833C78.7923 163.734 77.0904 162.032 74.991 162.032C72.8916 162.032 71.1897 163.734 71.1897 165.833C71.1897 167.933 72.8916 169.635 74.991 169.635Z" fill="#FFC2C2"/>
<path d="M91.9242 160.235C91.9242 161.617 90.8183 162.723 89.436 162.723C88.0537 162.723 86.9479 161.617 86.9479 160.235C86.9479 158.853 88.0537 157.747 89.436 157.747C90.8183 157.747 91.9242 158.853 91.9242 160.235Z" fill="#FFC2C2"/>
<path d="M106.507 169.911C106.507 172.261 104.572 174.196 102.222 174.196C99.8724 174.196 97.9371 172.261 97.9371 169.911C97.9371 167.561 99.8724 165.626 102.222 165.626C104.572 165.557 106.507 167.492 106.507 169.911Z" fill="#FFC2C2"/>
<path d="M87.4317 174.542C88.6913 174.542 89.7125 173.521 89.7125 172.261C89.7125 171.001 88.6913 169.98 87.4317 169.98C86.172 169.98 85.1509 171.001 85.1509 172.261C85.1509 173.521 86.172 174.542 87.4317 174.542Z" fill="#FFC2C2"/>
<path d="M77.2718 182.49C77.2718 185.047 75.1983 187.121 72.6411 187.121C70.0838 187.121 68.0104 185.047 68.0104 182.49C68.0104 179.933 70.0838 177.859 72.6411 177.859C75.1983 177.859 77.2718 179.933 77.2718 182.49Z" fill="#FFC2C2"/>
<path d="M93.7212 186.291C93.7212 188.088 92.2698 189.54 90.4728 189.54C88.6758 189.54 87.2244 188.088 87.2244 186.291C87.2244 184.494 88.6758 183.043 90.4728 183.043C92.2698 182.974 93.7212 184.494 93.7212 186.291Z" fill="#FFC2C2"/>
<path d="M109.756 184.909C109.756 186.775 108.235 188.365 106.3 188.365C104.365 188.365 102.844 186.844 102.844 184.909C102.844 183.043 104.365 181.453 106.3 181.453C108.235 181.453 109.756 183.043 109.756 184.909Z" fill="#FFC2C2"/>
<path d="M100.218 196.866C100.218 198.041 99.2504 199.008 98.0754 199.008C96.9005 199.008 95.9329 198.041 95.9329 196.866C95.9329 195.691 96.9005 194.723 98.0754 194.723C99.2504 194.654 100.218 195.622 100.218 196.866Z" fill="#FFC2C2"/>
<path d="M84.5289 197.695C84.5289 199.285 83.2848 200.529 81.6952 200.529C80.1055 200.529 78.8615 199.285 78.8615 197.695C78.8615 196.106 80.1055 194.862 81.6952 194.862C83.2848 194.862 84.5289 196.175 84.5289 197.695Z" fill="#FFC2C2"/>
</g>
<g clip-path="url(#clip3)">
<path d="M203.428 224.824C203.428 240.513 192.369 255.925 175.021 253.23C159.54 250.811 146.615 240.513 146.615 224.824C146.615 209.135 159.747 199.942 175.021 196.417C192.3 192.478 203.428 209.204 203.428 224.824Z" fill="#ED9898"/>
<path d="M160.991 214.802C163.09 214.802 164.792 213.1 164.792 211.001C164.792 208.901 163.09 207.199 160.991 207.199C158.892 207.199 157.19 208.901 157.19 211.001C157.19 213.1 158.892 214.802 160.991 214.802Z" fill="#FFC2C2"/>
<path d="M177.924 205.402C177.924 206.785 176.818 207.891 175.436 207.891C174.054 207.891 172.948 206.785 172.948 205.402C172.948 204.02 174.054 202.914 175.436 202.914C176.818 202.914 177.924 204.02 177.924 205.402Z" fill="#FFC2C2"/>
<path d="M192.507 215.078C192.507 217.428 190.572 219.364 188.222 219.364C185.872 219.364 183.937 217.428 183.937 215.078C183.937 212.729 185.872 210.793 188.222 210.793C190.572 210.724 192.507 212.659 192.507 215.078Z" fill="#FFC2C2"/>
<path d="M173.432 219.709C174.691 219.709 175.712 218.688 175.712 217.428C175.712 216.169 174.691 215.148 173.432 215.148C172.172 215.148 171.151 216.169 171.151 217.428C171.151 218.688 172.172 219.709 173.432 219.709Z" fill="#FFC2C2"/>
<path d="M163.272 227.657C163.272 230.215 161.198 232.288 158.641 232.288C156.084 232.288 154.01 230.215 154.01 227.657C154.01 225.1 156.084 223.027 158.641 223.027C161.198 223.027 163.272 225.1 163.272 227.657Z" fill="#FFC2C2"/>
<path d="M179.721 231.459C179.721 233.256 178.27 234.707 176.473 234.707C174.676 234.707 173.224 233.256 173.224 231.459C173.224 229.662 174.676 228.21 176.473 228.21C178.27 228.141 179.721 229.662 179.721 231.459Z" fill="#FFC2C2"/>
<path d="M195.756 230.076C195.756 231.942 194.235 233.532 192.3 233.532C190.365 233.532 188.844 232.012 188.844 230.076C188.844 228.21 190.365 226.621 192.3 226.621C194.235 226.621 195.756 228.21 195.756 230.076Z" fill="#FFC2C2"/>
<path d="M186.218 242.033C186.218 243.208 185.25 244.176 184.075 244.176C182.9 244.176 181.933 243.208 181.933 242.033C181.933 240.858 182.9 239.891 184.075 239.891C185.25 239.822 186.218 240.789 186.218 242.033Z" fill="#FFC2C2"/>
<path d="M170.529 242.863C170.529 244.452 169.285 245.696 167.695 245.696C166.106 245.696 164.861 244.452 164.861 242.863C164.861 241.273 166.106 240.029 167.695 240.029C169.285 240.029 170.529 241.342 170.529 242.863Z" fill="#FFC2C2"/>
</g>
<g clip-path="url(#clip4)">
<path d="M240.428 166.824C240.428 182.513 229.369 197.925 212.021 195.23C196.54 192.811 183.615 182.513 183.615 166.824C183.615 151.135 196.747 141.942 212.021 138.417C229.3 134.478 240.428 151.204 240.428 166.824Z" fill="#ED9898"/>
<path d="M197.991 156.802C200.09 156.802 201.792 155.1 201.792 153.001C201.792 150.901 200.09 149.199 197.991 149.199C195.892 149.199 194.19 150.901 194.19 153.001C194.19 155.1 195.892 156.802 197.991 156.802Z" fill="#FFC2C2"/>
<path d="M214.924 147.402C214.924 148.785 213.818 149.891 212.436 149.891C211.054 149.891 209.948 148.785 209.948 147.402C209.948 146.02 211.054 144.914 212.436 144.914C213.818 144.914 214.924 146.02 214.924 147.402Z" fill="#FFC2C2"/>
<path d="M229.507 157.078C229.507 159.428 227.572 161.364 225.222 161.364C222.872 161.364 220.937 159.428 220.937 157.078C220.937 154.729 222.872 152.793 225.222 152.793C227.572 152.724 229.507 154.659 229.507 157.078Z" fill="#FFC2C2"/>
<path d="M210.432 161.709C211.691 161.709 212.712 160.688 212.712 159.428C212.712 158.169 211.691 157.148 210.432 157.148C209.172 157.148 208.151 158.169 208.151 159.428C208.151 160.688 209.172 161.709 210.432 161.709Z" fill="#FFC2C2"/>
<path d="M200.272 169.657C200.272 172.215 198.198 174.288 195.641 174.288C193.084 174.288 191.01 172.215 191.01 169.657C191.01 167.1 193.084 165.027 195.641 165.027C198.198 165.027 200.272 167.1 200.272 169.657Z" fill="#FFC2C2"/>
<path d="M216.721 173.459C216.721 175.256 215.27 176.707 213.473 176.707C211.676 176.707 210.224 175.256 210.224 173.459C210.224 171.662 211.676 170.21 213.473 170.21C215.27 170.141 216.721 171.662 216.721 173.459Z" fill="#FFC2C2"/>
<path d="M232.756 172.076C232.756 173.942 231.235 175.532 229.3 175.532C227.365 175.532 225.844 174.012 225.844 172.076C225.844 170.21 227.365 168.621 229.3 168.621C231.235 168.621 232.756 170.21 232.756 172.076Z" fill="#FFC2C2"/>
<path d="M223.218 184.033C223.218 185.208 222.25 186.176 221.075 186.176C219.9 186.176 218.933 185.208 218.933 184.033C218.933 182.858 219.9 181.891 221.075 181.891C222.25 181.822 223.218 182.789 223.218 184.033Z" fill="#FFC2C2"/>
<path d="M207.529 184.863C207.529 186.452 206.285 187.696 204.695 187.696C203.106 187.696 201.861 186.452 201.861 184.863C201.861 183.273 203.106 182.029 204.695 182.029C206.285 182.029 207.529 183.342 207.529 184.863Z" fill="#FFC2C2"/>
</g>
<defs>
<clipPath id="clip0">
<rect width="74" height="74" fill="white" transform="translate(145.963 60.8652)"/>
</clipPath>
<clipPath id="clip1">
<rect width="58" height="58" fill="white" transform="translate(59.9634 76.8652)"/>
</clipPath>
<clipPath id="clip2">
<rect width="58" height="58" fill="white" transform="translate(59.9634 150.666)"/>
</clipPath>
<clipPath id="clip3">
<rect width="58" height="58" fill="white" transform="translate(145.963 195.834)"/>
</clipPath>
<clipPath id="clip4">
<rect width="58" height="58" fill="white" transform="translate(182.963 137.834)"/>
</clipPath>
</defs>
</svg>
