<svg width="301" height="300" viewBox="0 0 301 300" fill="none" xmlns="http://www.w3.org/2000/svg">
<path d="M128.86 149.14C128.86 149.109 128.86 149.079 128.86 149.033C128.86 148.956 128.86 148.895 128.875 148.818C128.875 148.772 128.875 148.742 128.89 148.696C128.89 148.634 128.906 148.573 128.906 148.496C128.906 148.45 128.921 148.404 128.921 148.374C128.936 148.312 128.936 148.251 128.952 148.19C128.952 148.144 128.967 148.098 128.967 148.052C128.982 147.99 128.982 147.929 128.998 147.868C129.013 147.822 129.013 147.776 129.028 147.73C129.044 147.669 129.059 147.607 129.059 147.546C129.074 147.5 129.074 147.454 129.09 147.408C129.105 147.347 129.12 147.285 129.136 147.224C129.151 147.178 129.166 147.132 129.166 147.086C129.182 147.025 129.197 146.963 129.212 146.902C129.228 146.856 129.243 146.81 129.258 146.78C129.274 146.718 129.304 146.657 129.32 146.596C129.335 146.55 129.35 146.519 129.366 146.473C129.381 146.412 129.412 146.35 129.442 146.274C129.458 146.228 129.473 146.197 129.488 146.151C129.519 146.09 129.534 146.013 129.565 145.952C129.58 145.921 129.595 145.875 129.611 145.844C129.641 145.783 129.672 145.707 129.703 145.645C129.718 145.615 129.733 145.584 129.749 145.553C129.779 145.477 129.81 145.415 129.856 145.339C129.871 145.308 129.887 145.277 129.902 145.247C129.948 145.17 129.979 145.093 130.025 145.017C130.04 145.001 130.055 144.971 130.055 144.955C130.101 144.863 130.147 144.787 130.209 144.695C130.209 144.68 130.224 144.68 130.224 144.664C130.285 144.557 130.347 144.465 130.408 144.373C130.883 143.484 130.791 143.699 131.542 142.871C132.186 142.135 132.952 141.476 133.811 140.894C133.918 140.832 134.025 140.756 134.117 140.694C137.214 138.748 141.168 137.767 144.172 137.767C149.737 137.767 155.147 143.285 156.251 148.91C156.404 149.554 156.542 150.749 156.435 151.608C156.42 151.761 156.404 151.93 156.374 152.114C156.282 152.696 156.128 153.263 155.898 153.815C155.822 154.03 155.73 154.214 155.653 154.367C155.653 154.382 155.638 154.382 155.638 154.398C155.423 154.827 155.178 155.241 154.902 155.639C154.274 156.574 153.553 157.31 152.496 158.138C152.25 158.322 152.005 158.521 151.745 158.689C151.683 158.735 151.622 158.766 151.561 158.812C151.453 158.889 151.346 158.95 151.239 159.027C151.147 159.088 151.055 159.134 150.963 159.195C150.856 159.257 150.748 159.318 150.641 159.379C150.564 159.425 150.472 159.471 150.396 159.517C150.273 159.578 150.15 159.655 150.028 159.716C149.966 159.747 149.89 159.793 149.829 159.824C149.691 159.9 149.537 159.962 149.399 160.038C149.353 160.054 149.307 160.084 149.261 160.1C149.093 160.176 148.909 160.268 148.725 160.345C148.71 160.345 148.694 160.36 148.679 160.36C146.794 161.157 144.786 161.648 142.9 161.74H142.885C142.67 161.755 142.471 161.755 142.256 161.755C139.344 161.755 135.834 160.682 133.336 158.643C130.485 156.314 128.829 152.803 128.829 149.462C128.86 149.355 128.86 149.247 128.86 149.14Z" fill="#AFAFAF"/>
<path d="M128.86 149.155C128.86 152.497 130.5 156.007 133.366 158.337C135.865 160.375 139.375 161.448 142.287 161.448C148.541 161.448 156.466 156.911 156.466 150.657C156.466 144.419 150.426 137.46 144.172 137.46C141.168 137.46 137.214 138.441 134.117 140.372C130.776 142.457 128.86 145.906 128.86 149.155Z" fill="#FCFAF7"/>
<path d="M131.787 142.288C132.538 141.568 133.06 141.093 133.795 140.587C133.427 141.599 133.29 142.288 133.29 143.315C133.29 146.657 133.933 148.91 136.784 151.255C139.283 153.294 142.793 154.367 145.705 154.367C150.38 154.367 153.707 152.497 156.251 148.619C156.45 149.462 156.634 151.286 156.251 152.022C155.347 153.723 155.408 153.462 153.722 154.735C150.932 156.865 147.085 158.153 143.789 158.153C140.877 158.153 137.351 157.08 134.868 155.041C132.017 152.711 130.362 149.201 130.362 145.86C130.362 144.112 130.791 143.882 131.787 142.288Z" fill="#F7F6F2"/>
<path d="M130.393 144.067C130.883 143.178 130.776 143.392 131.527 142.564C131.159 143.576 130.791 144.358 130.791 145.385C130.791 148.726 132.431 152.236 135.298 154.566C137.796 156.605 141.306 157.678 144.218 157.678C148.894 157.678 153.921 154.934 156.466 151.041C156.466 151.853 156.052 153.309 155.669 154.061C154.764 155.762 153.906 156.774 152.235 158.046C149.445 160.176 145.598 161.464 142.302 161.464C139.39 161.464 135.88 160.391 133.381 158.352C130.53 156.023 128.875 152.512 128.875 149.171C128.86 147.439 129.396 145.661 130.393 144.067Z" fill="#F0EFEB"/>
<path d="M175.223 59.5841C175.223 59.5535 175.223 59.5228 175.223 59.4768C175.223 59.4002 175.223 59.3389 175.238 59.2622C175.238 59.2162 175.238 59.1856 175.254 59.1396C175.254 59.0783 175.269 59.017 175.269 58.9403C175.269 58.8944 175.284 58.8484 175.284 58.8177C175.3 58.7564 175.3 58.6951 175.315 58.6338C175.315 58.5878 175.33 58.5418 175.33 58.4958C175.346 58.4345 175.346 58.3732 175.361 58.3119C175.376 58.2659 175.376 58.2199 175.392 58.1739C175.407 58.1126 175.422 58.0513 175.422 57.99C175.438 57.944 175.438 57.898 175.453 57.8521C175.468 57.7907 175.484 57.7294 175.499 57.6681C175.514 57.6221 175.53 57.5761 175.53 57.5302C175.545 57.4688 175.56 57.4075 175.576 57.3462C175.591 57.3002 175.606 57.2543 175.622 57.2236C175.637 57.1623 175.668 57.101 175.683 57.0397C175.698 56.9937 175.714 56.963 175.729 56.917C175.744 56.8557 175.775 56.7944 175.805 56.7178C175.821 56.6718 175.836 56.6411 175.851 56.5951C175.882 56.5338 175.897 56.4572 175.928 56.3959C175.943 56.3652 175.959 56.3192 175.974 56.2886C176.005 56.2273 176.035 56.1506 176.066 56.0893C176.081 56.0587 176.097 56.028 176.112 55.9974C176.143 55.9207 176.173 55.8594 176.219 55.7828C176.235 55.7521 176.25 55.7214 176.265 55.6908C176.311 55.6142 176.342 55.5375 176.388 55.4609C176.403 55.4455 176.419 55.4149 176.419 55.3996C176.465 55.3076 176.511 55.231 176.572 55.139C176.572 55.1237 176.587 55.1237 176.587 55.1083C176.649 55.001 176.71 54.9091 176.771 54.8171C177.246 53.9281 177.154 54.1427 177.905 53.3149C178.549 52.5792 179.316 51.9201 180.174 51.3376C180.281 51.2763 180.389 51.1997 180.481 51.1384C183.577 49.1917 187.531 48.2107 190.536 48.2107C196.1 48.2107 201.511 53.7288 202.614 59.3542C202.768 59.998 202.906 61.1936 202.798 62.0519C202.783 62.2052 202.768 62.3738 202.737 62.5578C202.645 63.1402 202.492 63.7074 202.262 64.2592C202.185 64.4738 202.093 64.6577 202.016 64.811C202.016 64.8263 202.001 64.8263 202.001 64.8417C201.787 65.2708 201.541 65.6847 201.265 66.0832C200.637 67.0182 199.917 67.754 198.859 68.5817C198.614 68.7656 198.368 68.9649 198.108 69.1335C198.047 69.1795 197.985 69.2102 197.924 69.2561C197.817 69.3328 197.709 69.3941 197.602 69.4707C197.51 69.532 197.418 69.578 197.326 69.6393C197.219 69.7007 197.112 69.762 197.004 69.8233C196.928 69.8693 196.836 69.9152 196.759 69.9612C196.636 70.0225 196.514 70.0992 196.391 70.1605C196.33 70.1912 196.253 70.2371 196.192 70.2678C196.054 70.3444 195.901 70.4057 195.763 70.4824C195.717 70.4977 195.671 70.5284 195.625 70.5437C195.456 70.6203 195.272 70.7123 195.088 70.7889C195.073 70.7889 195.058 70.8043 195.042 70.8043C193.157 71.6013 191.149 72.0918 189.264 72.1838H189.248C189.034 72.1991 188.834 72.1991 188.62 72.1991C185.707 72.1991 182.197 71.1262 179.699 69.0875C176.848 66.7577 175.192 63.2475 175.192 59.906C175.223 59.7987 175.223 59.6914 175.223 59.5841Z" fill="#AFAFAF"/>
<path d="M175.223 59.5994C175.223 62.9409 176.863 66.451 179.729 68.7809C182.228 70.8195 185.738 71.8925 188.65 71.8925C194.904 71.8925 202.829 67.3554 202.829 61.1015C202.829 54.863 196.79 47.9041 190.536 47.9041C187.531 47.9041 183.577 48.885 180.481 50.8164C177.139 52.901 175.223 56.3498 175.223 59.5994Z" fill="#FCFAF7"/>
<path d="M178.151 52.7324C178.902 52.012 179.423 51.5368 180.159 51.031C179.791 52.0427 179.653 52.7324 179.653 53.7594C179.653 57.1009 180.297 59.3542 183.148 61.6993C185.646 63.738 189.156 64.8109 192.069 64.8109C196.744 64.8109 200.07 62.9409 202.614 59.0629C202.814 59.906 202.997 61.73 202.614 62.4658C201.71 64.1672 201.771 63.9066 200.085 65.1788C197.295 67.3094 193.448 68.597 190.153 68.597C187.24 68.597 183.715 67.524 181.232 65.4854C178.381 63.1555 176.725 59.6454 176.725 56.3039C176.725 54.5565 177.154 54.3265 178.151 52.7324Z" fill="#F7F6F2"/>
<path d="M176.756 54.5107C177.246 53.6217 177.139 53.8363 177.89 53.0085C177.522 54.0202 177.154 54.8019 177.154 55.8289C177.154 59.1704 178.794 62.6806 181.661 65.0104C184.159 67.0491 187.669 68.122 190.582 68.122C195.257 68.122 200.284 65.3783 202.829 61.485C202.829 62.2974 202.415 63.7535 202.032 64.5046C201.127 66.206 200.269 67.2177 198.598 68.4899C195.809 70.6205 191.961 71.9081 188.666 71.9081C185.753 71.9081 182.243 70.8351 179.745 68.7965C176.894 66.4666 175.238 62.9565 175.238 59.6149C175.223 57.8829 175.759 56.1048 176.756 54.5107Z" fill="#F0EFEB"/>
<path d="M54.9156 155.66C54.9156 155.629 54.9156 155.598 54.9156 155.552C54.9156 155.476 54.9156 155.414 54.931 155.338C54.931 155.292 54.931 155.261 54.9463 155.215C54.9463 155.154 54.9616 155.092 54.9616 155.016C54.9616 154.97 54.9769 154.924 54.9769 154.893C54.9923 154.832 54.9923 154.771 55.0076 154.709C55.0076 154.663 55.0229 154.617 55.0229 154.571C55.0383 154.51 55.0383 154.449 55.0536 154.387C55.0689 154.341 55.0689 154.295 55.0842 154.249C55.0996 154.188 55.1149 154.127 55.1149 154.065C55.1302 154.019 55.1302 153.973 55.1456 153.927C55.1609 153.866 55.1762 153.805 55.1915 153.744C55.2069 153.698 55.2222 153.652 55.2222 153.606C55.2375 153.544 55.2529 153.483 55.2682 153.422C55.2835 153.376 55.2988 153.33 55.3142 153.299C55.3295 153.238 55.3601 153.176 55.3755 153.115C55.3908 153.069 55.4061 153.038 55.4215 152.992C55.4368 152.931 55.4674 152.87 55.4981 152.793C55.5134 152.747 55.5288 152.717 55.5441 152.671C55.5747 152.609 55.5901 152.533 55.6207 152.471C55.6361 152.441 55.6514 152.395 55.6667 152.364C55.6974 152.303 55.728 152.226 55.7587 152.165C55.774 152.134 55.7893 152.103 55.8047 152.073C55.8353 151.996 55.866 151.935 55.912 151.858C55.9273 151.828 55.9426 151.797 55.9579 151.766C56.0039 151.69 56.0346 151.613 56.0806 151.536C56.0959 151.521 56.1112 151.49 56.1112 151.475C56.1572 151.383 56.2032 151.306 56.2645 151.214C56.2645 151.199 56.2798 151.199 56.2798 151.184C56.3411 151.076 56.4025 150.985 56.4638 150.893C56.9389 150.004 56.847 150.218 57.598 149.39C58.2418 148.655 59.0082 147.996 59.8666 147.413C59.9739 147.352 60.0812 147.275 60.1732 147.214C63.2694 145.267 67.2241 144.286 70.2284 144.286C75.7925 144.286 81.2033 149.804 82.3069 155.43C82.4602 156.073 82.5981 157.269 82.4908 158.127C82.4755 158.281 82.4602 158.449 82.4295 158.633C82.3376 159.216 82.1843 159.783 81.9544 160.335C81.8777 160.549 81.7858 160.733 81.7091 160.886C81.7091 160.902 81.6938 160.902 81.6938 160.917C81.4792 161.346 81.2339 161.76 80.958 162.159C80.3296 163.094 79.6092 163.829 78.5515 164.657C78.3063 164.841 78.061 165.04 77.8005 165.209C77.7391 165.255 77.6778 165.286 77.6165 165.332C77.5092 165.408 77.4019 165.47 77.2946 165.546C77.2027 165.607 77.1107 165.653 77.0187 165.715C76.9114 165.776 76.8041 165.837 76.6968 165.899C76.6202 165.945 76.5282 165.991 76.4516 166.037C76.329 166.098 76.2063 166.175 76.0837 166.236C76.0224 166.267 75.9458 166.313 75.8844 166.343C75.7465 166.42 75.5932 166.481 75.4553 166.558C75.4093 166.573 75.3633 166.604 75.3173 166.619C75.1487 166.696 74.9648 166.788 74.7808 166.864C74.7655 166.864 74.7502 166.88 74.7348 166.88C72.8495 167.677 70.8415 168.167 68.9562 168.259H68.9408C68.7262 168.275 68.527 168.275 68.3124 168.275C65.4 168.275 61.8899 167.202 59.3914 165.163C56.5404 162.833 54.885 159.323 54.885 155.981C54.9156 155.874 54.9156 155.767 54.9156 155.66Z" fill="#AFAFAF"/>
<path d="M54.9156 155.675C54.9156 159.016 56.5557 162.526 59.4221 164.856C61.9206 166.895 65.4307 167.968 68.343 167.968C74.5969 167.968 82.5215 163.431 82.5215 157.177C82.5215 150.938 76.4822 143.979 70.2284 143.979C67.2241 143.979 63.2694 144.96 60.1732 146.892C56.8316 148.976 54.9156 152.425 54.9156 155.675Z" fill="#FCFAF7"/>
<path d="M57.8433 148.808C58.5944 148.087 59.1155 147.612 59.8513 147.106C59.4834 148.118 59.3454 148.808 59.3454 149.835C59.3454 153.176 59.9892 155.43 62.8402 157.775C65.3387 159.813 68.8488 160.886 71.7612 160.886C76.4362 160.886 79.7624 159.016 82.3069 155.138C82.5062 155.981 82.6901 157.805 82.3069 158.541C81.4025 160.243 81.4638 159.982 79.7778 161.254C76.988 163.385 73.1407 164.672 69.8452 164.672C66.9328 164.672 63.4074 163.599 60.9242 161.561C58.0732 159.231 56.4178 155.721 56.4178 152.379C56.4178 150.632 56.847 150.402 57.8433 148.808Z" fill="#F7F6F2"/>
<path d="M56.4484 150.586C56.9389 149.697 56.8316 149.912 57.5827 149.084C57.2148 150.096 56.847 150.877 56.847 151.904C56.847 155.246 58.4871 158.756 61.3534 161.086C63.8519 163.125 67.362 164.197 70.2744 164.197C74.9494 164.197 79.977 161.454 82.5215 157.56C82.5215 158.373 82.1076 159.829 81.7244 160.58C80.8201 162.281 79.9617 163.293 78.2909 164.565C75.5012 166.696 71.6539 167.984 68.3583 167.984C65.446 167.984 61.9359 166.911 59.4374 164.872C56.5864 162.542 54.931 159.032 54.931 155.69C54.9156 153.958 55.4521 152.18 56.4484 150.586Z" fill="#F0EFEB"/>
<path d="M113.298 237.54C113.298 237.509 113.298 237.479 113.298 237.433C113.298 237.356 113.298 237.295 113.313 237.218C113.313 237.172 113.313 237.141 113.329 237.095C113.329 237.034 113.344 236.973 113.344 236.896C113.344 236.85 113.359 236.804 113.359 236.774C113.375 236.712 113.375 236.651 113.39 236.59C113.39 236.544 113.405 236.498 113.405 236.452C113.421 236.39 113.421 236.329 113.436 236.268C113.451 236.222 113.451 236.176 113.467 236.13C113.482 236.068 113.497 236.007 113.497 235.946C113.513 235.9 113.513 235.854 113.528 235.808C113.543 235.747 113.559 235.685 113.574 235.624C113.589 235.578 113.605 235.532 113.605 235.486C113.62 235.425 113.635 235.363 113.651 235.302C113.666 235.256 113.681 235.21 113.697 235.179C113.712 235.118 113.743 235.057 113.758 234.995C113.773 234.949 113.789 234.919 113.804 234.873C113.819 234.812 113.85 234.75 113.881 234.674C113.896 234.628 113.911 234.597 113.927 234.551C113.957 234.49 113.973 234.413 114.003 234.352C114.018 234.321 114.034 234.275 114.049 234.244C114.08 234.183 114.11 234.106 114.141 234.045C114.156 234.014 114.172 233.984 114.187 233.953C114.218 233.877 114.248 233.815 114.294 233.739C114.31 233.708 114.325 233.677 114.34 233.647C114.386 233.57 114.417 233.493 114.463 233.417C114.478 233.401 114.494 233.371 114.494 233.355C114.54 233.263 114.586 233.187 114.647 233.095C114.647 233.079 114.662 233.079 114.662 233.064C114.724 232.957 114.785 232.865 114.846 232.773C115.321 231.884 115.229 232.098 115.98 231.271C116.624 230.535 117.391 229.876 118.249 229.293C118.356 229.232 118.464 229.155 118.556 229.094C121.652 227.148 125.607 226.167 128.611 226.167C134.175 226.167 139.586 231.685 140.689 237.31C140.843 237.954 140.981 239.149 140.873 240.008C140.858 240.161 140.843 240.33 140.812 240.514C140.72 241.096 140.567 241.663 140.337 242.215C140.26 242.43 140.168 242.614 140.092 242.767C140.092 242.782 140.076 242.782 140.076 242.797C139.862 243.227 139.616 243.641 139.34 244.039C138.712 244.974 137.992 245.71 136.934 246.538C136.689 246.721 136.443 246.921 136.183 247.089C136.122 247.135 136.06 247.166 135.999 247.212C135.892 247.289 135.784 247.35 135.677 247.427C135.585 247.488 135.493 247.534 135.401 247.595C135.294 247.656 135.187 247.718 135.079 247.779C135.003 247.825 134.911 247.871 134.834 247.917C134.711 247.978 134.589 248.055 134.466 248.116C134.405 248.147 134.328 248.193 134.267 248.224C134.129 248.3 133.976 248.362 133.838 248.438C133.792 248.454 133.746 248.484 133.7 248.5C133.531 248.576 133.347 248.668 133.163 248.745C133.148 248.745 133.133 248.76 133.117 248.76C131.232 249.557 129.224 250.048 127.339 250.14H127.323C127.109 250.155 126.909 250.155 126.695 250.155C123.782 250.155 120.272 249.082 117.774 247.043C114.923 244.713 113.267 241.203 113.267 237.862C113.298 237.755 113.298 237.647 113.298 237.54Z" fill="#AFAFAF"/>
<path d="M113.298 237.555C113.298 240.897 114.938 244.407 117.805 246.737C120.303 248.775 123.813 249.848 126.725 249.848C132.979 249.848 140.904 245.311 140.904 239.057C140.904 232.819 134.865 225.86 128.611 225.86C125.607 225.86 121.652 226.841 118.556 228.772C115.214 230.857 113.298 234.306 113.298 237.555Z" fill="#FCFAF7"/>
<path d="M116.226 230.688C116.977 229.968 117.498 229.493 118.234 228.987C117.866 229.998 117.728 230.688 117.728 231.715C117.728 235.057 118.372 237.31 121.223 239.655C123.721 241.694 127.231 242.767 130.144 242.767C134.819 242.767 138.145 240.897 140.689 237.019C140.889 237.862 141.073 239.686 140.689 240.422C139.785 242.123 139.846 241.862 138.16 243.135C135.37 245.265 131.523 246.553 128.228 246.553C125.315 246.553 121.79 245.48 119.307 243.441C116.456 241.111 114.8 237.601 114.8 234.26C114.8 232.512 115.229 232.282 116.226 230.688Z" fill="#F7F6F2"/>
<path d="M114.831 232.467C115.321 231.577 115.214 231.792 115.965 230.964C115.597 231.976 115.229 232.758 115.229 233.785C115.229 237.126 116.87 240.636 119.736 242.966C122.234 245.005 125.744 246.078 128.657 246.078C133.332 246.078 138.359 243.334 140.904 239.441C140.904 240.253 140.49 241.709 140.107 242.46C139.203 244.162 138.344 245.173 136.673 246.446C133.884 248.576 130.036 249.864 126.741 249.864C123.828 249.864 120.318 248.791 117.82 246.752C114.969 244.422 113.313 240.912 113.313 237.571C113.298 235.839 113.835 234.061 114.831 232.467Z" fill="#F0EFEB"/>
<path d="M223.986 177.859C223.986 177.829 223.986 177.798 223.986 177.752C223.986 177.675 223.986 177.614 224.002 177.537C224.002 177.491 224.002 177.461 224.017 177.415C224.017 177.353 224.032 177.292 224.032 177.215C224.032 177.17 224.048 177.124 224.048 177.093C224.063 177.032 224.063 176.97 224.078 176.909C224.078 176.863 224.094 176.817 224.094 176.771C224.109 176.71 224.109 176.648 224.124 176.587C224.14 176.541 224.14 176.495 224.155 176.449C224.17 176.388 224.186 176.326 224.186 176.265C224.201 176.219 224.201 176.173 224.216 176.127C224.232 176.066 224.247 176.005 224.262 175.943C224.278 175.897 224.293 175.851 224.293 175.805C224.308 175.744 224.324 175.683 224.339 175.621C224.354 175.575 224.37 175.529 224.385 175.499C224.4 175.437 224.431 175.376 224.446 175.315C224.462 175.269 224.477 175.238 224.492 175.192C224.508 175.131 224.538 175.07 224.569 174.993C224.584 174.947 224.6 174.916 224.615 174.87C224.646 174.809 224.661 174.732 224.692 174.671C224.707 174.64 224.722 174.594 224.738 174.564C224.768 174.502 224.799 174.426 224.829 174.364C224.845 174.334 224.86 174.303 224.875 174.273C224.906 174.196 224.937 174.135 224.983 174.058C224.998 174.027 225.013 173.997 225.029 173.966C225.075 173.889 225.105 173.813 225.151 173.736C225.167 173.721 225.182 173.69 225.182 173.675C225.228 173.583 225.274 173.506 225.335 173.414C225.335 173.399 225.351 173.399 225.351 173.383C225.412 173.276 225.473 173.184 225.535 173.092C226.01 172.203 225.918 172.418 226.669 171.59C227.313 170.854 228.079 170.195 228.937 169.613C229.045 169.551 229.152 169.475 229.244 169.414C232.34 167.467 236.295 166.486 239.299 166.486C244.863 166.486 250.274 172.004 251.378 177.629C251.531 178.273 251.669 179.469 251.562 180.327C251.546 180.48 251.531 180.649 251.5 180.833C251.408 181.415 251.255 181.983 251.025 182.534C250.949 182.749 250.857 182.933 250.78 183.086C250.78 183.101 250.765 183.101 250.765 183.117C250.55 183.546 250.305 183.96 250.029 184.358C249.4 185.293 248.68 186.029 247.622 186.857C247.377 187.041 247.132 187.24 246.871 187.409C246.81 187.455 246.749 187.485 246.687 187.531C246.58 187.608 246.473 187.669 246.365 187.746C246.273 187.807 246.181 187.853 246.09 187.914C245.982 187.976 245.875 188.037 245.768 188.098C245.691 188.144 245.599 188.19 245.522 188.236C245.4 188.298 245.277 188.374 245.155 188.436C245.093 188.466 245.017 188.512 244.955 188.543C244.817 188.62 244.664 188.681 244.526 188.758C244.48 188.773 244.434 188.804 244.388 188.819C244.219 188.895 244.036 188.987 243.852 189.064C243.836 189.064 243.821 189.079 243.806 189.079C241.92 189.876 239.912 190.367 238.027 190.459H238.012C237.797 190.474 237.598 190.474 237.383 190.474C234.471 190.474 230.961 189.401 228.462 187.363C225.611 185.033 223.956 181.523 223.956 178.181C223.986 178.074 223.986 177.967 223.986 177.859Z" fill="#AFAFAF"/>
<path d="M223.986 177.875C223.986 181.216 225.627 184.726 228.493 187.056C230.991 189.095 234.501 190.168 237.414 190.168C243.668 190.168 251.592 185.631 251.592 179.377C251.592 173.138 245.553 166.179 239.299 166.179C236.295 166.179 232.34 167.16 229.244 169.092C225.902 171.176 223.986 174.625 223.986 177.875Z" fill="#FCFAF7"/>
<path d="M226.914 171.008C227.665 170.287 228.186 169.812 228.922 169.306C228.554 170.318 228.416 171.008 228.416 172.035C228.416 175.376 229.06 177.629 231.911 179.974C234.41 182.013 237.92 183.086 240.832 183.086C245.507 183.086 248.833 181.216 251.378 177.338C251.577 178.181 251.761 180.005 251.378 180.741C250.473 182.442 250.535 182.182 248.849 183.454C246.059 185.585 242.212 186.872 238.916 186.872C236.004 186.872 232.478 185.799 229.995 183.761C227.144 181.431 225.489 177.921 225.489 174.579C225.489 172.832 225.918 172.602 226.914 171.008Z" fill="#F7F6F2"/>
<path d="M225.519 172.786C226.01 171.897 225.902 172.111 226.654 171.284C226.286 172.295 225.918 173.077 225.918 174.104C225.918 177.446 227.558 180.956 230.424 183.286C232.923 185.324 236.433 186.397 239.345 186.397C244.02 186.397 249.048 183.653 251.592 179.76C251.592 180.573 251.178 182.029 250.795 182.78C249.891 184.481 249.032 185.493 247.362 186.765C244.572 188.896 240.725 190.183 237.429 190.183C234.517 190.183 231.007 189.11 228.508 187.072C225.657 184.742 224.002 181.232 224.002 177.89C223.986 176.158 224.523 174.38 225.519 172.786Z" fill="#F0EFEB"/>
<path d="M88.0231 62.0983C88.0231 62.0676 88.0231 62.037 88.0231 61.991C88.0231 61.9143 88.0231 61.853 88.0384 61.7764C88.0384 61.7304 88.0384 61.6998 88.0537 61.6538C88.0537 61.5925 88.069 61.5311 88.069 61.4545C88.069 61.4085 88.0844 61.3625 88.0844 61.3319C88.0997 61.2706 88.0997 61.2093 88.115 61.1479C88.115 61.102 88.1304 61.056 88.1304 61.01C88.1457 60.9487 88.1457 60.8874 88.161 60.8261C88.1763 60.7801 88.1763 60.7341 88.1917 60.6881C88.207 60.6268 88.2223 60.5655 88.2223 60.5042C88.2376 60.4582 88.2376 60.4122 88.253 60.3662C88.2683 60.3049 88.2836 60.2436 88.299 60.1823C88.3143 60.1363 88.3296 60.0903 88.3296 60.0443C88.3449 59.983 88.3603 59.9217 88.3756 59.8604C88.3909 59.8144 88.4063 59.7684 88.4216 59.7378C88.4369 59.6764 88.4676 59.6151 88.4829 59.5538C88.4982 59.5078 88.5136 59.4772 88.5289 59.4312C88.5442 59.3699 88.5749 59.3086 88.6055 59.2319C88.6209 59.186 88.6362 59.1553 88.6515 59.1093C88.6822 59.048 88.6975 58.9714 88.7281 58.91C88.7435 58.8794 88.7588 58.8334 88.7741 58.8027C88.8048 58.7414 88.8354 58.6648 88.8661 58.6035C88.8814 58.5728 88.8968 58.5422 88.9121 58.5115C88.9427 58.4349 88.9734 58.3736 89.0194 58.2969C89.0347 58.2663 89.05 58.2356 89.0654 58.205C89.1114 58.1283 89.142 58.0517 89.188 57.975C89.2033 57.9597 89.2186 57.929 89.2186 57.9137C89.2646 57.8218 89.3106 57.7451 89.3719 57.6531C89.3719 57.6378 89.3873 57.6378 89.3873 57.6225C89.4486 57.5152 89.5099 57.4232 89.5712 57.3313C90.0464 56.4422 89.9544 56.6568 90.7055 55.8291C91.3493 55.0934 92.1157 54.4342 92.974 53.8518C93.0813 53.7905 93.1886 53.7138 93.2806 53.6525C96.3769 51.7059 100.332 50.7249 103.336 50.7249C108.9 50.7249 114.311 56.243 115.414 61.8684C115.568 62.5121 115.706 63.7077 115.598 64.5661C115.583 64.7194 115.568 64.888 115.537 65.0719C115.445 65.6544 115.292 66.2215 115.062 66.7733C114.985 66.9879 114.893 67.1719 114.817 67.3252C114.817 67.3405 114.801 67.3405 114.801 67.3558C114.587 67.785 114.341 68.1989 114.065 68.5974C113.437 69.5324 112.717 70.2681 111.659 71.0959C111.414 71.2798 111.168 71.4791 110.908 71.6477C110.847 71.6937 110.785 71.7243 110.724 71.7703C110.617 71.8469 110.509 71.9083 110.402 71.9849C110.31 72.0462 110.218 72.0922 110.126 72.1535C110.019 72.2148 109.912 72.2761 109.804 72.3374C109.728 72.3834 109.636 72.4294 109.559 72.4754C109.436 72.5367 109.314 72.6133 109.191 72.6747C109.13 72.7053 109.053 72.7513 108.992 72.7819C108.854 72.8586 108.701 72.9199 108.563 72.9965C108.517 73.0119 108.471 73.0425 108.425 73.0579C108.256 73.1345 108.072 73.2265 107.888 73.3031C107.873 73.3031 107.858 73.3184 107.842 73.3184C105.957 74.1155 103.949 74.606 102.064 74.698H102.048C101.834 74.7133 101.634 74.7133 101.42 74.7133C98.5075 74.7133 94.9973 73.6403 92.4989 71.6017C89.6478 69.2718 87.9924 65.7617 87.9924 62.4202C88.0231 62.3129 88.0231 62.2056 88.0231 62.0983Z" fill="#AFAFAF"/>
<path d="M88.023 62.1135C88.023 65.4551 89.6632 68.9652 92.5295 71.2951C95.028 73.3337 98.5381 74.4067 101.45 74.4067C107.704 74.4067 115.629 69.8695 115.629 63.6157C115.629 57.3772 109.59 50.4182 103.336 50.4182C100.331 50.4182 96.3768 51.3992 93.2806 53.3305C89.9391 55.4152 88.023 58.864 88.023 62.1135Z" fill="#FCFAF7"/>
<path d="M90.9507 55.2466C91.7018 54.5262 92.2229 54.051 92.9587 53.5452C92.5908 54.5568 92.4529 55.2466 92.4529 56.2736C92.4529 59.6151 93.0966 61.8683 95.9477 64.2135C98.4461 66.2521 101.956 67.3251 104.869 67.3251C109.544 67.3251 112.87 65.4551 115.414 61.5771C115.614 62.4201 115.798 64.2442 115.414 64.9799C114.51 66.6813 114.571 66.4207 112.885 67.693C110.095 69.8236 106.248 71.1111 102.953 71.1111C100.04 71.1111 96.5148 70.0382 94.0317 67.9995C91.1806 65.6697 89.5252 62.1595 89.5252 58.818C89.5252 57.0706 89.9544 56.8407 90.9507 55.2466Z" fill="#F7F6F2"/>
<path d="M89.5559 57.0249C90.0464 56.1358 89.9391 56.3504 90.6901 55.5227C90.3223 56.5344 89.9544 57.3161 89.9544 58.3431C89.9544 61.6846 91.5945 65.1947 94.4608 67.5246C96.9593 69.5632 100.469 70.6362 103.382 70.6362C108.057 70.6362 113.084 67.8925 115.629 63.9991C115.629 64.8115 115.215 66.2677 114.832 67.0188C113.927 68.7202 113.069 69.7318 111.398 71.0041C108.609 73.1347 104.761 74.4222 101.466 74.4222C98.5534 74.4222 95.0433 73.3493 92.5448 71.3106C89.6938 68.9808 88.0384 65.4706 88.0384 62.1291C88.023 60.397 88.5595 58.619 89.5559 57.0249Z" fill="#F0EFEB"/>
</svg>
