<svg width="301" height="301" viewBox="0 0 301 301" fill="none" xmlns="http://www.w3.org/2000/svg">
<path d="M296.876 125.287C299.397 141.383 302.423 159.707 298.893 174.994C294.456 194.33 285.076 222.677 273.881 238.267C252.096 268.537 218.108 290.607 171.009 298.098C122.699 305.691 84.2737 295.466 50.9915 264.791C26.6854 242.418 8.5315 212.857 3.08532 177.626C0.463092 160.821 -0.646314 142.598 2.07677 126.704C7.92637 92.7896 25.2734 65.4556 49.5795 42.8797C70.4565 23.6447 96.1745 7.04184 127.036 2.18247C166.773 -4.09423 202.072 7.7505 233.035 28.4028C267.326 51.3836 290.018 81.5523 296.876 125.287Z" fill="#E06F00"/>
<path d="M292.842 125.995C295.262 141.687 298.288 159.505 294.859 174.387C290.522 193.217 281.445 220.854 270.553 235.939C249.373 265.399 216.293 286.861 170.505 294.15C123.506 301.54 86.1899 291.619 53.8154 261.754C30.0136 239.887 12.4648 211.136 7.01867 176.918C4.49729 160.618 3.38789 142.801 6.01012 127.413C11.658 94.4094 28.6017 67.7841 52.3026 45.9169C72.5745 27.188 97.5865 11.0913 127.641 6.33321C166.37 0.25899 200.66 11.8 230.816 31.8449C264.098 54.0158 286.185 83.3746 292.842 125.995Z" fill="#F4810F"/>
<path d="M278.521 129.943C280.739 143.914 283.362 159.808 280.235 173.07C276.302 189.876 268.132 214.476 258.35 228.042C239.288 254.263 212.763 275.522 168.387 279.977C125.826 284.229 92.6446 277.851 63.5984 251.225C42.3179 231.788 26.5846 206.175 21.7435 175.601C19.4238 161.023 18.5161 145.23 20.9367 131.462C26.0803 102.002 41.2085 78.3126 62.5898 58.7739C80.8446 42.0698 103.335 27.6941 130.264 23.4422C165.059 17.9754 192.39 23.6446 219.419 41.5636C249.273 61.3048 272.57 91.9796 278.521 129.943Z" fill="#E06F00"/>
<path d="M273.78 130.754C275.898 144.218 278.42 159.505 275.495 172.261C271.662 188.357 263.796 212.148 254.416 225.106C236.061 250.416 210.443 270.866 167.782 275.118C126.834 279.268 94.8634 272.992 66.9266 247.48C46.453 228.751 31.2239 204.15 26.6854 174.69C24.4666 160.72 23.5589 145.433 25.8786 132.171C30.8205 103.824 45.4444 80.9449 65.918 62.2161C83.4668 46.1194 105.151 32.2499 131.07 28.0992C164.554 22.8349 190.877 28.3017 216.898 45.512C245.642 64.6458 268.032 94.207 273.78 130.754Z" fill="#B51212"/>
<path d="M269.04 131.563C271.057 144.522 273.478 159.201 270.654 171.552C267.023 187.041 259.459 209.921 250.382 222.474C232.732 246.771 208.124 266.512 167.076 270.663C127.641 274.611 96.8805 268.638 69.9522 244.038C50.2855 226.017 35.6615 202.328 31.2239 173.982C29.1059 160.517 28.1982 145.838 30.417 133.082C35.1572 105.849 49.2769 83.7794 68.9437 65.7592C85.8873 50.2699 106.663 36.9066 131.676 32.9584C163.848 27.8965 189.264 33.1609 214.276 49.7637C242.011 67.8852 263.594 96.3327 269.04 131.563Z" fill="#EBB4A8"/>
<path d="M187.7 224.1C188.4 224.3 191.8 226.1 192.2 224.4C192.6 222.7 188.4 222.9 187.9 223.2C187.8 223.6 187.7 224.1 187.7 224.1Z" fill="#41B619"/>
<path d="M135.7 247.2C135.8 251.1 128.9 256.9 127.6 256.3C126.4 255.6 134.2 250 135.7 247.2Z" fill="#41B619"/>
<path d="M191.6 224C194.7 223.8 197.7 228.8 197.1 229.2C196.5 229.6 193.9 225.5 191.6 224Z" fill="#41B619"/>
<path d="M146.209 169.705C149.209 170.605 152.209 179.005 150.409 179.305C149.709 179.505 147.909 171.805 146.209 169.705Z" fill="#41B619"/>
<path d="M71.7 204.644C74.7 205.544 77.7 213.944 75.9 214.244C75.2 214.444 73.4 206.744 71.7 204.644Z" fill="#41B619"/>
<path d="M82 78.3999C85 79.2999 88 87.6999 86.2 87.9999C85.5 88.1999 83.7 80.4999 82 78.3999Z" fill="#41B619"/>
<path d="M214.9 195.2C212.5 190.8 200.2 194.3 200.7 195.7C201.2 197.1 211.1 193.1 214.9 195.2Z" fill="#41B619"/>
<path d="M214.9 195.2C214 200.8 207.2 204 208.6 204.6C209.9 205.1 217.3 201.3 214.9 195.2Z" fill="#41B619"/>
<path d="M214.9 195.2C220.5 195.6 218 205.8 219.5 205.5C220.9 205.1 220.9 193 214.9 195.2Z" fill="#41B619"/>
<path d="M54.7 173.702C52.3 169.302 40 172.802 40.5 174.202C41.1 175.602 51 171.602 54.7 173.702Z" fill="#41B619"/>
<path d="M210.9 122.7C206.2 120.9 199.1 131.5 200.4 132.2C201.7 133 206.7 123.5 210.9 122.7Z" fill="#41B619"/>
<path d="M148.581 116.579C143.881 114.779 136.781 125.379 138.081 126.079C139.381 126.879 144.381 117.379 148.581 116.579Z" fill="#41B619"/>
<path d="M153.909 60.6495C149.209 58.8495 142.109 69.4495 143.409 70.1495C144.709 70.9495 149.709 61.4495 153.909 60.6495Z" fill="#41B619"/>
<path d="M177.62 40.757C177.152 35.7459 164.503 34.0756 164.452 35.5511C164.31 37.071 175.042 37.3458 177.62 40.757Z" fill="#41B619"/>
<path d="M124.2 51C123.3 56.6 116.5 59.8 117.9 60.4C119.3 60.9 126.6 57.1 124.2 51Z" fill="#41B619"/>
<path d="M199.2 151.5C204.8 151.9 202.3 162.1 203.8 161.8C205.3 161.4 205.3 149.3 199.2 151.5Z" fill="#41B619"/>
<path d="M254.3 142.045C259.9 142.445 257.4 152.645 258.9 152.345C260.3 152.045 260.3 139.945 254.3 142.045Z" fill="#41B619"/>
<path d="M224 225.3L222 226.8L221.4 224.9L222.6 223.3L224 225.3Z" fill="#422918"/>
<path d="M82 140.3L80 141.8L79.4 139.9L80.6 138.3L82 140.3Z" fill="#422918"/>
<path d="M57.3 121.5L55.3 123L54.7 121.1L55.9 119.5L57.3 121.5Z" fill="#422918"/>
<path d="M197.5 181.5L196.8 183.9L195.2 182.8L195.1 180.8L197.5 181.5Z" fill="#422918"/>
<path d="M127.08 135.9L126.38 138.3L124.78 137.2L124.68 135.2L127.08 135.9Z" fill="#422918"/>
<path d="M179.004 105.9L178.304 108.3L176.704 107.2L176.604 105.2L179.004 105.9Z" fill="#422918"/>
<path d="M226.4 75.9998L225.7 78.3998L224.1 77.2998L224 75.2998L226.4 75.9998Z" fill="#422918"/>
<path d="M216.3 150.5L213.9 150.1L214.9 148.4L216.8 148.1L216.3 150.5Z" fill="#422918"/>
<path d="M113.3 226.8L110.9 226.4L111.9 224.7L113.8 224.4L113.3 226.8Z" fill="#422918"/>
<path d="M238.3 119.5L235.9 119.1L236.9 117.4L238.8 117.1L238.3 119.5Z" fill="#422918"/>
<path d="M215.8 238.4L213.4 237.9L214.4 236.2L216.3 236L215.8 238.4Z" fill="#422918"/>
</svg>
