<svg width="301" height="301" viewBox="0 0 301 301" fill="none" xmlns="http://www.w3.org/2000/svg">
<path d="M296.376 125.287C298.897 141.383 301.923 159.707 298.393 174.994C293.956 194.33 284.576 222.677 273.381 238.267C251.596 268.537 217.608 290.607 170.509 298.098C122.199 305.691 83.7737 295.466 50.4915 264.791C26.1854 242.418 8.0315 212.857 2.58532 177.626C-0.0369085 160.821 -1.14631 142.598 1.57677 126.704C7.42637 92.7896 24.7734 65.4556 49.0795 42.8797C69.9565 23.6447 95.6745 7.04184 126.536 2.18247C166.273 -4.09423 201.572 7.7505 232.535 28.4028C266.826 51.3836 289.518 81.5523 296.376 125.287Z" fill="#E06F00"/>
<path d="M292.342 125.995C294.762 141.687 297.788 159.505 294.359 174.387C290.022 193.217 280.945 220.854 270.053 235.939C248.873 265.399 215.793 286.861 170.005 294.15C123.006 301.54 85.6899 291.619 53.3154 261.754C29.5136 239.887 11.9649 211.136 6.51868 176.918C3.99731 160.618 2.8879 142.801 5.51013 127.413C11.158 94.4094 28.1017 67.7841 51.8026 45.9169C72.0745 27.188 97.0865 11.0913 127.141 6.33321C165.87 0.25899 200.16 11.8 230.316 31.8449C263.598 54.0158 285.685 83.3746 292.342 125.995Z" fill="#F4810F"/>
<path d="M278.021 129.943C280.239 143.914 282.862 159.808 279.735 173.07C275.802 189.876 267.632 214.476 257.85 228.042C238.788 254.263 212.263 275.522 167.887 279.977C125.326 284.229 92.1446 277.851 63.0984 251.225C41.818 231.788 26.0846 206.175 21.2435 175.601C18.9239 161.023 18.0162 145.23 20.4367 131.462C25.5803 102.002 40.7085 78.3126 62.0898 58.7739C80.3446 42.0698 102.835 27.6941 129.764 23.4422C164.559 17.9754 191.89 23.6446 218.919 41.5636C248.773 61.3048 272.07 91.9796 278.021 129.943Z" fill="#E06F00"/>
<path d="M273.28 130.754C275.398 144.218 277.92 159.505 274.995 172.261C271.162 188.357 263.296 212.148 253.916 225.106C235.561 250.416 209.943 270.866 167.282 275.118C126.334 279.268 94.3634 272.992 66.4266 247.48C45.953 228.751 30.7239 204.15 26.1854 174.69C23.9666 160.72 23.0589 145.433 25.3786 132.171C30.3205 103.824 44.9445 80.9449 65.418 62.2161C82.9668 46.1194 104.651 32.2499 130.57 28.0992C164.054 22.8349 190.377 28.3017 216.398 45.512C245.142 64.6458 267.532 94.207 273.28 130.754Z" fill="#B51212"/>
<path d="M268.54 131.563C270.557 144.522 272.978 159.201 270.154 171.552C266.523 187.041 258.959 209.921 249.882 222.474C232.232 246.771 207.624 266.512 166.576 270.663C127.141 274.611 96.3806 268.638 69.4523 244.038C49.7855 226.017 35.1615 202.328 30.7239 173.982C28.6059 160.517 27.6983 145.838 29.9171 133.082C34.6573 105.849 48.777 83.7794 68.4437 65.7592C85.3874 50.2699 106.164 36.9066 131.176 32.9584C163.348 27.8965 188.764 33.1609 213.776 49.7637C241.511 67.8852 263.094 96.3327 268.54 131.563Z" fill="#FFE9B0"/>
<path d="M186.7 224.1C187.4 224.3 190.8 226.1 191.2 224.4C191.6 222.7 187.4 222.9 186.9 223.2C186.8 223.6 186.7 224.1 186.7 224.1Z" fill="#41B619"/>
<path d="M134.7 247.2C134.8 251.1 127.9 256.9 126.6 256.3C125.4 255.6 133.2 250 134.7 247.2Z" fill="#41B619"/>
<path d="M190.6 224C193.7 223.8 196.7 228.8 196.1 229.2C195.5 229.6 192.9 225.5 190.6 224Z" fill="#41B619"/>
<path d="M145.209 169.705C148.209 170.605 151.209 179.005 149.409 179.305C148.709 179.505 146.909 171.805 145.209 169.705Z" fill="#41B619"/>
<path d="M70.7 204.644C73.7 205.544 76.7 213.944 74.9 214.244C74.2 214.444 72.4 206.744 70.7 204.644Z" fill="#41B619"/>
<path d="M81 78.3999C84 79.2999 87 87.6999 85.2 87.9999C84.5 88.1999 82.7 80.4999 81 78.3999Z" fill="#41B619"/>
<path d="M213.9 195.2C211.5 190.8 199.2 194.3 199.7 195.7C200.2 197.1 210.1 193.1 213.9 195.2Z" fill="#41B619"/>
<path d="M213.9 195.2C213 200.8 206.2 204 207.6 204.6C208.9 205.1 216.3 201.3 213.9 195.2Z" fill="#41B619"/>
<path d="M213.9 195.2C219.5 195.6 217 205.8 218.5 205.5C219.9 205.1 219.9 193 213.9 195.2Z" fill="#41B619"/>
<path d="M53.7 173.702C51.3 169.302 39 172.802 39.5 174.202C40.1 175.602 50 171.602 53.7 173.702Z" fill="#41B619"/>
<path d="M209.9 122.7C205.2 120.9 198.1 131.5 199.4 132.2C200.7 133 205.7 123.5 209.9 122.7Z" fill="#41B619"/>
<path d="M147.581 116.579C142.881 114.779 135.781 125.379 137.081 126.079C138.381 126.879 143.381 117.379 147.581 116.579Z" fill="#41B619"/>
<path d="M152.909 60.6495C148.209 58.8495 141.109 69.4495 142.409 70.1495C143.709 70.9495 148.709 61.4495 152.909 60.6495Z" fill="#41B619"/>
<path d="M176.62 40.757C176.152 35.7459 163.503 34.0756 163.452 35.5511C163.31 37.071 174.042 37.3458 176.62 40.757Z" fill="#41B619"/>
<path d="M123.2 51C122.3 56.6 115.5 59.8 116.9 60.4C118.3 60.9 125.6 57.1 123.2 51Z" fill="#41B619"/>
<path d="M198.2 151.5C203.8 151.9 201.3 162.1 202.8 161.8C204.3 161.4 204.3 149.3 198.2 151.5Z" fill="#41B619"/>
<path d="M253.3 142.045C258.9 142.445 256.4 152.645 257.9 152.345C259.3 152.045 259.3 139.945 253.3 142.045Z" fill="#41B619"/>
<path d="M223 225.3L221 226.8L220.4 224.9L221.6 223.3L223 225.3Z" fill="#422918"/>
<path d="M81 140.3L79 141.8L78.4 139.9L79.6 138.3L81 140.3Z" fill="#422918"/>
<path d="M56.3 121.5L54.3 123L53.7 121.1L54.9 119.5L56.3 121.5Z" fill="#422918"/>
<path d="M196.5 181.5L195.8 183.9L194.2 182.8L194.1 180.8L196.5 181.5Z" fill="#422918"/>
<path d="M126.08 135.9L125.38 138.3L123.78 137.2L123.68 135.2L126.08 135.9Z" fill="#422918"/>
<path d="M178.004 105.9L177.304 108.3L175.704 107.2L175.604 105.2L178.004 105.9Z" fill="#422918"/>
<path d="M225.4 75.9998L224.7 78.3998L223.1 77.2998L223 75.2998L225.4 75.9998Z" fill="#422918"/>
<path d="M215.3 150.5L212.9 150.1L213.9 148.4L215.8 148.1L215.3 150.5Z" fill="#422918"/>
<path d="M112.3 226.8L109.9 226.4L110.9 224.7L112.8 224.4L112.3 226.8Z" fill="#422918"/>
<path d="M237.3 119.5L234.9 119.1L235.9 117.4L237.8 117.1L237.3 119.5Z" fill="#422918"/>
<path d="M214.8 238.4L212.4 237.9L213.4 236.2L215.3 236L214.8 238.4Z" fill="#422918"/>
</svg>
