<svg width="39" height="60" viewBox="0 0 39 60" fill="none" xmlns="http://www.w3.org/2000/svg">
<rect width="39" height="60" fill="white"/>
<path d="M10.4149 39.7321C11.1829 42.0628 11.1829 44.571 10.4149 46.9017C10.0308 48.056 9.84431 49.2657 9.84431 50.4866V52.6064C9.84431 54.3378 11.2378 55.7473 12.9495 55.7473C13.7724 55.7473 14.5624 55.4143 15.144 54.8261L15.9889 53.9715L16.5046 54.4931C18.1614 56.169 20.8387 56.169 22.4955 54.4931L23.0112 53.9715L23.8561 54.8261C25.0631 56.0469 27.0381 56.0469 28.2451 54.8261C28.8266 54.2379 29.1558 53.4388 29.1558 52.6064V50.4866C29.1558 49.2657 28.9583 48.056 28.5852 46.9017C27.8171 44.571 27.8171 42.0628 28.5852 39.7321C28.9583 38.6 29.1448 37.4125 29.1558 36.2138C29.1558 36.1916 29.1558 36.1694 29.1558 36.1472V23.7835C29.1558 21.5083 28.267 19.333 26.676 17.7237L25.5019 16.5361C24.1304 15.1488 23.2636 13.3175 23.0661 11.3642C23.0332 11.0645 23.0222 10.776 23.0222 10.4763V8.68945H15.9998V10.4652C15.9998 10.7649 15.9889 11.0534 15.9559 11.3531C15.7584 13.3064 14.8916 15.1377 13.5201 16.525L12.346 17.7126C10.755 19.3219 9.86625 21.4972 9.86625 23.7724V36.1361C9.86625 36.1583 9.86625 36.1805 9.86625 36.2027C9.86625 36.791 9.92112 37.3792 10.0089 37.9563C10.0857 38.5667 10.2283 39.1549 10.4149 39.7321Z" fill="#EBEBE9"/>
<path d="M10.4149 39.732C11.1829 42.0627 11.1829 44.571 10.4149 46.9017C10.0308 48.0559 9.84431 49.2657 9.84431 50.4865V52.6063C9.84431 54.3377 11.2378 55.7472 12.9495 55.7472C13.7724 55.7472 14.5624 55.4143 15.144 54.826L15.9889 53.9715L16.5046 54.4931C18.1614 56.169 20.8387 56.169 22.4955 54.4931L23.0112 53.9715L23.8561 54.826C25.0631 56.0469 27.0381 56.0469 28.2451 54.826C28.8266 54.2378 29.1558 53.4387 29.1558 52.6063V50.4865C29.1558 49.2657 28.9583 48.0559 28.5852 46.9017C27.8171 44.571 27.8171 42.0627 28.5852 39.732C28.9583 38.6 29.1448 37.4124 29.1558 36.2138V23.7834C29.1558 21.5082 28.267 19.3329 26.676 17.7236L25.5019 16.5361C24.7887 15.8147 24.1962 14.9601 23.7793 14.0278H15.2208C14.8038 14.9601 14.2223 15.8147 13.4981 16.5361L12.3241 17.7236C10.9745 19.0888 10.1186 20.8756 9.89917 22.7957C9.85528 23.1286 9.84431 23.4616 9.84431 23.7945V36.2249C9.84431 36.8131 9.89917 37.4013 9.98695 37.9785C10.0857 38.5667 10.2283 39.1549 10.4149 39.732Z" fill="#38241D"/>
<path d="M10.4149 39.7319C11.1829 42.0626 11.1829 44.5709 10.4149 46.9016C10.0308 48.0558 9.84431 49.2655 9.84431 50.4864V52.6062C9.84431 54.3376 11.2378 55.7471 12.9495 55.7471C13.7724 55.7471 14.5624 55.4141 15.144 54.8259L15.9889 53.9713L16.5046 54.493C18.1614 56.1688 20.8387 56.1688 22.4955 54.493L23.0112 53.9713L23.8561 54.8259C25.0631 56.0468 27.0381 56.0468 28.2451 54.8259C28.8266 54.2377 29.1558 53.4386 29.1558 52.6062V50.4864C29.1558 49.2655 28.9583 48.0558 28.5852 46.9016C28.0475 45.259 27.883 43.5165 28.1134 41.7962C21.1788 37.6898 14.8587 31.5634 9.91014 22.7844C9.86625 23.1174 9.85528 23.4503 9.85528 23.7833V36.2137C9.85528 36.8019 9.91014 37.3901 9.99792 37.9672C10.0857 38.5665 10.2283 39.1548 10.4149 39.7319Z" fill="#231511"/>
<path d="M29.1558 23.7834H9.84431V36.2138H29.1558V23.7834Z" fill="#F41308"/>
<path d="M9.8441 23.7834V36.2138H20.5203C16.8226 32.8731 13.4211 28.7778 10.4805 23.7834H9.8441Z" fill="#D80909"/>
<path d="M15.9451 11.3531H23.0552C23.0223 11.0534 23.0113 10.7649 23.0113 10.4652V8.68945H15.9889V10.4652C15.9889 10.7649 15.978 11.0534 15.9451 11.3531Z" fill="#E0E0DE"/>
<path d="M22.1334 4.25H16.8667C16.3839 4.25 15.9889 4.64955 15.9889 5.13788V8.68941H23.0112V5.13788C23.0112 4.64955 22.6162 4.25 22.1334 4.25Z" fill="#F41308"/>
<path d="M23.8889 7.80151H15.111V9.57728H23.8889V7.80151Z" fill="#EBEBE9"/>
</svg>
