<svg width="36" height="36" viewBox="0 0 36 36" fill="none" xmlns="http://www.w3.org/2000/svg">
<mask id="mask0" mask-type="alpha" maskUnits="userSpaceOnUse" x="0" y="0" width="36" height="36">
<circle cx="18" cy="18" r="18" fill="#C4C4C4"/>
</mask>
<g mask="url(#mask0)">
<path d="M148.886 67.7922C150.357 77.182 152.122 87.8709 150.063 96.7882C147.474 108.068 142.003 124.603 135.472 133.698C122.765 151.355 102.938 164.229 75.4636 168.599C47.283 173.028 24.868 167.064 5.45336 149.17C-8.72518 136.119 -19.315 118.875 -22.4919 98.3236C-24.0215 88.5205 -24.6687 77.8906 -23.0802 68.619C-19.668 48.8356 -9.54883 32.8908 4.62971 19.7215C16.808 8.50108 31.8102 -1.18392 49.8128 -4.01856C72.9926 -7.67997 93.5839 -0.770541 111.645 11.2767C131.648 24.6821 144.885 42.2805 148.886 67.7922Z" fill="#E06F00"/>
<path d="M146.533 68.2056C147.945 77.3591 149.71 87.7527 147.709 96.4338C145.18 107.418 139.885 123.54 133.531 132.339C121.176 149.524 101.879 162.044 75.1694 166.296C47.7537 170.607 25.9858 164.819 7.10066 147.398C-6.78372 134.642 -17.0205 117.871 -20.1974 97.9102C-21.6683 88.4023 -22.3154 78.0087 -20.7858 69.0323C-17.4912 49.7804 -7.60737 34.249 6.21818 21.4931C18.0434 10.568 32.6338 1.17823 50.1658 -1.59736C72.7573 -5.14065 92.7602 1.59161 110.351 13.2845C129.766 26.2175 142.65 43.3434 146.533 68.2056Z" fill="#F4810F"/>
<path d="M138.179 70.5087C139.473 78.6583 141.003 87.9299 139.179 95.6661C136.884 105.469 132.119 119.82 126.412 127.733C115.293 143.028 99.8201 155.43 73.934 158.028C49.1068 160.508 29.751 156.788 12.8074 141.257C0.393796 129.918 -8.78401 114.977 -11.608 97.1425C-12.9611 88.6386 -13.4906 79.426 -12.0786 71.3945C-9.07817 54.2096 -0.253358 40.3907 12.2191 28.9931C22.8677 19.2491 35.9872 10.8633 51.6954 8.38295C71.9925 5.19398 87.936 8.50106 103.703 18.9538C121.117 30.4695 134.708 48.3631 138.179 70.5087Z" fill="#E06F00"/>
<path d="M135.414 70.9811C136.649 78.8354 138.12 87.7527 136.414 95.1936C134.178 104.583 129.589 118.461 124.118 126.02C113.41 140.784 98.467 152.713 73.581 155.193C49.6952 157.615 31.0454 153.953 14.7489 139.071C2.80596 128.146 -6.07769 113.796 -8.72514 96.611C-10.0194 88.4614 -10.5489 79.5441 -9.1958 71.8079C-6.31302 55.2725 2.21764 41.9261 14.1606 31.0009C24.3973 21.6112 37.0463 13.5207 52.1661 11.0994C71.6984 8.02857 87.0536 11.2175 102.232 21.2569C118.999 32.4183 132.06 49.6623 135.414 70.9811Z" fill="#B51212"/>
<path d="M132.648 71.4537C133.825 79.0127 135.237 87.5757 133.59 94.7804C131.472 103.816 127.059 117.162 121.764 124.485C111.469 138.658 97.1138 150.174 73.1691 152.595C50.1657 154.898 32.2219 151.414 16.5137 137.064C5.04147 126.552 -3.48919 112.733 -6.0778 96.1977C-7.31327 88.3434 -7.84276 79.7804 -6.54846 72.3395C-3.78335 56.4537 4.45315 43.5798 15.9254 33.068C25.8092 24.0326 37.9286 16.2373 52.519 13.9342C71.2865 10.9815 86.1122 14.0523 100.703 23.7373C116.881 34.3082 129.471 50.9026 132.648 71.4537Z" fill="#FFE9B0"/>
</g>
</svg>
