<svg width="36" height="36" viewBox="0 0 36 36" fill="none" xmlns="http://www.w3.org/2000/svg">
<mask id="mask0" mask-type="alpha" maskUnits="userSpaceOnUse" x="0" y="0" width="36" height="36">
<circle cx="18" cy="18" r="18" fill="#C4C4C4"/>
</mask>
<g mask="url(#mask0)">
<path d="M111.723 59.9052C112.843 67.0593 114.188 75.2032 112.619 81.9974C110.647 90.5913 106.478 103.19 101.503 110.119C91.8207 123.572 76.7148 133.381 55.7818 136.71C34.3109 140.085 17.2327 135.54 2.44066 121.907C-8.36204 111.964 -16.4304 98.8252 -18.851 83.1672C-20.0164 75.6982 -20.5095 67.5992 -19.2992 60.5351C-16.6994 45.4621 -8.98958 33.3136 1.81311 23.2799C11.0918 14.731 22.522 7.35194 36.2383 5.19222C53.8991 2.40258 69.5877 7.6669 83.3488 16.8457C98.5892 27.0594 108.675 40.4677 111.723 59.9052Z" fill="#E06F00"/>
<path d="M109.93 60.2202C111.006 67.1943 112.35 75.1133 110.826 81.7274C108.899 90.0963 104.865 102.38 100.024 109.084C90.6104 122.177 75.908 131.716 55.5577 134.956C34.6695 138.24 18.0844 133.831 3.69575 120.557C-6.88283 110.839 -14.6823 98.0603 -17.1028 82.8523C-18.2234 75.6082 -18.7165 67.6892 -17.5511 60.8501C-15.0409 46.182 -7.51037 34.3485 3.02338 24.6297C12.0331 16.3058 23.1496 9.15172 36.5073 7.037C53.7199 4.33734 68.9602 9.46668 82.3627 18.3755C97.1548 28.2293 106.971 41.2776 109.93 60.2202Z" fill="#F4810F"/>
<path d="M103.565 61.975C104.551 68.1842 105.716 75.2483 104.327 81.1425C102.579 88.6115 98.9478 99.5451 94.5998 105.574C86.128 117.228 74.3391 126.677 54.6164 128.656C35.7005 130.546 20.9532 127.712 8.04375 115.878C-1.41422 107.239 -8.40683 95.8556 -10.5584 82.2674C-11.5894 75.7882 -11.9928 68.7691 -10.917 62.6499C-8.63096 49.5566 -1.90729 39.0279 7.5955 30.344C15.7087 22.92 25.7046 16.5308 37.6727 14.641C53.1372 12.2114 65.2846 14.731 77.2976 22.695C90.5656 31.4689 100.92 45.1021 103.565 61.975Z" fill="#E06F00"/>
<path d="M107.155 61.2298C108.193 67.8423 109.43 75.3497 107.996 81.6142C106.116 89.5194 102.259 101.203 97.6597 107.567C88.659 119.997 76.0977 130.04 55.1785 132.128C35.1001 134.166 19.4231 131.084 5.72429 118.555C-4.31492 109.357 -11.7825 97.2754 -14.008 82.8075C-15.0959 75.9464 -15.541 68.4389 -14.4036 61.9259C-11.9803 48.0048 -4.80946 36.7685 5.22975 27.5707C13.8348 19.6655 24.4674 12.8541 37.1772 10.8157C53.596 8.23036 66.5035 10.9151 79.2627 19.3672C93.3572 28.7639 104.336 43.2816 107.155 61.2298Z" fill="#B51212"/>
<path d="M104.981 61.7746C105.972 68.1219 107.16 75.3122 105.774 81.3619C103.991 88.9489 100.276 100.156 95.819 106.305C87.152 118.206 75.0676 127.876 54.9105 129.909C35.5458 131.843 20.4404 128.917 7.21694 116.867C-2.44064 108.04 -9.62192 96.4367 -11.8011 82.552C-12.8411 75.9568 -13.2868 68.7665 -12.1973 62.5184C-9.86955 49.1792 -2.9359 38.3689 6.72168 29.5422C15.0421 21.9552 25.2444 15.4096 37.5269 13.4757C53.3257 10.9963 65.8063 13.5748 78.0887 21.7073C91.7084 30.5836 102.307 44.5179 104.981 61.7746Z" fill="#FFE9B0"/>
<path d="M34.7718 26.8889C34.3718 29.3778 31.3496 30.8 31.9718 31.0667C32.594 31.2889 35.8384 29.6 34.7718 26.8889Z" fill="#41B619"/>
</g>
</svg>
